G04 EAGLE Gerber RS-274X export*
G75*
%MOMM*%
%FSLAX34Y34*%
%LPD*%
%INTop Copper*%
%IPPOS*%
%AMOC8*
5,1,8,0,0,1.08239X$1,22.5*%
G01*
G04 Define Apertures*
%ADD10R,1.700000X1.700000*%
%ADD11C,1.700000*%
%ADD12C,1.346200*%
%ADD13C,0.203200*%
%ADD14C,0.508000*%
%ADD15C,0.406400*%
%ADD16C,0.550000*%
G36*
X80149Y-33D02*
X80000Y-48D01*
X-80000Y-48D01*
X-80149Y-33D01*
X-86071Y1145D01*
X-86346Y1258D01*
X-91367Y4613D01*
X-91577Y4823D01*
X-94932Y9844D01*
X-95045Y10119D01*
X-96223Y16041D01*
X-96238Y16190D01*
X-96238Y75994D01*
X-96235Y76060D01*
X-95899Y79927D01*
X-97738Y87874D01*
X-101942Y94863D01*
X-108101Y100211D01*
X-115611Y103395D01*
X-118032Y103605D01*
X-118252Y103658D01*
X-118409Y103762D01*
X-119804Y103762D01*
X-119870Y103765D01*
X-120257Y103799D01*
X-120324Y103807D01*
X-128846Y105310D01*
X-129094Y105401D01*
X-136757Y109824D01*
X-136959Y109994D01*
X-142647Y116772D01*
X-142779Y117001D01*
X-145805Y125316D01*
X-145851Y125576D01*
X-145851Y134424D01*
X-145805Y134685D01*
X-142779Y142999D01*
X-142647Y143228D01*
X-136959Y150006D01*
X-136757Y150176D01*
X-129094Y154600D01*
X-128846Y154690D01*
X-120132Y156226D01*
X-120000Y156238D01*
X-116237Y156238D01*
X-109078Y158564D01*
X-102988Y162988D01*
X-98564Y169078D01*
X-96238Y176237D01*
X-96238Y186700D01*
X-96223Y186849D01*
X-95118Y192404D01*
X-95005Y192678D01*
X-91858Y197388D01*
X-91648Y197598D01*
X-86938Y200745D01*
X-86664Y200858D01*
X-81109Y201963D01*
X-80960Y201978D01*
X79040Y201978D01*
X79189Y201963D01*
X85478Y200712D01*
X85753Y200598D01*
X91085Y197036D01*
X91296Y196825D01*
X94858Y191493D01*
X94972Y191218D01*
X96223Y184929D01*
X96238Y184780D01*
X96238Y176237D01*
X98564Y169078D01*
X102988Y162988D01*
X109078Y158564D01*
X116237Y156238D01*
X120000Y156238D01*
X120132Y156226D01*
X128846Y154690D01*
X129094Y154600D01*
X136757Y150176D01*
X136959Y150006D01*
X142647Y143228D01*
X142779Y142999D01*
X145805Y134685D01*
X145851Y134424D01*
X145851Y125576D01*
X145805Y125316D01*
X142779Y117001D01*
X142647Y116772D01*
X136959Y109994D01*
X136757Y109824D01*
X129094Y105401D01*
X128846Y105310D01*
X120324Y103807D01*
X120257Y103799D01*
X119870Y103765D01*
X119804Y103762D01*
X118419Y103762D01*
X118323Y103691D01*
X118032Y103605D01*
X115611Y103395D01*
X108101Y100211D01*
X101942Y94863D01*
X97738Y87874D01*
X95899Y79927D01*
X96235Y76060D01*
X96238Y75994D01*
X96238Y16190D01*
X96223Y16041D01*
X95045Y10119D01*
X94932Y9844D01*
X91577Y4823D01*
X91367Y4613D01*
X86346Y1258D01*
X86071Y1145D01*
X80149Y-33D01*
G37*
%LPC*%
G36*
X18358Y89245D02*
X21642Y89245D01*
X24676Y90502D01*
X26998Y92824D01*
X27177Y93256D01*
X27334Y93494D01*
X27584Y93666D01*
X27881Y93726D01*
X34703Y93726D01*
X48514Y107537D01*
X48514Y156751D01*
X48570Y157037D01*
X48737Y157290D01*
X64960Y173513D01*
X65202Y173676D01*
X65499Y173736D01*
X66524Y173736D01*
X66805Y173683D01*
X67059Y173517D01*
X67228Y173266D01*
X67702Y172122D01*
X70522Y169302D01*
X74206Y167776D01*
X78194Y167776D01*
X81878Y169302D01*
X84698Y172122D01*
X86224Y175806D01*
X86224Y179794D01*
X84698Y183478D01*
X81878Y186298D01*
X78194Y187824D01*
X74206Y187824D01*
X70522Y186298D01*
X67702Y183478D01*
X67228Y182334D01*
X67072Y182096D01*
X66822Y181924D01*
X66524Y181864D01*
X61817Y181864D01*
X40386Y160433D01*
X40386Y111219D01*
X40330Y110933D01*
X40163Y110680D01*
X31560Y102077D01*
X31318Y101914D01*
X31021Y101854D01*
X27636Y101854D01*
X27350Y101910D01*
X27097Y102077D01*
X24676Y104498D01*
X21642Y105755D01*
X18358Y105755D01*
X15324Y104498D01*
X13002Y102176D01*
X11745Y99142D01*
X11745Y95858D01*
X13002Y92824D01*
X15324Y90502D01*
X18358Y89245D01*
G37*
G36*
X-21642Y151745D02*
X-18358Y151745D01*
X-15324Y153002D01*
X-13002Y155324D01*
X-11745Y158358D01*
X-11745Y161642D01*
X-13002Y164676D01*
X-15324Y166998D01*
X-18358Y168255D01*
X-21642Y168255D01*
X-23308Y167565D01*
X-23587Y167507D01*
X-23885Y167563D01*
X-24138Y167730D01*
X-36748Y180340D01*
X-65414Y180340D01*
X-65689Y180391D01*
X-65944Y180555D01*
X-66116Y180805D01*
X-66176Y181102D01*
X-66176Y186931D01*
X-67069Y187824D01*
X-85331Y187824D01*
X-86224Y186931D01*
X-86224Y168669D01*
X-85331Y167776D01*
X-67069Y167776D01*
X-66176Y168669D01*
X-66176Y174498D01*
X-66125Y174773D01*
X-65961Y175028D01*
X-65711Y175200D01*
X-65414Y175260D01*
X-39168Y175260D01*
X-38882Y175204D01*
X-38629Y175037D01*
X-27730Y164138D01*
X-27570Y163902D01*
X-27507Y163605D01*
X-27565Y163308D01*
X-28255Y161642D01*
X-28255Y158358D01*
X-26998Y155324D01*
X-24676Y153002D01*
X-21642Y151745D01*
G37*
G36*
X18358Y151745D02*
X21642Y151745D01*
X24676Y153002D01*
X26998Y155324D01*
X28255Y158358D01*
X28255Y161642D01*
X26998Y164676D01*
X24676Y166998D01*
X21642Y168255D01*
X18358Y168255D01*
X15324Y166998D01*
X13002Y164676D01*
X11745Y161642D01*
X11745Y158358D01*
X13002Y155324D01*
X15324Y153002D01*
X18358Y151745D01*
G37*
G36*
X-1642Y151745D02*
X1642Y151745D01*
X4676Y153002D01*
X6998Y155324D01*
X8255Y158358D01*
X8255Y161642D01*
X6998Y164676D01*
X4676Y166998D01*
X1642Y168255D01*
X-1642Y168255D01*
X-4676Y166998D01*
X-6998Y164676D01*
X-8255Y161642D01*
X-8255Y158358D01*
X-6998Y155324D01*
X-4676Y153002D01*
X-1642Y151745D01*
G37*
G36*
X65700Y153924D02*
X74676Y153924D01*
X74676Y162900D01*
X74111Y162900D01*
X70252Y161301D01*
X67299Y158348D01*
X65700Y154489D01*
X65700Y153924D01*
G37*
G36*
X77724Y153924D02*
X86700Y153924D01*
X86700Y154489D01*
X85101Y158348D01*
X82148Y161301D01*
X78289Y162900D01*
X77724Y162900D01*
X77724Y153924D01*
G37*
G36*
X74206Y40776D02*
X78194Y40776D01*
X81878Y42302D01*
X84698Y45122D01*
X86224Y48806D01*
X86224Y52794D01*
X84698Y56478D01*
X81878Y59298D01*
X78194Y60824D01*
X74206Y60824D01*
X70522Y59298D01*
X67702Y56478D01*
X66597Y53810D01*
X66440Y53572D01*
X66190Y53400D01*
X65893Y53340D01*
X-11332Y53340D01*
X-11618Y53396D01*
X-11871Y53563D01*
X-30003Y71695D01*
X-30166Y71937D01*
X-30226Y72234D01*
X-30226Y103366D01*
X-30170Y103652D01*
X-30003Y103905D01*
X-24138Y109770D01*
X-23902Y109930D01*
X-23605Y109993D01*
X-23308Y109935D01*
X-21642Y109245D01*
X-18358Y109245D01*
X-15324Y110502D01*
X-13002Y112824D01*
X-11745Y115858D01*
X-11745Y119142D01*
X-13002Y122176D01*
X-15174Y124348D01*
X-15327Y124568D01*
X-15397Y124863D01*
X-15346Y125162D01*
X-15182Y125417D01*
X-14932Y125589D01*
X-14635Y125649D01*
X-7488Y125649D01*
X-1615Y131522D01*
X-1373Y131685D01*
X-1076Y131745D01*
X1642Y131745D01*
X4676Y133002D01*
X6998Y135324D01*
X8255Y138358D01*
X8255Y141642D01*
X6998Y144676D01*
X4676Y146998D01*
X1642Y148255D01*
X-1642Y148255D01*
X-4676Y146998D01*
X-6998Y144676D01*
X-8255Y141642D01*
X-8255Y138358D01*
X-6998Y135324D01*
X-6536Y134862D01*
X-6378Y134632D01*
X-6313Y134335D01*
X-6369Y134037D01*
X-6536Y133784D01*
X-9369Y130952D01*
X-9610Y130789D01*
X-9908Y130729D01*
X-16980Y130729D01*
X-17238Y130774D01*
X-17497Y130931D01*
X-17674Y131177D01*
X-17742Y131473D01*
X-17689Y131771D01*
X-17523Y132026D01*
X-17272Y132195D01*
X-15324Y133002D01*
X-13002Y135324D01*
X-11745Y138358D01*
X-11745Y141642D01*
X-13002Y144676D01*
X-15324Y146998D01*
X-18358Y148255D01*
X-21642Y148255D01*
X-23308Y147565D01*
X-23587Y147507D01*
X-23885Y147563D01*
X-24138Y147730D01*
X-31348Y154940D01*
X-65893Y154940D01*
X-66173Y154993D01*
X-66428Y155159D01*
X-66597Y155410D01*
X-67702Y158078D01*
X-70522Y160898D01*
X-74206Y162424D01*
X-78194Y162424D01*
X-81878Y160898D01*
X-84698Y158078D01*
X-86224Y154394D01*
X-86224Y150406D01*
X-84698Y146722D01*
X-81878Y143902D01*
X-78194Y142376D01*
X-74206Y142376D01*
X-70522Y143902D01*
X-67702Y146722D01*
X-66597Y149390D01*
X-66440Y149628D01*
X-66190Y149800D01*
X-65893Y149860D01*
X-33768Y149860D01*
X-33482Y149804D01*
X-33229Y149637D01*
X-27730Y144138D01*
X-27570Y143902D01*
X-27507Y143605D01*
X-27565Y143308D01*
X-28255Y141642D01*
X-28255Y138358D01*
X-26998Y135324D01*
X-24676Y133002D01*
X-22728Y132195D01*
X-22508Y132055D01*
X-22328Y131810D01*
X-22258Y131515D01*
X-22309Y131216D01*
X-22473Y130961D01*
X-22723Y130789D01*
X-23020Y130729D01*
X-50663Y130729D01*
X-70708Y110684D01*
X-70944Y110524D01*
X-71241Y110461D01*
X-71538Y110519D01*
X-74206Y111624D01*
X-78194Y111624D01*
X-81878Y110098D01*
X-84698Y107278D01*
X-86224Y103594D01*
X-86224Y99606D01*
X-84698Y95922D01*
X-81878Y93102D01*
X-78194Y91576D01*
X-74206Y91576D01*
X-70522Y93102D01*
X-67702Y95922D01*
X-66176Y99606D01*
X-66176Y103594D01*
X-67281Y106262D01*
X-67339Y106541D01*
X-67283Y106839D01*
X-67116Y107092D01*
X-48782Y125426D01*
X-48541Y125589D01*
X-48243Y125649D01*
X-25365Y125649D01*
X-25102Y125602D01*
X-24844Y125443D01*
X-24668Y125195D01*
X-24603Y124899D01*
X-24659Y124601D01*
X-24826Y124348D01*
X-26998Y122176D01*
X-28255Y119142D01*
X-28255Y115858D01*
X-27565Y114192D01*
X-27507Y113913D01*
X-27563Y113615D01*
X-27730Y113362D01*
X-35306Y105786D01*
X-35306Y69814D01*
X-13752Y48260D01*
X65893Y48260D01*
X66173Y48207D01*
X66428Y48041D01*
X66597Y47790D01*
X67702Y45122D01*
X70522Y42302D01*
X74206Y40776D01*
G37*
G36*
X74111Y141900D02*
X74676Y141900D01*
X74676Y150876D01*
X65700Y150876D01*
X65700Y150311D01*
X67299Y146452D01*
X70252Y143499D01*
X74111Y141900D01*
G37*
G36*
X77724Y141900D02*
X78289Y141900D01*
X82148Y143499D01*
X85101Y146452D01*
X86700Y150311D01*
X86700Y150876D01*
X77724Y150876D01*
X77724Y141900D01*
G37*
G36*
X-123829Y110750D02*
X-116171Y110750D01*
X-109096Y113681D01*
X-103681Y119096D01*
X-100750Y126171D01*
X-100750Y133829D01*
X-103681Y140904D01*
X-109096Y146319D01*
X-116171Y149250D01*
X-123829Y149250D01*
X-130904Y146319D01*
X-136319Y140904D01*
X-139250Y133829D01*
X-139250Y126171D01*
X-136319Y119096D01*
X-130904Y113681D01*
X-123829Y110750D01*
G37*
G36*
X116171Y110750D02*
X123829Y110750D01*
X130904Y113681D01*
X136319Y119096D01*
X139250Y126171D01*
X139250Y133829D01*
X136319Y140904D01*
X130904Y146319D01*
X123829Y149250D01*
X116171Y149250D01*
X109096Y146319D01*
X103681Y140904D01*
X100750Y133829D01*
X100750Y126171D01*
X103681Y119096D01*
X109096Y113681D01*
X116171Y110750D01*
G37*
G36*
X18358Y131745D02*
X21642Y131745D01*
X24676Y133002D01*
X26998Y135324D01*
X28255Y138358D01*
X28255Y141642D01*
X26998Y144676D01*
X24676Y146998D01*
X21642Y148255D01*
X18358Y148255D01*
X15324Y146998D01*
X13002Y144676D01*
X11745Y141642D01*
X11745Y138358D01*
X13002Y135324D01*
X15324Y133002D01*
X18358Y131745D01*
G37*
G36*
X13477Y78994D02*
X39573Y78994D01*
X60706Y100127D01*
X60706Y112511D01*
X60762Y112797D01*
X60929Y113050D01*
X67913Y120034D01*
X68143Y120192D01*
X68439Y120257D01*
X68737Y120201D01*
X68990Y120034D01*
X70522Y118502D01*
X74206Y116976D01*
X78194Y116976D01*
X81878Y118502D01*
X84698Y121322D01*
X86224Y125006D01*
X86224Y128994D01*
X84698Y132678D01*
X81878Y135498D01*
X78194Y137024D01*
X74206Y137024D01*
X70522Y135498D01*
X67702Y132678D01*
X66176Y128994D01*
X66176Y128671D01*
X66120Y128385D01*
X65953Y128132D01*
X53594Y115773D01*
X53594Y103389D01*
X53538Y103103D01*
X53371Y102850D01*
X36850Y86329D01*
X36609Y86166D01*
X36311Y86106D01*
X16739Y86106D01*
X16453Y86162D01*
X16200Y86329D01*
X8151Y94378D01*
X7991Y94614D01*
X7928Y94911D01*
X7986Y95208D01*
X8255Y95858D01*
X8255Y99142D01*
X6998Y102176D01*
X4676Y104498D01*
X1642Y105755D01*
X-1642Y105755D01*
X-4676Y104498D01*
X-6998Y102176D01*
X-8255Y99142D01*
X-8255Y95858D01*
X-6998Y92824D01*
X-4676Y90502D01*
X-1642Y89245D01*
X1642Y89245D01*
X2292Y89514D01*
X2571Y89572D01*
X2869Y89516D01*
X3122Y89349D01*
X13477Y78994D01*
G37*
G36*
X-78194Y116976D02*
X-74206Y116976D01*
X-70522Y118502D01*
X-67702Y121322D01*
X-66176Y125006D01*
X-66176Y128994D01*
X-67702Y132678D01*
X-70522Y135498D01*
X-74206Y137024D01*
X-78194Y137024D01*
X-81878Y135498D01*
X-84698Y132678D01*
X-86224Y128994D01*
X-86224Y125006D01*
X-84698Y121322D01*
X-81878Y118502D01*
X-78194Y116976D01*
G37*
G36*
X11269Y119024D02*
X18476Y119024D01*
X18476Y126231D01*
X18263Y126231D01*
X15054Y124902D01*
X12598Y122446D01*
X11269Y119237D01*
X11269Y119024D01*
G37*
G36*
X21524Y119024D02*
X28731Y119024D01*
X28731Y119237D01*
X27402Y122446D01*
X24946Y124902D01*
X21737Y126231D01*
X21524Y126231D01*
X21524Y119024D01*
G37*
G36*
X-1642Y109245D02*
X1642Y109245D01*
X4676Y110502D01*
X6998Y112824D01*
X8255Y115858D01*
X8255Y119142D01*
X6998Y122176D01*
X4676Y124498D01*
X1642Y125755D01*
X-1642Y125755D01*
X-4676Y124498D01*
X-6998Y122176D01*
X-8255Y119142D01*
X-8255Y115858D01*
X-6998Y112824D01*
X-4676Y110502D01*
X-1642Y109245D01*
G37*
G36*
X21524Y108769D02*
X21737Y108769D01*
X24946Y110098D01*
X27402Y112554D01*
X28731Y115763D01*
X28731Y115976D01*
X21524Y115976D01*
X21524Y108769D01*
G37*
G36*
X18263Y108769D02*
X18476Y108769D01*
X18476Y115976D01*
X11269Y115976D01*
X11269Y115763D01*
X12598Y112554D01*
X15054Y110098D01*
X18263Y108769D01*
G37*
G36*
X74206Y91576D02*
X78194Y91576D01*
X81878Y93102D01*
X84698Y95922D01*
X86224Y99606D01*
X86224Y103594D01*
X84698Y107278D01*
X81878Y110098D01*
X78194Y111624D01*
X74206Y111624D01*
X70522Y110098D01*
X67702Y107278D01*
X66176Y103594D01*
X66176Y99606D01*
X67702Y95922D01*
X70522Y93102D01*
X74206Y91576D01*
G37*
G36*
X74206Y66176D02*
X78194Y66176D01*
X81878Y67702D01*
X84698Y70522D01*
X86224Y74206D01*
X86224Y78194D01*
X84698Y81878D01*
X81878Y84698D01*
X78194Y86224D01*
X74206Y86224D01*
X70522Y84698D01*
X67702Y81878D01*
X66597Y79210D01*
X66440Y78972D01*
X66190Y78800D01*
X65893Y78740D01*
X55082Y78740D01*
X48955Y72613D01*
X48714Y72450D01*
X48416Y72390D01*
X8510Y72390D01*
X8224Y72446D01*
X7971Y72613D01*
X-12419Y93003D01*
X-12579Y93239D01*
X-12642Y93535D01*
X-12584Y93833D01*
X-11745Y95858D01*
X-11745Y99142D01*
X-13002Y102176D01*
X-15324Y104498D01*
X-18358Y105755D01*
X-21642Y105755D01*
X-24676Y104498D01*
X-26998Y102176D01*
X-28255Y99142D01*
X-28255Y95858D01*
X-26998Y92824D01*
X-24676Y90502D01*
X-21642Y89245D01*
X-18358Y89245D01*
X-17051Y89786D01*
X-16772Y89844D01*
X-16474Y89788D01*
X-16221Y89621D01*
X6090Y67310D01*
X50836Y67310D01*
X56963Y73437D01*
X57205Y73600D01*
X57502Y73660D01*
X65893Y73660D01*
X66173Y73607D01*
X66428Y73441D01*
X66597Y73190D01*
X67702Y70522D01*
X70522Y67702D01*
X74206Y66176D01*
G37*
G36*
X-78194Y66176D02*
X-74206Y66176D01*
X-70522Y67702D01*
X-67702Y70522D01*
X-66176Y74206D01*
X-66176Y78194D01*
X-67702Y81878D01*
X-70522Y84698D01*
X-74206Y86224D01*
X-78194Y86224D01*
X-81878Y84698D01*
X-84698Y81878D01*
X-86224Y78194D01*
X-86224Y74206D01*
X-84698Y70522D01*
X-81878Y67702D01*
X-78194Y66176D01*
G37*
G36*
X-78194Y40776D02*
X-74206Y40776D01*
X-70522Y42302D01*
X-67702Y45122D01*
X-66176Y48806D01*
X-66176Y52794D01*
X-67702Y56478D01*
X-70522Y59298D01*
X-74206Y60824D01*
X-78194Y60824D01*
X-81878Y59298D01*
X-84698Y56478D01*
X-86224Y52794D01*
X-86224Y48806D01*
X-84698Y45122D01*
X-81878Y42302D01*
X-78194Y40776D01*
G37*
G36*
X74206Y15376D02*
X78194Y15376D01*
X81878Y16902D01*
X84698Y19722D01*
X86224Y23406D01*
X86224Y27394D01*
X84698Y31078D01*
X81878Y33898D01*
X78194Y35424D01*
X74206Y35424D01*
X70522Y33898D01*
X67702Y31078D01*
X66176Y27394D01*
X66176Y23406D01*
X67702Y19722D01*
X70522Y16902D01*
X74206Y15376D01*
G37*
G36*
X-78194Y15376D02*
X-74206Y15376D01*
X-70522Y16902D01*
X-67702Y19722D01*
X-66176Y23406D01*
X-66176Y27394D01*
X-67702Y31078D01*
X-70522Y33898D01*
X-74206Y35424D01*
X-78194Y35424D01*
X-81878Y33898D01*
X-84698Y31078D01*
X-86224Y27394D01*
X-86224Y23406D01*
X-84698Y19722D01*
X-81878Y16902D01*
X-78194Y15376D01*
G37*
%LPD*%
D10*
X-76200Y177800D03*
D11*
X-76200Y152400D03*
X-76200Y127000D03*
X-76200Y101600D03*
X-76200Y76200D03*
X-76200Y50800D03*
X-76200Y25400D03*
X76200Y25400D03*
X76200Y50800D03*
X76200Y76200D03*
X76200Y101600D03*
X76200Y127000D03*
X76200Y152400D03*
X76200Y177800D03*
D12*
X20000Y140000D03*
X20000Y160000D03*
X0Y140000D03*
X0Y160000D03*
X-20000Y140000D03*
X-20000Y160000D03*
X20000Y97500D03*
X20000Y117500D03*
X0Y97500D03*
X0Y117500D03*
X-20000Y97500D03*
X-20000Y117500D03*
D13*
X-37800Y177800D02*
X-76200Y177800D01*
X-37800Y177800D02*
X-20000Y160000D01*
X-32400Y152400D02*
X-76200Y152400D01*
X-32400Y152400D02*
X-20000Y140000D01*
X0Y140000D02*
X0Y136729D01*
X-8540Y128189D01*
X-49611Y128189D02*
X-76200Y101600D01*
X-49611Y128189D02*
X-8540Y128189D01*
D14*
X63500Y177800D02*
X76200Y177800D01*
X63500Y177800D02*
X44450Y158750D01*
X44450Y109220D01*
X33020Y97790D01*
X20290Y97790D01*
X20000Y97500D01*
D15*
X69850Y127000D02*
X76200Y127000D01*
X69850Y127000D02*
X57150Y114300D01*
X57150Y101600D01*
X38100Y82550D01*
X14950Y82550D01*
X0Y97500D01*
D13*
X56134Y76200D02*
X76200Y76200D01*
X56134Y76200D02*
X49784Y69850D01*
X7142Y69850D01*
X-20000Y96992D01*
X-20000Y97500D01*
X-12700Y50800D02*
X76200Y50800D01*
X-12700Y50800D02*
X-32766Y70866D01*
X-32766Y104734D01*
X-20000Y117500D01*
D16*
X-57150Y190500D03*
X-38100Y190500D03*
X-19050Y190500D03*
X0Y190500D03*
X19050Y190500D03*
X38100Y190500D03*
X57150Y190500D03*
X-57150Y6350D03*
X-38100Y6350D03*
X-19050Y6350D03*
X0Y6350D03*
X19050Y6350D03*
X38100Y6350D03*
X57150Y6350D03*
X-95250Y152400D03*
X-95250Y107950D03*
X95250Y152400D03*
X95250Y107950D03*
M02*
