G04 EAGLE Gerber RS-274X export*
G75*
%MOMM*%
%FSLAX34Y34*%
%LPD*%
%INBottom Copper*%
%IPPOS*%
%AMOC8*
5,1,8,0,0,1.08239X$1,22.5*%
G01*
G04 Define Apertures*
%ADD10R,1.700000X1.700000*%
%ADD11C,1.700000*%
%ADD12C,1.346200*%
%ADD13C,0.203200*%
%ADD14C,0.550000*%
G36*
X80149Y-33D02*
X80000Y-48D01*
X-80000Y-48D01*
X-80149Y-33D01*
X-86071Y1145D01*
X-86346Y1258D01*
X-91367Y4613D01*
X-91577Y4823D01*
X-94932Y9844D01*
X-95045Y10119D01*
X-96223Y16041D01*
X-96238Y16190D01*
X-96238Y75994D01*
X-96235Y76060D01*
X-95899Y79927D01*
X-97738Y87874D01*
X-101942Y94863D01*
X-108101Y100211D01*
X-115611Y103395D01*
X-118032Y103605D01*
X-118252Y103658D01*
X-118409Y103762D01*
X-119804Y103762D01*
X-119870Y103765D01*
X-120257Y103799D01*
X-120324Y103807D01*
X-128846Y105310D01*
X-129094Y105401D01*
X-136757Y109824D01*
X-136959Y109994D01*
X-142647Y116772D01*
X-142779Y117001D01*
X-145805Y125316D01*
X-145851Y125576D01*
X-145851Y134424D01*
X-145805Y134685D01*
X-142779Y142999D01*
X-142647Y143228D01*
X-136959Y150006D01*
X-136757Y150176D01*
X-129094Y154600D01*
X-128846Y154690D01*
X-120132Y156226D01*
X-120000Y156238D01*
X-116237Y156238D01*
X-109078Y158564D01*
X-102988Y162988D01*
X-98564Y169078D01*
X-96238Y176237D01*
X-96238Y186700D01*
X-96223Y186849D01*
X-95118Y192404D01*
X-95005Y192678D01*
X-91858Y197388D01*
X-91648Y197598D01*
X-86938Y200745D01*
X-86664Y200858D01*
X-81109Y201963D01*
X-80960Y201978D01*
X79040Y201978D01*
X79189Y201963D01*
X85478Y200712D01*
X85753Y200598D01*
X91085Y197036D01*
X91296Y196825D01*
X94858Y191493D01*
X94972Y191218D01*
X96223Y184929D01*
X96238Y184780D01*
X96238Y176237D01*
X98564Y169078D01*
X102988Y162988D01*
X109078Y158564D01*
X116237Y156238D01*
X120000Y156238D01*
X120132Y156226D01*
X128846Y154690D01*
X129094Y154600D01*
X136757Y150176D01*
X136959Y150006D01*
X142647Y143228D01*
X142779Y142999D01*
X145805Y134685D01*
X145851Y134424D01*
X145851Y125576D01*
X145805Y125316D01*
X142779Y117001D01*
X142647Y116772D01*
X136959Y109994D01*
X136757Y109824D01*
X129094Y105401D01*
X128846Y105310D01*
X120324Y103807D01*
X120257Y103799D01*
X119870Y103765D01*
X119804Y103762D01*
X118419Y103762D01*
X118323Y103691D01*
X118032Y103605D01*
X115611Y103395D01*
X108101Y100211D01*
X101942Y94863D01*
X97738Y87874D01*
X95899Y79927D01*
X96235Y76060D01*
X96238Y75994D01*
X96238Y16190D01*
X96223Y16041D01*
X95045Y10119D01*
X94932Y9844D01*
X91577Y4823D01*
X91367Y4613D01*
X86346Y1258D01*
X86071Y1145D01*
X80149Y-33D01*
G37*
%LPC*%
G36*
X74206Y167776D02*
X78194Y167776D01*
X81878Y169302D01*
X84698Y172122D01*
X86224Y175806D01*
X86224Y179794D01*
X84698Y183478D01*
X81878Y186298D01*
X78194Y187824D01*
X74206Y187824D01*
X70522Y186298D01*
X67702Y183478D01*
X66176Y179794D01*
X66176Y175806D01*
X67702Y172122D01*
X70522Y169302D01*
X74206Y167776D01*
G37*
G36*
X-85331Y167776D02*
X-67069Y167776D01*
X-66176Y168669D01*
X-66176Y186931D01*
X-67069Y187824D01*
X-85331Y187824D01*
X-86224Y186931D01*
X-86224Y168669D01*
X-85331Y167776D01*
G37*
G36*
X-78194Y40776D02*
X-74206Y40776D01*
X-70522Y42302D01*
X-67702Y45122D01*
X-66597Y47790D01*
X-66440Y48028D01*
X-66190Y48200D01*
X-65893Y48260D01*
X-62448Y48260D01*
X-38354Y72354D01*
X-38354Y116488D01*
X-38298Y116774D01*
X-38131Y117027D01*
X-29732Y125426D01*
X-29491Y125589D01*
X-29193Y125649D01*
X-25365Y125649D01*
X-25102Y125602D01*
X-24844Y125443D01*
X-24668Y125195D01*
X-24603Y124899D01*
X-24659Y124601D01*
X-24826Y124348D01*
X-26998Y122176D01*
X-28255Y119142D01*
X-28255Y115858D01*
X-26998Y112824D01*
X-24676Y110502D01*
X-21642Y109245D01*
X-18358Y109245D01*
X-15324Y110502D01*
X-13002Y112824D01*
X-11745Y115858D01*
X-11745Y119142D01*
X-13002Y122176D01*
X-15174Y124348D01*
X-15327Y124568D01*
X-15397Y124863D01*
X-15346Y125162D01*
X-15182Y125417D01*
X-14932Y125589D01*
X-14635Y125649D01*
X-5365Y125649D01*
X-5102Y125602D01*
X-4844Y125443D01*
X-4668Y125195D01*
X-4603Y124899D01*
X-4659Y124601D01*
X-4826Y124348D01*
X-6998Y122176D01*
X-8255Y119142D01*
X-8255Y115858D01*
X-6998Y112824D01*
X-4676Y110502D01*
X-1642Y109245D01*
X1642Y109245D01*
X3308Y109935D01*
X3587Y109993D01*
X3885Y109937D01*
X4138Y109770D01*
X8661Y105247D01*
X14233Y105247D01*
X14496Y105200D01*
X14754Y105041D01*
X14930Y104793D01*
X14995Y104497D01*
X14939Y104199D01*
X14772Y103946D01*
X13002Y102176D01*
X11745Y99142D01*
X11745Y95858D01*
X13002Y92824D01*
X15324Y90502D01*
X18358Y89245D01*
X21642Y89245D01*
X24676Y90502D01*
X26998Y92824D01*
X28255Y95858D01*
X28255Y99142D01*
X28052Y99633D01*
X27994Y99888D01*
X28041Y100188D01*
X28200Y100446D01*
X28447Y100622D01*
X28743Y100687D01*
X29042Y100631D01*
X29294Y100464D01*
X30698Y99060D01*
X65893Y99060D01*
X66173Y99007D01*
X66428Y98841D01*
X66597Y98590D01*
X67702Y95922D01*
X70522Y93102D01*
X74206Y91576D01*
X78194Y91576D01*
X81878Y93102D01*
X84698Y95922D01*
X86224Y99606D01*
X86224Y103594D01*
X84698Y107278D01*
X81878Y110098D01*
X78194Y111624D01*
X74206Y111624D01*
X70522Y110098D01*
X67702Y107278D01*
X66597Y104610D01*
X66440Y104372D01*
X66190Y104200D01*
X65893Y104140D01*
X33118Y104140D01*
X32832Y104196D01*
X32579Y104363D01*
X28326Y108616D01*
X26434Y110509D01*
X26276Y110739D01*
X26211Y111035D01*
X26266Y111333D01*
X26434Y111586D01*
X27402Y112554D01*
X28731Y115763D01*
X28731Y115976D01*
X11269Y115976D01*
X11269Y115763D01*
X12598Y112554D01*
X13525Y111628D01*
X13678Y111408D01*
X13748Y111113D01*
X13697Y110814D01*
X13533Y110559D01*
X13283Y110387D01*
X12986Y110327D01*
X11081Y110327D01*
X10795Y110383D01*
X10542Y110550D01*
X7730Y113362D01*
X7570Y113598D01*
X7507Y113895D01*
X7565Y114192D01*
X8255Y115858D01*
X8255Y119142D01*
X6998Y122176D01*
X4826Y124348D01*
X4673Y124568D01*
X4603Y124863D01*
X4654Y125162D01*
X4818Y125417D01*
X5068Y125589D01*
X5365Y125649D01*
X9972Y125649D01*
X16379Y132056D01*
X16615Y132216D01*
X16912Y132279D01*
X17209Y132221D01*
X18358Y131745D01*
X21642Y131745D01*
X24676Y133002D01*
X26998Y135324D01*
X28255Y138358D01*
X28255Y141642D01*
X26998Y144676D01*
X24676Y146998D01*
X21642Y148255D01*
X18358Y148255D01*
X15324Y146998D01*
X13002Y144676D01*
X11745Y141642D01*
X11745Y138358D01*
X12649Y136175D01*
X12707Y135896D01*
X12651Y135598D01*
X12484Y135345D01*
X8091Y130952D01*
X7850Y130789D01*
X7552Y130729D01*
X3020Y130729D01*
X2762Y130774D01*
X2503Y130931D01*
X2326Y131177D01*
X2258Y131473D01*
X2311Y131771D01*
X2477Y132026D01*
X2728Y132195D01*
X4676Y133002D01*
X6998Y135324D01*
X8255Y138358D01*
X8255Y141642D01*
X6998Y144676D01*
X5482Y146192D01*
X5329Y146412D01*
X5259Y146707D01*
X5310Y147006D01*
X5474Y147261D01*
X5724Y147433D01*
X6021Y147493D01*
X11085Y147493D01*
X15862Y152270D01*
X16098Y152430D01*
X16395Y152493D01*
X16692Y152435D01*
X18358Y151745D01*
X21642Y151745D01*
X24676Y153002D01*
X26998Y155324D01*
X28255Y158358D01*
X28255Y161642D01*
X26998Y164676D01*
X24676Y166998D01*
X21642Y168255D01*
X18358Y168255D01*
X15324Y166998D01*
X13002Y164676D01*
X11745Y161642D01*
X11745Y158358D01*
X12435Y156692D01*
X12493Y156413D01*
X12437Y156115D01*
X12270Y155862D01*
X9204Y152796D01*
X8963Y152633D01*
X8665Y152573D01*
X6087Y152573D01*
X5824Y152620D01*
X5566Y152779D01*
X5390Y153027D01*
X5325Y153323D01*
X5381Y153621D01*
X5548Y153874D01*
X6998Y155324D01*
X8255Y158358D01*
X8255Y161642D01*
X6998Y164676D01*
X4676Y166998D01*
X1642Y168255D01*
X-1642Y168255D01*
X-3294Y167571D01*
X-3573Y167513D01*
X-3871Y167569D01*
X-4124Y167736D01*
X-10378Y173990D01*
X-32802Y173990D01*
X-70708Y136084D01*
X-70944Y135924D01*
X-71241Y135861D01*
X-71538Y135919D01*
X-74206Y137024D01*
X-78194Y137024D01*
X-81878Y135498D01*
X-84698Y132678D01*
X-86224Y128994D01*
X-86224Y125006D01*
X-84698Y121322D01*
X-81878Y118502D01*
X-78194Y116976D01*
X-74206Y116976D01*
X-70522Y118502D01*
X-67702Y121322D01*
X-66176Y125006D01*
X-66176Y128994D01*
X-67281Y131662D01*
X-67339Y131941D01*
X-67283Y132239D01*
X-67116Y132492D01*
X-30921Y168687D01*
X-30680Y168850D01*
X-30382Y168910D01*
X-23892Y168910D01*
X-23634Y168865D01*
X-23375Y168708D01*
X-23197Y168462D01*
X-23130Y168166D01*
X-23183Y167868D01*
X-23348Y167614D01*
X-23600Y167444D01*
X-24676Y166998D01*
X-26998Y164676D01*
X-28255Y161642D01*
X-28255Y158358D01*
X-26998Y155324D01*
X-25548Y153874D01*
X-25395Y153654D01*
X-25325Y153359D01*
X-25376Y153060D01*
X-25540Y152805D01*
X-25790Y152633D01*
X-26087Y152573D01*
X-31359Y152573D01*
X-56642Y127290D01*
X-56642Y86966D01*
X-56698Y86680D01*
X-56865Y86427D01*
X-64329Y78963D01*
X-64571Y78800D01*
X-64868Y78740D01*
X-65893Y78740D01*
X-66173Y78793D01*
X-66428Y78959D01*
X-66597Y79210D01*
X-67702Y81878D01*
X-70522Y84698D01*
X-74206Y86224D01*
X-78194Y86224D01*
X-81878Y84698D01*
X-84698Y81878D01*
X-86224Y78194D01*
X-86224Y74206D01*
X-84698Y70522D01*
X-81878Y67702D01*
X-78194Y66176D01*
X-74206Y66176D01*
X-70522Y67702D01*
X-67702Y70522D01*
X-66597Y73190D01*
X-66440Y73428D01*
X-66190Y73600D01*
X-65893Y73660D01*
X-62448Y73660D01*
X-51562Y84546D01*
X-51562Y124870D01*
X-51506Y125156D01*
X-51339Y125409D01*
X-29478Y147270D01*
X-29237Y147433D01*
X-28939Y147493D01*
X-26021Y147493D01*
X-25758Y147446D01*
X-25500Y147287D01*
X-25324Y147039D01*
X-25259Y146743D01*
X-25315Y146445D01*
X-25482Y146192D01*
X-26998Y144676D01*
X-28255Y141642D01*
X-28255Y138358D01*
X-26998Y135324D01*
X-24676Y133002D01*
X-22728Y132195D01*
X-22508Y132055D01*
X-22328Y131810D01*
X-22258Y131515D01*
X-22309Y131216D01*
X-22473Y130961D01*
X-22723Y130789D01*
X-23020Y130729D01*
X-31613Y130729D01*
X-43434Y118908D01*
X-43434Y74774D01*
X-43490Y74488D01*
X-43657Y74235D01*
X-64329Y53563D01*
X-64571Y53400D01*
X-64868Y53340D01*
X-65893Y53340D01*
X-66173Y53393D01*
X-66428Y53559D01*
X-66597Y53810D01*
X-67702Y56478D01*
X-70522Y59298D01*
X-74206Y60824D01*
X-78194Y60824D01*
X-81878Y59298D01*
X-84698Y56478D01*
X-86224Y52794D01*
X-86224Y48806D01*
X-84698Y45122D01*
X-81878Y42302D01*
X-78194Y40776D01*
G37*
G36*
X77724Y153924D02*
X86700Y153924D01*
X86700Y154489D01*
X85101Y158348D01*
X82148Y161301D01*
X78289Y162900D01*
X77724Y162900D01*
X77724Y153924D01*
G37*
G36*
X65700Y153924D02*
X74676Y153924D01*
X74676Y162900D01*
X74111Y162900D01*
X70252Y161301D01*
X67299Y158348D01*
X65700Y154489D01*
X65700Y153924D01*
G37*
G36*
X-78194Y142376D02*
X-74206Y142376D01*
X-70522Y143902D01*
X-67702Y146722D01*
X-66176Y150406D01*
X-66176Y154394D01*
X-67702Y158078D01*
X-70522Y160898D01*
X-74206Y162424D01*
X-78194Y162424D01*
X-81878Y160898D01*
X-84698Y158078D01*
X-86224Y154394D01*
X-86224Y150406D01*
X-84698Y146722D01*
X-81878Y143902D01*
X-78194Y142376D01*
G37*
G36*
X77724Y141900D02*
X78289Y141900D01*
X82148Y143499D01*
X85101Y146452D01*
X86700Y150311D01*
X86700Y150876D01*
X77724Y150876D01*
X77724Y141900D01*
G37*
G36*
X74111Y141900D02*
X74676Y141900D01*
X74676Y150876D01*
X65700Y150876D01*
X65700Y150311D01*
X67299Y146452D01*
X70252Y143499D01*
X74111Y141900D01*
G37*
G36*
X116171Y110750D02*
X123829Y110750D01*
X130904Y113681D01*
X136319Y119096D01*
X139250Y126171D01*
X139250Y133829D01*
X136319Y140904D01*
X130904Y146319D01*
X123829Y149250D01*
X116171Y149250D01*
X109096Y146319D01*
X103681Y140904D01*
X100750Y133829D01*
X100750Y126171D01*
X103681Y119096D01*
X109096Y113681D01*
X116171Y110750D01*
G37*
G36*
X-123829Y110750D02*
X-116171Y110750D01*
X-109096Y113681D01*
X-103681Y119096D01*
X-100750Y126171D01*
X-100750Y133829D01*
X-103681Y140904D01*
X-109096Y146319D01*
X-116171Y149250D01*
X-123829Y149250D01*
X-130904Y146319D01*
X-136319Y140904D01*
X-139250Y133829D01*
X-139250Y126171D01*
X-136319Y119096D01*
X-130904Y113681D01*
X-123829Y110750D01*
G37*
G36*
X74206Y116976D02*
X78194Y116976D01*
X81878Y118502D01*
X84698Y121322D01*
X86224Y125006D01*
X86224Y128994D01*
X84698Y132678D01*
X81878Y135498D01*
X78194Y137024D01*
X74206Y137024D01*
X70522Y135498D01*
X67702Y132678D01*
X66176Y128994D01*
X66176Y125006D01*
X67702Y121322D01*
X70522Y118502D01*
X74206Y116976D01*
G37*
G36*
X11269Y119024D02*
X18476Y119024D01*
X18476Y126231D01*
X18263Y126231D01*
X15054Y124902D01*
X12598Y122446D01*
X11269Y119237D01*
X11269Y119024D01*
G37*
G36*
X21524Y119024D02*
X28731Y119024D01*
X28731Y119237D01*
X27402Y122446D01*
X24946Y124902D01*
X21737Y126231D01*
X21524Y126231D01*
X21524Y119024D01*
G37*
G36*
X-78194Y91576D02*
X-74206Y91576D01*
X-70522Y93102D01*
X-67702Y95922D01*
X-66176Y99606D01*
X-66176Y103594D01*
X-67702Y107278D01*
X-70522Y110098D01*
X-74206Y111624D01*
X-78194Y111624D01*
X-81878Y110098D01*
X-84698Y107278D01*
X-86224Y103594D01*
X-86224Y99606D01*
X-84698Y95922D01*
X-81878Y93102D01*
X-78194Y91576D01*
G37*
G36*
X-1642Y89245D02*
X1642Y89245D01*
X4676Y90502D01*
X6998Y92824D01*
X8255Y95858D01*
X8255Y99142D01*
X6998Y102176D01*
X4676Y104498D01*
X1642Y105755D01*
X-1642Y105755D01*
X-4676Y104498D01*
X-6998Y102176D01*
X-8255Y99142D01*
X-8255Y95858D01*
X-6998Y92824D01*
X-4676Y90502D01*
X-1642Y89245D01*
G37*
G36*
X-21642Y89245D02*
X-18358Y89245D01*
X-15324Y90502D01*
X-13002Y92824D01*
X-11745Y95858D01*
X-11745Y99142D01*
X-13002Y102176D01*
X-15324Y104498D01*
X-18358Y105755D01*
X-21642Y105755D01*
X-24676Y104498D01*
X-26998Y102176D01*
X-28255Y99142D01*
X-28255Y95858D01*
X-26998Y92824D01*
X-24676Y90502D01*
X-21642Y89245D01*
G37*
G36*
X74206Y66176D02*
X78194Y66176D01*
X81878Y67702D01*
X84698Y70522D01*
X86224Y74206D01*
X86224Y78194D01*
X84698Y81878D01*
X81878Y84698D01*
X78194Y86224D01*
X74206Y86224D01*
X70522Y84698D01*
X67702Y81878D01*
X66176Y78194D01*
X66176Y74206D01*
X67702Y70522D01*
X70522Y67702D01*
X74206Y66176D01*
G37*
G36*
X74206Y40776D02*
X78194Y40776D01*
X81878Y42302D01*
X84698Y45122D01*
X86224Y48806D01*
X86224Y52794D01*
X84698Y56478D01*
X81878Y59298D01*
X78194Y60824D01*
X74206Y60824D01*
X70522Y59298D01*
X67702Y56478D01*
X66176Y52794D01*
X66176Y48806D01*
X67702Y45122D01*
X70522Y42302D01*
X74206Y40776D01*
G37*
G36*
X74206Y15376D02*
X78194Y15376D01*
X81878Y16902D01*
X84698Y19722D01*
X86224Y23406D01*
X86224Y27394D01*
X84698Y31078D01*
X81878Y33898D01*
X78194Y35424D01*
X74206Y35424D01*
X70522Y33898D01*
X67702Y31078D01*
X66176Y27394D01*
X66176Y23406D01*
X67702Y19722D01*
X70522Y16902D01*
X74206Y15376D01*
G37*
G36*
X-78194Y15376D02*
X-74206Y15376D01*
X-70522Y16902D01*
X-67702Y19722D01*
X-66176Y23406D01*
X-66176Y27394D01*
X-67702Y31078D01*
X-70522Y33898D01*
X-74206Y35424D01*
X-78194Y35424D01*
X-81878Y33898D01*
X-84698Y31078D01*
X-86224Y27394D01*
X-86224Y23406D01*
X-84698Y19722D01*
X-81878Y16902D01*
X-78194Y15376D01*
G37*
%LPD*%
D10*
X-76200Y177800D03*
D11*
X-76200Y152400D03*
X-76200Y127000D03*
X-76200Y101600D03*
X-76200Y76200D03*
X-76200Y50800D03*
X-76200Y25400D03*
X76200Y25400D03*
X76200Y50800D03*
X76200Y76200D03*
X76200Y101600D03*
X76200Y127000D03*
X76200Y152400D03*
X76200Y177800D03*
D12*
X20000Y140000D03*
X20000Y160000D03*
X0Y140000D03*
X0Y160000D03*
X-20000Y140000D03*
X-20000Y160000D03*
X20000Y97500D03*
X20000Y117500D03*
X0Y97500D03*
X0Y117500D03*
X-20000Y97500D03*
X-20000Y117500D03*
D13*
X-43180Y160020D02*
X-76200Y127000D01*
X-43180Y160020D02*
X-31750Y171450D01*
X-11430Y171450D01*
X0Y160020D01*
X0Y160000D01*
X-54102Y85598D02*
X-63500Y76200D01*
X-76200Y76200D01*
X-54102Y85598D02*
X-54102Y126238D01*
X10033Y150033D02*
X20000Y160000D01*
X10033Y150033D02*
X-30307Y150033D01*
X-54102Y126238D01*
X20000Y139269D02*
X20000Y140000D01*
X20000Y139269D02*
X8920Y128189D01*
X-30561Y128189D01*
X-40894Y117856D01*
X-40894Y73406D02*
X-63500Y50800D01*
X-76200Y50800D01*
X-40894Y73406D02*
X-40894Y117856D01*
X0Y117500D02*
X9713Y107787D01*
X31750Y101600D02*
X76200Y101600D01*
X31750Y101600D02*
X25563Y107787D01*
X9713Y107787D01*
D14*
X-57150Y190500D03*
X-38100Y190500D03*
X-19050Y190500D03*
X0Y190500D03*
X19050Y190500D03*
X38100Y190500D03*
X57150Y190500D03*
X-57150Y6350D03*
X-38100Y6350D03*
X-19050Y6350D03*
X0Y6350D03*
X19050Y6350D03*
X38100Y6350D03*
X57150Y6350D03*
X-95250Y152400D03*
X-95250Y107950D03*
X95250Y152400D03*
X95250Y107950D03*
M02*
