G04 EAGLE Gerber RS-274X export*
G75*
%MOMM*%
%FSLAX34Y34*%
%LPD*%
%IN*%
%IPPOS*%
%AMOC8*
5,1,8,0,0,1.08239X$1,22.5*%
G01*
G04 Define Apertures*
%ADD10C,0.254000*%
D10*
X-120000Y100000D02*
X-118098Y99751D01*
X-116225Y99336D01*
X-114395Y98761D01*
X-112623Y98027D01*
X-110921Y97143D01*
X-109303Y96113D01*
X-107780Y94946D01*
X-106365Y93651D01*
X-105069Y92237D01*
X-103900Y90716D01*
X-102869Y89099D01*
X-101982Y87398D01*
X-101247Y85626D01*
X-100670Y83797D01*
X-100253Y81924D01*
X-100002Y80023D01*
X-99917Y78106D01*
X-100000Y76190D01*
X-100000Y16190D01*
X-99924Y14447D01*
X-99696Y12717D01*
X-99319Y11014D01*
X-98794Y9350D01*
X-98126Y7738D01*
X-97321Y6190D01*
X-96383Y4718D01*
X-95321Y3334D01*
X-94142Y2048D01*
X-92856Y869D01*
X-91472Y-193D01*
X-90000Y-1131D01*
X-88452Y-1936D01*
X-86840Y-2604D01*
X-85176Y-3129D01*
X-83473Y-3506D01*
X-81743Y-3734D01*
X-80000Y-3810D01*
X80000Y-3810D01*
X81743Y-3734D01*
X83473Y-3506D01*
X85176Y-3129D01*
X86840Y-2604D01*
X88452Y-1936D01*
X90000Y-1131D01*
X91472Y-193D01*
X92856Y869D01*
X94142Y2048D01*
X95321Y3334D01*
X96383Y4718D01*
X97321Y6190D01*
X98126Y7738D01*
X98794Y9350D01*
X99319Y11014D01*
X99696Y12717D01*
X99924Y14447D01*
X100000Y16190D01*
X100000Y76190D01*
X99917Y78106D01*
X100002Y80023D01*
X100253Y81924D01*
X100670Y83797D01*
X101247Y85626D01*
X101982Y87398D01*
X102869Y89099D01*
X103900Y90716D01*
X105069Y92237D01*
X106365Y93651D01*
X107780Y94946D01*
X109303Y96113D01*
X110921Y97143D01*
X112623Y98027D01*
X114395Y98761D01*
X116225Y99336D01*
X118098Y99751D01*
X120000Y100000D01*
X122615Y100114D01*
X125209Y100456D01*
X127765Y101022D01*
X130261Y101809D01*
X132679Y102811D01*
X135000Y104019D01*
X137207Y105425D01*
X139284Y107019D01*
X141213Y108787D01*
X142981Y110716D01*
X144575Y112793D01*
X145981Y115000D01*
X147189Y117321D01*
X148191Y119739D01*
X148978Y122235D01*
X149544Y124791D01*
X149886Y127385D01*
X150000Y130000D01*
X149886Y132615D01*
X149544Y135209D01*
X148978Y137765D01*
X148191Y140261D01*
X147189Y142679D01*
X145981Y145000D01*
X144575Y147207D01*
X142981Y149284D01*
X141213Y151213D01*
X139284Y152981D01*
X137207Y154575D01*
X135000Y155981D01*
X132679Y157189D01*
X130261Y158191D01*
X127765Y158978D01*
X125209Y159544D01*
X122615Y159886D01*
X120000Y160000D01*
X118257Y160076D01*
X116527Y160304D01*
X114824Y160681D01*
X113160Y161206D01*
X111548Y161874D01*
X110000Y162680D01*
X108528Y163617D01*
X107144Y164679D01*
X105858Y165858D01*
X104679Y167144D01*
X103617Y168528D01*
X102680Y170000D01*
X101874Y171548D01*
X101206Y173160D01*
X100681Y174824D01*
X100304Y176527D01*
X100076Y178257D01*
X100000Y180000D01*
X100000Y184780D01*
X99920Y186607D01*
X99682Y188420D01*
X99286Y190205D01*
X98736Y191949D01*
X98036Y193638D01*
X97192Y195260D01*
X96209Y196802D01*
X95096Y198253D01*
X93861Y199601D01*
X92513Y200836D01*
X91062Y201949D01*
X89520Y202932D01*
X87898Y203776D01*
X86209Y204476D01*
X84465Y205026D01*
X82680Y205422D01*
X80867Y205660D01*
X79040Y205740D01*
X-80960Y205740D01*
X-82619Y205668D01*
X-84266Y205451D01*
X-85888Y205091D01*
X-87472Y204592D01*
X-89007Y203956D01*
X-90480Y203189D01*
X-91881Y202297D01*
X-93199Y201286D01*
X-94423Y200163D01*
X-95546Y198939D01*
X-96557Y197621D01*
X-97449Y196220D01*
X-98216Y194747D01*
X-98852Y193212D01*
X-99351Y191628D01*
X-99711Y190006D01*
X-99928Y188359D01*
X-100000Y186700D01*
X-100000Y180000D01*
X-100076Y178257D01*
X-100304Y176527D01*
X-100681Y174824D01*
X-101206Y173160D01*
X-101874Y171548D01*
X-102680Y170000D01*
X-103617Y168528D01*
X-104679Y167144D01*
X-105858Y165858D01*
X-107144Y164679D01*
X-108528Y163617D01*
X-110000Y162680D01*
X-111548Y161874D01*
X-113160Y161206D01*
X-114824Y160681D01*
X-116527Y160304D01*
X-118257Y160076D01*
X-120000Y160000D01*
X-122615Y159886D01*
X-125209Y159544D01*
X-127765Y158978D01*
X-130261Y158191D01*
X-132679Y157189D01*
X-135000Y155981D01*
X-137207Y154575D01*
X-139284Y152981D01*
X-141213Y151213D01*
X-142981Y149284D01*
X-144575Y147207D01*
X-145981Y145000D01*
X-147189Y142679D01*
X-148191Y140261D01*
X-148978Y137765D01*
X-149544Y135209D01*
X-149886Y132615D01*
X-150000Y130000D01*
X-149886Y127385D01*
X-149544Y124791D01*
X-148978Y122235D01*
X-148191Y119739D01*
X-147189Y117321D01*
X-145981Y115000D01*
X-144575Y112793D01*
X-142981Y110716D01*
X-141213Y108787D01*
X-139284Y107019D01*
X-137207Y105425D01*
X-135000Y104019D01*
X-132679Y102811D01*
X-130261Y101809D01*
X-127765Y101022D01*
X-125209Y100456D01*
X-122615Y100114D01*
X-120000Y100000D01*
M02*
