G04 EAGLE Gerber RS-274X export*
G75*
%MOMM*%
%FSLAX34Y34*%
%LPD*%
%INSilkscreen Top*%
%IPPOS*%
%AMOC8*
5,1,8,0,0,1.08239X$1,22.5*%
G01*
G04 Define Apertures*
%ADD10C,0.304800*%
%ADD11C,0.203200*%
%ADD12C,0.127000*%
%ADD13C,0.508000*%
G36*
X33465Y24130D02*
X30253Y24130D01*
X30253Y32158D01*
X33465Y32158D01*
X33698Y32146D01*
X33925Y32111D01*
X34145Y32055D01*
X34355Y31977D01*
X34556Y31880D01*
X34745Y31765D01*
X34922Y31633D01*
X35085Y31484D01*
X35233Y31321D01*
X35365Y31145D01*
X35481Y30955D01*
X35577Y30755D01*
X35655Y30545D01*
X35712Y30325D01*
X35747Y30098D01*
X35758Y29864D01*
X35758Y26435D01*
X35747Y26201D01*
X35712Y25974D01*
X35655Y25754D01*
X35577Y25543D01*
X35481Y25342D01*
X35365Y25151D01*
X35233Y24974D01*
X35085Y24810D01*
X34922Y24660D01*
X34745Y24527D01*
X34556Y24411D01*
X34355Y24313D01*
X34145Y24235D01*
X33925Y24177D01*
X33698Y24142D01*
X33465Y24130D01*
G37*
%LPC*%
G36*
X33465Y25747D02*
X33603Y25761D01*
X33732Y25801D01*
X33849Y25865D01*
X33951Y25949D01*
X34035Y26051D01*
X34099Y26168D01*
X34139Y26297D01*
X34153Y26435D01*
X34153Y29864D01*
X34139Y30003D01*
X34100Y30132D01*
X34038Y30248D01*
X33955Y30350D01*
X33854Y30435D01*
X33737Y30498D01*
X33662Y30521D01*
X33606Y30538D01*
X33465Y30552D01*
X31859Y30552D01*
X31859Y25747D01*
X33465Y25747D01*
G37*
%LPD*%
G36*
X-3231Y36322D02*
X-4148Y36322D01*
X-4382Y36334D01*
X-4609Y36369D01*
X-4828Y36427D01*
X-5039Y36505D01*
X-5239Y36603D01*
X-5428Y36719D01*
X-5605Y36852D01*
X-5768Y37002D01*
X-5916Y37166D01*
X-6049Y37343D01*
X-6164Y37534D01*
X-6261Y37735D01*
X-6338Y37946D01*
X-6395Y38166D01*
X-6430Y38393D01*
X-6442Y38627D01*
X-6442Y42056D01*
X-6430Y42290D01*
X-6395Y42517D01*
X-6338Y42737D01*
X-6261Y42947D01*
X-6164Y43147D01*
X-6049Y43337D01*
X-5916Y43513D01*
X-5768Y43676D01*
X-5605Y43825D01*
X-5428Y43957D01*
X-5239Y44072D01*
X-5039Y44169D01*
X-4828Y44247D01*
X-4609Y44303D01*
X-4382Y44338D01*
X-4148Y44350D01*
X-3231Y44350D01*
X-2995Y44338D01*
X-2767Y44304D01*
X-2546Y44248D01*
X-2335Y44171D01*
X-2135Y44075D01*
X-1945Y43960D01*
X-1769Y43828D01*
X-1606Y43681D01*
X-1459Y43518D01*
X-1327Y43342D01*
X-1212Y43152D01*
X-1116Y42952D01*
X-1039Y42741D01*
X-983Y42520D01*
X-949Y42292D01*
X-937Y42056D01*
X-937Y38627D01*
X-949Y38392D01*
X-984Y38163D01*
X-1040Y37942D01*
X-1118Y37730D01*
X-1215Y37528D01*
X-1330Y37338D01*
X-1462Y37161D01*
X-1611Y36997D01*
X-1774Y36848D01*
X-1951Y36716D01*
X-2140Y36600D01*
X-2340Y36503D01*
X-2551Y36426D01*
X-2770Y36369D01*
X-2997Y36334D01*
X-3231Y36322D01*
G37*
%LPC*%
G36*
X-3231Y37939D02*
X-3092Y37953D01*
X-2963Y37993D01*
X-2847Y38057D01*
X-2745Y38141D01*
X-2660Y38243D01*
X-2597Y38360D01*
X-2557Y38489D01*
X-2543Y38627D01*
X-2543Y42056D01*
X-2556Y42198D01*
X-2595Y42328D01*
X-2657Y42445D01*
X-2740Y42547D01*
X-2842Y42630D01*
X-2959Y42692D01*
X-3089Y42731D01*
X-3231Y42744D01*
X-4148Y42744D01*
X-4290Y42730D01*
X-4420Y42690D01*
X-4537Y42627D01*
X-4638Y42542D01*
X-4721Y42440D01*
X-4784Y42324D01*
X-4823Y42195D01*
X-4836Y42056D01*
X-4836Y38627D01*
X-4822Y38489D01*
X-4782Y38360D01*
X-4718Y38243D01*
X-4634Y38141D01*
X-4532Y38057D01*
X-4415Y37993D01*
X-4286Y37953D01*
X-4148Y37939D01*
X-3231Y37939D01*
G37*
%LPD*%
G36*
X-39910Y24130D02*
X-40828Y24130D01*
X-41062Y24142D01*
X-41289Y24177D01*
X-41508Y24235D01*
X-41718Y24313D01*
X-41919Y24411D01*
X-42108Y24527D01*
X-42285Y24660D01*
X-42448Y24810D01*
X-42596Y24974D01*
X-42728Y25151D01*
X-42844Y25342D01*
X-42941Y25543D01*
X-43018Y25754D01*
X-43075Y25974D01*
X-43110Y26201D01*
X-43122Y26435D01*
X-43122Y29864D01*
X-43110Y30098D01*
X-43075Y30325D01*
X-43018Y30545D01*
X-42941Y30755D01*
X-42844Y30955D01*
X-42728Y31145D01*
X-42596Y31321D01*
X-42448Y31484D01*
X-42285Y31633D01*
X-42108Y31765D01*
X-41919Y31880D01*
X-41718Y31977D01*
X-41508Y32055D01*
X-41289Y32111D01*
X-41062Y32146D01*
X-40828Y32158D01*
X-39910Y32158D01*
X-39675Y32146D01*
X-39446Y32112D01*
X-39226Y32056D01*
X-39015Y31979D01*
X-38814Y31883D01*
X-38625Y31768D01*
X-38449Y31636D01*
X-38286Y31489D01*
X-38138Y31326D01*
X-38007Y31150D01*
X-37892Y30960D01*
X-37796Y30760D01*
X-37719Y30549D01*
X-37663Y30328D01*
X-37628Y30100D01*
X-37617Y29864D01*
X-37617Y26435D01*
X-37628Y26200D01*
X-37663Y25971D01*
X-37720Y25750D01*
X-37798Y25538D01*
X-37894Y25336D01*
X-38010Y25146D01*
X-38142Y24969D01*
X-38290Y24805D01*
X-38453Y24656D01*
X-38630Y24524D01*
X-38819Y24408D01*
X-39020Y24311D01*
X-39230Y24234D01*
X-39450Y24177D01*
X-39677Y24142D01*
X-39910Y24130D01*
G37*
%LPC*%
G36*
X-39910Y25747D02*
X-39772Y25761D01*
X-39643Y25801D01*
X-39526Y25865D01*
X-39424Y25949D01*
X-39340Y26051D01*
X-39277Y26168D01*
X-39236Y26297D01*
X-39222Y26435D01*
X-39222Y29864D01*
X-39236Y30006D01*
X-39275Y30136D01*
X-39337Y30253D01*
X-39420Y30355D01*
X-39521Y30438D01*
X-39638Y30500D01*
X-39769Y30539D01*
X-39910Y30552D01*
X-40828Y30552D01*
X-40969Y30538D01*
X-41100Y30498D01*
X-41217Y30435D01*
X-41318Y30350D01*
X-41401Y30248D01*
X-41463Y30132D01*
X-41502Y30003D01*
X-41516Y29864D01*
X-41516Y26435D01*
X-41502Y26297D01*
X-41462Y26168D01*
X-41398Y26051D01*
X-41314Y25949D01*
X-41212Y25865D01*
X-41095Y25801D01*
X-40966Y25761D01*
X-40828Y25747D01*
X-39910Y25747D01*
G37*
%LPD*%
G36*
X-34203Y24130D02*
X-35809Y24130D01*
X-35809Y32158D01*
X-33756Y32158D01*
X-31910Y27399D01*
X-31910Y32158D01*
X-30304Y32158D01*
X-30304Y24130D01*
X-32357Y24130D01*
X-34203Y28890D01*
X-34203Y24130D01*
G37*
G36*
X9851Y36322D02*
X8246Y36322D01*
X8246Y44350D01*
X9771Y44350D01*
X10998Y41678D01*
X12225Y44350D01*
X13751Y44350D01*
X13751Y36322D01*
X12145Y36322D01*
X12145Y40577D01*
X11457Y39097D01*
X10539Y39097D01*
X9851Y40577D01*
X9851Y36322D01*
G37*
G36*
X43102Y24130D02*
X37597Y24130D01*
X37597Y32158D01*
X43102Y32158D01*
X43102Y30552D01*
X39203Y30552D01*
X39203Y29142D01*
X42643Y29142D01*
X42643Y27536D01*
X39203Y27536D01*
X39203Y25736D01*
X43102Y25736D01*
X43102Y24130D01*
G37*
G36*
X-12180Y36322D02*
X-13786Y36322D01*
X-13786Y38857D01*
X-11767Y44350D01*
X-10299Y44350D01*
X-8281Y38857D01*
X-8281Y36322D01*
X-9886Y36322D01*
X-9886Y37721D01*
X-12180Y37721D01*
X-12180Y36322D01*
G37*
%LPC*%
G36*
X-10162Y39327D02*
X-11033Y41701D01*
X-11905Y39327D01*
X-10162Y39327D01*
G37*
%LPD*%
G36*
X-12172Y24130D02*
X-13778Y24130D01*
X-13778Y32158D01*
X-12172Y32158D01*
X-12172Y29176D01*
X-9878Y29176D01*
X-9878Y32158D01*
X-8273Y32158D01*
X-8273Y24130D01*
X-9878Y24130D01*
X-9878Y27571D01*
X-12172Y27571D01*
X-12172Y24130D01*
G37*
G36*
X26144Y36322D02*
X25227Y36322D01*
X24993Y36334D01*
X24766Y36369D01*
X24547Y36426D01*
X24336Y36503D01*
X24136Y36600D01*
X23947Y36716D01*
X23770Y36848D01*
X23607Y36997D01*
X23459Y37161D01*
X23326Y37338D01*
X23211Y37528D01*
X23114Y37730D01*
X23037Y37942D01*
X22980Y38163D01*
X22945Y38392D01*
X22933Y38627D01*
X22933Y44350D01*
X24539Y44350D01*
X24539Y38627D01*
X24553Y38489D01*
X24593Y38360D01*
X24657Y38243D01*
X24741Y38141D01*
X24843Y38057D01*
X24960Y37993D01*
X25089Y37953D01*
X25227Y37939D01*
X26144Y37939D01*
X26283Y37953D01*
X26412Y37993D01*
X26528Y38057D01*
X26630Y38141D01*
X26715Y38243D01*
X26778Y38360D01*
X26818Y38489D01*
X26832Y38627D01*
X26832Y44350D01*
X28438Y44350D01*
X28438Y38627D01*
X28426Y38393D01*
X28391Y38166D01*
X28335Y37946D01*
X28257Y37735D01*
X28160Y37534D01*
X28045Y37343D01*
X27913Y37166D01*
X27764Y37002D01*
X27601Y36852D01*
X27425Y36719D01*
X27235Y36603D01*
X27035Y36505D01*
X26825Y36427D01*
X26605Y36369D01*
X26378Y36334D01*
X26144Y36322D01*
G37*
G36*
X4041Y24130D02*
X3272Y24130D01*
X3030Y24142D01*
X2795Y24178D01*
X2569Y24236D01*
X2352Y24315D01*
X2145Y24415D01*
X1950Y24533D01*
X1768Y24669D01*
X1601Y24821D01*
X1448Y24989D01*
X1312Y25170D01*
X1194Y25365D01*
X1095Y25572D01*
X1016Y25789D01*
X958Y26016D01*
X922Y26251D01*
X910Y26493D01*
X910Y26837D01*
X2515Y26837D01*
X2515Y26493D01*
X2531Y26341D01*
X2576Y26200D01*
X2646Y26072D01*
X2739Y25959D01*
X2851Y25866D01*
X2980Y25796D01*
X3121Y25751D01*
X3272Y25736D01*
X4041Y25736D01*
X4209Y25748D01*
X4359Y25784D01*
X4490Y25842D01*
X4601Y25919D01*
X4690Y26013D01*
X4755Y26123D01*
X4795Y26245D01*
X4809Y26378D01*
X4798Y26496D01*
X4767Y26607D01*
X4716Y26711D01*
X4646Y26811D01*
X4460Y26995D01*
X4218Y27165D01*
X3931Y27327D01*
X3612Y27484D01*
X2917Y27810D01*
X2564Y27989D01*
X2222Y28185D01*
X1902Y28403D01*
X1616Y28650D01*
X1374Y28931D01*
X1273Y29085D01*
X1187Y29250D01*
X1118Y29425D01*
X1067Y29613D01*
X1035Y29812D01*
X1024Y30025D01*
X1036Y30255D01*
X1070Y30476D01*
X1125Y30686D01*
X1202Y30886D01*
X1297Y31074D01*
X1412Y31249D01*
X1544Y31412D01*
X1694Y31560D01*
X1859Y31694D01*
X2040Y31813D01*
X2234Y31915D01*
X2442Y32001D01*
X2662Y32068D01*
X2894Y32118D01*
X3135Y32148D01*
X3387Y32158D01*
X3926Y32158D01*
X4168Y32146D01*
X4403Y32110D01*
X4631Y32052D01*
X4848Y31973D01*
X5056Y31874D01*
X5252Y31755D01*
X5435Y31619D01*
X5603Y31467D01*
X5757Y31299D01*
X5894Y31118D01*
X6013Y30923D01*
X6113Y30716D01*
X6193Y30499D01*
X6252Y30272D01*
X6288Y30038D01*
X6300Y29796D01*
X6300Y29566D01*
X4694Y29566D01*
X4694Y29796D01*
X4679Y29947D01*
X4634Y30088D01*
X4563Y30217D01*
X4469Y30329D01*
X4356Y30422D01*
X4225Y30492D01*
X4081Y30537D01*
X3926Y30552D01*
X3387Y30552D01*
X3210Y30543D01*
X3056Y30515D01*
X2926Y30470D01*
X2819Y30409D01*
X2736Y30333D01*
X2677Y30243D01*
X2642Y30140D01*
X2630Y30025D01*
X2641Y29952D01*
X2673Y29880D01*
X2793Y29741D01*
X2979Y29604D01*
X3221Y29465D01*
X3827Y29167D01*
X4522Y28821D01*
X4875Y28620D01*
X5217Y28397D01*
X5537Y28147D01*
X5823Y27867D01*
X6065Y27554D01*
X6166Y27383D01*
X6252Y27203D01*
X6321Y27013D01*
X6372Y26813D01*
X6404Y26601D01*
X6415Y26378D01*
X6403Y26143D01*
X6368Y25916D01*
X6311Y25698D01*
X6232Y25490D01*
X6134Y25292D01*
X6017Y25107D01*
X5882Y24935D01*
X5731Y24777D01*
X5564Y24633D01*
X5381Y24506D01*
X5186Y24395D01*
X4978Y24302D01*
X4758Y24228D01*
X4528Y24174D01*
X4288Y24141D01*
X4041Y24130D01*
G37*
G36*
X18728Y24130D02*
X17960Y24130D01*
X17718Y24142D01*
X17483Y24178D01*
X17256Y24236D01*
X17039Y24315D01*
X16832Y24415D01*
X16638Y24533D01*
X16456Y24669D01*
X16288Y24821D01*
X16136Y24989D01*
X16000Y25170D01*
X15882Y25365D01*
X15782Y25572D01*
X15703Y25789D01*
X15645Y26016D01*
X15609Y26251D01*
X15597Y26493D01*
X15597Y26837D01*
X17203Y26837D01*
X17203Y26493D01*
X17218Y26341D01*
X17263Y26200D01*
X17333Y26072D01*
X17426Y25959D01*
X17539Y25866D01*
X17667Y25796D01*
X17809Y25751D01*
X17960Y25736D01*
X18728Y25736D01*
X18896Y25748D01*
X19047Y25784D01*
X19178Y25842D01*
X19289Y25919D01*
X19377Y26013D01*
X19443Y26123D01*
X19483Y26245D01*
X19497Y26378D01*
X19486Y26496D01*
X19454Y26607D01*
X19403Y26711D01*
X19334Y26811D01*
X19147Y26995D01*
X18905Y27165D01*
X18619Y27327D01*
X18299Y27484D01*
X17604Y27810D01*
X17251Y27989D01*
X16909Y28185D01*
X16590Y28403D01*
X16303Y28650D01*
X16061Y28931D01*
X15960Y29085D01*
X15874Y29250D01*
X15805Y29425D01*
X15754Y29613D01*
X15723Y29812D01*
X15712Y30025D01*
X15723Y30255D01*
X15757Y30476D01*
X15813Y30686D01*
X15889Y30886D01*
X15985Y31074D01*
X16100Y31249D01*
X16232Y31412D01*
X16381Y31560D01*
X16547Y31694D01*
X16727Y31813D01*
X16922Y31915D01*
X17130Y32001D01*
X17350Y32068D01*
X17581Y32118D01*
X17823Y32148D01*
X18074Y32158D01*
X18613Y32158D01*
X18856Y32146D01*
X19091Y32110D01*
X19318Y32052D01*
X19536Y31973D01*
X19743Y31874D01*
X19939Y31755D01*
X20122Y31619D01*
X20291Y31467D01*
X20444Y31299D01*
X20581Y31118D01*
X20700Y30923D01*
X20800Y30716D01*
X20880Y30499D01*
X20939Y30272D01*
X20975Y30038D01*
X20988Y29796D01*
X20988Y29566D01*
X19382Y29566D01*
X19382Y29796D01*
X19366Y29947D01*
X19321Y30088D01*
X19251Y30217D01*
X19157Y30329D01*
X19043Y30422D01*
X18913Y30492D01*
X18768Y30537D01*
X18613Y30552D01*
X18074Y30552D01*
X17897Y30543D01*
X17743Y30515D01*
X17613Y30470D01*
X17507Y30409D01*
X17424Y30333D01*
X17365Y30243D01*
X17329Y30140D01*
X17318Y30025D01*
X17328Y29952D01*
X17360Y29880D01*
X17480Y29741D01*
X17667Y29604D01*
X17909Y29465D01*
X18515Y29167D01*
X19210Y28821D01*
X19563Y28620D01*
X19905Y28397D01*
X20224Y28147D01*
X20511Y27867D01*
X20753Y27554D01*
X20854Y27383D01*
X20940Y27203D01*
X21009Y27013D01*
X21060Y26813D01*
X21091Y26601D01*
X21102Y26378D01*
X21090Y26143D01*
X21055Y25916D01*
X20998Y25698D01*
X20920Y25490D01*
X20822Y25292D01*
X20705Y25107D01*
X20570Y24935D01*
X20418Y24777D01*
X20251Y24633D01*
X20069Y24506D01*
X19873Y24395D01*
X19665Y24302D01*
X19446Y24228D01*
X19215Y24174D01*
X18976Y24141D01*
X18728Y24130D01*
G37*
G36*
X18801Y36322D02*
X17883Y36322D01*
X17649Y36334D01*
X17422Y36369D01*
X17203Y36427D01*
X16993Y36505D01*
X16792Y36603D01*
X16603Y36719D01*
X16426Y36852D01*
X16263Y37002D01*
X16115Y37166D01*
X15982Y37343D01*
X15867Y37534D01*
X15770Y37735D01*
X15693Y37946D01*
X15636Y38166D01*
X15601Y38393D01*
X15589Y38627D01*
X15589Y42056D01*
X15601Y42290D01*
X15636Y42517D01*
X15693Y42737D01*
X15770Y42947D01*
X15867Y43147D01*
X15982Y43337D01*
X16115Y43513D01*
X16263Y43676D01*
X16426Y43825D01*
X16603Y43957D01*
X16792Y44072D01*
X16993Y44169D01*
X17203Y44247D01*
X17422Y44303D01*
X17649Y44338D01*
X17883Y44350D01*
X18801Y44350D01*
X19036Y44338D01*
X19265Y44304D01*
X19485Y44248D01*
X19696Y44171D01*
X19897Y44075D01*
X20086Y43960D01*
X20262Y43828D01*
X20425Y43681D01*
X20573Y43518D01*
X20704Y43342D01*
X20819Y43152D01*
X20915Y42952D01*
X20992Y42741D01*
X21048Y42520D01*
X21083Y42292D01*
X21094Y42056D01*
X21094Y41426D01*
X19489Y41426D01*
X19489Y42056D01*
X19475Y42198D01*
X19436Y42328D01*
X19374Y42445D01*
X19291Y42547D01*
X19190Y42630D01*
X19073Y42692D01*
X18942Y42731D01*
X18801Y42744D01*
X17883Y42744D01*
X17742Y42730D01*
X17611Y42690D01*
X17494Y42627D01*
X17393Y42542D01*
X17310Y42440D01*
X17248Y42324D01*
X17209Y42195D01*
X17195Y42056D01*
X17195Y38627D01*
X17209Y38489D01*
X17249Y38360D01*
X17313Y38243D01*
X17397Y38141D01*
X17499Y38057D01*
X17616Y37993D01*
X17745Y37953D01*
X17883Y37939D01*
X18801Y37939D01*
X18939Y37953D01*
X19068Y37993D01*
X19185Y38057D01*
X19287Y38141D01*
X19371Y38243D01*
X19434Y38360D01*
X19475Y38489D01*
X19489Y38627D01*
X19489Y39258D01*
X21094Y39258D01*
X21094Y38627D01*
X21082Y38392D01*
X21048Y38163D01*
X20991Y37942D01*
X20913Y37730D01*
X20816Y37528D01*
X20701Y37338D01*
X20569Y37161D01*
X20421Y36997D01*
X20257Y36848D01*
X20081Y36716D01*
X19892Y36600D01*
X19691Y36503D01*
X19481Y36426D01*
X19261Y36369D01*
X19034Y36334D01*
X18801Y36322D01*
G37*
G36*
X-15624Y36322D02*
X-21129Y36322D01*
X-21129Y37928D01*
X-19180Y37928D01*
X-19180Y42744D01*
X-21129Y42744D01*
X-21129Y44350D01*
X-15624Y44350D01*
X-15624Y42744D01*
X-17574Y42744D01*
X-17574Y37928D01*
X-15624Y37928D01*
X-15624Y36322D01*
G37*
G36*
X-929Y24130D02*
X-6434Y24130D01*
X-6434Y25736D01*
X-4484Y25736D01*
X-4484Y30552D01*
X-6434Y30552D01*
X-6434Y32158D01*
X-929Y32158D01*
X-929Y30552D01*
X-2879Y30552D01*
X-2879Y25736D01*
X-929Y25736D01*
X-929Y24130D01*
G37*
G36*
X28415Y24130D02*
X22910Y24130D01*
X22910Y25736D01*
X24859Y25736D01*
X24859Y30552D01*
X22910Y30552D01*
X22910Y32158D01*
X28415Y32158D01*
X28415Y30552D01*
X26465Y30552D01*
X26465Y25736D01*
X28415Y25736D01*
X28415Y24130D01*
G37*
G36*
X-26676Y36322D02*
X-28442Y36322D01*
X-26572Y40336D01*
X-28442Y44350D01*
X-26676Y44350D01*
X-25689Y42228D01*
X-24703Y44350D01*
X-22937Y44350D01*
X-24806Y40336D01*
X-22937Y36322D01*
X-24703Y36322D01*
X-25689Y38444D01*
X-26676Y36322D01*
G37*
G36*
X-17566Y24130D02*
X-19172Y24130D01*
X-19172Y30552D01*
X-21122Y30552D01*
X-21122Y32158D01*
X-15617Y32158D01*
X-15617Y30552D01*
X-17566Y30552D01*
X-17566Y24130D01*
G37*
D10*
X-2272Y78006D02*
X-10862Y60826D01*
X-10905Y60736D01*
X-10944Y60645D01*
X-10979Y60552D01*
X-11011Y60458D01*
X-11039Y60363D01*
X-11064Y60266D01*
X-11084Y60169D01*
X-11101Y60071D01*
X-11114Y59973D01*
X-11123Y59874D01*
X-11129Y59775D01*
X-11130Y59675D01*
X-11127Y59576D01*
X-11121Y59477D01*
X-11111Y59378D01*
X-11097Y59279D01*
X-11079Y59182D01*
X-11057Y59085D01*
X-11031Y58989D01*
X-11002Y58894D01*
X-10969Y58800D01*
X-10932Y58708D01*
X-10892Y58617D01*
X-10848Y58528D01*
X-10801Y58440D01*
X-10751Y58355D01*
X-10697Y58271D01*
X-10640Y58190D01*
X-10579Y58111D01*
X-10516Y58034D01*
X-10450Y57960D01*
X-10381Y57889D01*
X-10309Y57820D01*
X-10235Y57754D01*
X-10158Y57691D01*
X-10078Y57632D01*
X-9997Y57575D01*
X-9913Y57522D01*
X-9827Y57472D01*
X-9739Y57425D01*
X-9650Y57382D01*
X-9559Y57342D01*
X-9466Y57306D01*
X-9372Y57273D01*
X-9277Y57245D01*
X-9181Y57220D01*
X-9084Y57198D01*
X-8986Y57181D01*
X-8887Y57167D01*
X-8789Y57158D01*
X-8689Y57152D01*
X-8590Y57150D01*
X8590Y57150D01*
X8689Y57152D01*
X8789Y57158D01*
X8887Y57167D01*
X8986Y57181D01*
X9084Y57198D01*
X9181Y57220D01*
X9277Y57245D01*
X9372Y57273D01*
X9466Y57306D01*
X9559Y57342D01*
X9650Y57382D01*
X9739Y57425D01*
X9827Y57472D01*
X9913Y57522D01*
X9997Y57575D01*
X10078Y57632D01*
X10158Y57691D01*
X10235Y57754D01*
X10309Y57820D01*
X10381Y57889D01*
X10450Y57960D01*
X10516Y58034D01*
X10579Y58111D01*
X10640Y58190D01*
X10697Y58271D01*
X10751Y58355D01*
X10801Y58440D01*
X10848Y58528D01*
X10892Y58617D01*
X10932Y58708D01*
X10969Y58800D01*
X11002Y58894D01*
X11031Y58989D01*
X11057Y59085D01*
X11079Y59182D01*
X11097Y59279D01*
X11111Y59378D01*
X11121Y59477D01*
X11127Y59576D01*
X11130Y59675D01*
X11129Y59775D01*
X11123Y59874D01*
X11114Y59973D01*
X11101Y60071D01*
X11084Y60169D01*
X11064Y60266D01*
X11039Y60363D01*
X11011Y60458D01*
X10979Y60552D01*
X10944Y60645D01*
X10905Y60736D01*
X10862Y60826D01*
X2272Y78006D01*
X2226Y78093D01*
X2177Y78179D01*
X2124Y78262D01*
X2069Y78344D01*
X2010Y78423D01*
X1948Y78500D01*
X1883Y78574D01*
X1816Y78646D01*
X1745Y78715D01*
X1672Y78782D01*
X1597Y78845D01*
X1519Y78906D01*
X1439Y78963D01*
X1356Y79018D01*
X1272Y79069D01*
X1185Y79116D01*
X1097Y79161D01*
X1008Y79202D01*
X916Y79239D01*
X824Y79273D01*
X730Y79303D01*
X635Y79329D01*
X539Y79352D01*
X442Y79371D01*
X344Y79387D01*
X246Y79398D01*
X148Y79406D01*
X49Y79410D01*
X-49Y79410D01*
X-148Y79406D01*
X-246Y79398D01*
X-344Y79387D01*
X-442Y79371D01*
X-539Y79352D01*
X-635Y79329D01*
X-730Y79303D01*
X-824Y79273D01*
X-916Y79239D01*
X-1008Y79202D01*
X-1097Y79161D01*
X-1185Y79116D01*
X-1272Y79069D01*
X-1356Y79018D01*
X-1439Y78963D01*
X-1519Y78906D01*
X-1597Y78845D01*
X-1672Y78782D01*
X-1745Y78715D01*
X-1816Y78646D01*
X-1883Y78574D01*
X-1948Y78500D01*
X-2010Y78423D01*
X-2069Y78344D01*
X-2124Y78262D01*
X-2177Y78179D01*
X-2226Y78093D01*
X-2272Y78006D01*
X0Y62607D02*
X0Y61723D01*
X0Y67056D02*
X0Y72136D01*
D11*
X-88000Y9300D02*
X-88000Y193900D01*
X-88000Y9300D02*
X-87996Y8993D01*
X-87985Y8686D01*
X-87967Y8380D01*
X-87941Y8074D01*
X-87907Y7769D01*
X-87867Y7465D01*
X-87819Y7162D01*
X-87763Y6860D01*
X-87701Y6560D01*
X-87631Y6261D01*
X-87554Y5964D01*
X-87470Y5668D01*
X-87378Y5375D01*
X-87280Y5085D01*
X-87175Y4797D01*
X-87062Y4511D01*
X-86943Y4228D01*
X-86817Y3948D01*
X-86685Y3671D01*
X-86545Y3398D01*
X-86399Y3128D01*
X-86247Y2862D01*
X-86088Y2599D01*
X-85923Y2340D01*
X-85752Y2086D01*
X-85575Y1835D01*
X-85391Y1589D01*
X-85202Y1347D01*
X-85007Y1111D01*
X-84806Y878D01*
X-84600Y651D01*
X-84388Y429D01*
X-84171Y212D01*
X-83949Y0D01*
X-83722Y-206D01*
X-83489Y-407D01*
X-83253Y-602D01*
X-83011Y-791D01*
X-82765Y-975D01*
X-82514Y-1152D01*
X-82260Y-1323D01*
X-82001Y-1488D01*
X-81738Y-1647D01*
X-81472Y-1799D01*
X-81202Y-1945D01*
X-80929Y-2085D01*
X-80652Y-2217D01*
X-80372Y-2343D01*
X-80089Y-2462D01*
X-79803Y-2575D01*
X-79515Y-2680D01*
X-79225Y-2778D01*
X-78932Y-2870D01*
X-78636Y-2954D01*
X-78339Y-3031D01*
X-78040Y-3101D01*
X-77740Y-3163D01*
X-77438Y-3219D01*
X-77135Y-3267D01*
X-76831Y-3307D01*
X-76526Y-3341D01*
X-76220Y-3367D01*
X-75914Y-3385D01*
X-75607Y-3396D01*
X-75300Y-3400D01*
X75300Y-3400D01*
X75607Y-3396D01*
X75914Y-3385D01*
X76220Y-3367D01*
X76526Y-3341D01*
X76831Y-3307D01*
X77135Y-3267D01*
X77438Y-3219D01*
X77740Y-3163D01*
X78040Y-3101D01*
X78339Y-3031D01*
X78636Y-2954D01*
X78932Y-2870D01*
X79225Y-2778D01*
X79515Y-2680D01*
X79803Y-2575D01*
X80089Y-2462D01*
X80372Y-2343D01*
X80652Y-2217D01*
X80929Y-2085D01*
X81202Y-1945D01*
X81472Y-1799D01*
X81738Y-1647D01*
X82001Y-1488D01*
X82260Y-1323D01*
X82514Y-1152D01*
X82765Y-975D01*
X83011Y-791D01*
X83253Y-602D01*
X83489Y-407D01*
X83722Y-206D01*
X83949Y0D01*
X84171Y212D01*
X84388Y429D01*
X84600Y651D01*
X84806Y878D01*
X85007Y1111D01*
X85202Y1347D01*
X85391Y1589D01*
X85575Y1835D01*
X85752Y2086D01*
X85923Y2340D01*
X86088Y2599D01*
X86247Y2862D01*
X86399Y3128D01*
X86545Y3398D01*
X86685Y3671D01*
X86817Y3948D01*
X86943Y4228D01*
X87062Y4511D01*
X87175Y4797D01*
X87280Y5085D01*
X87378Y5375D01*
X87470Y5668D01*
X87554Y5964D01*
X87631Y6261D01*
X87701Y6560D01*
X87763Y6860D01*
X87819Y7162D01*
X87867Y7465D01*
X87907Y7769D01*
X87941Y8074D01*
X87967Y8380D01*
X87985Y8686D01*
X87996Y8993D01*
X88000Y9300D01*
X88000Y193900D01*
X87996Y194207D01*
X87985Y194514D01*
X87967Y194820D01*
X87941Y195126D01*
X87907Y195431D01*
X87867Y195735D01*
X87819Y196038D01*
X87763Y196340D01*
X87701Y196640D01*
X87631Y196939D01*
X87554Y197236D01*
X87470Y197532D01*
X87378Y197825D01*
X87280Y198115D01*
X87175Y198403D01*
X87062Y198689D01*
X86943Y198972D01*
X86817Y199252D01*
X86685Y199529D01*
X86545Y199802D01*
X86399Y200072D01*
X86247Y200338D01*
X86088Y200601D01*
X85923Y200860D01*
X85752Y201114D01*
X85575Y201365D01*
X85391Y201611D01*
X85202Y201853D01*
X85007Y202089D01*
X84806Y202322D01*
X84600Y202549D01*
X84388Y202771D01*
X84171Y202988D01*
X83949Y203200D01*
X83722Y203406D01*
X83489Y203607D01*
X83253Y203802D01*
X83011Y203991D01*
X82765Y204175D01*
X82514Y204352D01*
X82260Y204523D01*
X82001Y204688D01*
X81738Y204847D01*
X81472Y204999D01*
X81202Y205145D01*
X80929Y205285D01*
X80652Y205417D01*
X80372Y205543D01*
X80089Y205662D01*
X79803Y205775D01*
X79515Y205880D01*
X79225Y205978D01*
X78932Y206070D01*
X78636Y206154D01*
X78339Y206231D01*
X78040Y206301D01*
X77740Y206363D01*
X77438Y206419D01*
X77135Y206467D01*
X76831Y206507D01*
X76526Y206541D01*
X76220Y206567D01*
X75914Y206585D01*
X75607Y206596D01*
X75300Y206600D01*
X-75300Y206600D01*
X-75607Y206596D01*
X-75914Y206585D01*
X-76220Y206567D01*
X-76526Y206541D01*
X-76831Y206507D01*
X-77135Y206467D01*
X-77438Y206419D01*
X-77740Y206363D01*
X-78040Y206301D01*
X-78339Y206231D01*
X-78636Y206154D01*
X-78932Y206070D01*
X-79225Y205978D01*
X-79515Y205880D01*
X-79803Y205775D01*
X-80089Y205662D01*
X-80372Y205543D01*
X-80652Y205417D01*
X-80929Y205285D01*
X-81202Y205145D01*
X-81472Y204999D01*
X-81738Y204847D01*
X-82001Y204688D01*
X-82260Y204523D01*
X-82514Y204352D01*
X-82765Y204175D01*
X-83011Y203991D01*
X-83253Y203802D01*
X-83489Y203607D01*
X-83722Y203406D01*
X-83949Y203200D01*
X-84171Y202988D01*
X-84388Y202771D01*
X-84600Y202549D01*
X-84806Y202322D01*
X-85007Y202089D01*
X-85202Y201853D01*
X-85391Y201611D01*
X-85575Y201365D01*
X-85752Y201114D01*
X-85923Y200860D01*
X-86088Y200601D01*
X-86247Y200338D01*
X-86399Y200072D01*
X-86545Y199802D01*
X-86685Y199529D01*
X-86817Y199252D01*
X-86943Y198972D01*
X-87062Y198689D01*
X-87175Y198403D01*
X-87280Y198115D01*
X-87378Y197825D01*
X-87470Y197532D01*
X-87554Y197236D01*
X-87631Y196939D01*
X-87701Y196640D01*
X-87763Y196340D01*
X-87819Y196038D01*
X-87867Y195735D01*
X-87907Y195431D01*
X-87941Y195126D01*
X-87967Y194820D01*
X-87985Y194514D01*
X-87996Y194207D01*
X-88000Y193900D01*
X-48000Y220800D02*
X48000Y220800D01*
X48000Y147280D01*
D12*
X-48000Y147280D01*
D11*
X-48000Y220800D01*
D13*
X-106190Y188210D03*
M02*
