M48
;GenerationSoftware,Autodesk,EAGLE,9.7.0*%
;CreationDate,2026-02-24T04:43:25Z*%
FMAT,2
ICI,OFF
METRIC,TZ,000.000
T2C0.350
T1C0.838
%
G90
M71
T1
X-2000Y27250
X-2000Y25250
X0Y27250
X0Y25250
X2000Y27250
X2000Y25250
X2000Y29500
X2000Y31500
X0Y29500
X0Y31500
X-2000Y29500
X-2000Y31500
T2
X11430Y24130
X17272Y-20874
X-9398Y16520
X-6858Y16520
X-10668Y14320
X-15748Y14320
X-6858Y12121
X-11938Y12121
X-17018Y12121
X-18288Y9921
X-10668Y18720
X-28448Y-3277
X-15748Y5522
X-18288Y5522
X-20828Y5522
X-11938Y3322
X-18288Y14320
X-22098Y3322
X-13208Y1123
X-5588Y-12075
X-18288Y1123
X-14478Y-1077
X-10668Y-16474
X-18288Y-3277
X-19558Y-5476
X-8128Y-12075
X-5588Y-20874
X-13208Y-7676
X-19558Y7722
X-14478Y-5476
X-22098Y-5476
X-18288Y-7676
X-11938Y-9876
X-3048Y-20874
X-28448Y1123
X-17018Y20919
X-3048Y-12075
X-3048Y-16474
X-20828Y-3277
X-17018Y-14275
X-18288Y-12075
X-11938Y-18674
X-15748Y-16474
X-6858Y-23073
X-13208Y-16474
X-19558Y-14275
X-20828Y-16474
X-1778Y-23073
X-20828Y1123
X-20828Y-7676
X-15748Y-12075
X-8128Y-16474
X-1778Y-18674
X-13208Y-12075
X-6858Y-18674
X-5588Y18720
X-4318Y-18674
X-8128Y14320
X-9398Y-18674
X-5588Y-16474
X-15748Y-20874
X-4318Y-23073
X-10668Y-12075
X-14478Y-18674
X-19558Y3322
X10922Y20919
X7112Y18720
X19812Y14320
X18542Y12121
X10922Y12121
X12192Y5522
X18542Y3322
X18542Y-14275
X17272Y5522
X19812Y-3277
X3302Y-18674
X13462Y-14275
X8382Y20919
X19812Y-16474
X9652Y18720
X16002Y-1077
X3302Y-14275
X14732Y-3277
X16002Y-5476
X7112Y23119
X18542Y-9876
X4572Y24892
X-8128Y18720
X5588Y24892
X13462Y3322
X10922Y16520
X16002Y-9876
X3302Y20919
X10922Y-9876
X-13208Y18720
X7112Y-12075
X13462Y-9876
X18542Y-5476
X16002Y-14275
X17272Y-16474
X21082Y16520
X14732Y-16474
X16002Y7722
X2032Y-20874
X21082Y-5476
X4572Y18720
X8382Y-14275
X14732Y-12075
X14732Y1123
X2032Y-12075
X9652Y-16474
X16002Y12121
X7112Y-20874
X5842Y-14275
X13462Y-18674
X9652Y-20874
X4572Y-12075
X16002Y16520
X5842Y-23073
X5842Y-18674
X19812Y-12075
X4572Y-20874
X3302Y-23073
X8382Y-18674
X19812Y-7676
X-8148Y22712
X-25135Y6995
X-20066Y-11176
X-21188Y10160
X10922Y-24130
X-10311Y-24535
X23495Y1270
X1905Y19685
X20574Y11811
X15240Y20320
X22225Y-9525
X20257Y-14668
X14605Y-20320
X9970Y-22415
X-9398Y-22352
X-10795Y-20955
X-20257Y-14668
X-22225Y9144
X-19749Y14541
X-14605Y19685
X0Y-24342
X-21901Y-9582
X-8890Y22183
X9098Y24444
X24109Y10033
X20320Y5715
X3175Y15261
X-3951Y19558
X-3175Y15240
X-15240Y10795
X13335Y10795
X-1905Y-15240
X4572Y21971
X-4953Y18034
X-22860Y-5715
X-22860Y-3556
X-22860Y5715
X27284Y-3810
X-724Y17616
X-1524Y17616
X18161Y-508
X6858Y12806
X0Y17616
X20320Y2667
X8128Y12827
X762Y17616
X29972Y1016
X-28575Y3302
X21082Y-10414
X21844Y9525
X-9398Y20919
X-6858Y20919
X-6858Y25319
X-14732Y3175
X-12573Y5334
X20320Y4191
X22606Y4191
X-8382Y10541
X-6477Y12827
X14732Y-7676
X17272Y14320
X9652Y-12075
M30