G04 EAGLE Gerber RS-274X export*
G75*
%MOMM*%
%FSLAX34Y34*%
%LPD*%
%INBottom Copper*%
%IPPOS*%
%AMOC8*
5,1,8,0,0,1.08239X$1,22.5*%
G01*
G04 Define Apertures*
%ADD10C,1.346200*%
%ADD11C,0.550000*%
%ADD12C,0.203200*%
%ADD13C,0.508000*%
%ADD14C,0.406400*%
G36*
X-107678Y-248289D02*
X-107974Y-248352D01*
X-108272Y-248295D01*
X-117043Y-244684D01*
X-117119Y-244648D01*
X-143561Y-230130D01*
X-143597Y-230108D01*
X-145187Y-229116D01*
X-148343Y-227147D01*
X-159017Y-223802D01*
X-170191Y-223250D01*
X-181143Y-225525D01*
X-186155Y-228002D01*
X-186155Y-228002D01*
X-186155Y-228002D01*
X-186158Y-228004D01*
X-186158Y-228003D01*
X-186268Y-228048D01*
X-195279Y-230870D01*
X-195513Y-230905D01*
X-204956Y-230833D01*
X-205189Y-230795D01*
X-214157Y-227836D01*
X-214367Y-227728D01*
X-221999Y-222166D01*
X-222166Y-221999D01*
X-227728Y-214367D01*
X-227836Y-214157D01*
X-230795Y-205189D01*
X-230833Y-204956D01*
X-230905Y-195513D01*
X-230870Y-195279D01*
X-228048Y-186268D01*
X-228003Y-186158D01*
X-228004Y-186158D01*
X-225525Y-181143D01*
X-223250Y-170191D01*
X-223802Y-159017D01*
X-227147Y-148343D01*
X-229116Y-145187D01*
X-230108Y-143597D01*
X-230131Y-143559D01*
X-245327Y-115689D01*
X-245365Y-115608D01*
X-257192Y-86149D01*
X-257207Y-86107D01*
X-257500Y-85234D01*
X-258950Y-80902D01*
X-264898Y-71676D01*
X-272940Y-64204D01*
X-282579Y-58949D01*
X-293217Y-56238D01*
X-300000Y-56238D01*
X-300149Y-56223D01*
X-306071Y-55045D01*
X-306346Y-54932D01*
X-311367Y-51577D01*
X-311577Y-51367D01*
X-314932Y-46346D01*
X-315045Y-46071D01*
X-316223Y-40149D01*
X-316238Y-40000D01*
X-316238Y40000D01*
X-316223Y40149D01*
X-315045Y46071D01*
X-314932Y46346D01*
X-311577Y51367D01*
X-311367Y51577D01*
X-306346Y54932D01*
X-306071Y55045D01*
X-300149Y56223D01*
X-300000Y56238D01*
X-293217Y56238D01*
X-282579Y58949D01*
X-272940Y64204D01*
X-264898Y71676D01*
X-258950Y80902D01*
X-257802Y84330D01*
X-257802Y84330D01*
X-257207Y86107D01*
X-257192Y86149D01*
X-245365Y115608D01*
X-245327Y115689D01*
X-230131Y143559D01*
X-230108Y143597D01*
X-227147Y148343D01*
X-223802Y159017D01*
X-223250Y170191D01*
X-225525Y181143D01*
X-227664Y185470D01*
X-228004Y186158D01*
X-228048Y186268D01*
X-230870Y195279D01*
X-230905Y195513D01*
X-230833Y204956D01*
X-230795Y205189D01*
X-227836Y214157D01*
X-227728Y214367D01*
X-222166Y221999D01*
X-221999Y222166D01*
X-214367Y227728D01*
X-214157Y227836D01*
X-205189Y230795D01*
X-204956Y230833D01*
X-195513Y230905D01*
X-195279Y230870D01*
X-186268Y228048D01*
X-186158Y228003D01*
X-186158Y228004D01*
X-186155Y228002D01*
X-186155Y228002D01*
X-186155Y228002D01*
X-181143Y225525D01*
X-170191Y223250D01*
X-159017Y223802D01*
X-148343Y227147D01*
X-145187Y229116D01*
X-143597Y230108D01*
X-143566Y230127D01*
X-121180Y242662D01*
X-121115Y242695D01*
X-97642Y253053D01*
X-97575Y253079D01*
X-73226Y261166D01*
X-73191Y261176D01*
X-71387Y261682D01*
X-67693Y262717D01*
X-57854Y268518D01*
X-49834Y276649D01*
X-44169Y286566D01*
X-41238Y297604D01*
X-41238Y315000D01*
X-41223Y315149D01*
X-40045Y321071D01*
X-39932Y321346D01*
X-36577Y326367D01*
X-36367Y326577D01*
X-31346Y329932D01*
X-31071Y330045D01*
X-25149Y331223D01*
X-25000Y331238D01*
X25000Y331238D01*
X25149Y331223D01*
X31071Y330045D01*
X31346Y329932D01*
X36367Y326577D01*
X36577Y326367D01*
X39932Y321346D01*
X40045Y321071D01*
X41223Y315149D01*
X41238Y315000D01*
X41238Y297604D01*
X44169Y286566D01*
X49834Y276649D01*
X57854Y268518D01*
X67693Y262717D01*
X71387Y261682D01*
X73191Y261176D01*
X73226Y261166D01*
X90329Y255485D01*
X90601Y255326D01*
X90781Y255081D01*
X90850Y254786D01*
X90800Y254487D01*
X90636Y254232D01*
X90386Y254060D01*
X90089Y254000D01*
X66898Y254000D01*
X66612Y254056D01*
X66359Y254223D01*
X37905Y282677D01*
X37742Y282919D01*
X37682Y283216D01*
X37682Y303450D01*
X28474Y312658D01*
X28314Y312893D01*
X28251Y313190D01*
X28255Y313210D01*
X28255Y316642D01*
X26998Y319676D01*
X24676Y321998D01*
X21642Y323255D01*
X18358Y323255D01*
X15324Y321998D01*
X13002Y319676D01*
X11745Y316642D01*
X11745Y313358D01*
X13002Y310324D01*
X15324Y308002D01*
X18358Y306745D01*
X21642Y306745D01*
X24676Y308002D01*
X24772Y308098D01*
X25003Y308256D01*
X25299Y308321D01*
X25597Y308265D01*
X25850Y308098D01*
X32379Y301569D01*
X32542Y301328D01*
X32602Y301030D01*
X32602Y280796D01*
X64478Y248920D01*
X86393Y248920D01*
X86656Y248873D01*
X86914Y248714D01*
X87090Y248466D01*
X87155Y248170D01*
X87099Y247872D01*
X86932Y247619D01*
X84900Y245587D01*
X84658Y245424D01*
X84361Y245364D01*
X42767Y245364D01*
X41240Y243837D01*
X41020Y243684D01*
X40725Y243614D01*
X40426Y243665D01*
X40171Y243829D01*
X39999Y244079D01*
X39939Y244376D01*
X39939Y270993D01*
X24248Y286684D01*
X24093Y286909D01*
X24025Y287205D01*
X24078Y287503D01*
X24244Y287757D01*
X24495Y287927D01*
X24676Y288002D01*
X26998Y290324D01*
X28255Y293358D01*
X28255Y296642D01*
X26998Y299676D01*
X24676Y301998D01*
X21642Y303255D01*
X18358Y303255D01*
X15324Y301998D01*
X13002Y299676D01*
X11745Y296642D01*
X11745Y293358D01*
X13002Y290324D01*
X15324Y288002D01*
X16990Y287312D01*
X17228Y287155D01*
X17400Y286905D01*
X17460Y286608D01*
X17460Y286288D01*
X21692Y282056D01*
X21845Y281836D01*
X21915Y281541D01*
X21864Y281242D01*
X21701Y280987D01*
X21451Y280815D01*
X21153Y280755D01*
X18358Y280755D01*
X15324Y279498D01*
X13002Y277176D01*
X11745Y274142D01*
X11745Y270858D01*
X13002Y267824D01*
X13756Y267070D01*
X13909Y266850D01*
X13979Y266555D01*
X13928Y266256D01*
X13764Y266001D01*
X13514Y265829D01*
X13217Y265769D01*
X11178Y265769D01*
X10892Y265825D01*
X10639Y265992D01*
X7888Y268743D01*
X7728Y268979D01*
X7665Y269276D01*
X7723Y269573D01*
X8255Y270858D01*
X8255Y274142D01*
X6998Y277176D01*
X4676Y279498D01*
X1642Y280755D01*
X-1642Y280755D01*
X-4676Y279498D01*
X-6998Y277176D01*
X-8255Y274142D01*
X-8255Y270858D01*
X-6998Y267824D01*
X-4676Y265502D01*
X-1642Y264245D01*
X1642Y264245D01*
X3689Y265093D01*
X3968Y265151D01*
X4266Y265095D01*
X4519Y264928D01*
X8758Y260689D01*
X14675Y260689D01*
X14938Y260642D01*
X15196Y260483D01*
X15372Y260235D01*
X15437Y259939D01*
X15381Y259641D01*
X15214Y259388D01*
X13002Y257176D01*
X11745Y254142D01*
X11745Y250858D01*
X12432Y249200D01*
X12490Y248921D01*
X12434Y248622D01*
X12267Y248370D01*
X-9398Y226705D01*
X-9398Y192256D01*
X-9454Y191970D01*
X-9621Y191717D01*
X-17780Y183558D01*
X-17780Y179976D01*
X-17836Y179690D01*
X-18003Y179437D01*
X-19514Y177926D01*
X-19514Y174386D01*
X-17010Y171882D01*
X-13470Y171882D01*
X-11780Y173572D01*
X-11549Y173730D01*
X-11253Y173795D01*
X-10955Y173740D01*
X-10702Y173572D01*
X-9012Y171882D01*
X-5471Y171882D01*
X-4160Y173194D01*
X-3929Y173352D01*
X-3633Y173417D01*
X-3335Y173361D01*
X-3082Y173194D01*
X-1770Y171882D01*
X1770Y171882D01*
X3271Y173383D01*
X3502Y173541D01*
X3798Y173606D01*
X4096Y173550D01*
X4349Y173383D01*
X5850Y171882D01*
X9390Y171882D01*
X11894Y174386D01*
X11894Y177926D01*
X10383Y179437D01*
X10220Y179679D01*
X10160Y179976D01*
X10160Y187742D01*
X6573Y191329D01*
X6410Y191571D01*
X6350Y191868D01*
X6350Y219866D01*
X6406Y220152D01*
X6573Y220405D01*
X15966Y229798D01*
X16208Y229961D01*
X16505Y230021D01*
X25584Y230021D01*
X25847Y229974D01*
X26105Y229815D01*
X26281Y229567D01*
X26346Y229271D01*
X26290Y228973D01*
X26123Y228720D01*
X14986Y217583D01*
X14986Y199146D01*
X14930Y198860D01*
X14776Y198627D01*
X14776Y195080D01*
X17280Y192576D01*
X20820Y192576D01*
X23324Y195080D01*
X23324Y198627D01*
X23174Y198849D01*
X23114Y199146D01*
X23114Y213901D01*
X23170Y214187D01*
X23337Y214440D01*
X45910Y237013D01*
X46152Y237176D01*
X46449Y237236D01*
X80551Y237236D01*
X80837Y237180D01*
X81090Y237013D01*
X94837Y223266D01*
X126271Y223266D01*
X126557Y223210D01*
X126810Y223043D01*
X147903Y201950D01*
X148066Y201708D01*
X148121Y201434D01*
X150634Y198922D01*
X150897Y198870D01*
X151150Y198703D01*
X211613Y138240D01*
X211776Y137998D01*
X211836Y137701D01*
X211836Y122936D01*
X211785Y122661D01*
X211621Y122406D01*
X211371Y122234D01*
X211074Y122174D01*
X208036Y122174D01*
X207750Y122230D01*
X207517Y122384D01*
X203970Y122384D01*
X201466Y119880D01*
X201466Y116340D01*
X203970Y113836D01*
X207517Y113836D01*
X207739Y113986D01*
X208036Y114046D01*
X211074Y114046D01*
X211349Y113995D01*
X211604Y113831D01*
X211776Y113581D01*
X211836Y113284D01*
X211836Y112617D01*
X230663Y93790D01*
X230826Y93548D01*
X230886Y93251D01*
X230886Y14996D01*
X230830Y14710D01*
X230676Y14477D01*
X230676Y10930D01*
X233180Y8426D01*
X236727Y8426D01*
X236949Y8576D01*
X237246Y8636D01*
X264701Y8636D01*
X264987Y8580D01*
X265240Y8413D01*
X278923Y-5270D01*
X279086Y-5512D01*
X279146Y-5809D01*
X279146Y-15904D01*
X279099Y-16168D01*
X278940Y-16426D01*
X278692Y-16601D01*
X278396Y-16666D01*
X278098Y-16611D01*
X277845Y-16443D01*
X270292Y-8890D01*
X240128Y-8890D01*
X239842Y-8834D01*
X239589Y-8667D01*
X221203Y9719D01*
X221040Y9961D01*
X220980Y10258D01*
X220980Y91430D01*
X221036Y91716D01*
X221203Y91969D01*
X222714Y93480D01*
X222714Y97020D01*
X220210Y99524D01*
X216670Y99524D01*
X214166Y97020D01*
X214166Y93480D01*
X215677Y91969D01*
X215840Y91727D01*
X215900Y91430D01*
X215900Y7838D01*
X237708Y-13970D01*
X267872Y-13970D01*
X268158Y-14026D01*
X268411Y-14193D01*
X275367Y-21149D01*
X275530Y-21391D01*
X275590Y-21688D01*
X275590Y-33064D01*
X275539Y-33339D01*
X275375Y-33594D01*
X275125Y-33766D01*
X274828Y-33826D01*
X271070Y-33826D01*
X270575Y-34321D01*
X270333Y-34484D01*
X270036Y-34544D01*
X241819Y-34544D01*
X241533Y-34488D01*
X241280Y-34321D01*
X213329Y-6370D01*
X213166Y-6129D01*
X213106Y-5831D01*
X213106Y86245D01*
X94818Y204534D01*
X66241Y204534D01*
X65955Y204589D01*
X65702Y204757D01*
X50217Y220242D01*
X50054Y220483D01*
X49994Y220781D01*
X49994Y221480D01*
X47490Y223984D01*
X43950Y223984D01*
X41446Y221480D01*
X41446Y217940D01*
X43950Y215436D01*
X44649Y215436D01*
X44935Y215380D01*
X45188Y215213D01*
X62980Y197422D01*
X91556Y197422D01*
X91842Y197366D01*
X92095Y197198D01*
X205771Y83523D01*
X205934Y83281D01*
X205994Y82984D01*
X205994Y62186D01*
X205943Y61911D01*
X205779Y61656D01*
X205529Y61484D01*
X205232Y61424D01*
X202449Y61424D01*
X202163Y61480D01*
X201910Y61647D01*
X98203Y165354D01*
X-16902Y165354D01*
X-17187Y165410D01*
X-17440Y165577D01*
X-28413Y176550D01*
X-28576Y176791D01*
X-28636Y177089D01*
X-28636Y237801D01*
X-28580Y238087D01*
X-28413Y238340D01*
X-22614Y244139D01*
X-22378Y244299D01*
X-22081Y244362D01*
X-21784Y244304D01*
X-21642Y244245D01*
X-18358Y244245D01*
X-15324Y245502D01*
X-13002Y247824D01*
X-11745Y250858D01*
X-11745Y254142D01*
X-13002Y257176D01*
X-15324Y259498D01*
X-18358Y260755D01*
X-21642Y260755D01*
X-24676Y259498D01*
X-26998Y257176D01*
X-28255Y254142D01*
X-28255Y250858D01*
X-28196Y250716D01*
X-28138Y250437D01*
X-28194Y250139D01*
X-28362Y249886D01*
X-33939Y244308D01*
X-34159Y244155D01*
X-34454Y244085D01*
X-34753Y244136D01*
X-35008Y244300D01*
X-35180Y244550D01*
X-35240Y244847D01*
X-35240Y253237D01*
X-35184Y253523D01*
X-35017Y253775D01*
X-26731Y262061D01*
X-26731Y265044D01*
X-26684Y265307D01*
X-26525Y265565D01*
X-26277Y265741D01*
X-25981Y265806D01*
X-25683Y265750D01*
X-25430Y265583D01*
X-24946Y265098D01*
X-21737Y263769D01*
X-21524Y263769D01*
X-21524Y281231D01*
X-21737Y281231D01*
X-24946Y279902D01*
X-25430Y279417D01*
X-25650Y279264D01*
X-25945Y279195D01*
X-26244Y279245D01*
X-26499Y279409D01*
X-26671Y279659D01*
X-26731Y279956D01*
X-26731Y284361D01*
X-26675Y284647D01*
X-26508Y284900D01*
X-24138Y287270D01*
X-23902Y287430D01*
X-23605Y287493D01*
X-23308Y287435D01*
X-21642Y286745D01*
X-18358Y286745D01*
X-15324Y288002D01*
X-13002Y290324D01*
X-11745Y293358D01*
X-11745Y296642D01*
X-13002Y299676D01*
X-15324Y301998D01*
X-18358Y303255D01*
X-21642Y303255D01*
X-24676Y301998D01*
X-26998Y299676D01*
X-28255Y296642D01*
X-28255Y293358D01*
X-27565Y291692D01*
X-27507Y291413D01*
X-27563Y291115D01*
X-27730Y290862D01*
X-28986Y289606D01*
X-29206Y289453D01*
X-29501Y289383D01*
X-29800Y289434D01*
X-30055Y289597D01*
X-30227Y289848D01*
X-30287Y290145D01*
X-30287Y300805D01*
X-30231Y301091D01*
X-30064Y301344D01*
X-24138Y307270D01*
X-23902Y307430D01*
X-23605Y307493D01*
X-23308Y307435D01*
X-21642Y306745D01*
X-18358Y306745D01*
X-15324Y308002D01*
X-13002Y310324D01*
X-11745Y313358D01*
X-11745Y316642D01*
X-13002Y319676D01*
X-14605Y321279D01*
X-14758Y321499D01*
X-14828Y321794D01*
X-14777Y322093D01*
X-14613Y322348D01*
X-14363Y322520D01*
X-14066Y322580D01*
X-6448Y322580D01*
X-6162Y322524D01*
X-5909Y322357D01*
X-5652Y322100D01*
X-5494Y321869D01*
X-5429Y321573D01*
X-5485Y321275D01*
X-5652Y321022D01*
X-6998Y319676D01*
X-8255Y316642D01*
X-8255Y313358D01*
X-6998Y310324D01*
X-4676Y308002D01*
X-1642Y306745D01*
X1642Y306745D01*
X4676Y308002D01*
X6998Y310324D01*
X8255Y313358D01*
X8255Y316642D01*
X6998Y319676D01*
X4676Y321998D01*
X1642Y323255D01*
X693Y323255D01*
X407Y323311D01*
X154Y323478D01*
X-4028Y327660D01*
X-24043Y327660D01*
X-38923Y312780D01*
X-38923Y267427D01*
X-38979Y267141D01*
X-39146Y266888D01*
X-70055Y235979D01*
X-70297Y235816D01*
X-70594Y235756D01*
X-107709Y235756D01*
X-120992Y222473D01*
X-121234Y222310D01*
X-121531Y222250D01*
X-137136Y222250D01*
X-229870Y129516D01*
X-229870Y102829D01*
X-229926Y102543D01*
X-230093Y102290D01*
X-259185Y73198D01*
X-259185Y48253D01*
X-259241Y47967D01*
X-259408Y47714D01*
X-271339Y35783D01*
X-271581Y35620D01*
X-271878Y35560D01*
X-281930Y35560D01*
X-282216Y35616D01*
X-282469Y35783D01*
X-283980Y37294D01*
X-287520Y37294D01*
X-290024Y34790D01*
X-290024Y31250D01*
X-287520Y28746D01*
X-283980Y28746D01*
X-282469Y30257D01*
X-282227Y30420D01*
X-281930Y30480D01*
X-269458Y30480D01*
X-255690Y44248D01*
X-255471Y44401D01*
X-255176Y44471D01*
X-254877Y44420D01*
X-254621Y44256D01*
X-254450Y44006D01*
X-254389Y43709D01*
X-254389Y-65882D01*
X-223503Y-96769D01*
X-223340Y-97010D01*
X-223280Y-97308D01*
X-223280Y-97586D01*
X-220776Y-100090D01*
X-220498Y-100090D01*
X-220212Y-100145D01*
X-219959Y-100313D01*
X-213837Y-106434D01*
X-213674Y-106676D01*
X-213614Y-106973D01*
X-213614Y-141383D01*
X-207062Y-147935D01*
X-206899Y-148177D01*
X-206844Y-148451D01*
X-204331Y-150964D01*
X-204068Y-151015D01*
X-203815Y-151182D01*
X-141383Y-213614D01*
X-110246Y-213614D01*
X-109960Y-213670D01*
X-109722Y-213827D01*
X-109453Y-213880D01*
X-109200Y-214047D01*
X-98477Y-224770D01*
X-98314Y-225012D01*
X-98259Y-225286D01*
X-95746Y-227799D01*
X-95483Y-227850D01*
X-95230Y-228017D01*
X-81743Y-241504D01*
X-81590Y-241724D01*
X-81520Y-242019D01*
X-81571Y-242318D01*
X-81734Y-242573D01*
X-81985Y-242745D01*
X-82282Y-242805D01*
X-99285Y-242805D01*
X-99571Y-242750D01*
X-99824Y-242582D01*
X-101335Y-241071D01*
X-104876Y-241071D01*
X-107379Y-243575D01*
X-107379Y-247142D01*
X-107293Y-247264D01*
X-107221Y-247558D01*
X-107268Y-247858D01*
X-107429Y-248115D01*
X-107678Y-248289D01*
G37*
%LPC*%
G36*
X-1642Y286745D02*
X1642Y286745D01*
X4676Y288002D01*
X6998Y290324D01*
X8255Y293358D01*
X8255Y296642D01*
X6998Y299676D01*
X4676Y301998D01*
X1642Y303255D01*
X-1642Y303255D01*
X-4676Y301998D01*
X-6998Y299676D01*
X-8255Y296642D01*
X-8255Y293358D01*
X-6998Y290324D01*
X-4676Y288002D01*
X-1642Y286745D01*
G37*
G36*
X-18476Y274024D02*
X-11269Y274024D01*
X-11269Y274237D01*
X-12598Y277446D01*
X-15054Y279902D01*
X-18263Y281231D01*
X-18476Y281231D01*
X-18476Y274024D01*
G37*
G36*
X-18476Y263769D02*
X-18263Y263769D01*
X-15054Y265098D01*
X-12598Y267554D01*
X-11269Y270763D01*
X-11269Y270976D01*
X-18476Y270976D01*
X-18476Y263769D01*
G37*
G36*
X-1642Y244245D02*
X1642Y244245D01*
X4676Y245502D01*
X6998Y247824D01*
X8255Y250858D01*
X8255Y254142D01*
X6998Y257176D01*
X4676Y259498D01*
X1642Y260755D01*
X-1642Y260755D01*
X-4676Y259498D01*
X-6998Y257176D01*
X-8255Y254142D01*
X-8255Y250858D01*
X-6998Y247824D01*
X-4676Y245502D01*
X-1642Y244245D01*
G37*
G36*
X-204229Y178738D02*
X-195771Y178738D01*
X-187956Y181975D01*
X-181975Y187956D01*
X-178738Y195771D01*
X-178738Y204229D01*
X-181975Y212044D01*
X-187956Y218025D01*
X-195771Y221262D01*
X-204229Y221262D01*
X-212044Y218025D01*
X-218025Y212044D01*
X-221262Y204229D01*
X-221262Y195771D01*
X-218025Y187956D01*
X-212044Y181975D01*
X-204229Y178738D01*
G37*
G36*
X-204229Y-221262D02*
X-195771Y-221262D01*
X-187956Y-218025D01*
X-181975Y-212044D01*
X-178738Y-204229D01*
X-178738Y-195771D01*
X-181975Y-187956D01*
X-187956Y-181975D01*
X-195771Y-178738D01*
X-204229Y-178738D01*
X-212044Y-181975D01*
X-218025Y-187956D01*
X-221262Y-195771D01*
X-221262Y-204229D01*
X-218025Y-212044D01*
X-212044Y-218025D01*
X-204229Y-221262D01*
G37*
%LPD*%
G36*
X132330Y235010D02*
X132032Y234950D01*
X111858Y234950D01*
X111572Y235006D01*
X111319Y235173D01*
X93621Y252871D01*
X93496Y253036D01*
X93403Y253325D01*
X93430Y253627D01*
X93572Y253895D01*
X93808Y254085D01*
X94099Y254169D01*
X94400Y254133D01*
X97575Y253079D01*
X97642Y253053D01*
X121115Y242695D01*
X121180Y242662D01*
X132405Y236377D01*
X132545Y236276D01*
X132724Y236031D01*
X132794Y235736D01*
X132743Y235437D01*
X132580Y235182D01*
X132330Y235010D01*
G37*
G36*
X-2209Y-239504D02*
X-2506Y-239564D01*
X-71873Y-239564D01*
X-72159Y-239509D01*
X-72411Y-239341D01*
X-89483Y-222270D01*
X-89646Y-222028D01*
X-89701Y-221754D01*
X-92214Y-219242D01*
X-92477Y-219190D01*
X-92730Y-219023D01*
X-103453Y-208300D01*
X-103616Y-208058D01*
X-103671Y-207784D01*
X-106180Y-205276D01*
X-109727Y-205276D01*
X-109949Y-205426D01*
X-110246Y-205486D01*
X-137701Y-205486D01*
X-137987Y-205430D01*
X-138240Y-205263D01*
X-198068Y-145435D01*
X-198231Y-145193D01*
X-198286Y-144919D01*
X-200799Y-142407D01*
X-201062Y-142355D01*
X-201315Y-142188D01*
X-205263Y-138240D01*
X-205426Y-137998D01*
X-205486Y-137701D01*
X-205486Y-114818D01*
X-205439Y-114555D01*
X-205280Y-114297D01*
X-205032Y-114121D01*
X-204736Y-114056D01*
X-204438Y-114112D01*
X-204185Y-114279D01*
X-202430Y-116034D01*
X-198890Y-116034D01*
X-196386Y-113530D01*
X-196386Y-109990D01*
X-198890Y-107486D01*
X-201026Y-107486D01*
X-201312Y-107430D01*
X-201565Y-107263D01*
X-201707Y-107121D01*
X-201870Y-106880D01*
X-201930Y-106582D01*
X-201930Y-101818D01*
X-242482Y-61266D01*
X-242645Y-61024D01*
X-242705Y-60727D01*
X-242705Y57876D01*
X-242650Y58162D01*
X-242482Y58415D01*
X-211074Y89823D01*
X-211074Y96564D01*
X-211023Y96839D01*
X-210859Y97094D01*
X-210609Y97266D01*
X-210312Y97326D01*
X-210110Y97326D01*
X-207606Y99830D01*
X-207606Y103370D01*
X-210110Y105874D01*
X-213868Y105874D01*
X-214143Y105925D01*
X-214398Y106089D01*
X-214570Y106339D01*
X-214630Y106636D01*
X-214630Y122207D01*
X-214574Y122493D01*
X-214407Y122746D01*
X-196235Y140918D01*
X-195993Y141081D01*
X-195719Y141136D01*
X-193207Y143649D01*
X-193155Y143912D01*
X-192988Y144165D01*
X-144800Y192353D01*
X-144558Y192516D01*
X-144284Y192571D01*
X-141772Y195084D01*
X-141720Y195347D01*
X-141553Y195600D01*
X-130620Y206533D01*
X-130378Y206696D01*
X-130081Y206756D01*
X-115157Y206756D01*
X-104370Y217543D01*
X-104128Y217706D01*
X-103831Y217766D01*
X-91196Y217766D01*
X-90910Y217710D01*
X-90677Y217556D01*
X-87130Y217556D01*
X-84626Y220060D01*
X-84626Y222378D01*
X-84579Y222641D01*
X-84420Y222899D01*
X-84172Y223075D01*
X-83876Y223140D01*
X-83578Y223084D01*
X-83325Y222917D01*
X-83255Y222846D01*
X-79714Y222846D01*
X-77210Y225350D01*
X-77210Y228890D01*
X-77695Y229375D01*
X-77848Y229595D01*
X-77918Y229890D01*
X-77867Y230189D01*
X-77704Y230444D01*
X-77454Y230616D01*
X-77156Y230676D01*
X-68174Y230676D01*
X-45177Y253673D01*
X-44957Y253826D01*
X-44662Y253896D01*
X-44363Y253845D01*
X-44108Y253682D01*
X-43936Y253432D01*
X-43876Y253135D01*
X-43876Y203872D01*
X-43932Y203586D01*
X-44099Y203333D01*
X-47344Y200088D01*
X-47344Y192337D01*
X-44099Y189092D01*
X-43936Y188850D01*
X-43876Y188553D01*
X-43876Y182570D01*
X-43923Y182307D01*
X-44082Y182049D01*
X-44330Y181873D01*
X-44626Y181808D01*
X-44924Y181864D01*
X-45177Y182031D01*
X-47760Y184614D01*
X-51300Y184614D01*
X-51795Y184119D01*
X-52037Y183956D01*
X-52334Y183896D01*
X-132283Y183896D01*
X-201676Y114503D01*
X-201676Y89419D01*
X-201732Y89133D01*
X-201899Y88880D01*
X-229132Y61647D01*
X-229373Y61484D01*
X-229671Y61424D01*
X-230370Y61424D01*
X-232874Y58920D01*
X-232874Y55380D01*
X-232379Y54885D01*
X-232216Y54643D01*
X-232156Y54346D01*
X-232156Y-32756D01*
X-232212Y-33042D01*
X-232379Y-33295D01*
X-232874Y-33790D01*
X-232874Y-37330D01*
X-232379Y-37825D01*
X-232216Y-38067D01*
X-232156Y-38364D01*
X-232156Y-54346D01*
X-232212Y-54632D01*
X-232379Y-54885D01*
X-232874Y-55380D01*
X-232874Y-58920D01*
X-230370Y-61424D01*
X-226830Y-61424D01*
X-224326Y-58920D01*
X-224326Y-55380D01*
X-224821Y-54885D01*
X-224984Y-54643D01*
X-225044Y-54346D01*
X-225044Y-38364D01*
X-224988Y-38078D01*
X-224821Y-37825D01*
X-224326Y-37330D01*
X-224326Y-33790D01*
X-224821Y-33295D01*
X-224984Y-33053D01*
X-225044Y-32756D01*
X-225044Y54346D01*
X-224988Y54632D01*
X-224821Y54885D01*
X-224326Y55380D01*
X-224326Y56079D01*
X-224270Y56365D01*
X-224103Y56618D01*
X-194564Y86157D01*
X-194564Y111241D01*
X-194508Y111527D01*
X-194341Y111780D01*
X-129560Y176561D01*
X-129319Y176724D01*
X-129021Y176784D01*
X-52334Y176784D01*
X-52048Y176728D01*
X-51795Y176561D01*
X-51300Y176066D01*
X-47760Y176066D01*
X-45177Y178649D01*
X-44957Y178802D01*
X-44662Y178872D01*
X-44363Y178821D01*
X-44108Y178657D01*
X-43936Y178407D01*
X-43876Y178110D01*
X-43876Y170311D01*
X-34513Y160948D01*
X-34350Y160706D01*
X-34290Y160409D01*
X-34290Y156220D01*
X-34346Y155934D01*
X-34513Y155681D01*
X-35031Y155163D01*
X-35273Y155000D01*
X-35570Y154940D01*
X-109002Y154940D01*
X-151495Y112447D01*
X-151737Y112284D01*
X-152034Y112224D01*
X-154170Y112224D01*
X-156674Y109720D01*
X-156674Y107584D01*
X-156730Y107298D01*
X-156897Y107045D01*
X-167640Y96302D01*
X-167640Y-101382D01*
X-114082Y-154940D01*
X-22870Y-154940D01*
X-22584Y-154996D01*
X-22331Y-155163D01*
X-20820Y-156674D01*
X-17280Y-156674D01*
X-14776Y-154170D01*
X-14776Y-150630D01*
X-17280Y-148126D01*
X-20820Y-148126D01*
X-22331Y-149637D01*
X-22573Y-149800D01*
X-22870Y-149860D01*
X-111662Y-149860D01*
X-111948Y-149804D01*
X-112201Y-149637D01*
X-162337Y-99501D01*
X-162500Y-99260D01*
X-162560Y-98962D01*
X-162560Y93882D01*
X-162504Y94168D01*
X-162337Y94421D01*
X-153305Y103453D01*
X-153064Y103616D01*
X-152766Y103676D01*
X-150630Y103676D01*
X-148126Y106180D01*
X-148126Y108316D01*
X-148070Y108602D01*
X-147903Y108855D01*
X-107121Y149637D01*
X-106880Y149800D01*
X-106582Y149860D01*
X-35570Y149860D01*
X-35284Y149804D01*
X-35031Y149637D01*
X-33520Y148126D01*
X-29980Y148126D01*
X-28469Y149637D01*
X-28227Y149800D01*
X-27930Y149860D01*
X19003Y149860D01*
X19289Y149804D01*
X19542Y149637D01*
X24609Y144570D01*
X92822Y144570D01*
X93108Y144514D01*
X93361Y144347D01*
X128853Y108855D01*
X129016Y108614D01*
X129076Y108316D01*
X129076Y106180D01*
X131580Y103676D01*
X135120Y103676D01*
X137624Y106180D01*
X137624Y109720D01*
X135120Y112224D01*
X132984Y112224D01*
X132698Y112280D01*
X132445Y112447D01*
X95242Y149650D01*
X36674Y149650D01*
X36411Y149697D01*
X36153Y149856D01*
X35977Y150104D01*
X35912Y150400D01*
X35968Y150698D01*
X36024Y150783D01*
X36024Y154380D01*
X34479Y155925D01*
X34326Y156145D01*
X34256Y156440D01*
X34307Y156739D01*
X34471Y156994D01*
X34721Y157166D01*
X35018Y157226D01*
X94521Y157226D01*
X94807Y157170D01*
X95060Y157003D01*
X198977Y53086D01*
X200904Y53086D01*
X201190Y53030D01*
X201423Y52876D01*
X205232Y52876D01*
X205507Y52825D01*
X205762Y52661D01*
X205934Y52411D01*
X205994Y52114D01*
X205994Y31706D01*
X205943Y31431D01*
X205779Y31176D01*
X205529Y31004D01*
X205232Y30944D01*
X201430Y30944D01*
X199919Y29433D01*
X199677Y29270D01*
X199380Y29210D01*
X182978Y29210D01*
X182692Y29266D01*
X182439Y29433D01*
X85777Y126095D01*
X85614Y126337D01*
X85554Y126634D01*
X85554Y130040D01*
X83050Y132544D01*
X79510Y132544D01*
X77006Y130040D01*
X77006Y126500D01*
X79510Y123996D01*
X80376Y123996D01*
X80662Y123940D01*
X80915Y123773D01*
X180558Y24130D01*
X199380Y24130D01*
X199666Y24074D01*
X199919Y23907D01*
X201430Y22396D01*
X205232Y22396D01*
X205507Y22345D01*
X205762Y22181D01*
X205934Y21931D01*
X205994Y21634D01*
X205994Y-9093D01*
X238557Y-41656D01*
X270036Y-41656D01*
X270322Y-41712D01*
X270575Y-41879D01*
X271070Y-42374D01*
X273156Y-42374D01*
X273419Y-42421D01*
X273677Y-42580D01*
X273852Y-42828D01*
X273917Y-43124D01*
X273862Y-43422D01*
X273694Y-43675D01*
X268062Y-49307D01*
X267821Y-49470D01*
X267524Y-49530D01*
X244058Y-49530D01*
X208280Y-85308D01*
X208280Y-100320D01*
X208224Y-100606D01*
X208057Y-100859D01*
X206546Y-102370D01*
X206546Y-105910D01*
X209050Y-108414D01*
X212590Y-108414D01*
X215094Y-105910D01*
X215094Y-102370D01*
X213583Y-100859D01*
X213420Y-100617D01*
X213360Y-100320D01*
X213360Y-87728D01*
X213416Y-87442D01*
X213583Y-87189D01*
X245939Y-54833D01*
X246181Y-54670D01*
X246478Y-54610D01*
X255303Y-54610D01*
X255566Y-54657D01*
X255824Y-54816D01*
X256000Y-55064D01*
X256065Y-55360D01*
X256009Y-55658D01*
X255842Y-55911D01*
X221000Y-90753D01*
X220758Y-90916D01*
X220484Y-90971D01*
X217976Y-93480D01*
X217976Y-97027D01*
X218126Y-97249D01*
X218186Y-97546D01*
X218186Y-125001D01*
X218130Y-125287D01*
X217963Y-125540D01*
X201315Y-142188D01*
X201073Y-142351D01*
X200799Y-142406D01*
X198287Y-144919D01*
X198235Y-145182D01*
X198068Y-145435D01*
X144800Y-198703D01*
X144558Y-198866D01*
X144284Y-198921D01*
X141772Y-201434D01*
X141720Y-201697D01*
X141553Y-201950D01*
X131890Y-211613D01*
X131648Y-211776D01*
X131351Y-211836D01*
X106267Y-211836D01*
X98445Y-219658D01*
X98203Y-219821D01*
X97929Y-219876D01*
X95417Y-222389D01*
X95365Y-222652D01*
X95198Y-222905D01*
X78761Y-239341D01*
X78520Y-239504D01*
X78223Y-239564D01*
X2506Y-239564D01*
X2220Y-239509D01*
X1967Y-239341D01*
X1770Y-239144D01*
X-1770Y-239144D01*
X-1967Y-239341D01*
X-2209Y-239504D01*
G37*
%LPC*%
G36*
X-60765Y-113762D02*
X60765Y-113762D01*
X77988Y-110101D01*
X94073Y-102940D01*
X108318Y-92590D01*
X120100Y-79505D01*
X128903Y-64257D01*
X134344Y-47511D01*
X136185Y-30000D01*
X134344Y-12489D01*
X128903Y4257D01*
X124810Y11347D01*
X73477Y100258D01*
X72540Y101881D01*
X68138Y109505D01*
X56356Y122590D01*
X42112Y132940D01*
X26026Y140101D01*
X8804Y143762D01*
X-8804Y143762D01*
X-26026Y140101D01*
X-42112Y132940D01*
X-56356Y122590D01*
X-68138Y109505D01*
X-72540Y101881D01*
X-73477Y100258D01*
X-124810Y11347D01*
X-128903Y4257D01*
X-134344Y-12489D01*
X-136185Y-30000D01*
X-134344Y-47511D01*
X-128903Y-64257D01*
X-120100Y-79505D01*
X-108318Y-92590D01*
X-94073Y-102940D01*
X-77988Y-110101D01*
X-60765Y-113762D01*
G37*
G36*
X179840Y-9354D02*
X183380Y-9354D01*
X185884Y-6850D01*
X185884Y-3310D01*
X184373Y-1799D01*
X184210Y-1557D01*
X184150Y-1260D01*
X184150Y16082D01*
X73077Y127155D01*
X72914Y127397D01*
X72854Y127694D01*
X72854Y129830D01*
X70350Y132334D01*
X66810Y132334D01*
X64306Y129830D01*
X64306Y126290D01*
X66810Y123786D01*
X68946Y123786D01*
X69232Y123730D01*
X69485Y123563D01*
X178847Y14201D01*
X179010Y13960D01*
X179070Y13662D01*
X179070Y-1260D01*
X179014Y-1546D01*
X178847Y-1799D01*
X177336Y-3310D01*
X177336Y-6850D01*
X179840Y-9354D01*
G37*
%LPD*%
G36*
X247329Y108742D02*
X247033Y108677D01*
X246735Y108732D01*
X246482Y108900D01*
X223743Y131639D01*
X223580Y131881D01*
X223520Y132178D01*
X223520Y144562D01*
X187509Y180574D01*
X187358Y180787D01*
X187286Y181082D01*
X187334Y181381D01*
X187496Y181638D01*
X187745Y181812D01*
X188041Y181874D01*
X188339Y181816D01*
X195771Y178738D01*
X204229Y178738D01*
X212044Y181975D01*
X218025Y187956D01*
X221262Y195771D01*
X221262Y204229D01*
X218025Y212044D01*
X212044Y218025D01*
X204229Y221262D01*
X195771Y221262D01*
X187956Y218025D01*
X181975Y212044D01*
X178738Y204229D01*
X178738Y195771D01*
X181816Y188339D01*
X181873Y188084D01*
X181827Y187784D01*
X181668Y187526D01*
X181421Y187351D01*
X181125Y187285D01*
X180826Y187341D01*
X180574Y187509D01*
X134710Y233372D01*
X134526Y233669D01*
X134489Y233970D01*
X134572Y234262D01*
X134763Y234498D01*
X135030Y234641D01*
X135332Y234668D01*
X135621Y234576D01*
X143566Y230127D01*
X143597Y230108D01*
X145187Y229116D01*
X148343Y227147D01*
X159017Y223802D01*
X170191Y223250D01*
X181143Y225525D01*
X186155Y228002D01*
X186155Y228002D01*
X186155Y228002D01*
X186158Y228004D01*
X186158Y228003D01*
X186268Y228048D01*
X195279Y230870D01*
X195513Y230905D01*
X204956Y230833D01*
X205189Y230795D01*
X214157Y227836D01*
X214367Y227728D01*
X221999Y222166D01*
X222166Y221999D01*
X227728Y214367D01*
X227836Y214157D01*
X230795Y205189D01*
X230833Y204956D01*
X230905Y195513D01*
X230870Y195279D01*
X228048Y186268D01*
X228004Y186158D01*
X227664Y185470D01*
X225525Y181143D01*
X223250Y170191D01*
X223802Y159017D01*
X227147Y148343D01*
X230108Y143597D01*
X230131Y143559D01*
X245327Y115689D01*
X245365Y115608D01*
X247728Y109723D01*
X247782Y109475D01*
X247736Y109175D01*
X247577Y108917D01*
X247329Y108742D01*
G37*
G36*
X30160Y-269555D02*
X43Y-271237D01*
X-43Y-271237D01*
X-30160Y-269555D01*
X-30245Y-269545D01*
X-59988Y-264520D01*
X-60071Y-264501D01*
X-89069Y-256195D01*
X-89149Y-256168D01*
X-101493Y-251086D01*
X-101715Y-250945D01*
X-101895Y-250701D01*
X-101965Y-250405D01*
X-101914Y-250107D01*
X-101750Y-249851D01*
X-101500Y-249680D01*
X-101368Y-249653D01*
X-99824Y-248108D01*
X-99582Y-247946D01*
X-99285Y-247885D01*
X-81143Y-247885D01*
X-80857Y-247941D01*
X-80604Y-248108D01*
X-77464Y-251248D01*
X83814Y-251248D01*
X90999Y-244063D01*
X91241Y-243900D01*
X91538Y-243840D01*
X105400Y-243840D01*
X105686Y-243896D01*
X105939Y-244063D01*
X107450Y-245574D01*
X110990Y-245574D01*
X113494Y-243070D01*
X113494Y-239530D01*
X110990Y-237026D01*
X107450Y-237026D01*
X105939Y-238537D01*
X105697Y-238700D01*
X105400Y-238760D01*
X92677Y-238760D01*
X92414Y-238713D01*
X92156Y-238554D01*
X91980Y-238306D01*
X91915Y-238010D01*
X91971Y-237712D01*
X92138Y-237459D01*
X100945Y-228652D01*
X101187Y-228489D01*
X101461Y-228434D01*
X103974Y-225921D01*
X104025Y-225658D01*
X104192Y-225405D01*
X109410Y-220187D01*
X109652Y-220024D01*
X109949Y-219964D01*
X135033Y-219964D01*
X147300Y-207697D01*
X147542Y-207534D01*
X147816Y-207479D01*
X150329Y-204966D01*
X150380Y-204703D01*
X150547Y-204450D01*
X203815Y-151182D01*
X204057Y-151019D01*
X204331Y-150964D01*
X206844Y-148451D01*
X206895Y-148188D01*
X207062Y-147935D01*
X226314Y-128683D01*
X226314Y-97546D01*
X226370Y-97260D01*
X226527Y-97022D01*
X226580Y-96753D01*
X226747Y-96500D01*
X261810Y-61437D01*
X262052Y-61274D01*
X262349Y-61214D01*
X272679Y-61214D01*
X287274Y-46619D01*
X287274Y-2127D01*
X268383Y16764D01*
X239776Y16764D01*
X239501Y16815D01*
X239246Y16979D01*
X239074Y17229D01*
X239014Y17526D01*
X239014Y93251D01*
X239070Y93537D01*
X239237Y93790D01*
X241280Y95833D01*
X241522Y95996D01*
X241819Y96056D01*
X243078Y96056D01*
X243353Y96005D01*
X243608Y95841D01*
X243780Y95591D01*
X243840Y95294D01*
X243840Y76418D01*
X296957Y23301D01*
X297120Y23060D01*
X297180Y22762D01*
X297180Y13980D01*
X297124Y13694D01*
X296957Y13441D01*
X295446Y11930D01*
X295446Y8390D01*
X297950Y5886D01*
X301490Y5886D01*
X303994Y8390D01*
X303994Y11930D01*
X302483Y13441D01*
X302320Y13683D01*
X302260Y13980D01*
X302260Y25182D01*
X249143Y78299D01*
X248980Y78541D01*
X248920Y78838D01*
X248920Y102810D01*
X248968Y103076D01*
X249128Y103333D01*
X249376Y103508D01*
X249672Y103572D01*
X249970Y103516D01*
X250222Y103348D01*
X250389Y103094D01*
X257192Y86149D01*
X257207Y86107D01*
X257802Y84330D01*
X257802Y84330D01*
X258950Y80902D01*
X264898Y71676D01*
X272940Y64204D01*
X282579Y58949D01*
X293217Y56238D01*
X300000Y56238D01*
X300149Y56223D01*
X306071Y55045D01*
X306346Y54932D01*
X311367Y51577D01*
X311577Y51367D01*
X314932Y46346D01*
X315045Y46071D01*
X316223Y40149D01*
X316238Y40000D01*
X316238Y-40000D01*
X316223Y-40149D01*
X315045Y-46071D01*
X314932Y-46346D01*
X311577Y-51367D01*
X311367Y-51577D01*
X306346Y-54932D01*
X306071Y-55045D01*
X300149Y-56223D01*
X300000Y-56238D01*
X293217Y-56238D01*
X282579Y-58949D01*
X272940Y-64204D01*
X264898Y-71676D01*
X258950Y-80902D01*
X257500Y-85234D01*
X257207Y-86107D01*
X257192Y-86149D01*
X245365Y-115608D01*
X245327Y-115689D01*
X230131Y-143559D01*
X230108Y-143597D01*
X229116Y-145187D01*
X227147Y-148343D01*
X223802Y-159017D01*
X223250Y-170191D01*
X225525Y-181143D01*
X228002Y-186155D01*
X228002Y-186155D01*
X228002Y-186155D01*
X228004Y-186158D01*
X228003Y-186158D01*
X228048Y-186268D01*
X230870Y-195279D01*
X230905Y-195513D01*
X230833Y-204956D01*
X230795Y-205189D01*
X227836Y-214157D01*
X227728Y-214367D01*
X222166Y-221999D01*
X221999Y-222166D01*
X214367Y-227728D01*
X214157Y-227836D01*
X205189Y-230795D01*
X204956Y-230833D01*
X195513Y-230905D01*
X195279Y-230870D01*
X186268Y-228048D01*
X186158Y-228003D01*
X186158Y-228004D01*
X186155Y-228002D01*
X186155Y-228002D01*
X186155Y-228002D01*
X181143Y-225525D01*
X170191Y-223250D01*
X159017Y-223802D01*
X148343Y-227147D01*
X143597Y-230108D01*
X143561Y-230130D01*
X117119Y-244648D01*
X117043Y-244684D01*
X111790Y-246847D01*
X111536Y-246903D01*
X111526Y-246902D01*
X111319Y-247041D01*
X89149Y-256168D01*
X89069Y-256195D01*
X60071Y-264501D01*
X59988Y-264520D01*
X30245Y-269545D01*
X30160Y-269555D01*
G37*
%LPC*%
G36*
X195771Y-221262D02*
X204229Y-221262D01*
X212044Y-218025D01*
X218025Y-212044D01*
X221262Y-204229D01*
X221262Y-195771D01*
X218025Y-187956D01*
X212044Y-181975D01*
X204229Y-178738D01*
X195771Y-178738D01*
X187956Y-181975D01*
X181975Y-187956D01*
X178738Y-195771D01*
X178738Y-204229D01*
X181975Y-212044D01*
X187956Y-218025D01*
X195771Y-221262D01*
G37*
%LPD*%
D10*
X-20000Y315000D03*
X-20000Y295000D03*
X0Y315000D03*
X0Y295000D03*
X20000Y315000D03*
X20000Y295000D03*
X20000Y252500D03*
X20000Y272500D03*
X0Y252500D03*
X0Y272500D03*
X-20000Y252500D03*
X-20000Y272500D03*
D11*
X-68580Y253187D03*
X-68580Y209194D03*
X-93980Y209194D03*
X-81280Y187198D03*
X-132080Y187198D03*
X-93980Y165201D03*
X-68580Y165201D03*
X-106680Y143205D03*
X-157480Y143205D03*
X-68580Y121208D03*
X-119380Y121208D03*
X-170180Y121208D03*
X-182880Y99212D03*
X-106680Y187198D03*
X-284480Y-32766D03*
X-157480Y55219D03*
X-182880Y55219D03*
X-208280Y55219D03*
X-119380Y33223D03*
X-182880Y143205D03*
X-220980Y33223D03*
X-132080Y11227D03*
X-55880Y-120752D03*
X-182880Y11227D03*
X-144780Y-10770D03*
X-106680Y-164745D03*
X-182880Y-32766D03*
X-195580Y-54763D03*
X-81280Y-120752D03*
X-55880Y-208737D03*
X-132080Y-76759D03*
X-195580Y77216D03*
X-144780Y-54763D03*
X-220980Y-54763D03*
X-182880Y-76759D03*
X-119380Y-98755D03*
X-30480Y-208737D03*
X-284480Y11227D03*
X-170180Y209194D03*
X-30480Y-120752D03*
X-30480Y-164745D03*
X-208280Y-32766D03*
X-170180Y-142748D03*
X-182880Y-120752D03*
X-119380Y-186741D03*
X-157480Y-164745D03*
X-68580Y-230734D03*
X-132080Y-164745D03*
X-195580Y-142748D03*
X-208280Y-164745D03*
X-17780Y-230734D03*
X-208280Y11227D03*
X-208280Y-76759D03*
X-157480Y-120752D03*
X-81280Y-164745D03*
X-17780Y-186741D03*
X-132080Y-120752D03*
X-68580Y-186741D03*
X-55880Y187198D03*
X-43180Y-186741D03*
X-81280Y143205D03*
X-93980Y-186741D03*
X-55880Y-164745D03*
X-157480Y-208737D03*
X-43180Y-230734D03*
X-106680Y-120752D03*
X-144780Y-186741D03*
X-195580Y33223D03*
X109220Y209194D03*
X71120Y187198D03*
X198120Y143205D03*
X185420Y121208D03*
X109220Y121208D03*
X121920Y55219D03*
X185420Y33223D03*
X185420Y-142748D03*
X172720Y55219D03*
X198120Y-32766D03*
X33020Y-186741D03*
X134620Y-142748D03*
X83820Y209194D03*
X198120Y-164745D03*
X96520Y187198D03*
X160020Y-10770D03*
X33020Y-142748D03*
X147320Y-32766D03*
X160020Y-54763D03*
X71120Y231190D03*
X185420Y-98755D03*
X172720Y143205D03*
X172720Y-208737D03*
X147320Y-76759D03*
X134620Y33223D03*
X109220Y165201D03*
X160020Y-98755D03*
X33020Y209194D03*
X109220Y-98755D03*
X96520Y-120752D03*
X71120Y-120752D03*
X134620Y-98755D03*
X185420Y-54763D03*
X160020Y-142748D03*
X172720Y-164745D03*
X210820Y165201D03*
X147320Y-164745D03*
X160020Y77216D03*
X20320Y-208737D03*
X210820Y-54763D03*
X45720Y187198D03*
X83820Y-142748D03*
X147320Y-120752D03*
X147320Y11227D03*
X20320Y-120752D03*
X96520Y-164745D03*
X160020Y121208D03*
X71120Y-208737D03*
X58420Y-142748D03*
X134620Y-186741D03*
X96520Y-208737D03*
X45720Y-120752D03*
X160020Y165201D03*
X58420Y-230734D03*
X58420Y-186741D03*
X198120Y-120752D03*
X45720Y-208737D03*
X33020Y-230734D03*
X83820Y-186741D03*
X198120Y-76759D03*
X114300Y241300D03*
X45720Y248920D03*
X55880Y248920D03*
X-64770Y128270D03*
X-83820Y105410D03*
X226060Y41910D03*
X203200Y41910D03*
X-125730Y53340D03*
X-147320Y31750D03*
X-81484Y227120D03*
D12*
X-84024Y229660D01*
X-105184Y229660D02*
X-118690Y216154D01*
X-105184Y229660D02*
X-84024Y229660D01*
X-134611Y216154D02*
X-223774Y126991D01*
X-134611Y216154D02*
X-118690Y216154D01*
D11*
X-251355Y69955D03*
D12*
X-227330Y93980D01*
X-227330Y96084D01*
X-223774Y99640D01*
X-223774Y126991D01*
X-204470Y-102870D02*
X-204470Y-107950D01*
X-200660Y-111760D01*
D11*
X-200660Y-111760D03*
X-211880Y101600D03*
D12*
X-213614Y99866D01*
X-213614Y90875D01*
X-245245Y59244D01*
X-245245Y-62095D02*
X-204470Y-102870D01*
X-245245Y-62095D02*
X-245245Y59244D01*
D11*
X109220Y-241300D03*
X-103105Y-245345D03*
D12*
X-79775Y-245345D01*
X90170Y-241300D02*
X109220Y-241300D01*
X90170Y-241300D02*
X82762Y-248708D01*
X-76412Y-248708D01*
X-79775Y-245345D01*
D11*
X234950Y12700D03*
D13*
X266700Y12700D01*
X283210Y-3810D01*
X222250Y-95250D02*
X222250Y-127000D01*
X202565Y-146685D01*
X146050Y-203200D01*
X133350Y-215900D01*
X107950Y-215900D01*
X99695Y-224155D01*
X-93980Y-223520D02*
X-107950Y-209550D01*
X-139700Y-209550D01*
X-202565Y-146685D01*
X-209550Y-139700D01*
X-197485Y145415D02*
X-146050Y196850D01*
X-132080Y210820D02*
X-116840Y210820D01*
X-132080Y210820D02*
X-146050Y196850D01*
X234950Y95250D02*
X234950Y12700D01*
X215900Y114300D02*
X215900Y118110D01*
X215900Y139700D01*
X215900Y114300D02*
X234950Y95250D01*
X215900Y139700D02*
X152400Y203200D01*
X82550Y241300D02*
X44450Y241300D01*
X19050Y215900D01*
X19050Y196850D01*
D11*
X19050Y196850D03*
D13*
X82550Y241300D02*
X86360Y241300D01*
D11*
X205740Y118110D03*
D13*
X215900Y118110D01*
X234950Y95250D02*
X240030Y100330D01*
D11*
X152400Y203200D03*
X222250Y-95250D03*
X202565Y-146685D03*
X146050Y-203200D03*
X99695Y-224155D03*
X-93980Y-223520D03*
X-107950Y-209550D03*
X-202565Y-146685D03*
X-222250Y91440D03*
X-197485Y145415D03*
X-146050Y196850D03*
X0Y-243418D03*
D13*
X0Y-243628D01*
X-73872Y-243628D01*
X-93980Y-223520D01*
X80222Y-243628D02*
X99695Y-224155D01*
X80222Y-243628D02*
X0Y-243628D01*
D11*
X-219006Y-95816D03*
D13*
X-209550Y-104974D02*
X-209550Y-139700D01*
X-209550Y-104974D02*
X-218857Y-95667D01*
X-219006Y-95816D01*
X-222250Y89424D02*
X-222250Y91440D01*
X283210Y-3810D02*
X283210Y-44936D01*
X270996Y-57150D02*
X260350Y-57150D01*
X222250Y-95250D01*
X270996Y-57150D02*
X283210Y-44936D01*
X-197485Y145415D02*
X-218694Y124206D01*
X-218694Y97536D01*
X-222250Y93980D01*
X-222250Y91440D01*
D11*
X-88900Y221830D03*
D13*
X-105830Y221830D02*
X-116840Y210820D01*
X-105830Y221830D02*
X-88900Y221830D01*
X128270Y227330D02*
X152400Y203200D01*
X96520Y227330D02*
X82550Y241300D01*
X96520Y227330D02*
X128270Y227330D01*
X-250325Y61348D02*
X-250325Y-64199D01*
X-218857Y-95667D01*
X-250325Y61348D02*
X-222250Y89424D01*
D11*
X90979Y244439D03*
D13*
X89499Y244439D02*
X86360Y241300D01*
X89499Y244439D02*
X90979Y244439D01*
D11*
X241090Y100330D03*
D13*
X240030Y100330D01*
X200660Y57150D02*
X96520Y161290D01*
X200660Y57150D02*
X203200Y57150D01*
D11*
X203200Y57150D03*
D13*
X-18901Y161290D02*
X-32700Y175090D01*
X-18901Y161290D02*
X96520Y161290D01*
X-20000Y252500D02*
X-32700Y239800D01*
X-32700Y175090D01*
D12*
X-20900Y155956D02*
X21844Y155956D01*
X-29271Y285729D02*
X-20000Y295000D01*
X-37780Y195580D02*
X-37780Y172836D01*
X-20900Y155956D01*
D11*
X31750Y152610D03*
D12*
X25190Y152610D02*
X21844Y155956D01*
X25190Y152610D02*
X31750Y152610D01*
D11*
X-39514Y195580D03*
D12*
X-37780Y195580D01*
X-37780Y254604D02*
X-29271Y263113D01*
X-37780Y254604D02*
X-37780Y195580D01*
X-29271Y263113D02*
X-29271Y285729D01*
D11*
X-31750Y152400D03*
D12*
X-107950Y152400D01*
X-152400Y107950D01*
D11*
X-152400Y107950D03*
X133350Y107950D03*
D12*
X20371Y152400D02*
X-31750Y152400D01*
X94190Y147110D02*
X133350Y107950D01*
X94190Y147110D02*
X25661Y147110D01*
X20371Y152400D01*
X-152400Y107950D02*
X-165100Y95250D01*
X-165100Y-100330D01*
X-113030Y-152400D01*
X-19050Y-152400D01*
D11*
X-19050Y-152400D03*
D12*
X-32827Y302173D02*
X-20000Y315000D01*
X-31750Y161777D02*
X-31750Y152400D01*
X-31750Y161777D02*
X-41336Y171363D01*
X-41336Y189921D01*
X-44804Y193389D01*
X-44804Y199036D01*
X-41336Y256077D02*
X-32827Y264586D01*
X-32827Y302173D01*
X-41336Y202504D02*
X-44804Y199036D01*
X-41336Y202504D02*
X-41336Y256077D01*
D11*
X45720Y219710D03*
D14*
X93345Y200978D02*
X209550Y84773D01*
X93345Y200978D02*
X64453Y200978D01*
X45720Y219710D01*
X209550Y84773D02*
X209550Y-7620D01*
X240030Y-38100D01*
X-49530Y180340D02*
X-130810Y180340D01*
X-198120Y113030D01*
X-198120Y87630D01*
X-228600Y57150D01*
D11*
X-49530Y180340D03*
X-228600Y-57150D03*
D14*
X-228600Y-35560D02*
X-228600Y57150D01*
X-228600Y-35560D02*
X-228600Y-57150D01*
D11*
X-228600Y-35560D03*
X-228600Y57150D03*
X272840Y-38100D03*
D14*
X240030Y-38100D01*
D12*
X25313Y239673D02*
X30287Y244647D01*
X30287Y257515D01*
X25313Y239673D02*
X12191Y239673D01*
X30287Y257515D02*
X24573Y263229D01*
X539Y272500D02*
X0Y272500D01*
X9810Y263229D02*
X24573Y263229D01*
X9810Y263229D02*
X539Y272500D01*
D11*
X-7241Y176156D03*
D12*
X-7241Y185476D02*
X-3302Y189415D01*
X-3302Y224180D02*
X12191Y239673D01*
X-3302Y224180D02*
X-3302Y189415D01*
X-7241Y185476D02*
X-7241Y176156D01*
X-6858Y225653D02*
X19989Y252500D01*
X20000Y252500D01*
D11*
X-15240Y176156D03*
D12*
X-6858Y190888D02*
X-6858Y225653D01*
X-6858Y190888D02*
X-15240Y182506D01*
X-15240Y176156D01*
D11*
X181610Y-5080D03*
X68580Y128060D03*
D12*
X181610Y15030D02*
X181610Y-5080D01*
X181610Y15030D02*
X68580Y128060D01*
X254Y177680D02*
X254Y222707D01*
X26786Y236117D02*
X33843Y243174D01*
X33843Y263337D01*
X13664Y236117D02*
X254Y222707D01*
X13664Y236117D02*
X26786Y236117D01*
X33843Y263337D02*
X24680Y272500D01*
X20000Y272500D01*
D11*
X0Y176156D03*
D12*
X0Y177426D01*
X254Y177680D01*
D11*
X203200Y26670D03*
D12*
X181610Y26670D01*
X81280Y127000D01*
X81280Y128270D01*
D11*
X81280Y128270D03*
D12*
X7620Y186690D02*
X3810Y190500D01*
X3810Y221234D01*
X28259Y232561D02*
X37399Y241701D01*
X37399Y269941D01*
X15137Y232561D02*
X3810Y221234D01*
X15137Y232561D02*
X28259Y232561D01*
X37399Y269941D02*
X20000Y287340D01*
X20000Y295000D01*
D11*
X7620Y176156D03*
D12*
X7620Y186690D01*
D11*
X299720Y10160D03*
D12*
X299720Y24130D01*
X246380Y77470D01*
X220980Y130810D02*
X220980Y143510D01*
X132080Y232410D01*
X110490Y232410D01*
X91440Y251460D01*
X246380Y105410D02*
X246380Y77470D01*
X246380Y105410D02*
X220980Y130810D01*
X35142Y302398D02*
X22540Y315000D01*
X20000Y315000D01*
X35142Y302398D02*
X35142Y281848D01*
X65530Y251460D02*
X91440Y251460D01*
X65530Y251460D02*
X35142Y281848D01*
D11*
X-285750Y33020D03*
D12*
X-270510Y33020D01*
X-227330Y128464D02*
X-136084Y219710D01*
X-120163Y219710D01*
X-106657Y233216D01*
X-5080Y325120D02*
X0Y320040D01*
X0Y315000D01*
X-22991Y325120D02*
X-36383Y311728D01*
X-22991Y325120D02*
X-5080Y325120D01*
X-256645Y46885D02*
X-270510Y33020D01*
X-227330Y101461D02*
X-227330Y128464D01*
X-256645Y72146D02*
X-256645Y46885D01*
X-256645Y72146D02*
X-227330Y101461D01*
X-36383Y266059D02*
X-36383Y311728D01*
X-69226Y233216D02*
X-106657Y233216D01*
X-69226Y233216D02*
X-36383Y266059D01*
D11*
X210820Y-104140D03*
D12*
X210820Y-86360D01*
X278130Y-20320D02*
X269240Y-11430D01*
X238760Y-11430D01*
X218440Y8890D01*
X218440Y95250D01*
D11*
X218440Y95250D03*
D12*
X278130Y-42831D02*
X268891Y-52070D01*
X278130Y-42831D02*
X278130Y-20320D01*
X268891Y-52070D02*
X245110Y-52070D01*
X210820Y-86360D01*
M02*
