G04 EAGLE Gerber RS-274X export*
G75*
%MOMM*%
%FSLAX34Y34*%
%LPD*%
%INTop Copper*%
%IPPOS*%
%AMOC8*
5,1,8,0,0,1.08239X$1,22.5*%
G01*
G04 Define Apertures*
%ADD10R,0.500000X0.750000*%
%ADD11R,0.500000X1.000000*%
%ADD12R,0.700000X1.200000*%
%ADD13R,0.450000X1.200000*%
%ADD14R,1.200000X0.900000*%
%ADD15R,1.000000X0.500000*%
%ADD16C,1.346200*%
%ADD17C,0.137500*%
%ADD18C,0.132500*%
%ADD19R,1.420200X1.031200*%
%ADD20R,1.815300X1.164600*%
%ADD21R,1.164600X1.465300*%
%ADD22R,1.465300X1.164600*%
%ADD23R,1.164600X1.815300*%
%ADD24C,0.295000*%
%ADD25C,0.550000*%
%ADD26C,0.203200*%
%ADD27C,0.508000*%
%ADD28C,0.406400*%
G36*
X30160Y-269555D02*
X43Y-271237D01*
X-43Y-271237D01*
X-30160Y-269555D01*
X-30245Y-269545D01*
X-59988Y-264520D01*
X-60071Y-264501D01*
X-89069Y-256195D01*
X-89149Y-256168D01*
X-101493Y-251086D01*
X-101715Y-250945D01*
X-101895Y-250701D01*
X-101965Y-250405D01*
X-101914Y-250107D01*
X-101750Y-249851D01*
X-101500Y-249680D01*
X-101368Y-249653D01*
X-98831Y-247116D01*
X-98831Y-245126D01*
X-98784Y-244863D01*
X-98625Y-244605D01*
X-98378Y-244429D01*
X-98082Y-244364D01*
X-97784Y-244419D01*
X-94080Y-245916D01*
X-92918Y-245422D01*
X-89954Y-238087D01*
X-89885Y-237983D01*
X-89861Y-237855D01*
X-87950Y-233126D01*
X-88443Y-231963D01*
X-89439Y-231561D01*
X-89684Y-231402D01*
X-89856Y-231151D01*
X-89916Y-230854D01*
X-89916Y-225816D01*
X-89860Y-225530D01*
X-89706Y-225297D01*
X-89706Y-221750D01*
X-92210Y-219246D01*
X-95750Y-219246D01*
X-98254Y-221750D01*
X-98254Y-225297D01*
X-98104Y-225519D01*
X-98044Y-225816D01*
X-98044Y-226955D01*
X-98091Y-227217D01*
X-98250Y-227475D01*
X-98497Y-227651D01*
X-98793Y-227716D01*
X-99091Y-227661D01*
X-104448Y-225497D01*
X-105669Y-226015D01*
X-105741Y-226119D01*
X-106000Y-226276D01*
X-106300Y-226320D01*
X-106593Y-226244D01*
X-106834Y-226059D01*
X-106983Y-225795D01*
X-107018Y-225494D01*
X-107004Y-225333D01*
X-107003Y-225163D01*
X-107018Y-224993D01*
X-107046Y-224826D01*
X-107089Y-224661D01*
X-107146Y-224500D01*
X-107216Y-224345D01*
X-107299Y-224196D01*
X-107394Y-224055D01*
X-107501Y-223922D01*
X-107619Y-223799D01*
X-107747Y-223687D01*
X-107884Y-223586D01*
X-108022Y-223500D01*
X-108276Y-223379D01*
X-109437Y-222910D01*
X-115471Y-237844D01*
X-114304Y-238316D01*
X-114127Y-238379D01*
X-113963Y-238422D01*
X-113795Y-238451D01*
X-113625Y-238466D01*
X-113455Y-238466D01*
X-113286Y-238452D01*
X-113117Y-238423D01*
X-112952Y-238380D01*
X-112792Y-238324D01*
X-112637Y-238254D01*
X-112488Y-238171D01*
X-112347Y-238075D01*
X-112214Y-237968D01*
X-112091Y-237851D01*
X-111979Y-237723D01*
X-111956Y-237691D01*
X-111674Y-237458D01*
X-111380Y-237383D01*
X-111080Y-237429D01*
X-110822Y-237588D01*
X-110646Y-237835D01*
X-110581Y-238132D01*
X-110600Y-238236D01*
X-110085Y-239449D01*
X-107620Y-240445D01*
X-107376Y-240604D01*
X-107204Y-240854D01*
X-107144Y-241151D01*
X-107144Y-243024D01*
X-107199Y-243310D01*
X-107367Y-243563D01*
X-107379Y-243575D01*
X-107379Y-247142D01*
X-107293Y-247264D01*
X-107221Y-247558D01*
X-107268Y-247858D01*
X-107429Y-248115D01*
X-107678Y-248289D01*
X-107974Y-248352D01*
X-108272Y-248295D01*
X-117043Y-244684D01*
X-117119Y-244648D01*
X-139558Y-232328D01*
X-139802Y-232116D01*
X-139931Y-231842D01*
X-139944Y-231539D01*
X-139837Y-231255D01*
X-139628Y-231035D01*
X-139350Y-230914D01*
X-138800Y-230797D01*
X-136007Y-226497D01*
X-151651Y-216338D01*
X-154444Y-220638D01*
X-154099Y-222259D01*
X-149586Y-225190D01*
X-149343Y-225444D01*
X-149245Y-225731D01*
X-149267Y-226034D01*
X-149405Y-226304D01*
X-149637Y-226499D01*
X-149927Y-226587D01*
X-150228Y-226556D01*
X-159017Y-223802D01*
X-170191Y-223250D01*
X-181143Y-225525D01*
X-186155Y-228002D01*
X-186155Y-228002D01*
X-186155Y-228002D01*
X-186158Y-228004D01*
X-186158Y-228003D01*
X-186268Y-228048D01*
X-195279Y-230870D01*
X-195513Y-230905D01*
X-204956Y-230833D01*
X-205189Y-230795D01*
X-214157Y-227836D01*
X-214367Y-227728D01*
X-221999Y-222166D01*
X-222166Y-221999D01*
X-227728Y-214367D01*
X-227836Y-214157D01*
X-230795Y-205189D01*
X-230833Y-204956D01*
X-230905Y-195513D01*
X-230870Y-195279D01*
X-228048Y-186268D01*
X-228003Y-186158D01*
X-228004Y-186158D01*
X-225525Y-181143D01*
X-223250Y-170191D01*
X-223802Y-159017D01*
X-226282Y-151103D01*
X-226307Y-150753D01*
X-226200Y-150469D01*
X-225990Y-150250D01*
X-225712Y-150130D01*
X-225408Y-150128D01*
X-225128Y-150244D01*
X-224916Y-150460D01*
X-222483Y-154206D01*
X-220863Y-154551D01*
X-216563Y-151758D01*
X-226722Y-136114D01*
X-231022Y-138907D01*
X-231055Y-139063D01*
X-231189Y-139359D01*
X-231415Y-139562D01*
X-231701Y-139660D01*
X-232004Y-139639D01*
X-232274Y-139502D01*
X-232470Y-139270D01*
X-245327Y-115689D01*
X-245365Y-115608D01*
X-257192Y-86149D01*
X-257207Y-86107D01*
X-257774Y-84416D01*
X-258950Y-80902D01*
X-264898Y-71676D01*
X-269073Y-67797D01*
X-269246Y-67558D01*
X-269316Y-67263D01*
X-269265Y-66964D01*
X-269101Y-66708D01*
X-268851Y-66537D01*
X-268554Y-66477D01*
X-264278Y-66477D01*
X-264278Y-58674D01*
X-270577Y-58674D01*
X-270577Y-64651D01*
X-270615Y-64888D01*
X-270765Y-65152D01*
X-271005Y-65336D01*
X-271299Y-65412D01*
X-271599Y-65367D01*
X-271858Y-65209D01*
X-272940Y-64204D01*
X-282579Y-58949D01*
X-293217Y-56238D01*
X-300000Y-56238D01*
X-300149Y-56223D01*
X-306071Y-55045D01*
X-306346Y-54932D01*
X-311367Y-51577D01*
X-311577Y-51367D01*
X-314932Y-46346D01*
X-315045Y-46071D01*
X-316223Y-40149D01*
X-316238Y-40000D01*
X-316238Y40000D01*
X-316223Y40149D01*
X-315045Y46071D01*
X-314932Y46346D01*
X-311577Y51367D01*
X-311367Y51577D01*
X-306346Y54932D01*
X-306071Y55045D01*
X-300149Y56223D01*
X-300000Y56238D01*
X-293217Y56238D01*
X-282579Y58949D01*
X-272940Y64204D01*
X-271858Y65209D01*
X-271658Y65343D01*
X-271363Y65413D01*
X-271064Y65362D01*
X-270809Y65198D01*
X-270637Y64948D01*
X-270577Y64651D01*
X-270577Y58674D01*
X-264278Y58674D01*
X-264278Y66477D01*
X-268554Y66477D01*
X-268843Y66534D01*
X-269095Y66702D01*
X-269262Y66956D01*
X-269316Y67254D01*
X-269249Y67550D01*
X-269073Y67797D01*
X-264898Y71676D01*
X-258950Y80902D01*
X-257802Y84330D01*
X-257802Y84330D01*
X-257207Y86107D01*
X-257192Y86149D01*
X-245365Y115608D01*
X-245327Y115689D01*
X-232358Y139474D01*
X-232146Y139719D01*
X-231871Y139849D01*
X-231568Y139861D01*
X-231285Y139755D01*
X-231065Y139546D01*
X-230944Y139267D01*
X-230915Y139131D01*
X-226615Y136339D01*
X-216456Y151982D01*
X-220756Y154775D01*
X-222377Y154431D01*
X-224880Y150576D01*
X-225134Y150333D01*
X-225421Y150235D01*
X-225723Y150257D01*
X-225993Y150395D01*
X-226188Y150627D01*
X-226277Y150917D01*
X-226246Y151219D01*
X-223802Y159017D01*
X-223250Y170191D01*
X-225525Y181143D01*
X-227173Y184478D01*
X-228004Y186158D01*
X-228048Y186268D01*
X-230870Y195279D01*
X-230905Y195513D01*
X-230833Y204956D01*
X-230795Y205189D01*
X-227836Y214157D01*
X-227728Y214367D01*
X-222166Y221999D01*
X-221999Y222166D01*
X-214367Y227728D01*
X-214157Y227836D01*
X-205189Y230795D01*
X-204956Y230833D01*
X-195513Y230905D01*
X-195279Y230870D01*
X-186268Y228048D01*
X-186158Y228003D01*
X-186158Y228004D01*
X-186155Y228002D01*
X-186155Y228002D01*
X-186155Y228002D01*
X-181143Y225525D01*
X-170191Y223250D01*
X-159017Y223802D01*
X-151103Y226282D01*
X-150753Y226307D01*
X-150469Y226200D01*
X-150250Y225990D01*
X-150130Y225712D01*
X-150128Y225408D01*
X-150244Y225128D01*
X-150460Y224916D01*
X-154206Y222483D01*
X-154551Y220863D01*
X-151758Y216563D01*
X-136114Y226722D01*
X-138907Y231022D01*
X-139145Y231073D01*
X-139434Y231201D01*
X-139639Y231425D01*
X-139741Y231710D01*
X-139723Y232013D01*
X-139589Y232285D01*
X-139359Y232483D01*
X-121180Y242662D01*
X-121115Y242695D01*
X-97642Y253053D01*
X-97575Y253079D01*
X-73226Y261166D01*
X-73191Y261176D01*
X-71387Y261682D01*
X-67693Y262717D01*
X-59216Y267715D01*
X-58853Y267821D01*
X-58554Y267770D01*
X-58298Y267606D01*
X-58127Y267356D01*
X-58067Y267059D01*
X-58067Y262658D01*
X-48514Y262658D01*
X-48514Y268957D01*
X-55599Y268957D01*
X-55858Y269002D01*
X-56117Y269160D01*
X-56294Y269406D01*
X-56361Y269702D01*
X-56308Y270000D01*
X-56142Y270254D01*
X-49834Y276649D01*
X-44169Y286566D01*
X-41238Y297604D01*
X-41238Y315000D01*
X-41223Y315149D01*
X-40045Y321071D01*
X-39932Y321346D01*
X-36577Y326367D01*
X-36367Y326577D01*
X-31346Y329932D01*
X-31071Y330045D01*
X-25149Y331223D01*
X-25000Y331238D01*
X25000Y331238D01*
X25149Y331223D01*
X31071Y330045D01*
X31346Y329932D01*
X36367Y326577D01*
X36577Y326367D01*
X39932Y321346D01*
X40045Y321071D01*
X41223Y315149D01*
X41238Y315000D01*
X41238Y297604D01*
X44169Y286566D01*
X49834Y276649D01*
X56142Y270254D01*
X56291Y270038D01*
X56361Y269743D01*
X56310Y269444D01*
X56147Y269189D01*
X55897Y269017D01*
X55599Y268957D01*
X47244Y268957D01*
X47244Y262658D01*
X56797Y262658D01*
X56797Y267808D01*
X56890Y268174D01*
X57086Y268405D01*
X57356Y268542D01*
X57659Y268563D01*
X57946Y268464D01*
X67693Y262717D01*
X71387Y261682D01*
X73191Y261176D01*
X73226Y261166D01*
X97575Y253079D01*
X97642Y253053D01*
X121115Y242695D01*
X121180Y242662D01*
X139098Y232629D01*
X139336Y232420D01*
X139465Y232146D01*
X139478Y231843D01*
X139371Y231559D01*
X139162Y231340D01*
X139040Y231287D01*
X136221Y226946D01*
X151865Y216787D01*
X154657Y221087D01*
X154313Y222708D01*
X151335Y224642D01*
X151092Y224896D01*
X150994Y225183D01*
X151016Y225486D01*
X151154Y225756D01*
X151386Y225951D01*
X151676Y226039D01*
X151978Y226008D01*
X159017Y223802D01*
X170191Y223250D01*
X181143Y225525D01*
X186155Y228002D01*
X186155Y228002D01*
X186155Y228002D01*
X186158Y228004D01*
X186158Y228003D01*
X186268Y228048D01*
X195279Y230870D01*
X195513Y230905D01*
X204956Y230833D01*
X205189Y230795D01*
X214157Y227836D01*
X214367Y227728D01*
X221999Y222166D01*
X222166Y221999D01*
X227728Y214367D01*
X227836Y214157D01*
X230795Y205189D01*
X230833Y204956D01*
X230905Y195513D01*
X230870Y195279D01*
X228048Y186268D01*
X228004Y186158D01*
X227173Y184478D01*
X225525Y181143D01*
X223250Y170191D01*
X223802Y159017D01*
X226282Y151103D01*
X226307Y150753D01*
X226200Y150469D01*
X225990Y150250D01*
X225712Y150130D01*
X225408Y150128D01*
X225128Y150244D01*
X224916Y150460D01*
X222483Y154206D01*
X220863Y154551D01*
X216563Y151758D01*
X226722Y136114D01*
X231022Y138907D01*
X231055Y139063D01*
X231189Y139359D01*
X231415Y139562D01*
X231701Y139660D01*
X232004Y139639D01*
X232274Y139502D01*
X232470Y139270D01*
X245327Y115689D01*
X245365Y115608D01*
X257192Y86149D01*
X257207Y86107D01*
X257802Y84330D01*
X257802Y84330D01*
X258950Y80902D01*
X264898Y71676D01*
X269073Y67797D01*
X269246Y67558D01*
X269316Y67263D01*
X269265Y66964D01*
X269101Y66708D01*
X268851Y66537D01*
X268554Y66477D01*
X264278Y66477D01*
X264278Y58674D01*
X270577Y58674D01*
X270577Y64651D01*
X270615Y64888D01*
X270765Y65152D01*
X271005Y65336D01*
X271299Y65412D01*
X271599Y65367D01*
X271858Y65209D01*
X272940Y64204D01*
X282579Y58949D01*
X293217Y56238D01*
X300000Y56238D01*
X300149Y56223D01*
X306071Y55045D01*
X306346Y54932D01*
X311367Y51577D01*
X311577Y51367D01*
X314932Y46346D01*
X315045Y46071D01*
X316223Y40149D01*
X316238Y40000D01*
X316238Y-40000D01*
X316223Y-40149D01*
X315045Y-46071D01*
X314932Y-46346D01*
X311577Y-51367D01*
X311367Y-51577D01*
X306346Y-54932D01*
X306071Y-55045D01*
X300149Y-56223D01*
X300000Y-56238D01*
X293217Y-56238D01*
X282579Y-58949D01*
X272940Y-64204D01*
X271382Y-65652D01*
X271182Y-65785D01*
X270887Y-65855D01*
X270588Y-65804D01*
X270333Y-65641D01*
X270161Y-65391D01*
X270101Y-65093D01*
X270101Y-55148D01*
X270157Y-54862D01*
X270324Y-54609D01*
X276606Y-48327D01*
X276606Y-40694D01*
X276662Y-40408D01*
X276829Y-40155D01*
X277114Y-39870D01*
X277114Y-36330D01*
X274610Y-33826D01*
X271070Y-33826D01*
X270575Y-34321D01*
X270333Y-34484D01*
X270036Y-34544D01*
X268536Y-34544D01*
X268261Y-34493D01*
X268006Y-34329D01*
X267834Y-34079D01*
X267774Y-33782D01*
X267774Y-29451D01*
X266479Y-28156D01*
X260521Y-28156D01*
X259226Y-29451D01*
X259226Y-42509D01*
X260521Y-43804D01*
X266479Y-43804D01*
X267774Y-42509D01*
X267774Y-42418D01*
X267825Y-42143D01*
X267989Y-41888D01*
X268239Y-41716D01*
X268536Y-41656D01*
X268732Y-41656D01*
X269007Y-41707D01*
X269262Y-41871D01*
X269434Y-42121D01*
X269494Y-42418D01*
X269494Y-45065D01*
X269438Y-45351D01*
X269271Y-45604D01*
X266799Y-48076D01*
X266557Y-48239D01*
X266260Y-48300D01*
X256300Y-48300D01*
X255407Y-49192D01*
X255407Y-65108D01*
X256300Y-66001D01*
X269066Y-66001D01*
X269356Y-66058D01*
X269608Y-66226D01*
X269774Y-66480D01*
X269828Y-66778D01*
X269762Y-67074D01*
X269585Y-67321D01*
X264898Y-71676D01*
X258950Y-80902D01*
X257774Y-84416D01*
X257207Y-86107D01*
X257192Y-86149D01*
X245365Y-115608D01*
X245327Y-115689D01*
X232581Y-139066D01*
X232368Y-139311D01*
X232094Y-139441D01*
X231791Y-139453D01*
X231507Y-139346D01*
X231287Y-139137D01*
X231166Y-138859D01*
X231129Y-138682D01*
X226829Y-135890D01*
X216669Y-151533D01*
X220970Y-154326D01*
X222590Y-153982D01*
X224952Y-150345D01*
X225206Y-150102D01*
X225493Y-150004D01*
X225796Y-150026D01*
X226066Y-150163D01*
X226261Y-150396D01*
X226350Y-150686D01*
X226318Y-150987D01*
X223802Y-159017D01*
X223250Y-170191D01*
X225525Y-181143D01*
X228002Y-186155D01*
X228002Y-186155D01*
X228002Y-186155D01*
X228004Y-186158D01*
X228003Y-186158D01*
X228048Y-186268D01*
X230870Y-195279D01*
X230905Y-195513D01*
X230833Y-204956D01*
X230795Y-205189D01*
X227836Y-214157D01*
X227728Y-214367D01*
X222166Y-221999D01*
X221999Y-222166D01*
X214367Y-227728D01*
X214157Y-227836D01*
X205189Y-230795D01*
X204956Y-230833D01*
X195513Y-230905D01*
X195279Y-230870D01*
X186268Y-228048D01*
X186158Y-228003D01*
X186158Y-228004D01*
X186155Y-228002D01*
X186155Y-228002D01*
X186155Y-228002D01*
X181143Y-225525D01*
X170191Y-223250D01*
X159017Y-223802D01*
X151103Y-226282D01*
X150753Y-226307D01*
X150469Y-226200D01*
X150250Y-225990D01*
X150130Y-225712D01*
X150128Y-225408D01*
X150244Y-225128D01*
X150460Y-224916D01*
X154206Y-222483D01*
X154551Y-220863D01*
X151758Y-216563D01*
X136114Y-226722D01*
X138907Y-231022D01*
X139085Y-231060D01*
X139379Y-231192D01*
X139582Y-231417D01*
X139682Y-231704D01*
X139661Y-232006D01*
X139524Y-232277D01*
X139293Y-232473D01*
X117119Y-244648D01*
X117043Y-244684D01*
X111790Y-246847D01*
X111536Y-246903D01*
X111526Y-246902D01*
X111319Y-247041D01*
X89149Y-256168D01*
X89069Y-256195D01*
X60071Y-264501D01*
X59988Y-264520D01*
X30245Y-269545D01*
X30160Y-269555D01*
G37*
%LPC*%
G36*
X18358Y306745D02*
X21642Y306745D01*
X24676Y308002D01*
X26998Y310324D01*
X28255Y313358D01*
X28255Y316642D01*
X26998Y319676D01*
X24676Y321998D01*
X21642Y323255D01*
X18358Y323255D01*
X15324Y321998D01*
X13002Y319676D01*
X11745Y316642D01*
X11745Y313358D01*
X13002Y310324D01*
X15324Y308002D01*
X18358Y306745D01*
G37*
G36*
X-1642Y306745D02*
X1642Y306745D01*
X4676Y308002D01*
X6998Y310324D01*
X8255Y313358D01*
X8255Y316642D01*
X6998Y319676D01*
X4676Y321998D01*
X1642Y323255D01*
X-1642Y323255D01*
X-4676Y321998D01*
X-6998Y319676D01*
X-8255Y316642D01*
X-8255Y313358D01*
X-6998Y310324D01*
X-4676Y308002D01*
X-1642Y306745D01*
G37*
G36*
X-21642Y306745D02*
X-18358Y306745D01*
X-15324Y308002D01*
X-13002Y310324D01*
X-11745Y313358D01*
X-11745Y316642D01*
X-13002Y319676D01*
X-15324Y321998D01*
X-18358Y323255D01*
X-21642Y323255D01*
X-24676Y321998D01*
X-26998Y319676D01*
X-28255Y316642D01*
X-28255Y313358D01*
X-26998Y310324D01*
X-24676Y308002D01*
X-21642Y306745D01*
G37*
G36*
X18358Y286745D02*
X21642Y286745D01*
X24676Y288002D01*
X26998Y290324D01*
X28255Y293358D01*
X28255Y296642D01*
X26998Y299676D01*
X24676Y301998D01*
X21642Y303255D01*
X18358Y303255D01*
X15324Y301998D01*
X13002Y299676D01*
X11745Y296642D01*
X11745Y293358D01*
X13002Y290324D01*
X15324Y288002D01*
X18358Y286745D01*
G37*
G36*
X-3328Y-184100D02*
X-1524Y-184100D01*
X-1524Y-172600D01*
X-3328Y-172600D01*
X-4548Y-173819D01*
X-4778Y-173977D01*
X-5074Y-174042D01*
X-5373Y-173987D01*
X-5625Y-173819D01*
X-6408Y-173037D01*
X-6473Y-173025D01*
X-6728Y-172861D01*
X-6900Y-172611D01*
X-6960Y-172314D01*
X-6960Y-169618D01*
X-6904Y-169332D01*
X-6737Y-169079D01*
X-5521Y-167863D01*
X-5280Y-167700D01*
X-4982Y-167640D01*
X21662Y-167640D01*
X21936Y-167691D01*
X22192Y-167855D01*
X22363Y-168105D01*
X22424Y-168402D01*
X22424Y-172330D01*
X41077Y-172330D01*
X41077Y-168402D01*
X41128Y-168127D01*
X41291Y-167872D01*
X41541Y-167700D01*
X41839Y-167640D01*
X83602Y-167640D01*
X172506Y-78736D01*
X172506Y12482D01*
X136244Y48744D01*
X136081Y48986D01*
X136021Y49283D01*
X136021Y63264D01*
X136072Y63539D01*
X136236Y63794D01*
X136486Y63966D01*
X136569Y63983D01*
X137356Y64769D01*
X137586Y64927D01*
X137882Y64992D01*
X138180Y64937D01*
X138433Y64769D01*
X139653Y63550D01*
X141457Y63550D01*
X141457Y75050D01*
X139653Y75050D01*
X138433Y73831D01*
X138203Y73673D01*
X137907Y73608D01*
X137608Y73663D01*
X137356Y73831D01*
X136612Y74574D01*
X132115Y74574D01*
X131829Y74630D01*
X131576Y74797D01*
X120834Y85539D01*
X120671Y85781D01*
X120611Y86078D01*
X120611Y88002D01*
X120662Y88277D01*
X120825Y88532D01*
X121075Y88704D01*
X121373Y88764D01*
X123228Y88764D01*
X123514Y88708D01*
X123767Y88541D01*
X132298Y80010D01*
X147102Y80010D01*
X155021Y87929D01*
X155021Y89764D01*
X155072Y90039D01*
X155236Y90294D01*
X155486Y90466D01*
X155569Y90483D01*
X156505Y91419D01*
X156505Y91948D01*
X156556Y92223D01*
X156720Y92478D01*
X156970Y92650D01*
X157267Y92710D01*
X170082Y92710D01*
X170368Y92654D01*
X170621Y92487D01*
X193877Y69231D01*
X194040Y68990D01*
X194100Y68692D01*
X194100Y18208D01*
X214848Y-2540D01*
X250425Y-2540D01*
X250688Y-2587D01*
X250946Y-2746D01*
X251121Y-2994D01*
X251187Y-3290D01*
X251131Y-3588D01*
X250963Y-3841D01*
X249452Y-5352D01*
X249222Y-5510D01*
X248926Y-5575D01*
X248627Y-5520D01*
X248375Y-5352D01*
X247479Y-4456D01*
X241521Y-4456D01*
X240226Y-5751D01*
X240226Y-18809D01*
X241521Y-20104D01*
X247479Y-20104D01*
X248375Y-19208D01*
X248605Y-19050D01*
X248901Y-18985D01*
X249199Y-19040D01*
X249452Y-19208D01*
X250824Y-20580D01*
X252476Y-20580D01*
X252476Y-10756D01*
X255524Y-10756D01*
X255524Y-20580D01*
X257176Y-20580D01*
X258548Y-19208D01*
X258778Y-19050D01*
X259074Y-18985D01*
X259373Y-19040D01*
X259625Y-19208D01*
X260521Y-20104D01*
X266479Y-20104D01*
X267774Y-18809D01*
X267774Y-5751D01*
X266479Y-4456D01*
X262364Y-4456D01*
X262078Y-4400D01*
X261825Y-4233D01*
X254913Y2679D01*
X254760Y2899D01*
X254690Y3194D01*
X254741Y3493D01*
X254904Y3748D01*
X255155Y3920D01*
X255452Y3980D01*
X257176Y3980D01*
X258548Y5352D01*
X258778Y5510D01*
X259074Y5575D01*
X259373Y5520D01*
X259625Y5352D01*
X260521Y4456D01*
X266479Y4456D01*
X267774Y5751D01*
X267774Y18809D01*
X266479Y20104D01*
X260521Y20104D01*
X259625Y19208D01*
X259395Y19050D01*
X259099Y18985D01*
X258801Y19040D01*
X258548Y19208D01*
X257176Y20580D01*
X255524Y20580D01*
X255524Y10756D01*
X252476Y10756D01*
X252476Y20580D01*
X250824Y20580D01*
X249452Y19208D01*
X249222Y19050D01*
X248926Y18985D01*
X248627Y19040D01*
X248375Y19208D01*
X247479Y20104D01*
X241521Y20104D01*
X240226Y18809D01*
X240226Y17526D01*
X240175Y17251D01*
X240011Y16996D01*
X239761Y16824D01*
X239464Y16764D01*
X237246Y16764D01*
X236960Y16820D01*
X236727Y16974D01*
X233180Y16974D01*
X230676Y14470D01*
X230676Y10930D01*
X233180Y8426D01*
X236727Y8426D01*
X236949Y8576D01*
X237246Y8636D01*
X239464Y8636D01*
X239739Y8585D01*
X239994Y8421D01*
X240166Y8171D01*
X240226Y7874D01*
X240226Y5751D01*
X241521Y4456D01*
X247479Y4456D01*
X248375Y5352D01*
X248605Y5510D01*
X248901Y5575D01*
X249199Y5520D01*
X249452Y5352D01*
X250963Y3841D01*
X251116Y3621D01*
X251186Y3326D01*
X251135Y3027D01*
X250972Y2772D01*
X250722Y2600D01*
X250425Y2540D01*
X217268Y2540D01*
X216982Y2596D01*
X216729Y2763D01*
X199403Y20089D01*
X199240Y20331D01*
X199180Y20628D01*
X199180Y22806D01*
X199227Y23069D01*
X199386Y23327D01*
X199634Y23503D01*
X199930Y23568D01*
X200228Y23512D01*
X200481Y23345D01*
X201430Y22396D01*
X204970Y22396D01*
X206481Y23907D01*
X206723Y24070D01*
X207020Y24130D01*
X256322Y24130D01*
X260125Y27933D01*
X260367Y28096D01*
X260664Y28156D01*
X266479Y28156D01*
X267774Y29451D01*
X267774Y42509D01*
X266479Y43804D01*
X260521Y43804D01*
X259226Y42509D01*
X259226Y34534D01*
X259170Y34248D01*
X259003Y33995D01*
X254441Y29433D01*
X254200Y29270D01*
X253902Y29210D01*
X249536Y29210D01*
X249261Y29261D01*
X249006Y29425D01*
X248834Y29675D01*
X248774Y29972D01*
X248774Y34909D01*
X248802Y35053D01*
X248802Y47538D01*
X248853Y47812D01*
X249017Y48068D01*
X249267Y48239D01*
X249564Y48300D01*
X251700Y48300D01*
X252593Y49192D01*
X252593Y65108D01*
X251700Y66001D01*
X238792Y66001D01*
X237899Y65108D01*
X237899Y61976D01*
X237848Y61701D01*
X237684Y61446D01*
X237434Y61274D01*
X237137Y61214D01*
X205496Y61214D01*
X205210Y61270D01*
X204977Y61424D01*
X201430Y61424D01*
X200481Y60475D01*
X200261Y60322D01*
X199966Y60252D01*
X199667Y60303D01*
X199412Y60467D01*
X199240Y60717D01*
X199180Y61014D01*
X199180Y71112D01*
X172502Y97790D01*
X157267Y97790D01*
X156992Y97841D01*
X156737Y98005D01*
X156565Y98255D01*
X156505Y98552D01*
X156505Y100181D01*
X155612Y101074D01*
X149350Y101074D01*
X148606Y100331D01*
X148376Y100173D01*
X148080Y100108D01*
X147782Y100163D01*
X147529Y100331D01*
X146309Y101550D01*
X144505Y101550D01*
X144505Y90050D01*
X146309Y90050D01*
X147529Y91269D01*
X147759Y91427D01*
X148055Y91492D01*
X148354Y91437D01*
X148606Y91269D01*
X149353Y90523D01*
X149511Y90292D01*
X149576Y89996D01*
X149521Y89698D01*
X149353Y89445D01*
X145221Y85313D01*
X144980Y85150D01*
X144682Y85090D01*
X134718Y85090D01*
X134432Y85146D01*
X134179Y85313D01*
X130267Y89225D01*
X130114Y89445D01*
X130044Y89740D01*
X130095Y90039D01*
X130258Y90294D01*
X130509Y90466D01*
X130806Y90526D01*
X136612Y90526D01*
X137356Y91269D01*
X137586Y91427D01*
X137882Y91492D01*
X138180Y91437D01*
X138433Y91269D01*
X139653Y90050D01*
X141457Y90050D01*
X141457Y101550D01*
X139653Y101550D01*
X138433Y100331D01*
X138203Y100173D01*
X137907Y100108D01*
X137608Y100163D01*
X137356Y100331D01*
X136573Y101113D01*
X136508Y101125D01*
X136253Y101289D01*
X136081Y101539D01*
X136021Y101836D01*
X136021Y104261D01*
X136077Y104547D01*
X136244Y104800D01*
X137624Y106180D01*
X137624Y109720D01*
X135120Y112224D01*
X131580Y112224D01*
X129076Y109720D01*
X129076Y106180D01*
X130718Y104538D01*
X130881Y104296D01*
X130941Y103999D01*
X130941Y101836D01*
X130890Y101561D01*
X130726Y101306D01*
X130476Y101134D01*
X130393Y101118D01*
X129457Y100181D01*
X129457Y91875D01*
X129410Y91611D01*
X129251Y91353D01*
X129003Y91178D01*
X128707Y91113D01*
X128409Y91168D01*
X128156Y91336D01*
X125648Y93844D01*
X121373Y93844D01*
X121098Y93895D01*
X120842Y94059D01*
X120671Y94309D01*
X120611Y94606D01*
X120611Y97758D01*
X119718Y98651D01*
X103802Y98651D01*
X102910Y97758D01*
X102910Y88845D01*
X102863Y88581D01*
X102703Y88323D01*
X102456Y88148D01*
X102160Y88083D01*
X101862Y88138D01*
X101609Y88306D01*
X91957Y97958D01*
X91794Y98199D01*
X91734Y98497D01*
X91734Y134109D01*
X70902Y154940D01*
X35780Y154940D01*
X35494Y154996D01*
X35241Y155163D01*
X33520Y156884D01*
X31384Y156884D01*
X31098Y156940D01*
X30845Y157107D01*
X30703Y157249D01*
X30540Y157491D01*
X30480Y157788D01*
X30480Y159893D01*
X30531Y160168D01*
X30695Y160423D01*
X30945Y160595D01*
X31242Y160655D01*
X35672Y160655D01*
X36565Y161548D01*
X36565Y173122D01*
X35672Y174015D01*
X20208Y174015D01*
X19315Y173122D01*
X19315Y161548D01*
X20208Y160655D01*
X24638Y160655D01*
X24913Y160604D01*
X25168Y160440D01*
X25340Y160190D01*
X25400Y159893D01*
X25400Y155368D01*
X27253Y153515D01*
X27416Y153274D01*
X27476Y152976D01*
X27476Y150622D01*
X27425Y150347D01*
X27261Y150092D01*
X27011Y149920D01*
X26714Y149860D01*
X19148Y149860D01*
X18862Y149916D01*
X18609Y150083D01*
X10953Y157739D01*
X10790Y157981D01*
X10730Y158278D01*
X10730Y160737D01*
X10786Y161023D01*
X10953Y161276D01*
X12364Y162687D01*
X12364Y172873D01*
X11912Y173326D01*
X11754Y173556D01*
X11689Y173852D01*
X11744Y174150D01*
X11894Y174377D01*
X11894Y177926D01*
X11538Y178283D01*
X11380Y178513D01*
X11315Y178809D01*
X11370Y179108D01*
X11538Y179360D01*
X12364Y180187D01*
X12364Y180962D01*
X12415Y181237D01*
X12579Y181492D01*
X12829Y181664D01*
X13126Y181724D01*
X18553Y181724D01*
X18828Y181673D01*
X19083Y181509D01*
X19255Y181259D01*
X19315Y180962D01*
X19315Y179938D01*
X20208Y179045D01*
X35672Y179045D01*
X36565Y179938D01*
X36565Y189005D01*
X36621Y189291D01*
X36788Y189544D01*
X49276Y202032D01*
X49276Y216906D01*
X49332Y217192D01*
X49499Y217445D01*
X49994Y217940D01*
X49994Y221480D01*
X49499Y221975D01*
X49336Y222217D01*
X49276Y222514D01*
X49276Y223517D01*
X49327Y223792D01*
X49491Y224047D01*
X49741Y224219D01*
X50038Y224279D01*
X55428Y224279D01*
X56321Y225172D01*
X56321Y238080D01*
X55428Y238973D01*
X36012Y238973D01*
X35120Y238080D01*
X35120Y235944D01*
X35068Y235669D01*
X34905Y235414D01*
X34655Y235242D01*
X34358Y235182D01*
X28459Y235182D01*
X28173Y235238D01*
X27920Y235405D01*
X21793Y241532D01*
X9963Y241532D01*
X9677Y241588D01*
X9424Y241755D01*
X5715Y245464D01*
X5557Y245694D01*
X5492Y245990D01*
X5548Y246288D01*
X5715Y246541D01*
X6998Y247824D01*
X8255Y250858D01*
X8255Y254142D01*
X6998Y257176D01*
X4676Y259498D01*
X1642Y260755D01*
X-1642Y260755D01*
X-4676Y259498D01*
X-6319Y257855D01*
X-6539Y257702D01*
X-6834Y257632D01*
X-7133Y257683D01*
X-7388Y257847D01*
X-7560Y258097D01*
X-7620Y258394D01*
X-7620Y266606D01*
X-7573Y266869D01*
X-7414Y267127D01*
X-7166Y267303D01*
X-6870Y267368D01*
X-6572Y267312D01*
X-6319Y267145D01*
X-4676Y265502D01*
X-1642Y264245D01*
X1642Y264245D01*
X4676Y265502D01*
X6998Y267824D01*
X8255Y270858D01*
X8255Y274142D01*
X6998Y277176D01*
X4676Y279498D01*
X1642Y280755D01*
X-1642Y280755D01*
X-4676Y279498D01*
X-6319Y277855D01*
X-6539Y277702D01*
X-6834Y277632D01*
X-7133Y277683D01*
X-7388Y277847D01*
X-7560Y278097D01*
X-7620Y278394D01*
X-7620Y286922D01*
X-7564Y287208D01*
X-7397Y287461D01*
X-6305Y288553D01*
X-6074Y288711D01*
X-5778Y288776D01*
X-5480Y288720D01*
X-5227Y288553D01*
X-4676Y288002D01*
X-1642Y286745D01*
X1642Y286745D01*
X4676Y288002D01*
X6998Y290324D01*
X8255Y293358D01*
X8255Y296642D01*
X6998Y299676D01*
X4676Y301998D01*
X1642Y303255D01*
X-1642Y303255D01*
X-4676Y301998D01*
X-6998Y299676D01*
X-8255Y296642D01*
X-8255Y294103D01*
X-8311Y293817D01*
X-8478Y293564D01*
X-11201Y290842D01*
X-11414Y290691D01*
X-11709Y290619D01*
X-12008Y290667D01*
X-12265Y290829D01*
X-12439Y291078D01*
X-12501Y291374D01*
X-12443Y291672D01*
X-11745Y293358D01*
X-11745Y296642D01*
X-13002Y299676D01*
X-15324Y301998D01*
X-18358Y303255D01*
X-21642Y303255D01*
X-24676Y301998D01*
X-26998Y299676D01*
X-28255Y296642D01*
X-28255Y293358D01*
X-26998Y290324D01*
X-24676Y288002D01*
X-21642Y286745D01*
X-18358Y286745D01*
X-15324Y288002D01*
X-14001Y289325D01*
X-13781Y289478D01*
X-13486Y289548D01*
X-13187Y289497D01*
X-12932Y289333D01*
X-12760Y289083D01*
X-12700Y288786D01*
X-12700Y279387D01*
X-12747Y279124D01*
X-12906Y278866D01*
X-13154Y278690D01*
X-13450Y278625D01*
X-13748Y278681D01*
X-14001Y278848D01*
X-15054Y279902D01*
X-18263Y281231D01*
X-18476Y281231D01*
X-18476Y263769D01*
X-18263Y263769D01*
X-15054Y265098D01*
X-14001Y266152D01*
X-13781Y266305D01*
X-13486Y266375D01*
X-13187Y266324D01*
X-12932Y266160D01*
X-12760Y265910D01*
X-12700Y265613D01*
X-12700Y258714D01*
X-12747Y258451D01*
X-12906Y258193D01*
X-13154Y258017D01*
X-13450Y257952D01*
X-13748Y258008D01*
X-14001Y258175D01*
X-15324Y259498D01*
X-18358Y260755D01*
X-21642Y260755D01*
X-24676Y259498D01*
X-26998Y257176D01*
X-28255Y254142D01*
X-28255Y250858D01*
X-26998Y247824D01*
X-24676Y245502D01*
X-24640Y245487D01*
X-24411Y245339D01*
X-24235Y245091D01*
X-24170Y244795D01*
X-24226Y244497D01*
X-24393Y244244D01*
X-32724Y235913D01*
X-32966Y235750D01*
X-33263Y235690D01*
X-35628Y235690D01*
X-35902Y235741D01*
X-36158Y235905D01*
X-36329Y236155D01*
X-36390Y236452D01*
X-36390Y238080D01*
X-37282Y238973D01*
X-56698Y238973D01*
X-57591Y238080D01*
X-57591Y225172D01*
X-56698Y224279D01*
X-37282Y224279D01*
X-36390Y225172D01*
X-36390Y226800D01*
X-36338Y227075D01*
X-36175Y227330D01*
X-35925Y227502D01*
X-35628Y227562D01*
X-29581Y227562D01*
X-15936Y241207D01*
X-15936Y244739D01*
X-15883Y245019D01*
X-15717Y245274D01*
X-15466Y245443D01*
X-15324Y245502D01*
X-14001Y246825D01*
X-13781Y246978D01*
X-13486Y247048D01*
X-13187Y246997D01*
X-12932Y246833D01*
X-12760Y246583D01*
X-12700Y246286D01*
X-12700Y241518D01*
X-6770Y235588D01*
X-6612Y235358D01*
X-6547Y235062D01*
X-6603Y234764D01*
X-6770Y234511D01*
X-7685Y233597D01*
X-7915Y233439D01*
X-8211Y233374D01*
X-8509Y233429D01*
X-8762Y233597D01*
X-10396Y235230D01*
X-11786Y235230D01*
X-11786Y219130D01*
X-10396Y219130D01*
X-8762Y220763D01*
X-8532Y220921D01*
X-8236Y220986D01*
X-7937Y220931D01*
X-7685Y220763D01*
X-6527Y219606D01*
X-1093Y219606D01*
X65Y220763D01*
X295Y220921D01*
X591Y220986D01*
X889Y220931D01*
X1142Y220763D01*
X2776Y219130D01*
X4166Y219130D01*
X4166Y228704D01*
X10640Y228704D01*
X10640Y233227D01*
X10562Y233339D01*
X10492Y233634D01*
X10543Y233933D01*
X10707Y234188D01*
X10957Y234360D01*
X11254Y234420D01*
X18531Y234420D01*
X18817Y234364D01*
X19070Y234197D01*
X25197Y228070D01*
X34358Y228070D01*
X34632Y228019D01*
X34888Y227855D01*
X35059Y227605D01*
X35120Y227308D01*
X35120Y225172D01*
X36012Y224279D01*
X41402Y224279D01*
X41677Y224228D01*
X41932Y224064D01*
X42104Y223814D01*
X42164Y223517D01*
X42164Y222514D01*
X42108Y222228D01*
X41941Y221975D01*
X41446Y221480D01*
X41446Y217940D01*
X41941Y217445D01*
X42104Y217203D01*
X42164Y216906D01*
X42164Y205294D01*
X42108Y205008D01*
X41941Y204755D01*
X29814Y192628D01*
X29573Y192465D01*
X29275Y192405D01*
X22489Y192405D01*
X22226Y192452D01*
X21968Y192611D01*
X21792Y192859D01*
X21727Y193155D01*
X21783Y193453D01*
X21950Y193706D01*
X23324Y195080D01*
X23324Y198620D01*
X20820Y201124D01*
X17273Y201124D01*
X17051Y200974D01*
X16754Y200914D01*
X12919Y200914D01*
X12633Y200970D01*
X12380Y201137D01*
X10387Y203130D01*
X10224Y203372D01*
X10164Y203669D01*
X10164Y207897D01*
X8407Y209654D01*
X2973Y209654D01*
X1216Y207897D01*
X1216Y196263D01*
X2973Y194506D01*
X7201Y194506D01*
X7487Y194450D01*
X7740Y194283D01*
X9068Y192955D01*
X9221Y192735D01*
X9291Y192440D01*
X9240Y192141D01*
X9076Y191886D01*
X8826Y191714D01*
X8529Y191654D01*
X5297Y191654D01*
X4729Y191086D01*
X4498Y190928D01*
X4202Y190863D01*
X3904Y190919D01*
X3651Y191086D01*
X3083Y191654D01*
X-2703Y191654D01*
X-3271Y191086D01*
X-3502Y190928D01*
X-3798Y190863D01*
X-4096Y190919D01*
X-4349Y191086D01*
X-4917Y191654D01*
X-10703Y191654D01*
X-11271Y191086D01*
X-11502Y190928D01*
X-11798Y190863D01*
X-12096Y190919D01*
X-12349Y191086D01*
X-12917Y191654D01*
X-18703Y191654D01*
X-19984Y190373D01*
X-19984Y189598D01*
X-20035Y189323D01*
X-20199Y189068D01*
X-20449Y188896D01*
X-20746Y188836D01*
X-26173Y188836D01*
X-26448Y188887D01*
X-26703Y189051D01*
X-26875Y189301D01*
X-26935Y189598D01*
X-26935Y191512D01*
X-27828Y192405D01*
X-34805Y192405D01*
X-35068Y192452D01*
X-35326Y192611D01*
X-35502Y192859D01*
X-35567Y193155D01*
X-35511Y193453D01*
X-35344Y193706D01*
X-35240Y193810D01*
X-35240Y197350D01*
X-37744Y199854D01*
X-41284Y199854D01*
X-42795Y198343D01*
X-43037Y198180D01*
X-43334Y198120D01*
X-86003Y198120D01*
X-161290Y122833D01*
X-161290Y87217D01*
X-155244Y81171D01*
X-155081Y80930D01*
X-155021Y80632D01*
X-155021Y75336D01*
X-155072Y75061D01*
X-155236Y74806D01*
X-155486Y74634D01*
X-155569Y74618D01*
X-156505Y73681D01*
X-156505Y64919D01*
X-155612Y64026D01*
X-149350Y64026D01*
X-148606Y64769D01*
X-148376Y64927D01*
X-148080Y64992D01*
X-147782Y64937D01*
X-147529Y64769D01*
X-146309Y63550D01*
X-144505Y63550D01*
X-144505Y75050D01*
X-146309Y75050D01*
X-147529Y73831D01*
X-147759Y73673D01*
X-148055Y73608D01*
X-148354Y73663D01*
X-148606Y73831D01*
X-149389Y74613D01*
X-149454Y74625D01*
X-149709Y74789D01*
X-149881Y75039D01*
X-149941Y75336D01*
X-149941Y83052D01*
X-155987Y89098D01*
X-156150Y89340D01*
X-156210Y89637D01*
X-156210Y89764D01*
X-156159Y90039D01*
X-155995Y90294D01*
X-155745Y90466D01*
X-155448Y90526D01*
X-149350Y90526D01*
X-148606Y91269D01*
X-148376Y91427D01*
X-148080Y91492D01*
X-147782Y91437D01*
X-147529Y91269D01*
X-146309Y90050D01*
X-144505Y90050D01*
X-144505Y101550D01*
X-146309Y101550D01*
X-147529Y100331D01*
X-147759Y100173D01*
X-148055Y100108D01*
X-148354Y100163D01*
X-148606Y100331D01*
X-149451Y101175D01*
X-149628Y101289D01*
X-149800Y101539D01*
X-149860Y101836D01*
X-149860Y104130D01*
X-149804Y104416D01*
X-149637Y104669D01*
X-148126Y106180D01*
X-148126Y109720D01*
X-150630Y112224D01*
X-154170Y112224D01*
X-154909Y111485D01*
X-155129Y111332D01*
X-155424Y111262D01*
X-155723Y111313D01*
X-155978Y111477D01*
X-156150Y111727D01*
X-156210Y112024D01*
X-156210Y120414D01*
X-156154Y120700D01*
X-155987Y120952D01*
X-84122Y192817D01*
X-83881Y192980D01*
X-83584Y193040D01*
X-44497Y193040D01*
X-44234Y192993D01*
X-43976Y192834D01*
X-43800Y192586D01*
X-43735Y192290D01*
X-43791Y191992D01*
X-43958Y191739D01*
X-44185Y191512D01*
X-44185Y190043D01*
X-44236Y189768D01*
X-44400Y189513D01*
X-44650Y189341D01*
X-44947Y189281D01*
X-45618Y189281D01*
X-50062Y184837D01*
X-50303Y184674D01*
X-50601Y184614D01*
X-51300Y184614D01*
X-53804Y182110D01*
X-53804Y178570D01*
X-51300Y176066D01*
X-47760Y176066D01*
X-45256Y178570D01*
X-45256Y179169D01*
X-45209Y179432D01*
X-45050Y179690D01*
X-44802Y179866D01*
X-44506Y179931D01*
X-44208Y179875D01*
X-43955Y179708D01*
X-43292Y179045D01*
X-27828Y179045D01*
X-26935Y179938D01*
X-26935Y180962D01*
X-26884Y181237D01*
X-26720Y181492D01*
X-26470Y181664D01*
X-26173Y181724D01*
X-20746Y181724D01*
X-20471Y181673D01*
X-20216Y181509D01*
X-20044Y181259D01*
X-19984Y180962D01*
X-19984Y180187D01*
X-19158Y179360D01*
X-19000Y179130D01*
X-18935Y178834D01*
X-18990Y178536D01*
X-19158Y178283D01*
X-19514Y177926D01*
X-19514Y174378D01*
X-19374Y174173D01*
X-19309Y173877D01*
X-19364Y173578D01*
X-19532Y173326D01*
X-19984Y172873D01*
X-19984Y162687D01*
X-18573Y161276D01*
X-18410Y161034D01*
X-18350Y160737D01*
X-18350Y150658D01*
X-18406Y150372D01*
X-18573Y150119D01*
X-18863Y149829D01*
X-19105Y149666D01*
X-19402Y149606D01*
X-26714Y149606D01*
X-26989Y149657D01*
X-27244Y149821D01*
X-27416Y150071D01*
X-27476Y150368D01*
X-27476Y154170D01*
X-29980Y156674D01*
X-32116Y156674D01*
X-32402Y156730D01*
X-32655Y156897D01*
X-32797Y157039D01*
X-32960Y157281D01*
X-33020Y157578D01*
X-33020Y159893D01*
X-32969Y160168D01*
X-32805Y160423D01*
X-32555Y160595D01*
X-32258Y160655D01*
X-27828Y160655D01*
X-26935Y161548D01*
X-26935Y173122D01*
X-27828Y174015D01*
X-43292Y174015D01*
X-44185Y173122D01*
X-44185Y161548D01*
X-43292Y160655D01*
X-38862Y160655D01*
X-38587Y160604D01*
X-38332Y160440D01*
X-38160Y160190D01*
X-38100Y159893D01*
X-38100Y155158D01*
X-36247Y153305D01*
X-36084Y153064D01*
X-36024Y152766D01*
X-36024Y150368D01*
X-36075Y150093D01*
X-36239Y149838D01*
X-36489Y149666D01*
X-36786Y149606D01*
X-69835Y149606D01*
X-104434Y115008D01*
X-104434Y99413D01*
X-104485Y99138D01*
X-104648Y98883D01*
X-104898Y98711D01*
X-105196Y98651D01*
X-119718Y98651D01*
X-119806Y98563D01*
X-120047Y98400D01*
X-120344Y98340D01*
X-128695Y98340D01*
X-128970Y98391D01*
X-129225Y98555D01*
X-129397Y98805D01*
X-129457Y99102D01*
X-129457Y100181D01*
X-130350Y101074D01*
X-136612Y101074D01*
X-137356Y100331D01*
X-137586Y100173D01*
X-137882Y100108D01*
X-138180Y100163D01*
X-138433Y100331D01*
X-139653Y101550D01*
X-141457Y101550D01*
X-141457Y90050D01*
X-139653Y90050D01*
X-138433Y91269D01*
X-138203Y91427D01*
X-137907Y91492D01*
X-137608Y91437D01*
X-137356Y91269D01*
X-136612Y90526D01*
X-130350Y90526D01*
X-129457Y91419D01*
X-129457Y92498D01*
X-129406Y92773D01*
X-129242Y93028D01*
X-128992Y93200D01*
X-128695Y93260D01*
X-121373Y93260D01*
X-121098Y93209D01*
X-120842Y93045D01*
X-120671Y92795D01*
X-120611Y92498D01*
X-120611Y90307D01*
X-120666Y90021D01*
X-120834Y89768D01*
X-128270Y82332D01*
X-128270Y75007D01*
X-128317Y74744D01*
X-128476Y74486D01*
X-128724Y74310D01*
X-129020Y74245D01*
X-129318Y74301D01*
X-129571Y74468D01*
X-130153Y75050D01*
X-131957Y75050D01*
X-131957Y63403D01*
X-131860Y63344D01*
X-131685Y63096D01*
X-131620Y62800D01*
X-131675Y62502D01*
X-131843Y62249D01*
X-165929Y28163D01*
X-166171Y28000D01*
X-166468Y27940D01*
X-239898Y27940D01*
X-240161Y27987D01*
X-240419Y28146D01*
X-240595Y28394D01*
X-240660Y28690D01*
X-240604Y28988D01*
X-240437Y29241D01*
X-240226Y29451D01*
X-240226Y42509D01*
X-241521Y43804D01*
X-247758Y43804D01*
X-248033Y43855D01*
X-248288Y44019D01*
X-248460Y44269D01*
X-248520Y44566D01*
X-248520Y45372D01*
X-248464Y45658D01*
X-248297Y45910D01*
X-246131Y48076D01*
X-245889Y48239D01*
X-245592Y48300D01*
X-238792Y48300D01*
X-237899Y49192D01*
X-237899Y52832D01*
X-237848Y53107D01*
X-237684Y53362D01*
X-237434Y53534D01*
X-237137Y53594D01*
X-231404Y53594D01*
X-231118Y53538D01*
X-230865Y53371D01*
X-230370Y52876D01*
X-226830Y52876D01*
X-224326Y55380D01*
X-224326Y58920D01*
X-226830Y61424D01*
X-230370Y61424D01*
X-230865Y60929D01*
X-231107Y60766D01*
X-231404Y60706D01*
X-237137Y60706D01*
X-237412Y60757D01*
X-237667Y60921D01*
X-237839Y61171D01*
X-237899Y61468D01*
X-237899Y65108D01*
X-238792Y66001D01*
X-247426Y66001D01*
X-247689Y66047D01*
X-247947Y66207D01*
X-248122Y66454D01*
X-248187Y66750D01*
X-248132Y67048D01*
X-247964Y67301D01*
X-247081Y68185D01*
X-247081Y71725D01*
X-248592Y73236D01*
X-248755Y73478D01*
X-248815Y73775D01*
X-248815Y73977D01*
X-248759Y74263D01*
X-248592Y74516D01*
X-248518Y74590D01*
X-248288Y74748D01*
X-247992Y74813D01*
X-247694Y74758D01*
X-243553Y73085D01*
X-243400Y73031D01*
X-243262Y72997D01*
X-243121Y72976D01*
X-242979Y72968D01*
X-242836Y72973D01*
X-242695Y72991D01*
X-242556Y73023D01*
X-242420Y73067D01*
X-242289Y73124D01*
X-242164Y73193D01*
X-242046Y73273D01*
X-241936Y73364D01*
X-241835Y73465D01*
X-241744Y73575D01*
X-241664Y73693D01*
X-241593Y73821D01*
X-241541Y73935D01*
X-240719Y75971D01*
X-240568Y76207D01*
X-240321Y76382D01*
X-240025Y76448D01*
X-239727Y76392D01*
X-238158Y75759D01*
X-238006Y75705D01*
X-237868Y75671D01*
X-237727Y75650D01*
X-237584Y75641D01*
X-237442Y75647D01*
X-237300Y75665D01*
X-237161Y75697D01*
X-237026Y75741D01*
X-236895Y75798D01*
X-236770Y75867D01*
X-236652Y75947D01*
X-236542Y76038D01*
X-236441Y76139D01*
X-236350Y76249D01*
X-236269Y76367D01*
X-236198Y76495D01*
X-236147Y76609D01*
X-234061Y81771D01*
X-234008Y81923D01*
X-233974Y82062D01*
X-233952Y82202D01*
X-233944Y82345D01*
X-233949Y82488D01*
X-233968Y82629D01*
X-234000Y82768D01*
X-234044Y82904D01*
X-234101Y83035D01*
X-234170Y83160D01*
X-234250Y83278D01*
X-234341Y83387D01*
X-234442Y83488D01*
X-234552Y83580D01*
X-234669Y83660D01*
X-234797Y83731D01*
X-234912Y83782D01*
X-246101Y88303D01*
X-246253Y88356D01*
X-246391Y88391D01*
X-246532Y88412D01*
X-246675Y88420D01*
X-246817Y88415D01*
X-246959Y88396D01*
X-247098Y88365D01*
X-247233Y88320D01*
X-247364Y88263D01*
X-247489Y88194D01*
X-247607Y88114D01*
X-247717Y88023D01*
X-247818Y87922D01*
X-247909Y87813D01*
X-247989Y87695D01*
X-248060Y87567D01*
X-248112Y87452D01*
X-250197Y82290D01*
X-250251Y82138D01*
X-250285Y82000D01*
X-250306Y81859D01*
X-250315Y81716D01*
X-250309Y81574D01*
X-250291Y81432D01*
X-250259Y81293D01*
X-250215Y81158D01*
X-250158Y81027D01*
X-250117Y80953D01*
X-250023Y80597D01*
X-250078Y80299D01*
X-250246Y80047D01*
X-253895Y76397D01*
X-253895Y73775D01*
X-253951Y73489D01*
X-254118Y73236D01*
X-255629Y71725D01*
X-255629Y68185D01*
X-253063Y65619D01*
X-252825Y65466D01*
X-252653Y65216D01*
X-252593Y64919D01*
X-252593Y55148D01*
X-252612Y55050D01*
X-252612Y51969D01*
X-252668Y51683D01*
X-252835Y51430D01*
X-253630Y50635D01*
X-253850Y50482D01*
X-254145Y50412D01*
X-254444Y50463D01*
X-254699Y50626D01*
X-254871Y50877D01*
X-254931Y51174D01*
X-254931Y55626D01*
X-261230Y55626D01*
X-261230Y47824D01*
X-256394Y47824D01*
X-256119Y47772D01*
X-255864Y47609D01*
X-255692Y47359D01*
X-255632Y47062D01*
X-255632Y41928D01*
X-255688Y41642D01*
X-255855Y41390D01*
X-257486Y39759D01*
X-257727Y39596D01*
X-258024Y39536D01*
X-258464Y39536D01*
X-258739Y39587D01*
X-258994Y39751D01*
X-259166Y40001D01*
X-259226Y40298D01*
X-259226Y42509D01*
X-260521Y43804D01*
X-266479Y43804D01*
X-267774Y42509D01*
X-267774Y29451D01*
X-267248Y28925D01*
X-267090Y28695D01*
X-267025Y28398D01*
X-267080Y28100D01*
X-267248Y27847D01*
X-271780Y23315D01*
X-271780Y4729D01*
X-267951Y900D01*
X-168317Y900D01*
X-168054Y853D01*
X-167796Y694D01*
X-167620Y446D01*
X-167555Y150D01*
X-167611Y-148D01*
X-167778Y-401D01*
X-168054Y-677D01*
X-168296Y-840D01*
X-168593Y-900D01*
X-267951Y-900D01*
X-271780Y-4729D01*
X-271780Y-21101D01*
X-266263Y-26618D01*
X-266100Y-26860D01*
X-266040Y-27157D01*
X-266040Y-27402D01*
X-266096Y-27688D01*
X-266263Y-27941D01*
X-267774Y-29451D01*
X-267774Y-42509D01*
X-266479Y-43804D01*
X-260521Y-43804D01*
X-259226Y-42509D01*
X-259226Y-29451D01*
X-260737Y-27941D01*
X-260900Y-27699D01*
X-260960Y-27402D01*
X-260960Y-24737D01*
X-264292Y-21405D01*
X-264445Y-21185D01*
X-264515Y-20890D01*
X-264464Y-20591D01*
X-264301Y-20336D01*
X-264051Y-20164D01*
X-263754Y-20104D01*
X-260521Y-20104D01*
X-259625Y-19208D01*
X-259395Y-19050D01*
X-259099Y-18985D01*
X-258801Y-19040D01*
X-258548Y-19208D01*
X-257176Y-20580D01*
X-255524Y-20580D01*
X-255524Y-10756D01*
X-252476Y-10756D01*
X-252476Y-20580D01*
X-250824Y-20580D01*
X-249452Y-19208D01*
X-249222Y-19050D01*
X-248926Y-18985D01*
X-248627Y-19040D01*
X-248375Y-19208D01*
X-247479Y-20104D01*
X-241521Y-20104D01*
X-240226Y-18809D01*
X-240226Y-15582D01*
X-240175Y-15307D01*
X-240011Y-15052D01*
X-239761Y-14880D01*
X-239464Y-14820D01*
X-185938Y-14820D01*
X-185652Y-14876D01*
X-185399Y-15043D01*
X-161513Y-38929D01*
X-161350Y-39171D01*
X-161290Y-39468D01*
X-161290Y-83602D01*
X-102652Y-142240D01*
X2674Y-142240D01*
X2960Y-142296D01*
X3213Y-142463D01*
X6309Y-145559D01*
X6467Y-145789D01*
X6532Y-146085D01*
X6476Y-146383D01*
X6309Y-146636D01*
X5625Y-147319D01*
X5395Y-147477D01*
X5099Y-147542D01*
X4801Y-147487D01*
X4548Y-147319D01*
X3328Y-146100D01*
X1524Y-146100D01*
X1524Y-157600D01*
X3328Y-157600D01*
X4548Y-156381D01*
X4778Y-156223D01*
X5074Y-156158D01*
X5373Y-156213D01*
X5625Y-156381D01*
X6369Y-157124D01*
X12631Y-157124D01*
X13524Y-156231D01*
X13524Y-155152D01*
X13575Y-154877D01*
X13739Y-154622D01*
X13989Y-154450D01*
X14286Y-154390D01*
X22138Y-154390D01*
X22412Y-154441D01*
X22668Y-154605D01*
X22839Y-154855D01*
X22900Y-155152D01*
X22900Y-161798D01*
X22848Y-162073D01*
X22685Y-162328D01*
X22435Y-162500D01*
X22138Y-162560D01*
X-7402Y-162560D01*
X-12040Y-167198D01*
X-12040Y-172314D01*
X-12091Y-172589D01*
X-12255Y-172844D01*
X-12505Y-173016D01*
X-12588Y-173033D01*
X-13524Y-173969D01*
X-13524Y-182731D01*
X-12631Y-183624D01*
X-6369Y-183624D01*
X-5625Y-182881D01*
X-5395Y-182723D01*
X-5099Y-182658D01*
X-4801Y-182713D01*
X-4548Y-182881D01*
X-3328Y-184100D01*
G37*
G36*
X-28731Y274024D02*
X-21524Y274024D01*
X-21524Y281231D01*
X-21737Y281231D01*
X-24946Y279902D01*
X-27402Y277446D01*
X-28731Y274237D01*
X-28731Y274024D01*
G37*
G36*
X18358Y264245D02*
X21642Y264245D01*
X24676Y265502D01*
X26998Y267824D01*
X28255Y270858D01*
X28255Y274142D01*
X26998Y277176D01*
X24676Y279498D01*
X21642Y280755D01*
X18358Y280755D01*
X15324Y279498D01*
X13002Y277176D01*
X11745Y274142D01*
X11745Y270858D01*
X13002Y267824D01*
X15324Y265502D01*
X18358Y264245D01*
G37*
G36*
X-21737Y263769D02*
X-21524Y263769D01*
X-21524Y270976D01*
X-28731Y270976D01*
X-28731Y270763D01*
X-27402Y267554D01*
X-24946Y265098D01*
X-21737Y263769D01*
G37*
G36*
X34644Y262658D02*
X44196Y262658D01*
X44196Y268957D01*
X35815Y268957D01*
X34644Y267785D01*
X34644Y262658D01*
G37*
G36*
X-45466Y262658D02*
X-35914Y262658D01*
X-35914Y267785D01*
X-37085Y268957D01*
X-45466Y268957D01*
X-45466Y262658D01*
G37*
G36*
X18358Y244245D02*
X21642Y244245D01*
X24676Y245502D01*
X26998Y247824D01*
X28255Y250858D01*
X28255Y254142D01*
X26998Y257176D01*
X24676Y259498D01*
X21642Y260755D01*
X18358Y260755D01*
X15324Y259498D01*
X13002Y257176D01*
X11745Y254142D01*
X11745Y250858D01*
X13002Y247824D01*
X15324Y245502D01*
X18358Y244245D01*
G37*
G36*
X-56895Y253311D02*
X-48514Y253311D01*
X-48514Y259610D01*
X-58067Y259610D01*
X-58067Y254483D01*
X-56895Y253311D01*
G37*
G36*
X-45466Y253311D02*
X-37085Y253311D01*
X-35914Y254483D01*
X-35914Y259610D01*
X-45466Y259610D01*
X-45466Y253311D01*
G37*
G36*
X35815Y253311D02*
X44196Y253311D01*
X44196Y259610D01*
X34644Y259610D01*
X34644Y254483D01*
X35815Y253311D01*
G37*
G36*
X47244Y253311D02*
X55625Y253311D01*
X56797Y254483D01*
X56797Y259610D01*
X47244Y259610D01*
X47244Y253311D01*
G37*
G36*
X230883Y80563D02*
X231312Y79500D01*
X246247Y85534D01*
X245775Y86701D01*
X245698Y86871D01*
X245614Y87020D01*
X245519Y87161D01*
X245411Y87293D01*
X245294Y87416D01*
X245165Y87528D01*
X245028Y87629D01*
X244883Y87718D01*
X244731Y87794D01*
X244572Y87857D01*
X244409Y87906D01*
X244243Y87941D01*
X244074Y87962D01*
X243904Y87969D01*
X243733Y87961D01*
X243695Y87956D01*
X243331Y87997D01*
X243073Y88156D01*
X242898Y88404D01*
X242833Y88700D01*
X242889Y88998D01*
X243057Y89251D01*
X243145Y89309D01*
X243660Y90522D01*
X241847Y95009D01*
X241792Y95270D01*
X241843Y95569D01*
X242007Y95824D01*
X242257Y95996D01*
X242554Y96056D01*
X242860Y96056D01*
X245364Y98560D01*
X245364Y102100D01*
X242860Y104604D01*
X239313Y104604D01*
X239091Y104454D01*
X238794Y104394D01*
X238569Y104394D01*
X238283Y104450D01*
X238030Y104618D01*
X237863Y104871D01*
X237193Y106528D01*
X236031Y107021D01*
X225783Y102881D01*
X225534Y102826D01*
X225234Y102872D01*
X224976Y103032D01*
X224801Y103279D01*
X224736Y103575D01*
X224791Y103873D01*
X224959Y104126D01*
X225636Y104803D01*
X225890Y104971D01*
X234764Y108557D01*
X234910Y108624D01*
X235034Y108695D01*
X235150Y108778D01*
X235258Y108871D01*
X235357Y108974D01*
X235446Y109086D01*
X235524Y109205D01*
X235591Y109331D01*
X235645Y109463D01*
X235687Y109599D01*
X235717Y109739D01*
X235732Y109880D01*
X235735Y110023D01*
X235724Y110165D01*
X235701Y110306D01*
X235663Y110447D01*
X235620Y110566D01*
X233534Y115728D01*
X233467Y115874D01*
X233396Y115998D01*
X233313Y116114D01*
X233220Y116222D01*
X233117Y116321D01*
X233005Y116410D01*
X232886Y116488D01*
X232760Y116554D01*
X232628Y116609D01*
X232492Y116651D01*
X232352Y116680D01*
X232211Y116696D01*
X232068Y116699D01*
X231926Y116688D01*
X231785Y116664D01*
X231644Y116626D01*
X231525Y116583D01*
X231344Y116510D01*
X231070Y116455D01*
X230772Y116510D01*
X230519Y116678D01*
X230352Y116931D01*
X229531Y118964D01*
X229464Y119110D01*
X229392Y119233D01*
X229310Y119349D01*
X229216Y119458D01*
X229114Y119557D01*
X229002Y119645D01*
X228882Y119724D01*
X228756Y119790D01*
X228625Y119845D01*
X228488Y119887D01*
X228348Y119916D01*
X228207Y119932D01*
X228064Y119934D01*
X227922Y119924D01*
X227781Y119900D01*
X227640Y119862D01*
X227521Y119819D01*
X222359Y117734D01*
X222214Y117667D01*
X222090Y117595D01*
X221974Y117513D01*
X221866Y117419D01*
X221767Y117317D01*
X221678Y117205D01*
X221600Y117086D01*
X221533Y116960D01*
X221478Y116827D01*
X221437Y116691D01*
X221407Y116551D01*
X221391Y116410D01*
X221389Y116267D01*
X221399Y116125D01*
X221423Y115984D01*
X221461Y115843D01*
X221504Y115724D01*
X222327Y113689D01*
X222382Y113415D01*
X222326Y113117D01*
X222158Y112864D01*
X221905Y112697D01*
X220336Y112063D01*
X220191Y111996D01*
X220067Y111924D01*
X219951Y111842D01*
X219843Y111749D01*
X219744Y111646D01*
X219655Y111534D01*
X219577Y111415D01*
X219510Y111289D01*
X219455Y111157D01*
X219414Y111021D01*
X219384Y110881D01*
X219368Y110739D01*
X219366Y110596D01*
X219376Y110454D01*
X219400Y110313D01*
X219438Y110172D01*
X219481Y110053D01*
X220507Y107515D01*
X220562Y107242D01*
X220507Y106943D01*
X220339Y106691D01*
X215900Y102251D01*
X215900Y99070D01*
X215844Y98784D01*
X215677Y98531D01*
X214166Y97020D01*
X214166Y93480D01*
X216670Y90976D01*
X220210Y90976D01*
X222714Y93480D01*
X222714Y97020D01*
X221203Y98531D01*
X221040Y98773D01*
X220980Y99070D01*
X220980Y99832D01*
X221036Y100118D01*
X221203Y100370D01*
X221990Y101158D01*
X222221Y101316D01*
X222518Y101381D01*
X222816Y101325D01*
X223068Y101157D01*
X223236Y100904D01*
X226336Y93230D01*
X227742Y92633D01*
X227975Y92479D01*
X228146Y92229D01*
X228206Y91931D01*
X228146Y91634D01*
X227549Y90228D01*
X228602Y87622D01*
X228658Y87348D01*
X228602Y87050D01*
X228434Y86797D01*
X226950Y85313D01*
X226709Y85150D01*
X226411Y85090D01*
X215998Y85090D01*
X215712Y85146D01*
X215459Y85313D01*
X194533Y106239D01*
X194370Y106481D01*
X194310Y106778D01*
X194310Y135018D01*
X194427Y135424D01*
X194637Y135643D01*
X194915Y135763D01*
X195219Y135765D01*
X195499Y135649D01*
X195711Y135433D01*
X201494Y126528D01*
X201617Y126113D01*
X201617Y120347D01*
X201561Y120061D01*
X201466Y119917D01*
X201466Y116340D01*
X203970Y113836D01*
X207510Y113836D01*
X210014Y116340D01*
X210014Y119880D01*
X209968Y119927D01*
X209805Y120168D01*
X209745Y120465D01*
X209745Y125243D01*
X209875Y125670D01*
X210092Y125882D01*
X215914Y129663D01*
X216176Y130898D01*
X207508Y144246D01*
X206273Y144508D01*
X195487Y137504D01*
X195096Y137381D01*
X194797Y137432D01*
X194542Y137596D01*
X194370Y137846D01*
X194310Y138143D01*
X194310Y145832D01*
X153452Y186690D01*
X124558Y186690D01*
X124272Y186746D01*
X124019Y186913D01*
X84043Y226889D01*
X83880Y227131D01*
X83820Y227428D01*
X83820Y229573D01*
X83863Y229824D01*
X84018Y230085D01*
X84262Y230264D01*
X84557Y230334D01*
X84856Y230284D01*
X85112Y230120D01*
X85283Y229870D01*
X85289Y229856D01*
X92950Y226761D01*
X94356Y227358D01*
X94629Y227418D01*
X94928Y227367D01*
X95184Y227204D01*
X95355Y226954D01*
X95952Y225548D01*
X101295Y223390D01*
X102516Y223908D01*
X102587Y224012D01*
X102846Y224169D01*
X103146Y224213D01*
X103440Y224137D01*
X103680Y223952D01*
X103830Y223688D01*
X103864Y223387D01*
X103850Y223226D01*
X103850Y223056D01*
X103864Y222886D01*
X103893Y222718D01*
X103936Y222554D01*
X103992Y222393D01*
X104062Y222238D01*
X104145Y222089D01*
X104241Y221948D01*
X104348Y221815D01*
X104465Y221692D01*
X104593Y221580D01*
X104730Y221479D01*
X104869Y221393D01*
X105123Y221272D01*
X106284Y220803D01*
X112318Y235737D01*
X111150Y236209D01*
X110974Y236272D01*
X110809Y236315D01*
X110641Y236344D01*
X110472Y236359D01*
X110301Y236359D01*
X110132Y236345D01*
X109964Y236316D01*
X109799Y236273D01*
X109639Y236217D01*
X109483Y236147D01*
X109335Y236063D01*
X109193Y235968D01*
X109061Y235861D01*
X108938Y235743D01*
X108825Y235616D01*
X108802Y235584D01*
X108520Y235351D01*
X108226Y235276D01*
X107927Y235322D01*
X107668Y235481D01*
X107493Y235728D01*
X107428Y236024D01*
X107447Y236129D01*
X106932Y237342D01*
X101589Y239501D01*
X100183Y238904D01*
X99910Y238844D01*
X99611Y238894D01*
X99356Y239057D01*
X99184Y239307D01*
X98587Y240713D01*
X96479Y241565D01*
X96234Y241724D01*
X96063Y241975D01*
X96002Y242272D01*
X96002Y245164D01*
X95477Y245690D01*
X95314Y245931D01*
X95258Y246205D01*
X92750Y248713D01*
X89209Y248713D01*
X86608Y246112D01*
X86378Y245954D01*
X86082Y245889D01*
X85783Y245944D01*
X81767Y247567D01*
X81615Y247621D01*
X81477Y247655D01*
X81336Y247676D01*
X81193Y247684D01*
X81051Y247679D01*
X80909Y247661D01*
X80770Y247629D01*
X80635Y247585D01*
X80504Y247528D01*
X80379Y247459D01*
X80261Y247378D01*
X80151Y247288D01*
X80050Y247187D01*
X79959Y247077D01*
X79878Y246959D01*
X79807Y246831D01*
X79756Y246717D01*
X79683Y246535D01*
X79532Y246299D01*
X79285Y246124D01*
X78989Y246058D01*
X78691Y246114D01*
X76658Y246935D01*
X76506Y246988D01*
X76368Y247023D01*
X76227Y247044D01*
X76084Y247052D01*
X75942Y247047D01*
X75800Y247028D01*
X75661Y246997D01*
X75526Y246952D01*
X75395Y246895D01*
X75270Y246827D01*
X75152Y246746D01*
X75042Y246655D01*
X74941Y246555D01*
X74850Y246445D01*
X74770Y246327D01*
X74699Y246199D01*
X74647Y246084D01*
X72562Y240922D01*
X72508Y240770D01*
X72474Y240632D01*
X72452Y240491D01*
X72444Y240348D01*
X72450Y240206D01*
X72468Y240064D01*
X72500Y239925D01*
X72544Y239790D01*
X72601Y239659D01*
X72670Y239534D01*
X72750Y239416D01*
X72841Y239306D01*
X72942Y239205D01*
X73052Y239114D01*
X73169Y239034D01*
X73297Y238963D01*
X73412Y238911D01*
X75448Y238089D01*
X75684Y237938D01*
X75859Y237691D01*
X75925Y237395D01*
X75869Y237097D01*
X75235Y235528D01*
X75182Y235376D01*
X75148Y235238D01*
X75126Y235097D01*
X75118Y234954D01*
X75123Y234811D01*
X75142Y234670D01*
X75174Y234531D01*
X75218Y234395D01*
X75275Y234264D01*
X75344Y234140D01*
X75424Y234022D01*
X75515Y233912D01*
X75616Y233811D01*
X75726Y233720D01*
X75843Y233639D01*
X75971Y233568D01*
X76085Y233517D01*
X78263Y232637D01*
X78508Y232478D01*
X78680Y232228D01*
X78740Y231930D01*
X78740Y225008D01*
X122138Y181610D01*
X151032Y181610D01*
X151318Y181554D01*
X151571Y181387D01*
X189007Y143951D01*
X189170Y143710D01*
X189230Y143412D01*
X189230Y104358D01*
X213578Y80010D01*
X228831Y80010D01*
X229637Y80816D01*
X229868Y80974D01*
X230165Y81039D01*
X230463Y80983D01*
X230715Y80816D01*
X230883Y80563D01*
G37*
G36*
X-85338Y247912D02*
X-82892Y241858D01*
X-75678Y244772D01*
X-76431Y246635D01*
X-76508Y246805D01*
X-76592Y246954D01*
X-76687Y247095D01*
X-76795Y247227D01*
X-76913Y247350D01*
X-77041Y247462D01*
X-77178Y247563D01*
X-77324Y247652D01*
X-77476Y247728D01*
X-77634Y247791D01*
X-77797Y247840D01*
X-77964Y247875D01*
X-78132Y247896D01*
X-78303Y247903D01*
X-78473Y247895D01*
X-78642Y247873D01*
X-78801Y247838D01*
X-79068Y247749D01*
X-80667Y247103D01*
X-80844Y247055D01*
X-81147Y247073D01*
X-81419Y247207D01*
X-81617Y247436D01*
X-81701Y247586D01*
X-81796Y247727D01*
X-81904Y247859D01*
X-82022Y247982D01*
X-82150Y248094D01*
X-82287Y248195D01*
X-82432Y248284D01*
X-82585Y248360D01*
X-82743Y248423D01*
X-82906Y248472D01*
X-83073Y248508D01*
X-83241Y248529D01*
X-83412Y248535D01*
X-83582Y248527D01*
X-83751Y248505D01*
X-83910Y248470D01*
X-84177Y248381D01*
X-85338Y247912D01*
G37*
G36*
X-16027Y194506D02*
X-10593Y194506D01*
X-8836Y196263D01*
X-8836Y207897D01*
X-10593Y209654D01*
X-16027Y209654D01*
X-16121Y209560D01*
X-16351Y209402D01*
X-16647Y209337D01*
X-16946Y209393D01*
X-17198Y209560D01*
X-26078Y218440D01*
X-84406Y218440D01*
X-84669Y218487D01*
X-84927Y218646D01*
X-85103Y218894D01*
X-85168Y219190D01*
X-85112Y219488D01*
X-84945Y219741D01*
X-84626Y220060D01*
X-84626Y222378D01*
X-84579Y222641D01*
X-84420Y222899D01*
X-84172Y223075D01*
X-83876Y223140D01*
X-83578Y223084D01*
X-83325Y222917D01*
X-83255Y222846D01*
X-79714Y222846D01*
X-77210Y225350D01*
X-77210Y228890D01*
X-79910Y231590D01*
X-80068Y231821D01*
X-80133Y232117D01*
X-80077Y232415D01*
X-79909Y232668D01*
X-79656Y232835D01*
X-78136Y233449D01*
X-77966Y233526D01*
X-77817Y233610D01*
X-77677Y233706D01*
X-77544Y233813D01*
X-77422Y233931D01*
X-77309Y234059D01*
X-77209Y234196D01*
X-77120Y234342D01*
X-77044Y234494D01*
X-76980Y234652D01*
X-76931Y234815D01*
X-76896Y234982D01*
X-76875Y235150D01*
X-76868Y235321D01*
X-76876Y235491D01*
X-76898Y235660D01*
X-76933Y235819D01*
X-77022Y236086D01*
X-77476Y237208D01*
X-77531Y237482D01*
X-77475Y237780D01*
X-77308Y238033D01*
X-77055Y238200D01*
X-75462Y238844D01*
X-75292Y238921D01*
X-75143Y239004D01*
X-75003Y239100D01*
X-74871Y239207D01*
X-74748Y239325D01*
X-74635Y239454D01*
X-74535Y239591D01*
X-74446Y239736D01*
X-74370Y239888D01*
X-74307Y240047D01*
X-74257Y240210D01*
X-74222Y240376D01*
X-74201Y240545D01*
X-74194Y240715D01*
X-74202Y240886D01*
X-74225Y241054D01*
X-74259Y241213D01*
X-74349Y241481D01*
X-74537Y241946D01*
X-84576Y237890D01*
X-88164Y246770D01*
X-89332Y246298D01*
X-89501Y246221D01*
X-89650Y246138D01*
X-89791Y246042D01*
X-89923Y245935D01*
X-90046Y245817D01*
X-90158Y245688D01*
X-90259Y245551D01*
X-90348Y245406D01*
X-90424Y245254D01*
X-90487Y245096D01*
X-90536Y244933D01*
X-90572Y244766D01*
X-90593Y244597D01*
X-90599Y244427D01*
X-90591Y244256D01*
X-90586Y244218D01*
X-90627Y243854D01*
X-90786Y243596D01*
X-91034Y243421D01*
X-91330Y243356D01*
X-91628Y243412D01*
X-91881Y243580D01*
X-91939Y243668D01*
X-93153Y244183D01*
X-98496Y242025D01*
X-99092Y240619D01*
X-99247Y240386D01*
X-99497Y240215D01*
X-99794Y240154D01*
X-100091Y240215D01*
X-101497Y240812D01*
X-109158Y237717D01*
X-109652Y236554D01*
X-106629Y229073D01*
X-106573Y228787D01*
X-106573Y228065D01*
X-106093Y227584D01*
X-105925Y227331D01*
X-104946Y224908D01*
X-104891Y224659D01*
X-104937Y224359D01*
X-105097Y224101D01*
X-105344Y223925D01*
X-105640Y223860D01*
X-105938Y223916D01*
X-106191Y224083D01*
X-106869Y224761D01*
X-107036Y225014D01*
X-108015Y227437D01*
X-108024Y227475D01*
X-108042Y227503D01*
X-111187Y235288D01*
X-111254Y235434D01*
X-111326Y235557D01*
X-111408Y235673D01*
X-111501Y235782D01*
X-111604Y235880D01*
X-111716Y235970D01*
X-111835Y236047D01*
X-111961Y236114D01*
X-112093Y236169D01*
X-112229Y236211D01*
X-112369Y236240D01*
X-112511Y236256D01*
X-112654Y236258D01*
X-112795Y236248D01*
X-112936Y236224D01*
X-113077Y236186D01*
X-113197Y236143D01*
X-118358Y234058D01*
X-118504Y233990D01*
X-118628Y233919D01*
X-118744Y233836D01*
X-118852Y233743D01*
X-118951Y233640D01*
X-119040Y233529D01*
X-119118Y233410D01*
X-119185Y233283D01*
X-119239Y233152D01*
X-119281Y233015D01*
X-119310Y232875D01*
X-119326Y232734D01*
X-119329Y232591D01*
X-119318Y232449D01*
X-119294Y232308D01*
X-119256Y232167D01*
X-119214Y232049D01*
X-119140Y231867D01*
X-119085Y231593D01*
X-119141Y231295D01*
X-119308Y231042D01*
X-119561Y230875D01*
X-121594Y230054D01*
X-121740Y229987D01*
X-121864Y229915D01*
X-121980Y229833D01*
X-122088Y229740D01*
X-122187Y229637D01*
X-122276Y229525D01*
X-122354Y229406D01*
X-122420Y229280D01*
X-122475Y229148D01*
X-122517Y229012D01*
X-122546Y228872D01*
X-122562Y228730D01*
X-122565Y228587D01*
X-122554Y228445D01*
X-122530Y228304D01*
X-122492Y228163D01*
X-122449Y228044D01*
X-120364Y222883D01*
X-120297Y222737D01*
X-120225Y222613D01*
X-120143Y222497D01*
X-120050Y222389D01*
X-119947Y222290D01*
X-119835Y222201D01*
X-119716Y222123D01*
X-119590Y222056D01*
X-119458Y222002D01*
X-119322Y221960D01*
X-119182Y221931D01*
X-119040Y221915D01*
X-118897Y221912D01*
X-118755Y221923D01*
X-118614Y221947D01*
X-118473Y221984D01*
X-118354Y222027D01*
X-116319Y222850D01*
X-116045Y222905D01*
X-115747Y222849D01*
X-115494Y222682D01*
X-115327Y222429D01*
X-114693Y220860D01*
X-114626Y220714D01*
X-114555Y220590D01*
X-114472Y220474D01*
X-114379Y220366D01*
X-114276Y220267D01*
X-114164Y220178D01*
X-114045Y220100D01*
X-113919Y220033D01*
X-113787Y219979D01*
X-113651Y219937D01*
X-113511Y219908D01*
X-113369Y219892D01*
X-113226Y219889D01*
X-113085Y219900D01*
X-112944Y219924D01*
X-112803Y219961D01*
X-112684Y220004D01*
X-110739Y220790D01*
X-110466Y220846D01*
X-110167Y220790D01*
X-109915Y220622D01*
X-102652Y213360D01*
X-28498Y213360D01*
X-28212Y213304D01*
X-27959Y213137D01*
X-18007Y203185D01*
X-17844Y202944D01*
X-17784Y202646D01*
X-17784Y196263D01*
X-16027Y194506D01*
G37*
G36*
X-18260Y228704D02*
X-14834Y228704D01*
X-14834Y235230D01*
X-16224Y235230D01*
X-18260Y233194D01*
X-18260Y228704D01*
G37*
G36*
X112698Y228541D02*
X119911Y225627D01*
X120664Y227490D01*
X120726Y227666D01*
X120770Y227831D01*
X120799Y227999D01*
X120813Y228168D01*
X120813Y228339D01*
X120799Y228508D01*
X120771Y228676D01*
X120728Y228841D01*
X120671Y229002D01*
X120601Y229156D01*
X120518Y229306D01*
X120423Y229447D01*
X120316Y229579D01*
X120198Y229702D01*
X120070Y229815D01*
X119933Y229916D01*
X119795Y230001D01*
X119540Y230123D01*
X117942Y230769D01*
X117781Y230857D01*
X117576Y231080D01*
X117473Y231366D01*
X117490Y231668D01*
X117534Y231834D01*
X117563Y232002D01*
X117577Y232172D01*
X117578Y232342D01*
X117563Y232512D01*
X117535Y232680D01*
X117492Y232845D01*
X117436Y233005D01*
X117365Y233160D01*
X117282Y233309D01*
X117187Y233450D01*
X117080Y233583D01*
X116963Y233705D01*
X116834Y233818D01*
X116697Y233920D01*
X116559Y234005D01*
X116305Y234126D01*
X115144Y234595D01*
X112698Y228541D01*
G37*
G36*
X110956Y219040D02*
X111126Y219039D01*
X111296Y219054D01*
X111464Y219082D01*
X111629Y219125D01*
X111789Y219181D01*
X111944Y219252D01*
X112093Y219335D01*
X112234Y219430D01*
X112367Y219537D01*
X112490Y219655D01*
X112602Y219783D01*
X112703Y219920D01*
X112789Y220058D01*
X112910Y220312D01*
X113364Y221434D01*
X113514Y221670D01*
X113761Y221846D01*
X114058Y221911D01*
X114356Y221855D01*
X115948Y221212D01*
X116124Y221149D01*
X116289Y221106D01*
X116457Y221077D01*
X116627Y221063D01*
X116797Y221062D01*
X116967Y221077D01*
X117134Y221105D01*
X117299Y221148D01*
X117460Y221205D01*
X117615Y221274D01*
X117764Y221358D01*
X117905Y221453D01*
X118038Y221560D01*
X118160Y221678D01*
X118273Y221806D01*
X118374Y221942D01*
X118459Y222081D01*
X118581Y222336D01*
X118769Y222801D01*
X111556Y225715D01*
X109110Y219661D01*
X110278Y219189D01*
X110454Y219126D01*
X110618Y219083D01*
X110786Y219054D01*
X110956Y219040D01*
G37*
G36*
X7214Y219130D02*
X8604Y219130D01*
X10640Y221166D01*
X10640Y225656D01*
X7214Y225656D01*
X7214Y219130D01*
G37*
G36*
X-16224Y219130D02*
X-14834Y219130D01*
X-14834Y225656D01*
X-18260Y225656D01*
X-18260Y221166D01*
X-16224Y219130D01*
G37*
G36*
X132113Y218469D02*
X137674Y214858D01*
X141105Y220140D01*
X134561Y224390D01*
X131768Y220090D01*
X132113Y218469D01*
G37*
G36*
X-140998Y219916D02*
X-137567Y214633D01*
X-132006Y218245D01*
X-131662Y219865D01*
X-134454Y224165D01*
X-140998Y219916D01*
G37*
G36*
X195771Y178738D02*
X204229Y178738D01*
X212044Y181975D01*
X218025Y187956D01*
X221262Y195771D01*
X221262Y204229D01*
X218025Y212044D01*
X212044Y218025D01*
X204229Y221262D01*
X195771Y221262D01*
X187956Y218025D01*
X181975Y212044D01*
X178738Y204229D01*
X178738Y195771D01*
X181975Y187956D01*
X187956Y181975D01*
X195771Y178738D01*
G37*
G36*
X-204229Y178738D02*
X-195771Y178738D01*
X-187956Y181975D01*
X-181975Y187956D01*
X-178738Y195771D01*
X-178738Y204229D01*
X-181975Y212044D01*
X-187956Y218025D01*
X-195771Y221262D01*
X-204229Y221262D01*
X-212044Y218025D01*
X-218025Y212044D01*
X-221262Y204229D01*
X-221262Y195771D01*
X-218025Y187956D01*
X-212044Y181975D01*
X-204229Y178738D01*
G37*
G36*
X140230Y213198D02*
X145791Y209586D01*
X147412Y209931D01*
X150205Y214231D01*
X143661Y218480D01*
X140230Y213198D01*
G37*
G36*
X-147305Y209706D02*
X-145685Y209362D01*
X-140124Y212973D01*
X-143554Y218256D01*
X-150098Y214006D01*
X-147305Y209706D01*
G37*
G36*
X123002Y204077D02*
X136350Y195409D01*
X137585Y195672D01*
X139609Y198789D01*
X139951Y199076D01*
X140248Y199136D01*
X150104Y199136D01*
X150390Y199080D01*
X150623Y198926D01*
X154170Y198926D01*
X156674Y201430D01*
X156674Y204970D01*
X154170Y207474D01*
X150623Y207474D01*
X150401Y207324D01*
X150104Y207264D01*
X145069Y207264D01*
X144665Y207380D01*
X144445Y207589D01*
X144394Y207706D01*
X131005Y216401D01*
X129770Y216138D01*
X122740Y205312D01*
X123002Y204077D01*
G37*
G36*
X-147820Y192576D02*
X-144280Y192576D01*
X-141772Y195084D01*
X-141720Y195347D01*
X-141553Y195600D01*
X-139808Y197345D01*
X-139426Y197552D01*
X-139122Y197554D01*
X-138842Y197437D01*
X-138630Y197221D01*
X-137478Y195447D01*
X-136243Y195185D01*
X-122895Y203853D01*
X-122633Y205088D01*
X-129663Y215914D01*
X-130898Y216176D01*
X-144246Y207508D01*
X-144508Y206273D01*
X-144004Y205497D01*
X-143881Y205094D01*
X-143937Y204796D01*
X-144104Y204543D01*
X-147300Y201347D01*
X-147542Y201184D01*
X-147816Y201129D01*
X-150324Y198620D01*
X-150324Y195080D01*
X-147820Y192576D01*
G37*
G36*
X-218149Y143779D02*
X-212866Y140348D01*
X-209255Y145909D01*
X-209599Y147530D01*
X-213899Y150322D01*
X-218149Y143779D01*
G37*
G36*
X209362Y145685D02*
X212973Y140124D01*
X218256Y143554D01*
X214006Y150098D01*
X209706Y147305D01*
X209362Y145685D01*
G37*
G36*
X-215807Y129888D02*
X-204981Y122857D01*
X-203746Y123120D01*
X-195078Y136467D01*
X-195340Y137702D01*
X-197043Y138808D01*
X-197325Y139139D01*
X-197390Y139435D01*
X-197334Y139733D01*
X-197167Y139986D01*
X-196235Y140918D01*
X-195993Y141081D01*
X-195719Y141136D01*
X-193211Y143645D01*
X-193211Y147185D01*
X-195715Y149689D01*
X-199255Y149689D01*
X-201764Y147181D01*
X-201815Y146918D01*
X-201982Y146665D01*
X-204365Y144283D01*
X-204733Y144079D01*
X-205036Y144071D01*
X-205319Y144182D01*
X-206166Y144733D01*
X-207401Y144470D01*
X-216069Y131123D01*
X-215807Y129888D01*
G37*
G36*
X-224059Y134679D02*
X-219758Y131886D01*
X-218138Y132231D01*
X-214526Y137792D01*
X-219809Y141222D01*
X-224059Y134679D01*
G37*
G36*
X218245Y132006D02*
X219865Y131662D01*
X224165Y134454D01*
X219916Y140998D01*
X214633Y137567D01*
X218245Y132006D01*
G37*
G36*
X-237226Y115667D02*
X-231171Y113221D01*
X-228257Y120434D01*
X-230120Y121187D01*
X-230296Y121249D01*
X-230461Y121293D01*
X-230629Y121322D01*
X-230798Y121336D01*
X-230969Y121337D01*
X-231139Y121322D01*
X-231306Y121294D01*
X-231471Y121251D01*
X-231632Y121194D01*
X-231787Y121125D01*
X-231936Y121041D01*
X-232077Y120946D01*
X-232209Y120839D01*
X-232332Y120721D01*
X-232445Y120593D01*
X-232546Y120457D01*
X-232631Y120318D01*
X-232753Y120063D01*
X-233399Y118465D01*
X-233488Y118305D01*
X-233710Y118099D01*
X-233996Y117996D01*
X-234299Y118013D01*
X-234465Y118057D01*
X-234633Y118086D01*
X-234802Y118101D01*
X-234973Y118101D01*
X-235142Y118087D01*
X-235310Y118058D01*
X-235475Y118015D01*
X-235635Y117959D01*
X-235791Y117889D01*
X-235939Y117806D01*
X-236081Y117710D01*
X-236213Y117603D01*
X-236336Y117486D01*
X-236449Y117357D01*
X-236550Y117221D01*
X-236635Y117082D01*
X-236757Y116828D01*
X-237226Y115667D01*
G37*
G36*
X-228345Y112079D02*
X-222291Y109633D01*
X-221819Y110801D01*
X-221757Y110977D01*
X-221714Y111142D01*
X-221684Y111309D01*
X-221670Y111479D01*
X-221670Y111649D01*
X-221684Y111819D01*
X-221712Y111987D01*
X-221755Y112152D01*
X-221812Y112312D01*
X-221882Y112468D01*
X-221965Y112616D01*
X-222060Y112758D01*
X-222167Y112890D01*
X-222285Y113013D01*
X-222413Y113125D01*
X-222550Y113227D01*
X-222688Y113312D01*
X-222942Y113433D01*
X-224065Y113887D01*
X-224300Y114037D01*
X-224476Y114285D01*
X-224541Y114581D01*
X-224486Y114879D01*
X-223842Y116471D01*
X-223780Y116648D01*
X-223737Y116812D01*
X-223707Y116980D01*
X-223693Y117150D01*
X-223693Y117320D01*
X-223707Y117490D01*
X-223735Y117658D01*
X-223778Y117822D01*
X-223835Y117983D01*
X-223905Y118138D01*
X-223988Y118287D01*
X-224083Y118428D01*
X-224190Y118561D01*
X-224308Y118684D01*
X-224436Y118796D01*
X-224573Y118897D01*
X-224711Y118983D01*
X-224966Y119104D01*
X-225431Y119292D01*
X-228345Y112079D01*
G37*
G36*
X-238602Y87321D02*
X-233649Y85319D01*
X-232487Y85813D01*
X-232047Y86899D01*
X-231888Y87144D01*
X-231638Y87316D01*
X-231341Y87376D01*
X-224546Y87376D01*
X-224260Y87320D01*
X-224027Y87166D01*
X-220480Y87166D01*
X-217976Y89670D01*
X-217976Y93210D01*
X-220480Y95714D01*
X-224027Y95714D01*
X-224249Y95564D01*
X-224546Y95504D01*
X-227441Y95504D01*
X-227704Y95551D01*
X-227962Y95710D01*
X-228138Y95957D01*
X-228203Y96253D01*
X-228148Y96551D01*
X-227179Y98949D01*
X-227020Y99193D01*
X-226770Y99365D01*
X-226473Y99425D01*
X-216065Y99425D01*
X-215779Y99369D01*
X-215526Y99202D01*
X-213650Y97326D01*
X-210110Y97326D01*
X-207606Y99830D01*
X-207606Y103370D01*
X-210110Y105874D01*
X-213650Y105874D01*
X-214796Y104728D01*
X-215038Y104566D01*
X-215335Y104505D01*
X-223239Y104505D01*
X-223546Y104570D01*
X-223793Y104745D01*
X-223953Y105003D01*
X-224000Y105302D01*
X-223926Y105596D01*
X-223902Y105646D01*
X-223433Y106807D01*
X-238368Y112841D01*
X-238839Y111673D01*
X-238902Y111497D01*
X-238945Y111332D01*
X-238974Y111165D01*
X-238989Y110995D01*
X-238989Y110825D01*
X-238975Y110655D01*
X-238946Y110487D01*
X-238903Y110322D01*
X-238847Y110162D01*
X-238777Y110006D01*
X-238694Y109858D01*
X-238598Y109716D01*
X-238492Y109584D01*
X-238374Y109461D01*
X-238246Y109349D01*
X-238214Y109325D01*
X-237981Y109044D01*
X-237906Y108750D01*
X-237952Y108450D01*
X-238111Y108192D01*
X-238359Y108016D01*
X-238655Y107951D01*
X-238759Y107970D01*
X-239972Y107455D01*
X-242131Y102112D01*
X-241534Y100706D01*
X-241474Y100434D01*
X-241525Y100135D01*
X-241688Y99879D01*
X-241938Y99707D01*
X-243344Y99110D01*
X-246439Y91450D01*
X-245945Y90287D01*
X-238611Y87324D01*
X-238607Y87321D01*
X-238602Y87321D01*
G37*
G36*
X241335Y80261D02*
X244249Y73048D01*
X246112Y73801D01*
X246282Y73878D01*
X246431Y73962D01*
X246571Y74057D01*
X246704Y74164D01*
X246826Y74283D01*
X246939Y74411D01*
X247039Y74548D01*
X247128Y74694D01*
X247204Y74845D01*
X247268Y75004D01*
X247317Y75167D01*
X247352Y75333D01*
X247373Y75502D01*
X247380Y75673D01*
X247372Y75843D01*
X247350Y76011D01*
X247315Y76170D01*
X247226Y76438D01*
X246580Y78036D01*
X246532Y78214D01*
X246549Y78516D01*
X246684Y78788D01*
X246913Y78986D01*
X247063Y79070D01*
X247204Y79166D01*
X247336Y79273D01*
X247459Y79392D01*
X247571Y79519D01*
X247672Y79657D01*
X247761Y79802D01*
X247837Y79954D01*
X247900Y80113D01*
X247949Y80276D01*
X247984Y80442D01*
X248005Y80611D01*
X248012Y80781D01*
X248004Y80951D01*
X247982Y81120D01*
X247947Y81279D01*
X247858Y81547D01*
X247389Y82707D01*
X241335Y80261D01*
G37*
G36*
X240022Y71571D02*
X240192Y71564D01*
X240362Y71572D01*
X240531Y71594D01*
X240690Y71629D01*
X240958Y71718D01*
X241423Y71906D01*
X238508Y79120D01*
X232454Y76673D01*
X232926Y75506D01*
X233003Y75336D01*
X233087Y75187D01*
X233182Y75046D01*
X233289Y74914D01*
X233408Y74791D01*
X233536Y74679D01*
X233673Y74578D01*
X233819Y74489D01*
X233970Y74413D01*
X234129Y74350D01*
X234292Y74301D01*
X234459Y74266D01*
X234627Y74245D01*
X234798Y74238D01*
X234968Y74246D01*
X235136Y74268D01*
X235295Y74303D01*
X235563Y74392D01*
X236685Y74846D01*
X236959Y74901D01*
X237257Y74845D01*
X237510Y74677D01*
X237677Y74424D01*
X238320Y72832D01*
X238398Y72662D01*
X238481Y72513D01*
X238577Y72372D01*
X238684Y72240D01*
X238802Y72117D01*
X238931Y72005D01*
X239067Y71904D01*
X239213Y71815D01*
X239365Y71739D01*
X239523Y71676D01*
X239686Y71627D01*
X239853Y71592D01*
X240022Y71571D01*
G37*
G36*
X-141457Y63550D02*
X-139653Y63550D01*
X-138770Y64433D01*
X-138539Y64591D01*
X-138243Y64656D01*
X-137945Y64600D01*
X-137692Y64433D01*
X-136809Y63550D01*
X-135005Y63550D01*
X-135005Y75050D01*
X-136809Y75050D01*
X-137692Y74167D01*
X-137923Y74009D01*
X-138219Y73944D01*
X-138517Y74000D01*
X-138770Y74167D01*
X-139653Y75050D01*
X-141457Y75050D01*
X-141457Y63550D01*
G37*
G36*
X154005Y70824D02*
X156981Y70824D01*
X156981Y73878D01*
X155809Y75050D01*
X154005Y75050D01*
X154005Y70824D01*
G37*
G36*
X144505Y63550D02*
X146309Y63550D01*
X147192Y64433D01*
X147423Y64591D01*
X147719Y64656D01*
X148017Y64600D01*
X148270Y64433D01*
X149153Y63550D01*
X150957Y63550D01*
X150957Y75050D01*
X149153Y75050D01*
X148270Y74167D01*
X148039Y74009D01*
X147743Y73944D01*
X147445Y74000D01*
X147192Y74167D01*
X146309Y75050D01*
X144505Y75050D01*
X144505Y63550D01*
G37*
G36*
X154005Y63550D02*
X155809Y63550D01*
X156981Y64722D01*
X156981Y67776D01*
X154005Y67776D01*
X154005Y63550D01*
G37*
G36*
X-261230Y58674D02*
X-254931Y58674D01*
X-254931Y65305D01*
X-256103Y66477D01*
X-261230Y66477D01*
X-261230Y58674D01*
G37*
G36*
X254931Y58674D02*
X261230Y58674D01*
X261230Y66477D01*
X256103Y66477D01*
X254931Y65305D01*
X254931Y58674D01*
G37*
G36*
X264278Y47824D02*
X269405Y47824D01*
X270577Y48995D01*
X270577Y55626D01*
X264278Y55626D01*
X264278Y47824D01*
G37*
G36*
X-269405Y47824D02*
X-264278Y47824D01*
X-264278Y55626D01*
X-270577Y55626D01*
X-270577Y48995D01*
X-269405Y47824D01*
G37*
G36*
X256103Y47824D02*
X261230Y47824D01*
X261230Y55626D01*
X254931Y55626D01*
X254931Y48995D01*
X256103Y47824D01*
G37*
G36*
X-311485Y25422D02*
X-305418Y25422D01*
X-305258Y25430D01*
X-305116Y25450D01*
X-304978Y25483D01*
X-304842Y25529D01*
X-304712Y25587D01*
X-304588Y25657D01*
X-304471Y25738D01*
X-304362Y25830D01*
X-304262Y25932D01*
X-304172Y26043D01*
X-304092Y26161D01*
X-304025Y26287D01*
X-303969Y26418D01*
X-303925Y26554D01*
X-303895Y26693D01*
X-303877Y26839D01*
X-303872Y26965D01*
X-303872Y31660D01*
X-303821Y31935D01*
X-303658Y32190D01*
X-303407Y32362D01*
X-303110Y32422D01*
X-296418Y32422D01*
X-296258Y32430D01*
X-296116Y32450D01*
X-295978Y32483D01*
X-295842Y32529D01*
X-295712Y32587D01*
X-295588Y32657D01*
X-295471Y32738D01*
X-295362Y32830D01*
X-295262Y32932D01*
X-295172Y33043D01*
X-295092Y33161D01*
X-295025Y33287D01*
X-294969Y33418D01*
X-294925Y33554D01*
X-294895Y33693D01*
X-294877Y33839D01*
X-294872Y33965D01*
X-294872Y42032D01*
X-294880Y42192D01*
X-294900Y42334D01*
X-294933Y42472D01*
X-294979Y42608D01*
X-295037Y42738D01*
X-295107Y42862D01*
X-295188Y42979D01*
X-295280Y43088D01*
X-295382Y43188D01*
X-295493Y43278D01*
X-295611Y43358D01*
X-295737Y43425D01*
X-295868Y43481D01*
X-296004Y43525D01*
X-296143Y43555D01*
X-296289Y43573D01*
X-296415Y43578D01*
X-311482Y43578D01*
X-311642Y43570D01*
X-311784Y43550D01*
X-311922Y43517D01*
X-312058Y43471D01*
X-312188Y43413D01*
X-312312Y43343D01*
X-312429Y43262D01*
X-312538Y43170D01*
X-312638Y43068D01*
X-312728Y42957D01*
X-312808Y42839D01*
X-312875Y42713D01*
X-312931Y42582D01*
X-312975Y42446D01*
X-313005Y42307D01*
X-313023Y42162D01*
X-313028Y42035D01*
X-313028Y26968D01*
X-313020Y26808D01*
X-313000Y26666D01*
X-312967Y26528D01*
X-312921Y26392D01*
X-312863Y26262D01*
X-312793Y26138D01*
X-312712Y26021D01*
X-312620Y25912D01*
X-312518Y25812D01*
X-312407Y25722D01*
X-312289Y25642D01*
X-312163Y25575D01*
X-312032Y25519D01*
X-311896Y25475D01*
X-311757Y25445D01*
X-311612Y25427D01*
X-311485Y25422D01*
G37*
G36*
X305415Y25422D02*
X311482Y25422D01*
X311642Y25430D01*
X311784Y25450D01*
X311922Y25483D01*
X312058Y25529D01*
X312188Y25587D01*
X312312Y25657D01*
X312429Y25738D01*
X312538Y25830D01*
X312638Y25932D01*
X312728Y26043D01*
X312808Y26161D01*
X312875Y26287D01*
X312931Y26418D01*
X312975Y26554D01*
X313005Y26693D01*
X313023Y26839D01*
X313028Y26965D01*
X313028Y42032D01*
X313020Y42192D01*
X313000Y42334D01*
X312967Y42472D01*
X312921Y42608D01*
X312863Y42738D01*
X312793Y42862D01*
X312712Y42979D01*
X312620Y43088D01*
X312518Y43188D01*
X312407Y43278D01*
X312289Y43358D01*
X312163Y43425D01*
X312032Y43481D01*
X311896Y43525D01*
X311757Y43555D01*
X311612Y43573D01*
X311485Y43578D01*
X296418Y43578D01*
X296258Y43570D01*
X296116Y43550D01*
X295978Y43517D01*
X295842Y43471D01*
X295712Y43413D01*
X295588Y43343D01*
X295471Y43262D01*
X295362Y43170D01*
X295262Y43068D01*
X295172Y42957D01*
X295092Y42839D01*
X295025Y42713D01*
X294969Y42582D01*
X294925Y42446D01*
X294895Y42307D01*
X294877Y42162D01*
X294872Y42035D01*
X294872Y33968D01*
X294880Y33808D01*
X294900Y33666D01*
X294933Y33528D01*
X294979Y33392D01*
X295037Y33262D01*
X295107Y33138D01*
X295188Y33021D01*
X295280Y32912D01*
X295382Y32812D01*
X295493Y32722D01*
X295611Y32642D01*
X295737Y32575D01*
X295868Y32519D01*
X296004Y32475D01*
X296143Y32445D01*
X296289Y32427D01*
X296415Y32422D01*
X303110Y32422D01*
X303385Y32371D01*
X303640Y32208D01*
X303812Y31957D01*
X303872Y31660D01*
X303872Y26968D01*
X303880Y26808D01*
X303900Y26666D01*
X303933Y26528D01*
X303979Y26392D01*
X304037Y26262D01*
X304107Y26138D01*
X304188Y26021D01*
X304280Y25912D01*
X304382Y25812D01*
X304493Y25722D01*
X304611Y25642D01*
X304737Y25575D01*
X304868Y25519D01*
X305004Y25475D01*
X305143Y25445D01*
X305289Y25427D01*
X305415Y25422D01*
G37*
G36*
X-292081Y14976D02*
X-278819Y14976D01*
X-277926Y15869D01*
X-277926Y26131D01*
X-278819Y27024D01*
X-282148Y27024D01*
X-282423Y27075D01*
X-282678Y27239D01*
X-282850Y27489D01*
X-282910Y27786D01*
X-282910Y29500D01*
X-282854Y29786D01*
X-282687Y30039D01*
X-281476Y31250D01*
X-281476Y34790D01*
X-283980Y37294D01*
X-287520Y37294D01*
X-290024Y34790D01*
X-290024Y31250D01*
X-288213Y29439D01*
X-288050Y29197D01*
X-287990Y28900D01*
X-287990Y27786D01*
X-288041Y27511D01*
X-288205Y27256D01*
X-288455Y27084D01*
X-288752Y27024D01*
X-292081Y27024D01*
X-292974Y26131D01*
X-292974Y15869D01*
X-292081Y14976D01*
G37*
G36*
X277450Y22524D02*
X283926Y22524D01*
X283926Y27500D01*
X278622Y27500D01*
X277450Y26328D01*
X277450Y22524D01*
G37*
G36*
X286974Y22524D02*
X293450Y22524D01*
X293450Y26328D01*
X292278Y27500D01*
X286974Y27500D01*
X286974Y22524D01*
G37*
G36*
X286974Y14500D02*
X292278Y14500D01*
X293450Y15672D01*
X293450Y19476D01*
X286974Y19476D01*
X286974Y14500D01*
G37*
G36*
X278622Y14500D02*
X283926Y14500D01*
X283926Y19476D01*
X277450Y19476D01*
X277450Y15672D01*
X278622Y14500D01*
G37*
G36*
X278819Y-27024D02*
X292081Y-27024D01*
X292974Y-26131D01*
X292974Y-17384D01*
X293030Y-17098D01*
X293197Y-16845D01*
X302260Y-7782D01*
X302260Y6340D01*
X302316Y6626D01*
X302483Y6879D01*
X303994Y8390D01*
X303994Y11930D01*
X301490Y14434D01*
X297950Y14434D01*
X295446Y11930D01*
X295446Y8390D01*
X296957Y6879D01*
X297120Y6637D01*
X297180Y6340D01*
X297180Y-5362D01*
X297124Y-5648D01*
X296957Y-5901D01*
X288105Y-14753D01*
X287864Y-14916D01*
X287566Y-14976D01*
X278819Y-14976D01*
X277926Y-15869D01*
X277926Y-26131D01*
X278819Y-27024D01*
G37*
G36*
X241521Y-43804D02*
X247479Y-43804D01*
X248774Y-42509D01*
X248774Y-29451D01*
X247479Y-28156D01*
X241521Y-28156D01*
X240226Y-29451D01*
X240226Y-32678D01*
X240175Y-32953D01*
X240011Y-33208D01*
X239761Y-33380D01*
X239464Y-33440D01*
X234438Y-33440D01*
X234152Y-33384D01*
X233899Y-33217D01*
X227898Y-27216D01*
X211515Y-27216D01*
X211229Y-27160D01*
X210976Y-26993D01*
X186523Y-2540D01*
X185430Y-2540D01*
X185144Y-2484D01*
X184891Y-2317D01*
X183380Y-806D01*
X179840Y-806D01*
X177336Y-3310D01*
X177336Y-6850D01*
X179840Y-9354D01*
X183380Y-9354D01*
X184228Y-8507D01*
X184458Y-8349D01*
X184754Y-8283D01*
X185053Y-8339D01*
X185305Y-8507D01*
X209095Y-32296D01*
X225478Y-32296D01*
X225764Y-32352D01*
X226017Y-32519D01*
X232018Y-38520D01*
X239464Y-38520D01*
X239739Y-38571D01*
X239994Y-38735D01*
X240166Y-38985D01*
X240226Y-39282D01*
X240226Y-42509D01*
X241521Y-43804D01*
G37*
G36*
X-283926Y-19476D02*
X-277450Y-19476D01*
X-277450Y-15672D01*
X-278622Y-14500D01*
X-283926Y-14500D01*
X-283926Y-19476D01*
G37*
G36*
X-293450Y-19476D02*
X-286974Y-19476D01*
X-286974Y-14500D01*
X-292278Y-14500D01*
X-293450Y-15672D01*
X-293450Y-19476D01*
G37*
G36*
X-292278Y-27500D02*
X-286974Y-27500D01*
X-286974Y-22524D01*
X-293450Y-22524D01*
X-293450Y-26328D01*
X-292278Y-27500D01*
G37*
G36*
X-283926Y-27500D02*
X-278622Y-27500D01*
X-277450Y-26328D01*
X-277450Y-22524D01*
X-283926Y-22524D01*
X-283926Y-27500D01*
G37*
G36*
X296415Y-43578D02*
X311482Y-43578D01*
X311642Y-43570D01*
X311784Y-43550D01*
X311922Y-43517D01*
X312058Y-43471D01*
X312188Y-43413D01*
X312312Y-43343D01*
X312429Y-43262D01*
X312538Y-43170D01*
X312638Y-43068D01*
X312728Y-42957D01*
X312808Y-42839D01*
X312875Y-42713D01*
X312931Y-42582D01*
X312975Y-42446D01*
X313005Y-42307D01*
X313023Y-42162D01*
X313028Y-42035D01*
X313028Y-26968D01*
X313020Y-26808D01*
X313000Y-26666D01*
X312967Y-26528D01*
X312921Y-26392D01*
X312863Y-26262D01*
X312793Y-26138D01*
X312712Y-26021D01*
X312620Y-25912D01*
X312518Y-25812D01*
X312407Y-25722D01*
X312289Y-25642D01*
X312163Y-25575D01*
X312032Y-25519D01*
X311896Y-25475D01*
X311757Y-25445D01*
X311612Y-25427D01*
X311485Y-25422D01*
X305418Y-25422D01*
X305258Y-25430D01*
X305116Y-25450D01*
X304978Y-25483D01*
X304842Y-25529D01*
X304712Y-25587D01*
X304588Y-25657D01*
X304471Y-25738D01*
X304362Y-25830D01*
X304262Y-25932D01*
X304172Y-26043D01*
X304092Y-26161D01*
X304025Y-26287D01*
X303969Y-26418D01*
X303925Y-26554D01*
X303895Y-26693D01*
X303877Y-26839D01*
X303872Y-26965D01*
X303872Y-31660D01*
X303821Y-31935D01*
X303658Y-32190D01*
X303407Y-32362D01*
X303110Y-32422D01*
X296418Y-32422D01*
X296258Y-32430D01*
X296116Y-32450D01*
X295978Y-32483D01*
X295842Y-32529D01*
X295712Y-32587D01*
X295588Y-32657D01*
X295471Y-32738D01*
X295362Y-32830D01*
X295262Y-32932D01*
X295172Y-33043D01*
X295092Y-33161D01*
X295025Y-33287D01*
X294969Y-33418D01*
X294925Y-33554D01*
X294895Y-33693D01*
X294877Y-33839D01*
X294872Y-33965D01*
X294872Y-42032D01*
X294880Y-42192D01*
X294900Y-42334D01*
X294933Y-42472D01*
X294979Y-42608D01*
X295037Y-42738D01*
X295107Y-42862D01*
X295188Y-42979D01*
X295280Y-43088D01*
X295382Y-43188D01*
X295493Y-43278D01*
X295611Y-43358D01*
X295737Y-43425D01*
X295868Y-43481D01*
X296004Y-43525D01*
X296143Y-43555D01*
X296289Y-43573D01*
X296415Y-43578D01*
G37*
G36*
X-311485Y-43578D02*
X-296418Y-43578D01*
X-296258Y-43570D01*
X-296116Y-43550D01*
X-295978Y-43517D01*
X-295842Y-43471D01*
X-295712Y-43413D01*
X-295588Y-43343D01*
X-295471Y-43262D01*
X-295362Y-43170D01*
X-295262Y-43068D01*
X-295172Y-42957D01*
X-295092Y-42839D01*
X-295025Y-42713D01*
X-294969Y-42582D01*
X-294925Y-42446D01*
X-294895Y-42307D01*
X-294877Y-42162D01*
X-294872Y-42035D01*
X-294872Y-33968D01*
X-294880Y-33808D01*
X-294900Y-33666D01*
X-294933Y-33528D01*
X-294979Y-33392D01*
X-295037Y-33262D01*
X-295107Y-33138D01*
X-295188Y-33021D01*
X-295280Y-32912D01*
X-295382Y-32812D01*
X-295493Y-32722D01*
X-295611Y-32642D01*
X-295737Y-32575D01*
X-295868Y-32519D01*
X-296004Y-32475D01*
X-296143Y-32445D01*
X-296289Y-32427D01*
X-296415Y-32422D01*
X-303110Y-32422D01*
X-303385Y-32371D01*
X-303640Y-32208D01*
X-303812Y-31957D01*
X-303872Y-31660D01*
X-303872Y-26968D01*
X-303880Y-26808D01*
X-303900Y-26666D01*
X-303933Y-26528D01*
X-303979Y-26392D01*
X-304037Y-26262D01*
X-304107Y-26138D01*
X-304188Y-26021D01*
X-304280Y-25912D01*
X-304382Y-25812D01*
X-304493Y-25722D01*
X-304611Y-25642D01*
X-304737Y-25575D01*
X-304868Y-25519D01*
X-305004Y-25475D01*
X-305143Y-25445D01*
X-305289Y-25427D01*
X-305415Y-25422D01*
X-311482Y-25422D01*
X-311642Y-25430D01*
X-311784Y-25450D01*
X-311922Y-25483D01*
X-312058Y-25529D01*
X-312188Y-25587D01*
X-312312Y-25657D01*
X-312429Y-25738D01*
X-312538Y-25830D01*
X-312638Y-25932D01*
X-312728Y-26043D01*
X-312808Y-26161D01*
X-312875Y-26287D01*
X-312931Y-26418D01*
X-312975Y-26554D01*
X-313005Y-26693D01*
X-313023Y-26839D01*
X-313028Y-26965D01*
X-313028Y-42032D01*
X-313020Y-42192D01*
X-313000Y-42334D01*
X-312967Y-42472D01*
X-312921Y-42608D01*
X-312863Y-42738D01*
X-312793Y-42862D01*
X-312712Y-42979D01*
X-312620Y-43088D01*
X-312518Y-43188D01*
X-312407Y-43278D01*
X-312289Y-43358D01*
X-312163Y-43425D01*
X-312032Y-43481D01*
X-311896Y-43525D01*
X-311757Y-43555D01*
X-311612Y-43573D01*
X-311485Y-43578D01*
G37*
G36*
X-247479Y-43804D02*
X-241521Y-43804D01*
X-240226Y-42509D01*
X-240226Y-40298D01*
X-240175Y-40023D01*
X-240011Y-39768D01*
X-239761Y-39596D01*
X-239464Y-39536D01*
X-230984Y-39536D01*
X-230698Y-39592D01*
X-230445Y-39759D01*
X-230370Y-39834D01*
X-226830Y-39834D01*
X-224326Y-37330D01*
X-224326Y-33790D01*
X-226830Y-31286D01*
X-230370Y-31286D01*
X-231285Y-32201D01*
X-231527Y-32364D01*
X-231824Y-32424D01*
X-239464Y-32424D01*
X-239739Y-32373D01*
X-239994Y-32209D01*
X-240166Y-31959D01*
X-240226Y-31662D01*
X-240226Y-29451D01*
X-241521Y-28156D01*
X-247479Y-28156D01*
X-248774Y-29451D01*
X-248774Y-42509D01*
X-247479Y-43804D01*
G37*
G36*
X237423Y-55626D02*
X243722Y-55626D01*
X243722Y-47824D01*
X238595Y-47824D01*
X237423Y-48995D01*
X237423Y-55626D01*
G37*
G36*
X-270577Y-55626D02*
X-264278Y-55626D01*
X-264278Y-47824D01*
X-269405Y-47824D01*
X-270577Y-48995D01*
X-270577Y-55626D01*
G37*
G36*
X246770Y-55626D02*
X253069Y-55626D01*
X253069Y-48995D01*
X251897Y-47824D01*
X246770Y-47824D01*
X246770Y-55626D01*
G37*
G36*
X-261230Y-55626D02*
X-254931Y-55626D01*
X-254931Y-48995D01*
X-256103Y-47824D01*
X-261230Y-47824D01*
X-261230Y-55626D01*
G37*
G36*
X-251700Y-66001D02*
X-238792Y-66001D01*
X-237899Y-65108D01*
X-237899Y-61468D01*
X-237848Y-61193D01*
X-237684Y-60938D01*
X-237434Y-60766D01*
X-237137Y-60706D01*
X-231404Y-60706D01*
X-231118Y-60762D01*
X-230865Y-60929D01*
X-230370Y-61424D01*
X-226830Y-61424D01*
X-224326Y-58920D01*
X-224326Y-55380D01*
X-226830Y-52876D01*
X-230370Y-52876D01*
X-230865Y-53371D01*
X-231107Y-53534D01*
X-231404Y-53594D01*
X-237137Y-53594D01*
X-237412Y-53543D01*
X-237667Y-53379D01*
X-237839Y-53129D01*
X-237899Y-52832D01*
X-237899Y-49192D01*
X-238792Y-48300D01*
X-251700Y-48300D01*
X-252593Y-49192D01*
X-252593Y-65108D01*
X-251700Y-66001D01*
G37*
G36*
X-261230Y-66477D02*
X-256103Y-66477D01*
X-254931Y-65305D01*
X-254931Y-58674D01*
X-261230Y-58674D01*
X-261230Y-66477D01*
G37*
G36*
X246770Y-66477D02*
X251897Y-66477D01*
X253069Y-65305D01*
X253069Y-58674D01*
X246770Y-58674D01*
X246770Y-66477D01*
G37*
G36*
X238595Y-66477D02*
X243722Y-66477D01*
X243722Y-58674D01*
X237423Y-58674D01*
X237423Y-65305D01*
X238595Y-66477D01*
G37*
G36*
X-244963Y-74244D02*
X-241924Y-81406D01*
X-235913Y-78854D01*
X-236405Y-77694D01*
X-236485Y-77526D01*
X-236571Y-77379D01*
X-236669Y-77240D01*
X-236779Y-77110D01*
X-236899Y-76989D01*
X-237029Y-76879D01*
X-237168Y-76780D01*
X-237315Y-76694D01*
X-237469Y-76621D01*
X-237628Y-76560D01*
X-237792Y-76514D01*
X-237959Y-76482D01*
X-238128Y-76463D01*
X-238298Y-76460D01*
X-238469Y-76471D01*
X-238637Y-76496D01*
X-238795Y-76534D01*
X-239061Y-76627D01*
X-240175Y-77100D01*
X-240448Y-77160D01*
X-240747Y-77110D01*
X-241003Y-76947D01*
X-241174Y-76697D01*
X-241846Y-75115D01*
X-241926Y-74947D01*
X-242012Y-74800D01*
X-242110Y-74661D01*
X-242219Y-74530D01*
X-242339Y-74410D01*
X-242470Y-74300D01*
X-242609Y-74201D01*
X-242755Y-74115D01*
X-242909Y-74041D01*
X-243068Y-73981D01*
X-243232Y-73935D01*
X-243399Y-73902D01*
X-243569Y-73884D01*
X-243739Y-73881D01*
X-243909Y-73891D01*
X-244077Y-73917D01*
X-244235Y-73954D01*
X-244501Y-74048D01*
X-244963Y-74244D01*
G37*
G36*
X79030Y-234199D02*
X85323Y-249026D01*
X86483Y-248533D01*
X86651Y-248454D01*
X86798Y-248368D01*
X86938Y-248269D01*
X87068Y-248160D01*
X87188Y-248040D01*
X87298Y-247909D01*
X87397Y-247770D01*
X87483Y-247624D01*
X87557Y-247470D01*
X87617Y-247311D01*
X87663Y-247147D01*
X87696Y-246980D01*
X87714Y-246810D01*
X87718Y-246641D01*
X87707Y-246470D01*
X87701Y-246432D01*
X87735Y-246068D01*
X87890Y-245807D01*
X88135Y-245627D01*
X88430Y-245557D01*
X88729Y-245608D01*
X88984Y-245771D01*
X89044Y-245858D01*
X90266Y-246352D01*
X95571Y-244101D01*
X96143Y-242685D01*
X96293Y-242449D01*
X96540Y-242273D01*
X96837Y-242208D01*
X97135Y-242263D01*
X98551Y-242836D01*
X103886Y-240571D01*
X104160Y-240511D01*
X104459Y-240561D01*
X104714Y-240725D01*
X104886Y-240975D01*
X104946Y-241272D01*
X104946Y-243070D01*
X107450Y-245574D01*
X110990Y-245574D01*
X113494Y-243070D01*
X113494Y-239530D01*
X112533Y-238568D01*
X112370Y-238327D01*
X112309Y-238029D01*
X112309Y-237558D01*
X112360Y-237284D01*
X112524Y-237028D01*
X112774Y-236857D01*
X115292Y-235788D01*
X115436Y-235719D01*
X115558Y-235645D01*
X115673Y-235560D01*
X115780Y-235465D01*
X115877Y-235361D01*
X115964Y-235248D01*
X116040Y-235127D01*
X116104Y-235000D01*
X116156Y-234867D01*
X116196Y-234730D01*
X116222Y-234590D01*
X116236Y-234448D01*
X116236Y-234305D01*
X116223Y-234163D01*
X116197Y-234023D01*
X116156Y-233882D01*
X116112Y-233765D01*
X116035Y-233584D01*
X115975Y-233311D01*
X116025Y-233012D01*
X116189Y-232757D01*
X116439Y-232585D01*
X118457Y-231728D01*
X118601Y-231659D01*
X118724Y-231585D01*
X118838Y-231501D01*
X118945Y-231406D01*
X119042Y-231301D01*
X119129Y-231188D01*
X119205Y-231068D01*
X119270Y-230940D01*
X119322Y-230807D01*
X119361Y-230670D01*
X119388Y-230530D01*
X119401Y-230388D01*
X119402Y-230245D01*
X119388Y-230104D01*
X119362Y-229963D01*
X119322Y-229823D01*
X119277Y-229705D01*
X117101Y-224580D01*
X117032Y-224435D01*
X116958Y-224313D01*
X116874Y-224198D01*
X116779Y-224092D01*
X116674Y-223995D01*
X116561Y-223908D01*
X116440Y-223832D01*
X116313Y-223767D01*
X116180Y-223715D01*
X116043Y-223675D01*
X115903Y-223649D01*
X115761Y-223635D01*
X115618Y-223635D01*
X115476Y-223648D01*
X115336Y-223675D01*
X115196Y-223715D01*
X115079Y-223759D01*
X113057Y-224618D01*
X112784Y-224678D01*
X112485Y-224627D01*
X112229Y-224464D01*
X112057Y-224214D01*
X111396Y-222656D01*
X111327Y-222512D01*
X111253Y-222389D01*
X111169Y-222275D01*
X111073Y-222168D01*
X110969Y-222071D01*
X110856Y-221984D01*
X110735Y-221908D01*
X110608Y-221843D01*
X110475Y-221791D01*
X110338Y-221752D01*
X110198Y-221725D01*
X110056Y-221712D01*
X109913Y-221711D01*
X109771Y-221725D01*
X109631Y-221751D01*
X109490Y-221791D01*
X109373Y-221836D01*
X105029Y-223680D01*
X104755Y-223740D01*
X104456Y-223689D01*
X104201Y-223526D01*
X104029Y-223276D01*
X103969Y-222978D01*
X103969Y-222385D01*
X101465Y-219881D01*
X97925Y-219881D01*
X95417Y-222389D01*
X95365Y-222652D01*
X95350Y-222675D01*
X95350Y-227342D01*
X95299Y-227617D01*
X95135Y-227872D01*
X94885Y-228044D01*
X92671Y-228984D01*
X92099Y-230400D01*
X91949Y-230635D01*
X91701Y-230811D01*
X91405Y-230876D01*
X91107Y-230821D01*
X90647Y-230635D01*
X90402Y-230476D01*
X90230Y-230226D01*
X90170Y-229928D01*
X90170Y-205838D01*
X90226Y-205552D01*
X90393Y-205299D01*
X207834Y-87858D01*
X208076Y-87695D01*
X208373Y-87635D01*
X228457Y-87635D01*
X228732Y-87686D01*
X228987Y-87850D01*
X229159Y-88100D01*
X229219Y-88397D01*
X229158Y-88694D01*
X228539Y-90152D01*
X228385Y-90384D01*
X228135Y-90556D01*
X227838Y-90616D01*
X221137Y-90616D01*
X221000Y-90753D01*
X220758Y-90916D01*
X220484Y-90971D01*
X217976Y-93480D01*
X217976Y-97020D01*
X220480Y-99524D01*
X223410Y-99524D01*
X223685Y-99575D01*
X223940Y-99739D01*
X224112Y-99989D01*
X224172Y-100287D01*
X224111Y-100584D01*
X223888Y-101111D01*
X223733Y-101343D01*
X223483Y-101515D01*
X223186Y-101575D01*
X214615Y-101575D01*
X214329Y-101519D01*
X214076Y-101352D01*
X212590Y-99866D01*
X209050Y-99866D01*
X206546Y-102370D01*
X206546Y-105910D01*
X209050Y-108414D01*
X212590Y-108414D01*
X214126Y-106878D01*
X214368Y-106716D01*
X214665Y-106655D01*
X219807Y-106655D01*
X220083Y-106707D01*
X220338Y-106870D01*
X220509Y-107120D01*
X220569Y-107418D01*
X220509Y-107715D01*
X220061Y-108771D01*
X234888Y-115064D01*
X235380Y-113904D01*
X235445Y-113730D01*
X235492Y-113566D01*
X235524Y-113399D01*
X235541Y-113229D01*
X235544Y-113059D01*
X235533Y-112889D01*
X235507Y-112721D01*
X235468Y-112555D01*
X235414Y-112394D01*
X235346Y-112237D01*
X235266Y-112087D01*
X235173Y-111944D01*
X235069Y-111810D01*
X234953Y-111685D01*
X234827Y-111570D01*
X234796Y-111547D01*
X234568Y-111261D01*
X234498Y-110966D01*
X234549Y-110667D01*
X234713Y-110411D01*
X234963Y-110240D01*
X235260Y-110180D01*
X235364Y-110201D01*
X236586Y-109707D01*
X238838Y-104403D01*
X238266Y-102987D01*
X238210Y-102713D01*
X238266Y-102415D01*
X238434Y-102162D01*
X238687Y-101995D01*
X240103Y-101423D01*
X243331Y-93817D01*
X242858Y-92646D01*
X234499Y-89098D01*
X234284Y-88961D01*
X234105Y-88716D01*
X234035Y-88421D01*
X234086Y-88122D01*
X234249Y-87867D01*
X234499Y-87695D01*
X234797Y-87635D01*
X235754Y-87635D01*
X236052Y-87695D01*
X243049Y-90665D01*
X243199Y-90721D01*
X243337Y-90758D01*
X243477Y-90781D01*
X243620Y-90792D01*
X243763Y-90789D01*
X243904Y-90773D01*
X244044Y-90744D01*
X244180Y-90702D01*
X244312Y-90647D01*
X244438Y-90580D01*
X244557Y-90503D01*
X244669Y-90413D01*
X244771Y-90315D01*
X244865Y-90206D01*
X244947Y-90090D01*
X245020Y-89963D01*
X245074Y-89850D01*
X247249Y-84724D01*
X247305Y-84574D01*
X247342Y-84436D01*
X247366Y-84295D01*
X247376Y-84153D01*
X247373Y-84010D01*
X247357Y-83869D01*
X247328Y-83729D01*
X247286Y-83593D01*
X247232Y-83461D01*
X247165Y-83334D01*
X247087Y-83215D01*
X246998Y-83104D01*
X246899Y-83001D01*
X246790Y-82908D01*
X246674Y-82826D01*
X246548Y-82752D01*
X246433Y-82699D01*
X246253Y-82622D01*
X246020Y-82468D01*
X245849Y-82218D01*
X245789Y-81920D01*
X245850Y-81623D01*
X246706Y-79605D01*
X246762Y-79455D01*
X246799Y-79317D01*
X246823Y-79176D01*
X246833Y-79034D01*
X246831Y-78891D01*
X246815Y-78750D01*
X246785Y-78610D01*
X246743Y-78474D01*
X246689Y-78342D01*
X246622Y-78215D01*
X246544Y-78096D01*
X246455Y-77985D01*
X246356Y-77882D01*
X246247Y-77789D01*
X246131Y-77706D01*
X246005Y-77633D01*
X245891Y-77580D01*
X240765Y-75404D01*
X240615Y-75349D01*
X240477Y-75312D01*
X240336Y-75288D01*
X240194Y-75277D01*
X240051Y-75280D01*
X239910Y-75296D01*
X239770Y-75325D01*
X239634Y-75367D01*
X239502Y-75422D01*
X239376Y-75489D01*
X239257Y-75567D01*
X239145Y-75656D01*
X239042Y-75755D01*
X238949Y-75863D01*
X238867Y-75979D01*
X238794Y-76106D01*
X238740Y-76220D01*
X237882Y-78241D01*
X237728Y-78474D01*
X237477Y-78645D01*
X237180Y-78706D01*
X236883Y-78645D01*
X235325Y-77984D01*
X235175Y-77928D01*
X235037Y-77891D01*
X234896Y-77867D01*
X234754Y-77857D01*
X234611Y-77859D01*
X234470Y-77875D01*
X234330Y-77905D01*
X234193Y-77947D01*
X234062Y-78001D01*
X233936Y-78068D01*
X233816Y-78146D01*
X233705Y-78235D01*
X233602Y-78334D01*
X233509Y-78443D01*
X233426Y-78559D01*
X233353Y-78685D01*
X233300Y-78799D01*
X231903Y-82090D01*
X231749Y-82323D01*
X231499Y-82494D01*
X231201Y-82555D01*
X205953Y-82555D01*
X85090Y-203418D01*
X85090Y-231697D01*
X85039Y-231972D01*
X84876Y-232227D01*
X84626Y-232399D01*
X84387Y-232500D01*
X83890Y-233730D01*
X83912Y-233854D01*
X83841Y-234149D01*
X83660Y-234392D01*
X83398Y-234545D01*
X83097Y-234585D01*
X82805Y-234504D01*
X82568Y-234315D01*
X82464Y-234192D01*
X82344Y-234071D01*
X82214Y-233961D01*
X82075Y-233863D01*
X81928Y-233777D01*
X81774Y-233703D01*
X81615Y-233643D01*
X81451Y-233596D01*
X81284Y-233564D01*
X81115Y-233546D01*
X80945Y-233542D01*
X80774Y-233553D01*
X80606Y-233578D01*
X80448Y-233616D01*
X80182Y-233709D01*
X79030Y-234199D01*
G37*
G36*
X-251229Y-83995D02*
X-250740Y-85148D01*
X-244729Y-82596D01*
X-247769Y-75435D01*
X-249620Y-76221D01*
X-249788Y-76301D01*
X-249935Y-76387D01*
X-250074Y-76485D01*
X-250204Y-76594D01*
X-250325Y-76714D01*
X-250435Y-76845D01*
X-250533Y-76984D01*
X-250619Y-77130D01*
X-250693Y-77284D01*
X-250753Y-77443D01*
X-250800Y-77607D01*
X-250832Y-77774D01*
X-250850Y-77944D01*
X-250854Y-78113D01*
X-250843Y-78284D01*
X-250818Y-78452D01*
X-250780Y-78610D01*
X-250686Y-78876D01*
X-250013Y-80463D01*
X-249962Y-80640D01*
X-249974Y-80943D01*
X-250103Y-81217D01*
X-250329Y-81419D01*
X-250477Y-81505D01*
X-250617Y-81604D01*
X-250747Y-81713D01*
X-250868Y-81834D01*
X-250978Y-81964D01*
X-251076Y-82103D01*
X-251162Y-82249D01*
X-251236Y-82403D01*
X-251296Y-82562D01*
X-251343Y-82726D01*
X-251375Y-82893D01*
X-251393Y-83063D01*
X-251397Y-83233D01*
X-251386Y-83403D01*
X-251361Y-83571D01*
X-251323Y-83729D01*
X-251229Y-83995D01*
G37*
G36*
X-84489Y-249783D02*
X-84347Y-249791D01*
X-84204Y-249786D01*
X-84063Y-249768D01*
X-83923Y-249736D01*
X-83788Y-249692D01*
X-83657Y-249635D01*
X-83532Y-249566D01*
X-83414Y-249485D01*
X-83304Y-249395D01*
X-83203Y-249294D01*
X-83112Y-249184D01*
X-83032Y-249066D01*
X-82961Y-248938D01*
X-82909Y-248824D01*
X-82836Y-248642D01*
X-82686Y-248406D01*
X-82438Y-248231D01*
X-82142Y-248165D01*
X-81844Y-248221D01*
X-79812Y-249042D01*
X-79660Y-249095D01*
X-79521Y-249130D01*
X-79380Y-249151D01*
X-79238Y-249159D01*
X-79095Y-249154D01*
X-78954Y-249135D01*
X-78815Y-249104D01*
X-78679Y-249059D01*
X-78548Y-249002D01*
X-78424Y-248934D01*
X-78305Y-248853D01*
X-78195Y-248762D01*
X-78095Y-248662D01*
X-78003Y-248552D01*
X-77923Y-248434D01*
X-77852Y-248306D01*
X-77800Y-248191D01*
X-75715Y-243030D01*
X-75662Y-242877D01*
X-75627Y-242739D01*
X-75606Y-242598D01*
X-75598Y-242455D01*
X-75603Y-242313D01*
X-75622Y-242171D01*
X-75653Y-242032D01*
X-75698Y-241897D01*
X-75755Y-241766D01*
X-75823Y-241641D01*
X-75904Y-241523D01*
X-75995Y-241413D01*
X-76095Y-241312D01*
X-76205Y-241221D01*
X-76323Y-241141D01*
X-76451Y-241070D01*
X-76566Y-241018D01*
X-78602Y-240196D01*
X-78837Y-240045D01*
X-79013Y-239798D01*
X-79078Y-239502D01*
X-79023Y-239204D01*
X-78389Y-237635D01*
X-78336Y-237483D01*
X-78301Y-237345D01*
X-78280Y-237204D01*
X-78272Y-237061D01*
X-78277Y-236919D01*
X-78295Y-236777D01*
X-78327Y-236638D01*
X-78372Y-236502D01*
X-78428Y-236371D01*
X-78497Y-236247D01*
X-78578Y-236129D01*
X-78669Y-236019D01*
X-78769Y-235918D01*
X-78879Y-235827D01*
X-78997Y-235746D01*
X-79125Y-235675D01*
X-79240Y-235624D01*
X-80803Y-234992D01*
X-81048Y-234833D01*
X-81220Y-234583D01*
X-81280Y-234285D01*
X-81280Y-203418D01*
X-197068Y-87630D01*
X-232259Y-87630D01*
X-232533Y-87579D01*
X-232789Y-87416D01*
X-232960Y-87166D01*
X-233024Y-87017D01*
X-234253Y-86520D01*
X-234377Y-86543D01*
X-234672Y-86471D01*
X-234915Y-86290D01*
X-235069Y-86028D01*
X-235108Y-85728D01*
X-235027Y-85435D01*
X-234838Y-85198D01*
X-234715Y-85094D01*
X-234594Y-84974D01*
X-234484Y-84844D01*
X-234386Y-84705D01*
X-234300Y-84558D01*
X-234226Y-84405D01*
X-234166Y-84245D01*
X-234119Y-84081D01*
X-234087Y-83914D01*
X-234069Y-83745D01*
X-234065Y-83575D01*
X-234076Y-83405D01*
X-234101Y-83236D01*
X-234139Y-83078D01*
X-234233Y-82813D01*
X-234722Y-81660D01*
X-249549Y-87954D01*
X-249057Y-89114D01*
X-248977Y-89282D01*
X-248891Y-89429D01*
X-248793Y-89568D01*
X-248683Y-89698D01*
X-248563Y-89819D01*
X-248433Y-89929D01*
X-248294Y-90027D01*
X-248147Y-90113D01*
X-247993Y-90187D01*
X-247834Y-90247D01*
X-247670Y-90294D01*
X-247503Y-90326D01*
X-247334Y-90344D01*
X-247164Y-90348D01*
X-246993Y-90337D01*
X-246955Y-90331D01*
X-246591Y-90365D01*
X-246330Y-90520D01*
X-246151Y-90765D01*
X-246081Y-91060D01*
X-246131Y-91359D01*
X-246294Y-91615D01*
X-246382Y-91674D01*
X-246875Y-92896D01*
X-244624Y-98201D01*
X-243208Y-98773D01*
X-242972Y-98923D01*
X-242797Y-99171D01*
X-242731Y-99467D01*
X-242787Y-99765D01*
X-243359Y-101181D01*
X-240130Y-108787D01*
X-238960Y-109260D01*
X-226752Y-104078D01*
X-226279Y-102907D01*
X-227114Y-100939D01*
X-227174Y-100666D01*
X-227123Y-100367D01*
X-226960Y-100111D01*
X-226710Y-99940D01*
X-226412Y-99880D01*
X-221302Y-99880D01*
X-221016Y-99935D01*
X-220783Y-100090D01*
X-217235Y-100090D01*
X-214732Y-97586D01*
X-214732Y-94045D01*
X-214766Y-94011D01*
X-214919Y-93791D01*
X-214989Y-93496D01*
X-214938Y-93197D01*
X-214775Y-92942D01*
X-214525Y-92770D01*
X-214227Y-92710D01*
X-199488Y-92710D01*
X-199202Y-92766D01*
X-198949Y-92933D01*
X-86583Y-205299D01*
X-86420Y-205541D01*
X-86360Y-205838D01*
X-86360Y-234110D01*
X-86416Y-234396D01*
X-90933Y-245577D01*
X-90986Y-245730D01*
X-91021Y-245868D01*
X-91042Y-246009D01*
X-91050Y-246151D01*
X-91045Y-246294D01*
X-91027Y-246435D01*
X-90995Y-246575D01*
X-90950Y-246710D01*
X-90894Y-246841D01*
X-90825Y-246966D01*
X-90744Y-247084D01*
X-90653Y-247194D01*
X-90553Y-247295D01*
X-90443Y-247386D01*
X-90325Y-247466D01*
X-90197Y-247537D01*
X-90082Y-247589D01*
X-84921Y-249674D01*
X-84768Y-249728D01*
X-84630Y-249762D01*
X-84489Y-249783D01*
G37*
G36*
X-230911Y-122032D02*
X-230769Y-122032D01*
X-230627Y-122019D01*
X-230486Y-121992D01*
X-230346Y-121952D01*
X-230228Y-121907D01*
X-225103Y-119732D01*
X-224959Y-119662D01*
X-224836Y-119588D01*
X-224721Y-119504D01*
X-224615Y-119409D01*
X-224518Y-119304D01*
X-224431Y-119191D01*
X-224355Y-119071D01*
X-224290Y-118943D01*
X-224238Y-118811D01*
X-224199Y-118673D01*
X-224172Y-118534D01*
X-224158Y-118391D01*
X-224158Y-118249D01*
X-224171Y-118106D01*
X-224198Y-117966D01*
X-224238Y-117826D01*
X-224283Y-117709D01*
X-225141Y-115687D01*
X-225201Y-115414D01*
X-225151Y-115115D01*
X-224987Y-114859D01*
X-224737Y-114688D01*
X-223967Y-114361D01*
X-223669Y-114300D01*
X-204480Y-114300D01*
X-204194Y-114356D01*
X-203941Y-114523D01*
X-202430Y-116034D01*
X-198890Y-116034D01*
X-196386Y-113530D01*
X-196386Y-109990D01*
X-198890Y-107486D01*
X-202430Y-107486D01*
X-203941Y-108997D01*
X-204183Y-109160D01*
X-204480Y-109220D01*
X-223036Y-109220D01*
X-223310Y-109169D01*
X-223566Y-109006D01*
X-223738Y-108756D01*
X-224535Y-106878D01*
X-224604Y-106733D01*
X-224678Y-106611D01*
X-224762Y-106496D01*
X-224858Y-106390D01*
X-224962Y-106293D01*
X-225075Y-106206D01*
X-225196Y-106130D01*
X-225323Y-106065D01*
X-225456Y-106013D01*
X-225593Y-105973D01*
X-225733Y-105947D01*
X-225875Y-105933D01*
X-226018Y-105933D01*
X-226160Y-105946D01*
X-226300Y-105973D01*
X-226440Y-106013D01*
X-226558Y-106058D01*
X-237667Y-110773D01*
X-237811Y-110842D01*
X-237934Y-110916D01*
X-238048Y-111001D01*
X-238155Y-111096D01*
X-238252Y-111200D01*
X-238339Y-111313D01*
X-238415Y-111434D01*
X-238479Y-111561D01*
X-238532Y-111694D01*
X-238571Y-111831D01*
X-238598Y-111971D01*
X-238611Y-112113D01*
X-238611Y-112256D01*
X-238598Y-112398D01*
X-238572Y-112538D01*
X-238532Y-112679D01*
X-238487Y-112796D01*
X-236311Y-117922D01*
X-236242Y-118066D01*
X-236168Y-118189D01*
X-236084Y-118303D01*
X-235988Y-118410D01*
X-235884Y-118507D01*
X-235771Y-118594D01*
X-235650Y-118670D01*
X-235523Y-118734D01*
X-235390Y-118786D01*
X-235253Y-118826D01*
X-235113Y-118853D01*
X-234971Y-118866D01*
X-234828Y-118866D01*
X-234686Y-118853D01*
X-234546Y-118827D01*
X-234406Y-118787D01*
X-234288Y-118742D01*
X-234108Y-118665D01*
X-233835Y-118605D01*
X-233536Y-118656D01*
X-233280Y-118819D01*
X-233108Y-119069D01*
X-232252Y-121087D01*
X-232182Y-121232D01*
X-232109Y-121354D01*
X-232024Y-121469D01*
X-231929Y-121575D01*
X-231825Y-121672D01*
X-231711Y-121759D01*
X-231591Y-121835D01*
X-231463Y-121900D01*
X-231331Y-121952D01*
X-231194Y-121992D01*
X-231053Y-122018D01*
X-230911Y-122032D01*
G37*
G36*
X221378Y-121093D02*
X221841Y-121289D01*
X224880Y-114128D01*
X218870Y-111576D01*
X218377Y-112736D01*
X218312Y-112911D01*
X218266Y-113075D01*
X218234Y-113242D01*
X218216Y-113411D01*
X218213Y-113582D01*
X218224Y-113751D01*
X218250Y-113920D01*
X218290Y-114085D01*
X218344Y-114247D01*
X218411Y-114403D01*
X218492Y-114553D01*
X218584Y-114696D01*
X218689Y-114830D01*
X218805Y-114955D01*
X218931Y-115070D01*
X219066Y-115174D01*
X219203Y-115261D01*
X219455Y-115387D01*
X220569Y-115860D01*
X220802Y-116015D01*
X220973Y-116265D01*
X221033Y-116562D01*
X220973Y-116860D01*
X220301Y-118442D01*
X220236Y-118616D01*
X220190Y-118780D01*
X220158Y-118947D01*
X220140Y-119116D01*
X220137Y-119287D01*
X220148Y-119457D01*
X220174Y-119625D01*
X220214Y-119790D01*
X220268Y-119952D01*
X220335Y-120108D01*
X220415Y-120259D01*
X220508Y-120401D01*
X220613Y-120536D01*
X220728Y-120661D01*
X220854Y-120775D01*
X220990Y-120879D01*
X221126Y-120967D01*
X221378Y-121093D01*
G37*
G36*
X227172Y-123426D02*
X227342Y-123430D01*
X227511Y-123418D01*
X227680Y-123392D01*
X227846Y-123353D01*
X228007Y-123299D01*
X228164Y-123232D01*
X228314Y-123151D01*
X228457Y-123058D01*
X228591Y-122954D01*
X228716Y-122838D01*
X228831Y-122712D01*
X228934Y-122577D01*
X229022Y-122440D01*
X229148Y-122188D01*
X229822Y-120601D01*
X229913Y-120442D01*
X230140Y-120240D01*
X230427Y-120143D01*
X230729Y-120165D01*
X230894Y-120211D01*
X231062Y-120243D01*
X231231Y-120261D01*
X231402Y-120264D01*
X231571Y-120253D01*
X231740Y-120227D01*
X231905Y-120187D01*
X232067Y-120133D01*
X232223Y-120066D01*
X232373Y-119986D01*
X232516Y-119893D01*
X232651Y-119788D01*
X232775Y-119673D01*
X232890Y-119547D01*
X232994Y-119411D01*
X233081Y-119275D01*
X233207Y-119023D01*
X233697Y-117870D01*
X227686Y-115319D01*
X224646Y-122480D01*
X226497Y-123265D01*
X226671Y-123331D01*
X226835Y-123377D01*
X227002Y-123409D01*
X227172Y-123426D01*
G37*
G36*
X200795Y-150959D02*
X204335Y-150959D01*
X206839Y-148455D01*
X206839Y-144803D01*
X206955Y-144399D01*
X207164Y-144179D01*
X207443Y-144058D01*
X207615Y-144021D01*
X216283Y-130674D01*
X216021Y-129439D01*
X205195Y-122408D01*
X203960Y-122671D01*
X195292Y-136018D01*
X195554Y-137253D01*
X198154Y-138942D01*
X198441Y-139284D01*
X198501Y-139581D01*
X198501Y-144389D01*
X198445Y-144675D01*
X198291Y-144908D01*
X198291Y-148455D01*
X200795Y-150959D01*
G37*
G36*
X-204335Y-150959D02*
X-200795Y-150959D01*
X-198291Y-148455D01*
X-198291Y-144908D01*
X-198441Y-144686D01*
X-198501Y-144389D01*
X-198501Y-139875D01*
X-198370Y-139448D01*
X-198154Y-139236D01*
X-195447Y-137478D01*
X-195185Y-136243D01*
X-203853Y-122895D01*
X-205088Y-122633D01*
X-215914Y-129663D01*
X-216176Y-130898D01*
X-207508Y-144246D01*
X-207443Y-144260D01*
X-207071Y-144458D01*
X-206899Y-144708D01*
X-206839Y-145005D01*
X-206839Y-148455D01*
X-204335Y-150959D01*
G37*
G36*
X214740Y-137343D02*
X220023Y-140773D01*
X224272Y-134230D01*
X219972Y-131437D01*
X218352Y-131782D01*
X214740Y-137343D01*
G37*
G36*
X-224165Y-134454D02*
X-219916Y-140998D01*
X-214633Y-137567D01*
X-218245Y-132006D01*
X-219865Y-131662D01*
X-224165Y-134454D01*
G37*
G36*
X209813Y-147081D02*
X214113Y-149873D01*
X218363Y-143330D01*
X213080Y-139899D01*
X209469Y-145460D01*
X209813Y-147081D01*
G37*
G36*
X-218256Y-143554D02*
X-214006Y-150098D01*
X-209706Y-147305D01*
X-209362Y-145685D01*
X-212973Y-140124D01*
X-218256Y-143554D01*
G37*
G36*
X-3328Y-157600D02*
X-1524Y-157600D01*
X-1524Y-146100D01*
X-3328Y-146100D01*
X-4548Y-147319D01*
X-4778Y-147477D01*
X-5074Y-147542D01*
X-5373Y-147487D01*
X-5625Y-147319D01*
X-6369Y-146576D01*
X-12631Y-146576D01*
X-13524Y-147469D01*
X-13524Y-148548D01*
X-13575Y-148823D01*
X-13739Y-149078D01*
X-13989Y-149250D01*
X-14286Y-149310D01*
X-15780Y-149310D01*
X-16066Y-149254D01*
X-16319Y-149087D01*
X-17280Y-148126D01*
X-20820Y-148126D01*
X-23324Y-150630D01*
X-23324Y-154170D01*
X-20820Y-156674D01*
X-17280Y-156674D01*
X-15219Y-154613D01*
X-14977Y-154450D01*
X-14680Y-154390D01*
X-14286Y-154390D01*
X-14011Y-154441D01*
X-13756Y-154605D01*
X-13584Y-154855D01*
X-13524Y-155152D01*
X-13524Y-156231D01*
X-12631Y-157124D01*
X-6369Y-157124D01*
X-5625Y-156381D01*
X-5395Y-156223D01*
X-5099Y-156158D01*
X-4801Y-156213D01*
X-4548Y-156381D01*
X-3328Y-157600D01*
G37*
G36*
X11024Y-176826D02*
X14000Y-176826D01*
X14000Y-173772D01*
X12828Y-172600D01*
X11024Y-172600D01*
X11024Y-176826D01*
G37*
G36*
X1524Y-184100D02*
X3328Y-184100D01*
X4211Y-183217D01*
X4442Y-183059D01*
X4738Y-182994D01*
X5036Y-183050D01*
X5289Y-183217D01*
X6172Y-184100D01*
X7976Y-184100D01*
X7976Y-172600D01*
X6172Y-172600D01*
X5289Y-173483D01*
X5058Y-173641D01*
X4762Y-173706D01*
X4464Y-173650D01*
X4211Y-173483D01*
X3328Y-172600D01*
X1524Y-172600D01*
X1524Y-184100D01*
G37*
G36*
X23595Y-181677D02*
X30226Y-181677D01*
X30226Y-175378D01*
X22424Y-175378D01*
X22424Y-180505D01*
X23595Y-181677D01*
G37*
G36*
X33274Y-181677D02*
X39905Y-181677D01*
X41077Y-180505D01*
X41077Y-175378D01*
X33274Y-175378D01*
X33274Y-181677D01*
G37*
G36*
X195771Y-221262D02*
X204229Y-221262D01*
X212044Y-218025D01*
X218025Y-212044D01*
X221262Y-204229D01*
X221262Y-195771D01*
X218025Y-187956D01*
X212044Y-181975D01*
X204229Y-178738D01*
X195771Y-178738D01*
X187956Y-181975D01*
X181975Y-187956D01*
X178738Y-195771D01*
X178738Y-204229D01*
X181975Y-212044D01*
X187956Y-218025D01*
X195771Y-221262D01*
G37*
G36*
X-204229Y-221262D02*
X-195771Y-221262D01*
X-187956Y-218025D01*
X-181975Y-212044D01*
X-178738Y-204229D01*
X-178738Y-195771D01*
X-181975Y-187956D01*
X-187956Y-181975D01*
X-195771Y-178738D01*
X-204229Y-178738D01*
X-212044Y-181975D01*
X-218025Y-187956D01*
X-221262Y-195771D01*
X-221262Y-204229D01*
X-218025Y-212044D01*
X-212044Y-218025D01*
X-204229Y-221262D01*
G37*
G36*
X11024Y-184100D02*
X12828Y-184100D01*
X14000Y-182928D01*
X14000Y-179874D01*
X11024Y-179874D01*
X11024Y-184100D01*
G37*
G36*
X-144139Y-207284D02*
X-130791Y-215952D01*
X-129556Y-215689D01*
X-125775Y-209867D01*
X-125433Y-209580D01*
X-125136Y-209520D01*
X-114043Y-209520D01*
X-113757Y-209576D01*
X-113504Y-209743D01*
X-112447Y-210800D01*
X-112284Y-211042D01*
X-112229Y-211316D01*
X-109720Y-213824D01*
X-106180Y-213824D01*
X-103676Y-211320D01*
X-103676Y-207780D01*
X-106184Y-205272D01*
X-106447Y-205220D01*
X-106700Y-205053D01*
X-110361Y-201392D01*
X-126006Y-201392D01*
X-126421Y-201269D01*
X-136136Y-194960D01*
X-137371Y-195223D01*
X-144401Y-206049D01*
X-144139Y-207284D01*
G37*
G36*
X129663Y-215914D02*
X130898Y-216176D01*
X144109Y-207597D01*
X144524Y-207474D01*
X147820Y-207474D01*
X150324Y-204970D01*
X150324Y-201430D01*
X147820Y-198926D01*
X144273Y-198926D01*
X144051Y-199076D01*
X143754Y-199136D01*
X140287Y-199136D01*
X139861Y-199005D01*
X139648Y-198789D01*
X137478Y-195447D01*
X136243Y-195185D01*
X122895Y-203853D01*
X122633Y-205088D01*
X129663Y-215914D01*
G37*
G36*
X-149991Y-213782D02*
X-143447Y-218031D01*
X-140017Y-212749D01*
X-145578Y-209137D01*
X-147198Y-209482D01*
X-149991Y-213782D01*
G37*
G36*
X140124Y-212973D02*
X143554Y-218256D01*
X150098Y-214006D01*
X147305Y-209706D01*
X145685Y-209362D01*
X140124Y-212973D01*
G37*
G36*
X-140891Y-219691D02*
X-134347Y-223941D01*
X-131555Y-219641D01*
X-131899Y-218020D01*
X-137460Y-214409D01*
X-140891Y-219691D01*
G37*
G36*
X131662Y-219865D02*
X134454Y-224165D01*
X140998Y-219916D01*
X137567Y-214633D01*
X132006Y-218245D01*
X131662Y-219865D01*
G37*
G36*
X-121923Y-224908D02*
X-114709Y-227822D01*
X-112263Y-221768D01*
X-113431Y-221296D01*
X-113607Y-221234D01*
X-113772Y-221190D01*
X-113940Y-221161D01*
X-114109Y-221147D01*
X-114280Y-221146D01*
X-114449Y-221161D01*
X-114617Y-221189D01*
X-114782Y-221232D01*
X-114943Y-221289D01*
X-115098Y-221359D01*
X-115247Y-221442D01*
X-115388Y-221537D01*
X-115520Y-221644D01*
X-115643Y-221762D01*
X-115756Y-221890D01*
X-115857Y-222027D01*
X-115942Y-222165D01*
X-116064Y-222419D01*
X-116517Y-223541D01*
X-116668Y-223777D01*
X-116915Y-223953D01*
X-117211Y-224018D01*
X-117509Y-223963D01*
X-119102Y-223319D01*
X-119278Y-223257D01*
X-119443Y-223213D01*
X-119611Y-223184D01*
X-119780Y-223170D01*
X-119951Y-223169D01*
X-120120Y-223184D01*
X-120288Y-223212D01*
X-120453Y-223255D01*
X-120614Y-223312D01*
X-120768Y-223382D01*
X-120917Y-223465D01*
X-121059Y-223560D01*
X-121191Y-223667D01*
X-121314Y-223785D01*
X-121426Y-223913D01*
X-121528Y-224049D01*
X-121613Y-224188D01*
X-121735Y-224443D01*
X-121923Y-224908D01*
G37*
G36*
X-119458Y-236234D02*
X-118297Y-236703D01*
X-115851Y-230648D01*
X-123065Y-227734D01*
X-123817Y-229597D01*
X-123880Y-229773D01*
X-123923Y-229938D01*
X-123952Y-230106D01*
X-123967Y-230275D01*
X-123967Y-230446D01*
X-123953Y-230615D01*
X-123924Y-230783D01*
X-123881Y-230948D01*
X-123825Y-231109D01*
X-123755Y-231264D01*
X-123672Y-231413D01*
X-123576Y-231554D01*
X-123469Y-231686D01*
X-123352Y-231809D01*
X-123224Y-231922D01*
X-123087Y-232023D01*
X-122948Y-232108D01*
X-122694Y-232230D01*
X-121095Y-232876D01*
X-120935Y-232964D01*
X-120729Y-233187D01*
X-120627Y-233473D01*
X-120644Y-233775D01*
X-120687Y-233942D01*
X-120716Y-234109D01*
X-120731Y-234279D01*
X-120731Y-234449D01*
X-120717Y-234619D01*
X-120688Y-234787D01*
X-120646Y-234952D01*
X-120589Y-235112D01*
X-120519Y-235267D01*
X-120436Y-235416D01*
X-120340Y-235557D01*
X-120234Y-235690D01*
X-120116Y-235813D01*
X-119988Y-235925D01*
X-119851Y-236027D01*
X-119713Y-236112D01*
X-119458Y-236234D01*
G37*
G36*
X71418Y-243978D02*
X71614Y-244440D01*
X78775Y-241400D01*
X76224Y-235390D01*
X75064Y-235882D01*
X74896Y-235962D01*
X74749Y-236048D01*
X74610Y-236146D01*
X74479Y-236256D01*
X74359Y-236376D01*
X74249Y-236506D01*
X74150Y-236645D01*
X74064Y-236792D01*
X73990Y-236946D01*
X73930Y-237105D01*
X73884Y-237269D01*
X73851Y-237436D01*
X73833Y-237605D01*
X73830Y-237775D01*
X73840Y-237946D01*
X73866Y-238114D01*
X73903Y-238272D01*
X73997Y-238537D01*
X74470Y-239652D01*
X74530Y-239925D01*
X74480Y-240224D01*
X74316Y-240479D01*
X74066Y-240651D01*
X72485Y-241322D01*
X72316Y-241402D01*
X72169Y-241488D01*
X72030Y-241586D01*
X71900Y-241696D01*
X71779Y-241816D01*
X71669Y-241947D01*
X71571Y-242085D01*
X71485Y-242232D01*
X71411Y-242386D01*
X71351Y-242545D01*
X71304Y-242709D01*
X71272Y-242876D01*
X71254Y-243046D01*
X71250Y-243215D01*
X71261Y-243386D01*
X71286Y-243554D01*
X71324Y-243712D01*
X71418Y-243978D01*
G37*
G36*
X8300Y-264601D02*
X21208Y-264601D01*
X22101Y-263708D01*
X22101Y-244292D01*
X21208Y-243400D01*
X8282Y-243400D01*
X8095Y-243526D01*
X7798Y-243586D01*
X6231Y-243586D01*
X5945Y-243530D01*
X5692Y-243363D01*
X4497Y-242168D01*
X4334Y-241927D01*
X4279Y-241653D01*
X1770Y-239144D01*
X-1770Y-239144D01*
X-4274Y-241648D01*
X-4274Y-245189D01*
X-1766Y-247697D01*
X-1503Y-247748D01*
X-1250Y-247916D01*
X2548Y-251714D01*
X6405Y-251714D01*
X6691Y-251770D01*
X6944Y-251937D01*
X7184Y-252177D01*
X7347Y-252419D01*
X7407Y-252716D01*
X7407Y-263708D01*
X8300Y-264601D01*
G37*
G36*
X-22577Y-252476D02*
X-16278Y-252476D01*
X-16278Y-242924D01*
X-21405Y-242924D01*
X-22577Y-244095D01*
X-22577Y-252476D01*
G37*
G36*
X-13230Y-252476D02*
X-6931Y-252476D01*
X-6931Y-244095D01*
X-8103Y-242924D01*
X-13230Y-242924D01*
X-13230Y-252476D01*
G37*
G36*
X80432Y-250870D02*
X80602Y-250874D01*
X80773Y-250863D01*
X80941Y-250837D01*
X81099Y-250800D01*
X81365Y-250706D01*
X82518Y-250217D01*
X79966Y-244206D01*
X72805Y-247246D01*
X73590Y-249097D01*
X73670Y-249264D01*
X73756Y-249411D01*
X73854Y-249551D01*
X73964Y-249681D01*
X74084Y-249801D01*
X74214Y-249912D01*
X74353Y-250010D01*
X74500Y-250096D01*
X74654Y-250170D01*
X74813Y-250230D01*
X74977Y-250276D01*
X75144Y-250309D01*
X75313Y-250327D01*
X75483Y-250331D01*
X75654Y-250320D01*
X75822Y-250295D01*
X75980Y-250257D01*
X76246Y-250163D01*
X77833Y-249489D01*
X78009Y-249439D01*
X78312Y-249451D01*
X78587Y-249580D01*
X78789Y-249806D01*
X78875Y-249954D01*
X78973Y-250094D01*
X79083Y-250224D01*
X79203Y-250345D01*
X79333Y-250454D01*
X79472Y-250553D01*
X79619Y-250639D01*
X79773Y-250713D01*
X79932Y-250773D01*
X80096Y-250819D01*
X80263Y-250852D01*
X80432Y-250870D01*
G37*
G36*
X-13230Y-265077D02*
X-8103Y-265077D01*
X-6931Y-263905D01*
X-6931Y-255524D01*
X-13230Y-255524D01*
X-13230Y-265077D01*
G37*
G36*
X-21405Y-265077D02*
X-16278Y-265077D01*
X-16278Y-255524D01*
X-22577Y-255524D01*
X-22577Y-263905D01*
X-21405Y-265077D01*
G37*
%LPD*%
G36*
X81480Y-162500D02*
X81182Y-162560D01*
X41363Y-162560D01*
X41088Y-162509D01*
X40832Y-162345D01*
X40661Y-162095D01*
X40601Y-161798D01*
X40601Y-149892D01*
X39708Y-148999D01*
X23792Y-148999D01*
X23704Y-149087D01*
X23463Y-149250D01*
X23166Y-149310D01*
X14286Y-149310D01*
X14011Y-149259D01*
X13756Y-149095D01*
X13584Y-148845D01*
X13524Y-148548D01*
X13524Y-147469D01*
X12592Y-146537D01*
X12527Y-146525D01*
X12272Y-146361D01*
X12100Y-146111D01*
X12040Y-145814D01*
X12040Y-144106D01*
X5094Y-137160D01*
X-100232Y-137160D01*
X-100518Y-137104D01*
X-100771Y-136937D01*
X-155987Y-81721D01*
X-156150Y-81480D01*
X-156210Y-81182D01*
X-156210Y-37048D01*
X-183518Y-9740D01*
X-239464Y-9740D01*
X-239739Y-9689D01*
X-239994Y-9525D01*
X-240166Y-9275D01*
X-240226Y-8978D01*
X-240226Y-6742D01*
X-240175Y-6467D01*
X-240011Y-6212D01*
X-239761Y-6040D01*
X-239464Y-5980D01*
X-166173Y-5980D01*
X-96068Y64125D01*
X-95770Y64307D01*
X-95798Y64442D01*
X-95798Y111115D01*
X-95742Y111401D01*
X-95574Y111654D01*
X-66481Y140747D01*
X-66240Y140910D01*
X-65942Y140970D01*
X-27660Y140970D01*
X-27421Y140932D01*
X-27158Y140781D01*
X-26974Y140540D01*
X-26899Y140246D01*
X-26944Y139946D01*
X-27103Y139688D01*
X-27350Y139512D01*
X-42112Y132940D01*
X-56356Y122590D01*
X-68138Y109505D01*
X-72540Y101881D01*
X-73477Y100258D01*
X-94376Y64061D01*
X-94472Y63929D01*
X-94716Y63750D01*
X-94792Y63732D01*
X-94773Y63493D01*
X-94869Y63205D01*
X-125403Y10320D01*
X-128903Y4257D01*
X-134344Y-12489D01*
X-136185Y-30000D01*
X-134344Y-47511D01*
X-128903Y-64257D01*
X-120100Y-79505D01*
X-108318Y-92590D01*
X-94073Y-102940D01*
X-77988Y-110101D01*
X-60765Y-113762D01*
X60765Y-113762D01*
X77988Y-110101D01*
X94073Y-102940D01*
X108318Y-92590D01*
X120100Y-79505D01*
X128903Y-64257D01*
X134344Y-47511D01*
X136185Y-30000D01*
X134344Y-12489D01*
X128903Y4257D01*
X125403Y10320D01*
X73477Y100258D01*
X72540Y101881D01*
X68138Y109505D01*
X56356Y122590D01*
X42112Y132940D01*
X27043Y139648D01*
X26841Y139781D01*
X26661Y140025D01*
X26592Y140320D01*
X26642Y140619D01*
X26806Y140875D01*
X27056Y141046D01*
X27353Y141107D01*
X57976Y141107D01*
X58262Y141051D01*
X58515Y140883D01*
X65817Y133581D01*
X65980Y133340D01*
X66040Y133042D01*
X66040Y131880D01*
X65984Y131594D01*
X65817Y131341D01*
X64306Y129830D01*
X64306Y126290D01*
X66810Y123786D01*
X70350Y123786D01*
X72854Y126290D01*
X72854Y129830D01*
X71343Y131341D01*
X71180Y131583D01*
X71120Y131880D01*
X71120Y135462D01*
X63103Y143479D01*
X62950Y143699D01*
X62880Y143994D01*
X62931Y144293D01*
X63094Y144548D01*
X63345Y144720D01*
X63642Y144780D01*
X67212Y144780D01*
X67498Y144724D01*
X67751Y144557D01*
X78517Y133791D01*
X78680Y133550D01*
X78740Y133252D01*
X78740Y132090D01*
X78684Y131804D01*
X78517Y131551D01*
X77006Y130040D01*
X77006Y126500D01*
X79510Y123996D01*
X83050Y123996D01*
X85353Y126298D01*
X85572Y126451D01*
X85867Y126521D01*
X86166Y126470D01*
X86422Y126307D01*
X86593Y126057D01*
X86654Y125760D01*
X86654Y96077D01*
X102210Y80520D01*
X102373Y80278D01*
X102434Y79981D01*
X102434Y75320D01*
X121087Y75320D01*
X121087Y76263D01*
X121133Y76526D01*
X121293Y76784D01*
X121540Y76960D01*
X121836Y77025D01*
X122134Y76969D01*
X122387Y76802D01*
X129234Y69955D01*
X129397Y69714D01*
X129457Y69416D01*
X129457Y64919D01*
X130389Y63987D01*
X130454Y63975D01*
X130709Y63811D01*
X130881Y63561D01*
X130941Y63264D01*
X130941Y46863D01*
X167203Y10601D01*
X167366Y10359D01*
X167426Y10062D01*
X167426Y-76316D01*
X167371Y-76602D01*
X167203Y-76855D01*
X81721Y-162337D01*
X81480Y-162500D01*
G37*
%LPC*%
G36*
X103605Y65973D02*
X110236Y65973D01*
X110236Y72272D01*
X102434Y72272D01*
X102434Y67145D01*
X103605Y65973D01*
G37*
G36*
X113284Y65973D02*
X119915Y65973D01*
X121087Y67145D01*
X121087Y72272D01*
X113284Y72272D01*
X113284Y65973D01*
G37*
%LPD*%
G36*
X-166445Y6040D02*
X-166742Y5980D01*
X-239464Y5980D01*
X-239739Y6031D01*
X-239994Y6195D01*
X-240166Y6445D01*
X-240226Y6742D01*
X-240226Y18809D01*
X-241521Y20104D01*
X-247479Y20104D01*
X-248375Y19208D01*
X-248605Y19050D01*
X-248901Y18985D01*
X-249199Y19040D01*
X-249452Y19208D01*
X-250824Y20580D01*
X-252476Y20580D01*
X-252476Y10756D01*
X-255524Y10756D01*
X-255524Y20580D01*
X-256200Y20580D01*
X-256463Y20627D01*
X-256721Y20786D01*
X-256897Y21034D01*
X-256962Y21330D01*
X-256906Y21628D01*
X-256739Y21881D01*
X-255983Y22637D01*
X-255741Y22800D01*
X-255444Y22860D01*
X-164048Y22860D01*
X-123190Y63718D01*
X-123190Y79912D01*
X-123134Y80198D01*
X-122967Y80451D01*
X-122387Y81031D01*
X-122168Y81184D01*
X-121873Y81253D01*
X-121574Y81203D01*
X-121318Y81039D01*
X-121147Y80789D01*
X-121087Y80492D01*
X-121087Y75320D01*
X-113284Y75320D01*
X-113284Y81619D01*
X-119959Y81619D01*
X-120223Y81666D01*
X-120481Y81825D01*
X-120656Y82073D01*
X-120721Y82369D01*
X-120666Y82667D01*
X-120498Y82920D01*
X-119684Y83734D01*
X-119443Y83897D01*
X-119145Y83957D01*
X-105196Y83957D01*
X-104921Y83906D01*
X-104665Y83742D01*
X-104494Y83492D01*
X-104434Y83195D01*
X-104434Y82381D01*
X-104485Y82106D01*
X-104648Y81851D01*
X-104898Y81679D01*
X-105196Y81619D01*
X-110236Y81619D01*
X-110236Y65973D01*
X-108273Y65973D01*
X-108010Y65926D01*
X-107752Y65767D01*
X-107576Y65519D01*
X-107511Y65223D01*
X-107567Y64925D01*
X-107734Y64672D01*
X-166203Y6203D01*
X-166445Y6040D01*
G37*
%LPC*%
G36*
X-119915Y65973D02*
X-113284Y65973D01*
X-113284Y72272D01*
X-121087Y72272D01*
X-121087Y67145D01*
X-119915Y65973D01*
G37*
%LPD*%
G36*
X239761Y29270D02*
X239464Y29210D01*
X207020Y29210D01*
X206734Y29266D01*
X206481Y29433D01*
X204970Y30944D01*
X201430Y30944D01*
X200481Y29995D01*
X200261Y29842D01*
X199966Y29772D01*
X199667Y29823D01*
X199412Y29987D01*
X199240Y30237D01*
X199180Y30534D01*
X199180Y53286D01*
X199227Y53549D01*
X199386Y53807D01*
X199634Y53983D01*
X199930Y54048D01*
X200228Y53992D01*
X200481Y53825D01*
X201430Y52876D01*
X204977Y52876D01*
X205199Y53026D01*
X205496Y53086D01*
X237137Y53086D01*
X237412Y53035D01*
X237667Y52871D01*
X237839Y52621D01*
X237899Y52324D01*
X237899Y49192D01*
X238792Y48300D01*
X240928Y48300D01*
X241203Y48248D01*
X241458Y48085D01*
X241630Y47835D01*
X241690Y47538D01*
X241690Y44288D01*
X241634Y44002D01*
X241467Y43749D01*
X240226Y42509D01*
X240226Y29972D01*
X240175Y29697D01*
X240011Y29442D01*
X239761Y29270D01*
G37*
G36*
X-296400Y-42050D02*
X-311500Y-42050D01*
X-311500Y-26950D01*
X-305400Y-26950D01*
X-305400Y-33950D01*
X-296400Y-33950D01*
X-296400Y-42050D01*
G37*
G36*
X-296400Y-42050D02*
X-311500Y-42050D01*
X-311500Y-26950D01*
X-305400Y-26950D01*
X-305400Y-33950D01*
X-296400Y-33950D01*
X-296400Y-42050D01*
G37*
G36*
X-305400Y26950D02*
X-311500Y26950D01*
X-311500Y42050D01*
X-296400Y42050D01*
X-296400Y33950D01*
X-305400Y33950D01*
X-305400Y26950D01*
G37*
G36*
X-305400Y26950D02*
X-311500Y26950D01*
X-311500Y42050D01*
X-296400Y42050D01*
X-296400Y33950D01*
X-305400Y33950D01*
X-305400Y26950D01*
G37*
G36*
X305400Y-26950D02*
X311500Y-26950D01*
X311500Y-42050D01*
X296400Y-42050D01*
X296400Y-33950D01*
X305400Y-33950D01*
X305400Y-26950D01*
G37*
G36*
X305400Y-26950D02*
X311500Y-26950D01*
X311500Y-42050D01*
X296400Y-42050D01*
X296400Y-33950D01*
X305400Y-33950D01*
X305400Y-26950D01*
G37*
G36*
X296400Y42050D02*
X311500Y42050D01*
X311500Y26950D01*
X305400Y26950D01*
X305400Y33950D01*
X296400Y33950D01*
X296400Y42050D01*
G37*
G36*
X296400Y42050D02*
X311500Y42050D01*
X311500Y26950D01*
X305400Y26950D01*
X305400Y33950D01*
X296400Y33950D01*
X296400Y42050D01*
G37*
G36*
X-246690Y86893D02*
X-235471Y82360D01*
X-237569Y77168D01*
X-241278Y78667D01*
X-242963Y74494D01*
X-248156Y76592D01*
X-246470Y80764D01*
X-248788Y81701D01*
X-246690Y86893D01*
G37*
G36*
X-246690Y86893D02*
X-235471Y82360D01*
X-237569Y77168D01*
X-241278Y78667D01*
X-242963Y74494D01*
X-248156Y76592D01*
X-246470Y80764D01*
X-248788Y81701D01*
X-246690Y86893D01*
G37*
G36*
X-89523Y-246167D02*
X-84991Y-234948D01*
X-79799Y-237046D01*
X-81297Y-240754D01*
X-77125Y-242440D01*
X-79222Y-247632D01*
X-83395Y-245947D01*
X-84331Y-248265D01*
X-89523Y-246167D01*
G37*
G36*
X-89523Y-246167D02*
X-84991Y-234948D01*
X-79799Y-237046D01*
X-81297Y-240754D01*
X-77125Y-242440D01*
X-79222Y-247632D01*
X-83395Y-245947D01*
X-84331Y-248265D01*
X-89523Y-246167D01*
G37*
G36*
X-80370Y239022D02*
X-78871Y235313D01*
X-84064Y233215D01*
X-88596Y244434D01*
X-83404Y246532D01*
X-82468Y244214D01*
X-78295Y245900D01*
X-76197Y240708D01*
X-80370Y239022D01*
G37*
G36*
X-80370Y239022D02*
X-78871Y235313D01*
X-84064Y233215D01*
X-88596Y244434D01*
X-83404Y246532D01*
X-82468Y244214D01*
X-78295Y245900D01*
X-76197Y240708D01*
X-80370Y239022D01*
G37*
G36*
X86370Y244060D02*
X81837Y232841D01*
X76645Y234939D01*
X78143Y238647D01*
X73971Y240333D01*
X76069Y245525D01*
X80241Y243840D01*
X81178Y246158D01*
X86370Y244060D01*
G37*
G36*
X86370Y244060D02*
X81837Y232841D01*
X76645Y234939D01*
X78143Y238647D01*
X73971Y240333D01*
X76069Y245525D01*
X80241Y243840D01*
X81178Y246158D01*
X86370Y244060D01*
G37*
G36*
X238499Y77739D02*
X234790Y76241D01*
X232692Y81433D01*
X243911Y85966D01*
X246009Y80774D01*
X243691Y79837D01*
X245377Y75665D01*
X240184Y73567D01*
X238499Y77739D01*
G37*
G36*
X238499Y77739D02*
X234790Y76241D01*
X232692Y81433D01*
X243911Y85966D01*
X246009Y80774D01*
X243691Y79837D01*
X245377Y75665D01*
X240184Y73567D01*
X238499Y77739D01*
G37*
G36*
X-241938Y-80025D02*
X-238256Y-78462D01*
X-236068Y-83617D01*
X-247206Y-88345D01*
X-249394Y-83190D01*
X-247093Y-82214D01*
X-248851Y-78071D01*
X-243696Y-75883D01*
X-241938Y-80025D01*
G37*
G36*
X-241938Y-80025D02*
X-238256Y-78462D01*
X-236068Y-83617D01*
X-247206Y-88345D01*
X-249394Y-83190D01*
X-247093Y-82214D01*
X-248851Y-78071D01*
X-243696Y-75883D01*
X-241938Y-80025D01*
G37*
G36*
X77395Y-241415D02*
X75832Y-237733D01*
X80987Y-235545D01*
X85715Y-246683D01*
X80560Y-248871D01*
X79583Y-246570D01*
X75441Y-248328D01*
X73253Y-243173D01*
X77395Y-241415D01*
G37*
G36*
X77395Y-241415D02*
X75832Y-237733D01*
X80987Y-235545D01*
X85715Y-246683D01*
X80560Y-248871D01*
X79583Y-246570D01*
X75441Y-248328D01*
X73253Y-243173D01*
X77395Y-241415D01*
G37*
G36*
X-112610Y234732D02*
X-108078Y223513D01*
X-113270Y221415D01*
X-114768Y225124D01*
X-118941Y223438D01*
X-121038Y228631D01*
X-116866Y230316D01*
X-117803Y232634D01*
X-112610Y234732D01*
G37*
G36*
X-112610Y234732D02*
X-108078Y223513D01*
X-113270Y221415D01*
X-114768Y225124D01*
X-118941Y223438D01*
X-121038Y228631D01*
X-116866Y230316D01*
X-117803Y232634D01*
X-112610Y234732D01*
G37*
G36*
X234209Y109980D02*
X222990Y105447D01*
X220892Y110640D01*
X224601Y112138D01*
X222915Y116310D01*
X228107Y118408D01*
X229793Y114236D01*
X232111Y115172D01*
X234209Y109980D01*
G37*
G36*
X234209Y109980D02*
X222990Y105447D01*
X220892Y110640D01*
X224601Y112138D01*
X222915Y116310D01*
X228107Y118408D01*
X229793Y114236D01*
X232111Y115172D01*
X234209Y109980D01*
G37*
G36*
X243662Y-89266D02*
X232524Y-84538D01*
X234712Y-79383D01*
X238394Y-80946D01*
X240152Y-76804D01*
X245307Y-78992D01*
X243549Y-83134D01*
X245850Y-84111D01*
X243662Y-89266D01*
G37*
G36*
X243662Y-89266D02*
X232524Y-84538D01*
X234712Y-79383D01*
X238394Y-80946D01*
X240152Y-76804D01*
X245307Y-78992D01*
X243549Y-83134D01*
X245850Y-84111D01*
X243662Y-89266D01*
G37*
G36*
X-237086Y-112186D02*
X-225948Y-107458D01*
X-223760Y-112613D01*
X-227442Y-114176D01*
X-225684Y-118318D01*
X-230838Y-120507D01*
X-232597Y-116364D01*
X-234898Y-117341D01*
X-237086Y-112186D01*
G37*
G36*
X-237086Y-112186D02*
X-225948Y-107458D01*
X-223760Y-112613D01*
X-227442Y-114176D01*
X-225684Y-118318D01*
X-230838Y-120507D01*
X-232597Y-116364D01*
X-234898Y-117341D01*
X-237086Y-112186D01*
G37*
G36*
X109556Y-236563D02*
X104828Y-225425D01*
X109983Y-223237D01*
X111546Y-226919D01*
X115688Y-225160D01*
X117876Y-230315D01*
X113734Y-232074D01*
X114711Y-234375D01*
X109556Y-236563D01*
G37*
G36*
X109556Y-236563D02*
X104828Y-225425D01*
X109983Y-223237D01*
X111546Y-226919D01*
X115688Y-225160D01*
X117876Y-230315D01*
X113734Y-232074D01*
X114711Y-234375D01*
X109556Y-236563D01*
G37*
G36*
X223898Y-115097D02*
X220216Y-113534D01*
X222404Y-108379D01*
X233542Y-113107D01*
X231354Y-118262D01*
X229053Y-117285D01*
X227294Y-121427D01*
X222139Y-119239D01*
X223898Y-115097D01*
G37*
G36*
X223898Y-115097D02*
X220216Y-113534D01*
X222404Y-108379D01*
X233542Y-113107D01*
X231354Y-118262D01*
X229053Y-117285D01*
X227294Y-121427D01*
X222139Y-119239D01*
X223898Y-115097D01*
G37*
G36*
X-227380Y113065D02*
X-223671Y111567D01*
X-225769Y106375D01*
X-236988Y110907D01*
X-234890Y116100D01*
X-232572Y115163D01*
X-230886Y119335D01*
X-225694Y117238D01*
X-227380Y113065D01*
G37*
G36*
X-227380Y113065D02*
X-223671Y111567D01*
X-225769Y106375D01*
X-236988Y110907D01*
X-234890Y116100D01*
X-232572Y115163D01*
X-230886Y119335D01*
X-225694Y117238D01*
X-227380Y113065D01*
G37*
G36*
X-115695Y-226856D02*
X-114197Y-223148D01*
X-109005Y-225246D01*
X-113538Y-236464D01*
X-118730Y-234367D01*
X-117793Y-232049D01*
X-121966Y-230363D01*
X-119868Y-225171D01*
X-115695Y-226856D01*
G37*
G36*
X-115695Y-226856D02*
X-114197Y-223148D01*
X-109005Y-225246D01*
X-113538Y-236464D01*
X-118730Y-234367D01*
X-117793Y-232049D01*
X-121966Y-230363D01*
X-119868Y-225171D01*
X-115695Y-226856D01*
G37*
G36*
X112542Y224749D02*
X111044Y221041D01*
X105851Y223138D01*
X110384Y234357D01*
X115576Y232260D01*
X114640Y229942D01*
X118812Y228256D01*
X116714Y223064D01*
X112542Y224749D01*
G37*
G36*
X112542Y224749D02*
X111044Y221041D01*
X105851Y223138D01*
X110384Y234357D01*
X115576Y232260D01*
X114640Y229942D01*
X118812Y228256D01*
X116714Y223064D01*
X112542Y224749D01*
G37*
D10*
X-9500Y-178350D03*
X0Y-178350D03*
X9500Y-178350D03*
X9500Y-151850D03*
X0Y-151850D03*
X-9500Y-151850D03*
X-152481Y69300D03*
X-142981Y69300D03*
X-133481Y69300D03*
X-133481Y95800D03*
X-142981Y95800D03*
X-152481Y95800D03*
X133481Y69300D03*
X142981Y69300D03*
X152481Y69300D03*
X152481Y95800D03*
X142981Y95800D03*
X133481Y95800D03*
D11*
G36*
X-108750Y224375D02*
X-113384Y222502D01*
X-117130Y231773D01*
X-112496Y233646D01*
X-108750Y224375D01*
G37*
D12*
G36*
X-97017Y228037D02*
X-103506Y225414D01*
X-108001Y236539D01*
X-101512Y239162D01*
X-97017Y228037D01*
G37*
D13*
G36*
X-88673Y231408D02*
X-92845Y229723D01*
X-97339Y240848D01*
X-93167Y242533D01*
X-88673Y231408D01*
G37*
D11*
G36*
X-79544Y236175D02*
X-84178Y234302D01*
X-87924Y243573D01*
X-83290Y245446D01*
X-79544Y236175D01*
G37*
G36*
X-236557Y82475D02*
X-238430Y77841D01*
X-247701Y81587D01*
X-245828Y86221D01*
X-236557Y82475D01*
G37*
D12*
G36*
X-231041Y93459D02*
X-233664Y86970D01*
X-244789Y91465D01*
X-242166Y97954D01*
X-231041Y93459D01*
G37*
D13*
G36*
X-227670Y101804D02*
X-229355Y97632D01*
X-240480Y102126D01*
X-238795Y106298D01*
X-227670Y101804D01*
G37*
D11*
G36*
X-224757Y111681D02*
X-226630Y107047D01*
X-235901Y110793D01*
X-234028Y115427D01*
X-224757Y111681D01*
G37*
G36*
X-226798Y-108146D02*
X-224844Y-112747D01*
X-234048Y-116654D01*
X-236002Y-112053D01*
X-226798Y-108146D01*
G37*
D12*
G36*
X-230664Y-96478D02*
X-227929Y-102921D01*
X-238974Y-107610D01*
X-241709Y-101167D01*
X-230664Y-96478D01*
G37*
D13*
G36*
X-234181Y-88194D02*
X-232422Y-92336D01*
X-243467Y-97024D01*
X-245226Y-92882D01*
X-234181Y-88194D01*
G37*
D11*
G36*
X-239106Y-79150D02*
X-237152Y-83751D01*
X-246356Y-87658D01*
X-248310Y-83057D01*
X-239106Y-79150D01*
G37*
G36*
X-85105Y-236034D02*
X-80471Y-237907D01*
X-84217Y-247178D01*
X-88851Y-245305D01*
X-85105Y-236034D01*
G37*
D12*
G36*
X-96089Y-230518D02*
X-89600Y-233141D01*
X-94095Y-244266D01*
X-100584Y-241643D01*
X-96089Y-230518D01*
G37*
D13*
G36*
X-104434Y-227147D02*
X-100262Y-228832D01*
X-104756Y-239957D01*
X-108928Y-238272D01*
X-104434Y-227147D01*
G37*
D11*
G36*
X-114311Y-224234D02*
X-109677Y-226107D01*
X-113423Y-235378D01*
X-118057Y-233505D01*
X-114311Y-224234D01*
G37*
G36*
X105515Y-226275D02*
X110116Y-224321D01*
X114023Y-233525D01*
X109422Y-235479D01*
X105515Y-226275D01*
G37*
D12*
G36*
X93848Y-230141D02*
X100291Y-227406D01*
X104980Y-238451D01*
X98537Y-241186D01*
X93848Y-230141D01*
G37*
D13*
G36*
X85564Y-233658D02*
X89706Y-231899D01*
X94394Y-242944D01*
X90252Y-244703D01*
X85564Y-233658D01*
G37*
D11*
G36*
X76520Y-238583D02*
X81121Y-236629D01*
X85028Y-245833D01*
X80427Y-247787D01*
X76520Y-238583D01*
G37*
G36*
X233608Y-84671D02*
X235562Y-80070D01*
X244766Y-83977D01*
X242812Y-88578D01*
X233608Y-84671D01*
G37*
D12*
G36*
X227901Y-95557D02*
X230636Y-89114D01*
X241681Y-93803D01*
X238946Y-100246D01*
X227901Y-95557D01*
G37*
D13*
G36*
X224384Y-103842D02*
X226143Y-99700D01*
X237188Y-104388D01*
X235429Y-108530D01*
X224384Y-103842D01*
G37*
D11*
G36*
X221300Y-113667D02*
X223254Y-109066D01*
X232458Y-112973D01*
X230504Y-117574D01*
X221300Y-113667D01*
G37*
D14*
X285450Y-21000D03*
X285450Y21000D03*
D15*
X303450Y-38000D03*
X303450Y38000D03*
D14*
X-285450Y21000D03*
X-285450Y-21000D03*
D15*
X-303450Y38000D03*
X-303450Y-38000D03*
D11*
G36*
X223851Y106120D02*
X221978Y110754D01*
X231249Y114500D01*
X233122Y109866D01*
X223851Y106120D01*
G37*
D12*
G36*
X227514Y94387D02*
X224891Y100876D01*
X236016Y105371D01*
X238639Y98882D01*
X227514Y94387D01*
G37*
D13*
G36*
X230885Y86042D02*
X229200Y90214D01*
X240325Y94708D01*
X242010Y90536D01*
X230885Y86042D01*
G37*
D11*
G36*
X235652Y76914D02*
X233779Y81548D01*
X243050Y85294D01*
X244923Y80660D01*
X235652Y76914D01*
G37*
G36*
X81952Y233927D02*
X77318Y235800D01*
X81064Y245071D01*
X85698Y243198D01*
X81952Y233927D01*
G37*
D12*
G36*
X92935Y228411D02*
X86446Y231034D01*
X90941Y242159D01*
X97430Y239536D01*
X92935Y228411D01*
G37*
D13*
G36*
X101281Y225040D02*
X97109Y226725D01*
X101603Y237850D01*
X105775Y236165D01*
X101281Y225040D01*
G37*
D11*
G36*
X111158Y222127D02*
X106524Y224000D01*
X110270Y233271D01*
X114904Y231398D01*
X111158Y222127D01*
G37*
D16*
X-20000Y315000D03*
X-20000Y295000D03*
X0Y315000D03*
X0Y295000D03*
X20000Y315000D03*
X20000Y295000D03*
X20000Y252500D03*
X20000Y272500D03*
X0Y252500D03*
X0Y272500D03*
X-20000Y252500D03*
X-20000Y272500D03*
D17*
X-246563Y-6667D02*
X-246563Y-17893D01*
X-246563Y-6667D02*
X-242437Y-6667D01*
X-242437Y-17893D01*
X-246563Y-17893D01*
X-246563Y-16587D02*
X-242437Y-16587D01*
X-242437Y-15281D02*
X-246563Y-15281D01*
X-246563Y-13975D02*
X-242437Y-13975D01*
X-242437Y-12669D02*
X-246563Y-12669D01*
X-246563Y-11363D02*
X-242437Y-11363D01*
X-242437Y-10057D02*
X-246563Y-10057D01*
X-246563Y-8751D02*
X-242437Y-8751D01*
X-242437Y-7445D02*
X-246563Y-7445D01*
X-256063Y-6667D02*
X-256063Y-17893D01*
X-256063Y-6667D02*
X-251937Y-6667D01*
X-251937Y-17893D01*
X-256063Y-17893D01*
X-256063Y-16587D02*
X-251937Y-16587D01*
X-251937Y-15281D02*
X-256063Y-15281D01*
X-256063Y-13975D02*
X-251937Y-13975D01*
X-251937Y-12669D02*
X-256063Y-12669D01*
X-256063Y-11363D02*
X-251937Y-11363D01*
X-251937Y-10057D02*
X-256063Y-10057D01*
X-256063Y-8751D02*
X-251937Y-8751D01*
X-251937Y-7445D02*
X-256063Y-7445D01*
X-265563Y-6667D02*
X-265563Y-17893D01*
X-265563Y-6667D02*
X-261437Y-6667D01*
X-261437Y-17893D01*
X-265563Y-17893D01*
X-265563Y-16587D02*
X-261437Y-16587D01*
X-261437Y-15281D02*
X-265563Y-15281D01*
X-265563Y-13975D02*
X-261437Y-13975D01*
X-261437Y-12669D02*
X-265563Y-12669D01*
X-265563Y-11363D02*
X-261437Y-11363D01*
X-261437Y-10057D02*
X-265563Y-10057D01*
X-265563Y-8751D02*
X-261437Y-8751D01*
X-261437Y-7445D02*
X-265563Y-7445D01*
X-265563Y-30367D02*
X-265563Y-41593D01*
X-265563Y-30367D02*
X-261437Y-30367D01*
X-261437Y-41593D01*
X-265563Y-41593D01*
X-265563Y-40287D02*
X-261437Y-40287D01*
X-261437Y-38981D02*
X-265563Y-38981D01*
X-265563Y-37675D02*
X-261437Y-37675D01*
X-261437Y-36369D02*
X-265563Y-36369D01*
X-265563Y-35063D02*
X-261437Y-35063D01*
X-261437Y-33757D02*
X-265563Y-33757D01*
X-265563Y-32451D02*
X-261437Y-32451D01*
X-261437Y-31145D02*
X-265563Y-31145D01*
X-246563Y-30367D02*
X-246563Y-41593D01*
X-246563Y-30367D02*
X-242437Y-30367D01*
X-242437Y-41593D01*
X-246563Y-41593D01*
X-246563Y-40287D02*
X-242437Y-40287D01*
X-242437Y-38981D02*
X-246563Y-38981D01*
X-246563Y-37675D02*
X-242437Y-37675D01*
X-242437Y-36369D02*
X-246563Y-36369D01*
X-246563Y-35063D02*
X-242437Y-35063D01*
X-242437Y-33757D02*
X-246563Y-33757D01*
X-246563Y-32451D02*
X-242437Y-32451D01*
X-242437Y-31145D02*
X-246563Y-31145D01*
X-261437Y6667D02*
X-261437Y17893D01*
X-261437Y6667D02*
X-265563Y6667D01*
X-265563Y17893D01*
X-261437Y17893D01*
X-261437Y7973D02*
X-265563Y7973D01*
X-265563Y9279D02*
X-261437Y9279D01*
X-261437Y10585D02*
X-265563Y10585D01*
X-265563Y11891D02*
X-261437Y11891D01*
X-261437Y13197D02*
X-265563Y13197D01*
X-265563Y14503D02*
X-261437Y14503D01*
X-261437Y15809D02*
X-265563Y15809D01*
X-265563Y17115D02*
X-261437Y17115D01*
X-251937Y17893D02*
X-251937Y6667D01*
X-256063Y6667D01*
X-256063Y17893D01*
X-251937Y17893D01*
X-251937Y7973D02*
X-256063Y7973D01*
X-256063Y9279D02*
X-251937Y9279D01*
X-251937Y10585D02*
X-256063Y10585D01*
X-256063Y11891D02*
X-251937Y11891D01*
X-251937Y13197D02*
X-256063Y13197D01*
X-256063Y14503D02*
X-251937Y14503D01*
X-251937Y15809D02*
X-256063Y15809D01*
X-256063Y17115D02*
X-251937Y17115D01*
X-242437Y17893D02*
X-242437Y6667D01*
X-246563Y6667D01*
X-246563Y17893D01*
X-242437Y17893D01*
X-242437Y7973D02*
X-246563Y7973D01*
X-246563Y9279D02*
X-242437Y9279D01*
X-242437Y10585D02*
X-246563Y10585D01*
X-246563Y11891D02*
X-242437Y11891D01*
X-242437Y13197D02*
X-246563Y13197D01*
X-246563Y14503D02*
X-242437Y14503D01*
X-242437Y15809D02*
X-246563Y15809D01*
X-246563Y17115D02*
X-242437Y17115D01*
X-242437Y30367D02*
X-242437Y41593D01*
X-242437Y30367D02*
X-246563Y30367D01*
X-246563Y41593D01*
X-242437Y41593D01*
X-242437Y31673D02*
X-246563Y31673D01*
X-246563Y32979D02*
X-242437Y32979D01*
X-242437Y34285D02*
X-246563Y34285D01*
X-246563Y35591D02*
X-242437Y35591D01*
X-242437Y36897D02*
X-246563Y36897D01*
X-246563Y38203D02*
X-242437Y38203D01*
X-242437Y39509D02*
X-246563Y39509D01*
X-246563Y40815D02*
X-242437Y40815D01*
X-261437Y41593D02*
X-261437Y30367D01*
X-265563Y30367D01*
X-265563Y41593D01*
X-261437Y41593D01*
X-261437Y31673D02*
X-265563Y31673D01*
X-265563Y32979D02*
X-261437Y32979D01*
X-261437Y34285D02*
X-265563Y34285D01*
X-265563Y35591D02*
X-261437Y35591D01*
X-261437Y36897D02*
X-265563Y36897D01*
X-265563Y38203D02*
X-261437Y38203D01*
X-261437Y39509D02*
X-265563Y39509D01*
X-265563Y40815D02*
X-261437Y40815D01*
X261437Y-6667D02*
X261437Y-17893D01*
X261437Y-6667D02*
X265563Y-6667D01*
X265563Y-17893D01*
X261437Y-17893D01*
X261437Y-16587D02*
X265563Y-16587D01*
X265563Y-15281D02*
X261437Y-15281D01*
X261437Y-13975D02*
X265563Y-13975D01*
X265563Y-12669D02*
X261437Y-12669D01*
X261437Y-11363D02*
X265563Y-11363D01*
X265563Y-10057D02*
X261437Y-10057D01*
X261437Y-8751D02*
X265563Y-8751D01*
X265563Y-7445D02*
X261437Y-7445D01*
X251937Y-6667D02*
X251937Y-17893D01*
X251937Y-6667D02*
X256063Y-6667D01*
X256063Y-17893D01*
X251937Y-17893D01*
X251937Y-16587D02*
X256063Y-16587D01*
X256063Y-15281D02*
X251937Y-15281D01*
X251937Y-13975D02*
X256063Y-13975D01*
X256063Y-12669D02*
X251937Y-12669D01*
X251937Y-11363D02*
X256063Y-11363D01*
X256063Y-10057D02*
X251937Y-10057D01*
X251937Y-8751D02*
X256063Y-8751D01*
X256063Y-7445D02*
X251937Y-7445D01*
X242437Y-6667D02*
X242437Y-17893D01*
X242437Y-6667D02*
X246563Y-6667D01*
X246563Y-17893D01*
X242437Y-17893D01*
X242437Y-16587D02*
X246563Y-16587D01*
X246563Y-15281D02*
X242437Y-15281D01*
X242437Y-13975D02*
X246563Y-13975D01*
X246563Y-12669D02*
X242437Y-12669D01*
X242437Y-11363D02*
X246563Y-11363D01*
X246563Y-10057D02*
X242437Y-10057D01*
X242437Y-8751D02*
X246563Y-8751D01*
X246563Y-7445D02*
X242437Y-7445D01*
X242437Y-30367D02*
X242437Y-41593D01*
X242437Y-30367D02*
X246563Y-30367D01*
X246563Y-41593D01*
X242437Y-41593D01*
X242437Y-40287D02*
X246563Y-40287D01*
X246563Y-38981D02*
X242437Y-38981D01*
X242437Y-37675D02*
X246563Y-37675D01*
X246563Y-36369D02*
X242437Y-36369D01*
X242437Y-35063D02*
X246563Y-35063D01*
X246563Y-33757D02*
X242437Y-33757D01*
X242437Y-32451D02*
X246563Y-32451D01*
X246563Y-31145D02*
X242437Y-31145D01*
X261437Y-30367D02*
X261437Y-41593D01*
X261437Y-30367D02*
X265563Y-30367D01*
X265563Y-41593D01*
X261437Y-41593D01*
X261437Y-40287D02*
X265563Y-40287D01*
X265563Y-38981D02*
X261437Y-38981D01*
X261437Y-37675D02*
X265563Y-37675D01*
X265563Y-36369D02*
X261437Y-36369D01*
X261437Y-35063D02*
X265563Y-35063D01*
X265563Y-33757D02*
X261437Y-33757D01*
X261437Y-32451D02*
X265563Y-32451D01*
X265563Y-31145D02*
X261437Y-31145D01*
X246563Y6667D02*
X246563Y17893D01*
X246563Y6667D02*
X242437Y6667D01*
X242437Y17893D01*
X246563Y17893D01*
X246563Y7973D02*
X242437Y7973D01*
X242437Y9279D02*
X246563Y9279D01*
X246563Y10585D02*
X242437Y10585D01*
X242437Y11891D02*
X246563Y11891D01*
X246563Y13197D02*
X242437Y13197D01*
X242437Y14503D02*
X246563Y14503D01*
X246563Y15809D02*
X242437Y15809D01*
X242437Y17115D02*
X246563Y17115D01*
X256063Y17893D02*
X256063Y6667D01*
X251937Y6667D01*
X251937Y17893D01*
X256063Y17893D01*
X256063Y7973D02*
X251937Y7973D01*
X251937Y9279D02*
X256063Y9279D01*
X256063Y10585D02*
X251937Y10585D01*
X251937Y11891D02*
X256063Y11891D01*
X256063Y13197D02*
X251937Y13197D01*
X251937Y14503D02*
X256063Y14503D01*
X256063Y15809D02*
X251937Y15809D01*
X251937Y17115D02*
X256063Y17115D01*
X265563Y17893D02*
X265563Y6667D01*
X261437Y6667D01*
X261437Y17893D01*
X265563Y17893D01*
X265563Y7973D02*
X261437Y7973D01*
X261437Y9279D02*
X265563Y9279D01*
X265563Y10585D02*
X261437Y10585D01*
X261437Y11891D02*
X265563Y11891D01*
X265563Y13197D02*
X261437Y13197D01*
X261437Y14503D02*
X265563Y14503D01*
X265563Y15809D02*
X261437Y15809D01*
X261437Y17115D02*
X265563Y17115D01*
X265563Y30367D02*
X265563Y41593D01*
X265563Y30367D02*
X261437Y30367D01*
X261437Y41593D01*
X265563Y41593D01*
X265563Y31673D02*
X261437Y31673D01*
X261437Y32979D02*
X265563Y32979D01*
X265563Y34285D02*
X261437Y34285D01*
X261437Y35591D02*
X265563Y35591D01*
X265563Y36897D02*
X261437Y36897D01*
X261437Y38203D02*
X265563Y38203D01*
X265563Y39509D02*
X261437Y39509D01*
X261437Y40815D02*
X265563Y40815D01*
X246563Y41593D02*
X246563Y30367D01*
X242437Y30367D01*
X242437Y41593D01*
X246563Y41593D01*
X246563Y31673D02*
X242437Y31673D01*
X242437Y32979D02*
X246563Y32979D01*
X246563Y34285D02*
X242437Y34285D01*
X242437Y35591D02*
X246563Y35591D01*
X246563Y36897D02*
X242437Y36897D01*
X242437Y38203D02*
X246563Y38203D01*
X246563Y39509D02*
X242437Y39509D01*
X242437Y40815D02*
X246563Y40815D01*
D18*
X-13822Y163592D02*
X-13822Y171968D01*
X-13822Y163592D02*
X-17798Y163592D01*
X-17798Y171968D01*
X-13822Y171968D01*
X-13822Y164851D02*
X-17798Y164851D01*
X-17798Y166110D02*
X-13822Y166110D01*
X-13822Y167369D02*
X-17798Y167369D01*
X-17798Y168628D02*
X-13822Y168628D01*
X-13822Y169887D02*
X-17798Y169887D01*
X-17798Y171146D02*
X-13822Y171146D01*
X-5822Y171968D02*
X-5822Y163592D01*
X-9798Y163592D01*
X-9798Y171968D01*
X-5822Y171968D01*
X-5822Y164851D02*
X-9798Y164851D01*
X-9798Y166110D02*
X-5822Y166110D01*
X-5822Y167369D02*
X-9798Y167369D01*
X-9798Y168628D02*
X-5822Y168628D01*
X-5822Y169887D02*
X-9798Y169887D01*
X-9798Y171146D02*
X-5822Y171146D01*
X2178Y171968D02*
X2178Y163592D01*
X-1798Y163592D01*
X-1798Y171968D01*
X2178Y171968D01*
X2178Y164851D02*
X-1798Y164851D01*
X-1798Y166110D02*
X2178Y166110D01*
X2178Y167369D02*
X-1798Y167369D01*
X-1798Y168628D02*
X2178Y168628D01*
X2178Y169887D02*
X-1798Y169887D01*
X-1798Y171146D02*
X2178Y171146D01*
X10178Y171968D02*
X10178Y163592D01*
X6202Y163592D01*
X6202Y171968D01*
X10178Y171968D01*
X10178Y164851D02*
X6202Y164851D01*
X6202Y166110D02*
X10178Y166110D01*
X10178Y167369D02*
X6202Y167369D01*
X6202Y168628D02*
X10178Y168628D01*
X10178Y169887D02*
X6202Y169887D01*
X6202Y171146D02*
X10178Y171146D01*
X6202Y181092D02*
X6202Y189468D01*
X10178Y189468D01*
X10178Y181092D01*
X6202Y181092D01*
X6202Y182351D02*
X10178Y182351D01*
X10178Y183610D02*
X6202Y183610D01*
X6202Y184869D02*
X10178Y184869D01*
X10178Y186128D02*
X6202Y186128D01*
X6202Y187387D02*
X10178Y187387D01*
X10178Y188646D02*
X6202Y188646D01*
X-1798Y189468D02*
X-1798Y181092D01*
X-1798Y189468D02*
X2178Y189468D01*
X2178Y181092D01*
X-1798Y181092D01*
X-1798Y182351D02*
X2178Y182351D01*
X2178Y183610D02*
X-1798Y183610D01*
X-1798Y184869D02*
X2178Y184869D01*
X2178Y186128D02*
X-1798Y186128D01*
X-1798Y187387D02*
X2178Y187387D01*
X2178Y188646D02*
X-1798Y188646D01*
X-9798Y189468D02*
X-9798Y181092D01*
X-9798Y189468D02*
X-5822Y189468D01*
X-5822Y181092D01*
X-9798Y181092D01*
X-9798Y182351D02*
X-5822Y182351D01*
X-5822Y183610D02*
X-9798Y183610D01*
X-9798Y184869D02*
X-5822Y184869D01*
X-5822Y186128D02*
X-9798Y186128D01*
X-9798Y187387D02*
X-5822Y187387D01*
X-5822Y188646D02*
X-9798Y188646D01*
X-17798Y189468D02*
X-17798Y181092D01*
X-17798Y189468D02*
X-13822Y189468D01*
X-13822Y181092D01*
X-17798Y181092D01*
X-17798Y182351D02*
X-13822Y182351D01*
X-13822Y183610D02*
X-17798Y183610D01*
X-17798Y184869D02*
X-13822Y184869D01*
X-13822Y186128D02*
X-17798Y186128D01*
X-17798Y187387D02*
X-13822Y187387D01*
X-13822Y188646D02*
X-17798Y188646D01*
D19*
X27940Y167335D03*
X27940Y185725D03*
X-35560Y167335D03*
X-35560Y185725D03*
D20*
X45720Y261134D03*
X45720Y231626D03*
X-46990Y261134D03*
X-46990Y231626D03*
D21*
X-262754Y57150D03*
X-245246Y57150D03*
X-262754Y-57150D03*
X-245246Y-57150D03*
X245246Y-57150D03*
X262754Y-57150D03*
X262754Y57150D03*
X245246Y57150D03*
D22*
X31750Y-173854D03*
X31750Y-156346D03*
X-111760Y73796D03*
X-111760Y91304D03*
X111760Y73796D03*
X111760Y91304D03*
D21*
G36*
X211491Y146078D02*
X221257Y152421D01*
X229237Y140134D01*
X219471Y133791D01*
X211491Y146078D01*
G37*
G36*
X196808Y136543D02*
X206574Y142886D01*
X214554Y130599D01*
X204788Y124256D01*
X196808Y136543D01*
G37*
G36*
X-146078Y211491D02*
X-152421Y221257D01*
X-140134Y229237D01*
X-133791Y219471D01*
X-146078Y211491D01*
G37*
G36*
X-136543Y196808D02*
X-142886Y206574D01*
X-130599Y214554D01*
X-124256Y204788D01*
X-136543Y196808D01*
G37*
G36*
X-211491Y-146078D02*
X-221257Y-152421D01*
X-229237Y-140134D01*
X-219471Y-133791D01*
X-211491Y-146078D01*
G37*
G36*
X-196808Y-136543D02*
X-206574Y-142886D01*
X-214554Y-130599D01*
X-204788Y-124256D01*
X-196808Y-136543D01*
G37*
G36*
X146078Y-211491D02*
X152421Y-221257D01*
X140134Y-229237D01*
X133791Y-219471D01*
X146078Y-211491D01*
G37*
G36*
X136543Y-196808D02*
X142886Y-206574D01*
X130599Y-214554D01*
X124256Y-204788D01*
X136543Y-196808D01*
G37*
G36*
X219578Y-133567D02*
X229344Y-139910D01*
X221364Y-152197D01*
X211598Y-145854D01*
X219578Y-133567D01*
G37*
G36*
X204894Y-124031D02*
X214660Y-130374D01*
X206680Y-142661D01*
X196914Y-136318D01*
X204894Y-124031D01*
G37*
G36*
X133898Y219696D02*
X140241Y229462D01*
X152528Y221482D01*
X146185Y211716D01*
X133898Y219696D01*
G37*
G36*
X124362Y205012D02*
X130705Y214778D01*
X142992Y206798D01*
X136649Y197032D01*
X124362Y205012D01*
G37*
G36*
X-219364Y134016D02*
X-229130Y140359D01*
X-221150Y152646D01*
X-211384Y146303D01*
X-219364Y134016D01*
G37*
G36*
X-204681Y124480D02*
X-214447Y130823D01*
X-206467Y143110D01*
X-196701Y136767D01*
X-204681Y124480D01*
G37*
G36*
X-133684Y-219247D02*
X-140027Y-229013D01*
X-152314Y-221033D01*
X-145971Y-211267D01*
X-133684Y-219247D01*
G37*
G36*
X-124149Y-204563D02*
X-130492Y-214329D01*
X-142779Y-206349D01*
X-136436Y-196583D01*
X-124149Y-204563D01*
G37*
D23*
X-14754Y-254000D03*
X14754Y-254000D03*
D24*
X4215Y222605D02*
X4215Y231755D01*
X7165Y231755D01*
X7165Y222605D01*
X4215Y222605D01*
X4215Y225407D02*
X7165Y225407D01*
X7165Y228209D02*
X4215Y228209D01*
X4215Y231011D02*
X7165Y231011D01*
X-5285Y231755D02*
X-5285Y222605D01*
X-5285Y231755D02*
X-2335Y231755D01*
X-2335Y222605D01*
X-5285Y222605D01*
X-5285Y225407D02*
X-2335Y225407D01*
X-2335Y228209D02*
X-5285Y228209D01*
X-5285Y231011D02*
X-2335Y231011D01*
X-14785Y231755D02*
X-14785Y222605D01*
X-14785Y231755D02*
X-11835Y231755D01*
X-11835Y222605D01*
X-14785Y222605D01*
X-14785Y225407D02*
X-11835Y225407D01*
X-11835Y228209D02*
X-14785Y228209D01*
X-14785Y231011D02*
X-11835Y231011D01*
X-14785Y206655D02*
X-14785Y197505D01*
X-14785Y206655D02*
X-11835Y206655D01*
X-11835Y197505D01*
X-14785Y197505D01*
X-14785Y200307D02*
X-11835Y200307D01*
X-11835Y203109D02*
X-14785Y203109D01*
X-14785Y205911D02*
X-11835Y205911D01*
X4215Y206655D02*
X4215Y197505D01*
X4215Y206655D02*
X7165Y206655D01*
X7165Y197505D01*
X4215Y197505D01*
X4215Y200307D02*
X7165Y200307D01*
X7165Y203109D02*
X4215Y203109D01*
X4215Y205911D02*
X7165Y205911D01*
D25*
X-68580Y253187D03*
X-68580Y209194D03*
X-93980Y209194D03*
X-81280Y187198D03*
X-132080Y187198D03*
X-93980Y165201D03*
X-68580Y165201D03*
X-106680Y143205D03*
X-157480Y143205D03*
X-68580Y121208D03*
X-119380Y121208D03*
X-170180Y121208D03*
X-182880Y99212D03*
X-106680Y187198D03*
X-284480Y-32766D03*
X-157480Y55219D03*
X-182880Y55219D03*
X-208280Y55219D03*
X-119380Y33223D03*
X-182880Y143205D03*
X-220980Y33223D03*
X-132080Y11227D03*
X-55880Y-120752D03*
X-182880Y11227D03*
X-144780Y-10770D03*
X-106680Y-164745D03*
X-182880Y-32766D03*
X-195580Y-54763D03*
X-81280Y-120752D03*
X-55880Y-208737D03*
X-132080Y-76759D03*
X-195580Y77216D03*
X-144780Y-54763D03*
X-220980Y-54763D03*
X-182880Y-76759D03*
X-119380Y-98755D03*
X-30480Y-208737D03*
X-284480Y11227D03*
X-170180Y209194D03*
X-30480Y-120752D03*
X-30480Y-164745D03*
X-208280Y-32766D03*
X-170180Y-142748D03*
X-182880Y-120752D03*
X-119380Y-186741D03*
X-157480Y-164745D03*
X-68580Y-230734D03*
X-132080Y-164745D03*
X-195580Y-142748D03*
X-208280Y-164745D03*
X-17780Y-230734D03*
X-208280Y11227D03*
X-208280Y-76759D03*
X-157480Y-120752D03*
X-81280Y-164745D03*
X-17780Y-186741D03*
X-132080Y-120752D03*
X-68580Y-186741D03*
X-55880Y187198D03*
X-43180Y-186741D03*
X-81280Y143205D03*
X-93980Y-186741D03*
X-55880Y-164745D03*
X-157480Y-208737D03*
X-43180Y-230734D03*
X-106680Y-120752D03*
X-144780Y-186741D03*
X-195580Y33223D03*
X109220Y209194D03*
X71120Y187198D03*
X198120Y143205D03*
X185420Y121208D03*
X109220Y121208D03*
X121920Y55219D03*
X185420Y33223D03*
X185420Y-142748D03*
X172720Y55219D03*
X198120Y-32766D03*
X33020Y-186741D03*
X134620Y-142748D03*
X83820Y209194D03*
X198120Y-164745D03*
X96520Y187198D03*
X160020Y-10770D03*
X33020Y-142748D03*
X147320Y-32766D03*
X160020Y-54763D03*
X71120Y231190D03*
X185420Y-98755D03*
X172720Y143205D03*
X172720Y-208737D03*
X147320Y-76759D03*
X134620Y33223D03*
X109220Y165201D03*
X160020Y-98755D03*
X33020Y209194D03*
X109220Y-98755D03*
X96520Y-120752D03*
X71120Y-120752D03*
X134620Y-98755D03*
X185420Y-54763D03*
X160020Y-142748D03*
X172720Y-164745D03*
X210820Y165201D03*
X147320Y-164745D03*
X160020Y77216D03*
X20320Y-208737D03*
X210820Y-54763D03*
X45720Y187198D03*
X83820Y-142748D03*
X147320Y-120752D03*
X147320Y11227D03*
X20320Y-120752D03*
X96520Y-164745D03*
X160020Y121208D03*
X71120Y-208737D03*
X58420Y-142748D03*
X134620Y-186741D03*
X96520Y-208737D03*
X45720Y-120752D03*
X160020Y165201D03*
X58420Y-230734D03*
X58420Y-186741D03*
X198120Y-120752D03*
X45720Y-208737D03*
X33020Y-230734D03*
X83820Y-186741D03*
X198120Y-76759D03*
X114300Y241300D03*
X45720Y248920D03*
X55880Y248920D03*
X-64770Y128270D03*
X-83820Y105410D03*
X226060Y41910D03*
X203200Y41910D03*
X-125730Y53340D03*
X-147320Y31750D03*
D26*
X-251355Y69955D02*
X-251355Y75345D01*
X-244669Y82031D02*
X-242129Y82031D01*
X-244669Y82031D02*
X-251355Y75345D01*
D25*
X-81484Y227120D03*
D26*
X-85294Y227120D02*
X-93006Y234831D01*
X-93006Y236128D01*
X-85294Y227120D02*
X-81484Y227120D01*
D25*
X-251355Y69955D03*
D26*
X-234075Y101965D02*
X-212455Y101965D01*
X-212090Y101600D01*
D25*
X-200660Y-111760D03*
D26*
X-229783Y-111760D01*
X-230423Y-112400D01*
D25*
X-211880Y101600D03*
D26*
X-212090Y101600D01*
X-236385Y-90170D02*
X-238824Y-92609D01*
X-236385Y-90170D02*
X-198120Y-90170D01*
X-83820Y-204470D01*
X-83820Y-215900D01*
X-83820Y-240765D01*
X-84661Y-241606D01*
X-104595Y-233552D02*
X-104757Y-233714D01*
X-104595Y-233552D02*
X-104595Y-233552D01*
X109769Y-229900D02*
X109769Y-240751D01*
X109220Y-241300D01*
D25*
X109220Y-241300D03*
X-103105Y-245345D03*
D26*
X-104604Y-243847D02*
X-104604Y-233867D01*
X-104604Y-243847D02*
X-103105Y-245345D01*
X-104604Y-233867D02*
X-104757Y-233714D01*
X87630Y-235952D02*
X89979Y-238301D01*
X87630Y-235952D02*
X87630Y-222250D01*
X87630Y-204470D01*
X207005Y-85095D01*
X238416Y-85095D02*
X239187Y-84324D01*
X238416Y-85095D02*
X207005Y-85095D01*
D27*
X244500Y12280D02*
X244080Y12700D01*
X234950Y12700D01*
D25*
X234950Y12700D03*
X19050Y196850D03*
D27*
X10920Y196850D01*
X5690Y202080D01*
X205681Y133571D02*
X205681Y118169D01*
X205740Y118110D01*
D25*
X205740Y118110D03*
D27*
X231765Y99879D02*
X232216Y100330D01*
X136382Y203200D02*
X133677Y205905D01*
X136382Y203200D02*
X152400Y203200D01*
D25*
X152400Y203200D03*
D27*
X222820Y-94680D02*
X234791Y-94680D01*
X222820Y-94680D02*
X222250Y-95250D01*
D25*
X222250Y-95250D03*
D27*
X205787Y-133346D02*
X202565Y-136568D01*
X202565Y-146685D01*
D25*
X202565Y-146685D03*
D27*
X136051Y-203200D02*
X133571Y-205681D01*
X136051Y-203200D02*
X146050Y-203200D01*
D25*
X146050Y-203200D03*
D27*
X99414Y-224436D02*
X99414Y-234296D01*
X99414Y-224436D02*
X99695Y-224155D01*
D25*
X99695Y-224155D03*
D27*
X-93980Y-236280D02*
X-95092Y-237392D01*
X-93980Y-236280D02*
X-93980Y-223520D01*
D25*
X-93980Y-223520D03*
D27*
X-112044Y-205456D02*
X-133464Y-205456D01*
X-112044Y-205456D02*
X-107950Y-209550D01*
D25*
X-107950Y-209550D03*
D27*
X-202565Y-136686D02*
X-205681Y-133571D01*
X-202565Y-136686D02*
X-202565Y-146685D01*
D25*
X-202565Y-146685D03*
D27*
X-236894Y91440D02*
X-237915Y92462D01*
X-236894Y91440D02*
X-222250Y91440D01*
D25*
X-222250Y91440D03*
D27*
X-205574Y133795D02*
X-205574Y137326D01*
X-197485Y145415D01*
D25*
X-197485Y145415D03*
D27*
X-137219Y205681D02*
X-133571Y205681D01*
X-137219Y205681D02*
X-146050Y196850D01*
D25*
X-146050Y196850D03*
D27*
X-102509Y229748D02*
X-97551Y224790D01*
X-102509Y229748D02*
X-102509Y232288D01*
D25*
X0Y-243418D03*
D27*
X8404Y-247650D02*
X14754Y-254000D01*
X8404Y-247650D02*
X4232Y-247650D01*
X0Y-243418D01*
D25*
X-219006Y-95816D03*
D27*
X-228590Y-95816D02*
X-234819Y-102044D01*
X-228590Y-95816D02*
X-219006Y-95816D01*
D25*
X-88900Y221830D03*
D27*
X-91860Y224790D02*
X-97551Y224790D01*
X-91860Y224790D02*
X-88900Y221830D01*
D25*
X90979Y244439D03*
D27*
X91938Y243480D02*
X91938Y235285D01*
X91938Y243480D02*
X90979Y244439D01*
D25*
X241090Y100330D03*
D27*
X232216Y100330D01*
X-20000Y242890D02*
X-20000Y252500D01*
X-20000Y242890D02*
X-31264Y231626D01*
X-46990Y231626D01*
D28*
X245246Y57150D02*
X245246Y36726D01*
X244500Y35980D01*
D25*
X203200Y57150D03*
D27*
X245246Y57150D01*
D26*
X27940Y156420D02*
X27940Y167335D01*
X27940Y156420D02*
X31750Y152610D01*
X-152481Y82000D02*
X-152481Y69300D01*
X-152481Y82000D02*
X-158750Y88269D01*
X-158750Y121781D01*
X-84951Y195580D01*
X31750Y152400D02*
X69850Y152400D01*
X89194Y133057D01*
X89194Y97129D01*
X103381Y82941D01*
X119840Y82941D02*
X133481Y69300D01*
X119840Y82941D02*
X103381Y82941D01*
X-9500Y-168250D02*
X-9500Y-178350D01*
X-9500Y-168250D02*
X-6350Y-165100D01*
X82550Y-165100D01*
X169966Y-77684D01*
X169966Y11430D01*
X133481Y47915D02*
X133481Y69300D01*
X133481Y47915D02*
X169966Y11430D01*
D25*
X31750Y152610D03*
D26*
X31750Y152400D01*
D25*
X-39514Y195580D03*
D26*
X-84951Y195580D01*
D25*
X-31750Y152400D03*
D26*
X-35560Y156210D02*
X-35560Y167335D01*
X-35560Y156210D02*
X-31750Y152400D01*
D25*
X-152400Y107950D03*
D26*
X-152400Y95881D01*
X-152481Y95800D01*
D25*
X133350Y107950D03*
D26*
X133481Y107819D01*
X133481Y95800D01*
D25*
X-19050Y-152400D03*
D26*
X-18500Y-151850D01*
X-9500Y-151850D01*
X4042Y-139700D02*
X-101600Y-139700D01*
X-158750Y-82550D01*
X-158750Y-38100D01*
X-184570Y-12280D01*
X-244500Y-12280D01*
X9500Y-145158D02*
X9500Y-151850D01*
X9500Y-145158D02*
X4042Y-139700D01*
X9500Y-151850D02*
X27254Y-151850D01*
X31750Y-156346D01*
X-165100Y25400D02*
X-125730Y64770D01*
X-125730Y81280D01*
X-115706Y91304D01*
X-111760Y91304D01*
X-116256Y95800D02*
X-133481Y95800D01*
X-116256Y95800D02*
X-111760Y91304D01*
X-263500Y21704D02*
X-263500Y12280D01*
X-263500Y21704D02*
X-261620Y23584D01*
X-258628Y23584D01*
X-256812Y25400D01*
X-165100Y25400D01*
X111760Y91304D02*
X124596Y91304D01*
X133350Y82550D01*
X146050Y82550D01*
X152481Y88981D01*
X152481Y95800D01*
X153031Y95250D01*
X171450Y95250D01*
X215900Y0D02*
X254000Y0D01*
X263500Y-9500D01*
X263500Y-12280D01*
X196640Y70060D02*
X171450Y95250D01*
X196640Y70060D02*
X196640Y19260D01*
X215900Y0D01*
D28*
X8174Y237976D02*
X0Y246150D01*
X0Y252500D01*
X26670Y231626D02*
X45720Y231626D01*
X26670Y231626D02*
X20320Y237976D01*
X8174Y237976D01*
X45720Y231626D02*
X45720Y219710D01*
D25*
X45720Y219710D03*
D28*
X273050Y-38100D02*
X273050Y-46854D01*
X262754Y-57150D01*
X265620Y-38100D02*
X273050Y-38100D01*
X265620Y-38100D02*
X263500Y-35980D01*
X45720Y203505D02*
X45720Y219710D01*
X45720Y203505D02*
X27940Y185725D01*
X-35560Y185725D02*
X-44145Y185725D01*
X-49530Y180340D01*
D25*
X-49530Y180340D03*
X-228600Y-57150D03*
D28*
X-245246Y-57150D01*
X-244500Y-35980D02*
X-229020Y-35980D01*
X-228600Y-35560D01*
D25*
X-228600Y-35560D03*
D28*
X-228600Y57150D02*
X-245246Y57150D01*
D25*
X-228600Y57150D03*
D28*
X-256236Y35980D02*
X-263500Y35980D01*
X-252076Y40140D02*
X-252076Y47160D01*
X-252076Y40140D02*
X-256236Y35980D01*
X-249056Y53340D02*
X-245246Y57150D01*
X-249056Y53340D02*
X-249056Y50180D01*
X-252076Y47160D01*
D25*
X272840Y-38100D03*
D28*
X273050Y-38100D01*
X27495Y185280D02*
X8190Y185280D01*
X27495Y185280D02*
X27940Y185725D01*
X8190Y185280D02*
X190Y185280D01*
X-7810Y185280D01*
X-15810Y185280D01*
X-35115Y185280D01*
X-35560Y185725D01*
D26*
X-263500Y-25789D02*
X-263500Y-35980D01*
X-263500Y-25789D02*
X-269240Y-20049D01*
X-269240Y-5781D01*
X-266899Y-3440D01*
X-167225Y-3440D01*
X-67310Y143510D02*
X-16561Y143510D01*
X-7810Y152261D01*
X-7810Y167780D01*
X-98338Y65448D02*
X-167225Y-3440D01*
X-98338Y112483D02*
X-67310Y143510D01*
X-98338Y112483D02*
X-98338Y65448D01*
D25*
X-7241Y176156D03*
D26*
X-7810Y175587D02*
X-7810Y167780D01*
X-7810Y175587D02*
X-7241Y176156D01*
X-244500Y35980D02*
X-247230Y35980D01*
X-269240Y22263D02*
X-269240Y5781D01*
X-269240Y22263D02*
X-264363Y27140D01*
X-254254Y28956D02*
X-247230Y35980D01*
X-260101Y27140D02*
X-264363Y27140D01*
X-258285Y28956D02*
X-254254Y28956D01*
X-258285Y28956D02*
X-260101Y27140D01*
X-266899Y3440D02*
X-165374Y3440D01*
X-266899Y3440D02*
X-269240Y5781D01*
X-15810Y149290D02*
X-15810Y167780D01*
X-15810Y149290D02*
X-18034Y147066D01*
X-68783Y147066D01*
X-101894Y66921D02*
X-165374Y3440D01*
X-101894Y113956D02*
X-68783Y147066D01*
X-101894Y113956D02*
X-101894Y66921D01*
D25*
X-15240Y176156D03*
D26*
X-15810Y175586D02*
X-15810Y167780D01*
X-15810Y175586D02*
X-15240Y176156D01*
D25*
X181610Y-5080D03*
D26*
X15103Y143647D02*
X190Y158560D01*
X15103Y143647D02*
X59343Y143647D01*
D25*
X68580Y128060D03*
D26*
X68580Y134410D01*
X59343Y143647D01*
X210147Y-29756D02*
X226846Y-29756D01*
X233070Y-35980D02*
X244500Y-35980D01*
X233070Y-35980D02*
X226846Y-29756D01*
X210147Y-29756D02*
X185471Y-5080D01*
X181610Y-5080D01*
X190Y158560D02*
X190Y167780D01*
D25*
X0Y176156D03*
D26*
X190Y175966D02*
X190Y167780D01*
X190Y175966D02*
X0Y176156D01*
X263500Y35980D02*
X263500Y34900D01*
X255270Y26670D01*
X203200Y26670D01*
D25*
X203200Y26670D03*
X81280Y128270D03*
D26*
X81280Y134620D01*
X68580Y147320D01*
X17780Y147320D01*
X8190Y156910D01*
X8190Y167780D01*
D25*
X7620Y176156D03*
D26*
X8190Y175586D02*
X8190Y167780D01*
X8190Y175586D02*
X7620Y176156D01*
X285450Y-21000D02*
X299720Y-6730D01*
X299720Y10160D01*
D25*
X299720Y10160D03*
D26*
X-285450Y21000D02*
X-285450Y32720D01*
X-285750Y33020D01*
D25*
X-285750Y33020D03*
D26*
X-27130Y215900D02*
X-13310Y202080D01*
X-27130Y215900D02*
X-101600Y215900D01*
X-112940Y227240D01*
X-112940Y228074D01*
X-3810Y227180D02*
X-3810Y236220D01*
X-10160Y242570D01*
X-10160Y288290D01*
X-3450Y295000D01*
X0Y295000D01*
X210845Y-104115D02*
X230786Y-104115D01*
X210845Y-104115D02*
X210820Y-104140D01*
D25*
X210820Y-104140D03*
X218440Y95250D03*
D26*
X218440Y101199D01*
X226280Y109040D02*
X227550Y110310D01*
X226280Y109040D02*
X218440Y101199D01*
X235605Y90375D02*
X227779Y82550D01*
X214630Y82550D01*
X191770Y105410D01*
X191770Y144780D01*
X152400Y184150D01*
X135890Y184150D01*
X123190Y184150D01*
X81280Y226060D01*
X81280Y239272D01*
X81508Y239499D01*
M02*
