G04 EAGLE Gerber RS-274X export*
G75*
%MOMM*%
%FSLAX34Y34*%
%LPD*%
%INSilkscreen Top*%
%IPPOS*%
%AMOC8*
5,1,8,0,0,1.08239X$1,22.5*%
G01*
G04 Define Apertures*
%ADD10C,0.250000*%
%ADD11C,0.200000*%
%ADD12C,0.127000*%
G36*
X-16205Y-139520D02*
X-18467Y-139520D01*
X-18467Y-128211D01*
X-16318Y-128211D01*
X-14590Y-131975D01*
X-12861Y-128211D01*
X-10712Y-128211D01*
X-10712Y-139520D01*
X-12974Y-139520D01*
X-12974Y-133526D01*
X-13943Y-135610D01*
X-15236Y-135610D01*
X-16205Y-133526D01*
X-16205Y-139520D01*
G37*
G36*
X6713Y-139520D02*
X5420Y-139520D01*
X5091Y-139503D01*
X4771Y-139453D01*
X4462Y-139373D01*
X4166Y-139263D01*
X3883Y-139125D01*
X3617Y-138961D01*
X3368Y-138773D01*
X3138Y-138563D01*
X2929Y-138332D01*
X2743Y-138081D01*
X2581Y-137813D01*
X2444Y-137530D01*
X2335Y-137232D01*
X2255Y-136922D01*
X2206Y-136602D01*
X2189Y-136273D01*
X2189Y-131442D01*
X2206Y-131113D01*
X2255Y-130793D01*
X2335Y-130484D01*
X2444Y-130187D01*
X2581Y-129905D01*
X2743Y-129639D01*
X2929Y-129390D01*
X3138Y-129160D01*
X3368Y-128951D01*
X3617Y-128764D01*
X3883Y-128602D01*
X4166Y-128466D01*
X4462Y-128357D01*
X4771Y-128277D01*
X5091Y-128227D01*
X5420Y-128211D01*
X6713Y-128211D01*
X7045Y-128227D01*
X7367Y-128276D01*
X7677Y-128355D01*
X7974Y-128463D01*
X8257Y-128599D01*
X8523Y-128760D01*
X8772Y-128946D01*
X9001Y-129154D01*
X9209Y-129383D01*
X9395Y-129631D01*
X9556Y-129898D01*
X9691Y-130180D01*
X9800Y-130478D01*
X9879Y-130788D01*
X9927Y-131110D01*
X9944Y-131442D01*
X9944Y-132330D01*
X7682Y-132330D01*
X7682Y-131442D01*
X7663Y-131243D01*
X7608Y-131059D01*
X7520Y-130894D01*
X7403Y-130751D01*
X7261Y-130634D01*
X7096Y-130547D01*
X6912Y-130492D01*
X6713Y-130473D01*
X5420Y-130473D01*
X5221Y-130492D01*
X5037Y-130549D01*
X4872Y-130639D01*
X4730Y-130757D01*
X4613Y-130901D01*
X4525Y-131066D01*
X4470Y-131247D01*
X4451Y-131442D01*
X4451Y-136273D01*
X4471Y-136467D01*
X4527Y-136649D01*
X4617Y-136814D01*
X4736Y-136957D01*
X4879Y-137076D01*
X5044Y-137166D01*
X5226Y-137222D01*
X5420Y-137242D01*
X6713Y-137242D01*
X6908Y-137222D01*
X7089Y-137166D01*
X7254Y-137076D01*
X7397Y-136957D01*
X7516Y-136814D01*
X7606Y-136649D01*
X7662Y-136467D01*
X7682Y-136273D01*
X7682Y-135643D01*
X5743Y-135643D01*
X5743Y-133381D01*
X9944Y-133381D01*
X9944Y-136273D01*
X9927Y-136605D01*
X9878Y-136927D01*
X9798Y-137238D01*
X9689Y-137537D01*
X9553Y-137820D01*
X9390Y-138088D01*
X9204Y-138338D01*
X8995Y-138569D01*
X8765Y-138778D01*
X8516Y-138965D01*
X8250Y-139128D01*
X7967Y-139265D01*
X7671Y-139374D01*
X7362Y-139454D01*
X7042Y-139503D01*
X6713Y-139520D01*
G37*
G36*
X-5893Y-139520D02*
X-8155Y-139520D01*
X-8155Y-135949D01*
X-5311Y-128211D01*
X-3243Y-128211D01*
X-400Y-135949D01*
X-400Y-139520D01*
X-2662Y-139520D01*
X-2662Y-137549D01*
X-5893Y-137549D01*
X-5893Y-139520D01*
G37*
%LPC*%
G36*
X-3049Y-135287D02*
X-4277Y-131943D01*
X-5505Y-135287D01*
X-3049Y-135287D01*
G37*
%LPD*%
G36*
X20288Y-139520D02*
X12533Y-139520D01*
X12533Y-137258D01*
X15279Y-137258D01*
X15279Y-130973D01*
X12533Y-132589D01*
X12533Y-129972D01*
X15522Y-128211D01*
X17541Y-128211D01*
X17541Y-137258D01*
X20288Y-137258D01*
X20288Y-139520D01*
G37*
G36*
X-159365Y107950D02*
X-161627Y107950D01*
X-161627Y119259D01*
X-159478Y119259D01*
X-157750Y115495D01*
X-156021Y119259D01*
X-153872Y119259D01*
X-153872Y107950D01*
X-156134Y107950D01*
X-156134Y113944D01*
X-157103Y111860D01*
X-158396Y111860D01*
X-159365Y113944D01*
X-159365Y107950D01*
G37*
G36*
X-136447Y107950D02*
X-137740Y107950D01*
X-138069Y107967D01*
X-138389Y108017D01*
X-138698Y108097D01*
X-138994Y108207D01*
X-139277Y108345D01*
X-139543Y108509D01*
X-139792Y108697D01*
X-140022Y108907D01*
X-140231Y109139D01*
X-140417Y109389D01*
X-140579Y109657D01*
X-140716Y109940D01*
X-140825Y110238D01*
X-140905Y110548D01*
X-140954Y110868D01*
X-140971Y111197D01*
X-140971Y116028D01*
X-140954Y116357D01*
X-140905Y116677D01*
X-140825Y116986D01*
X-140716Y117283D01*
X-140579Y117565D01*
X-140417Y117832D01*
X-140231Y118080D01*
X-140022Y118310D01*
X-139792Y118519D01*
X-139543Y118706D01*
X-139277Y118868D01*
X-138994Y119004D01*
X-138698Y119113D01*
X-138389Y119193D01*
X-138069Y119243D01*
X-137740Y119259D01*
X-136447Y119259D01*
X-136115Y119243D01*
X-135793Y119194D01*
X-135483Y119115D01*
X-135186Y119007D01*
X-134903Y118871D01*
X-134637Y118710D01*
X-134388Y118524D01*
X-134159Y118316D01*
X-133951Y118087D01*
X-133766Y117839D01*
X-133604Y117572D01*
X-133469Y117290D01*
X-133360Y116992D01*
X-133281Y116682D01*
X-133233Y116360D01*
X-133216Y116028D01*
X-133216Y115140D01*
X-135478Y115140D01*
X-135478Y116028D01*
X-135497Y116227D01*
X-135552Y116411D01*
X-135640Y116576D01*
X-135757Y116719D01*
X-135899Y116836D01*
X-136064Y116923D01*
X-136248Y116978D01*
X-136447Y116998D01*
X-137740Y116998D01*
X-137939Y116978D01*
X-138123Y116921D01*
X-138288Y116831D01*
X-138430Y116713D01*
X-138547Y116569D01*
X-138635Y116405D01*
X-138690Y116223D01*
X-138709Y116028D01*
X-138709Y111197D01*
X-138689Y111003D01*
X-138633Y110821D01*
X-138543Y110656D01*
X-138424Y110513D01*
X-138281Y110394D01*
X-138116Y110305D01*
X-137934Y110248D01*
X-137740Y110228D01*
X-136447Y110228D01*
X-136252Y110248D01*
X-136071Y110305D01*
X-135906Y110394D01*
X-135763Y110513D01*
X-135644Y110656D01*
X-135554Y110821D01*
X-135498Y111003D01*
X-135478Y111197D01*
X-135478Y111828D01*
X-137417Y111828D01*
X-137417Y114089D01*
X-133216Y114089D01*
X-133216Y111197D01*
X-133233Y110865D01*
X-133282Y110543D01*
X-133362Y110232D01*
X-133471Y109933D01*
X-133607Y109650D01*
X-133770Y109382D01*
X-133956Y109132D01*
X-134165Y108901D01*
X-134395Y108692D01*
X-134644Y108505D01*
X-134910Y108342D01*
X-135193Y108205D01*
X-135489Y108096D01*
X-135798Y108016D01*
X-136118Y107967D01*
X-136447Y107950D01*
G37*
G36*
X-149053Y107950D02*
X-151315Y107950D01*
X-151315Y111521D01*
X-148471Y119259D01*
X-146403Y119259D01*
X-143560Y111521D01*
X-143560Y107950D01*
X-145822Y107950D01*
X-145822Y109921D01*
X-149053Y109921D01*
X-149053Y107950D01*
G37*
%LPC*%
G36*
X-146209Y112183D02*
X-147437Y115527D01*
X-148665Y112183D01*
X-146209Y112183D01*
G37*
%LPD*%
G36*
X-122872Y107950D02*
X-130627Y107950D01*
X-130627Y112038D01*
X-125134Y115123D01*
X-125134Y116028D01*
X-125153Y116227D01*
X-125208Y116411D01*
X-125296Y116576D01*
X-125413Y116719D01*
X-125555Y116836D01*
X-125720Y116923D01*
X-125904Y116978D01*
X-126103Y116998D01*
X-127396Y116998D01*
X-127591Y116978D01*
X-127772Y116921D01*
X-127937Y116831D01*
X-128081Y116713D01*
X-128199Y116569D01*
X-128289Y116405D01*
X-128346Y116223D01*
X-128365Y116028D01*
X-128365Y115140D01*
X-130627Y115140D01*
X-130627Y116028D01*
X-130610Y116357D01*
X-130561Y116677D01*
X-130481Y116986D01*
X-130372Y117283D01*
X-130236Y117565D01*
X-130073Y117832D01*
X-129887Y118080D01*
X-129678Y118310D01*
X-129448Y118519D01*
X-129199Y118706D01*
X-128933Y118868D01*
X-128651Y119004D01*
X-128354Y119113D01*
X-128045Y119193D01*
X-127725Y119243D01*
X-127396Y119259D01*
X-126103Y119259D01*
X-125772Y119243D01*
X-125450Y119194D01*
X-125139Y119115D01*
X-124842Y119007D01*
X-124559Y118871D01*
X-124293Y118710D01*
X-124044Y118524D01*
X-123815Y118316D01*
X-123607Y118087D01*
X-123422Y117839D01*
X-123260Y117572D01*
X-123125Y117290D01*
X-123017Y116992D01*
X-122938Y116682D01*
X-122889Y116360D01*
X-122872Y116028D01*
X-122872Y113782D01*
X-128365Y110697D01*
X-128365Y110212D01*
X-122872Y110212D01*
X-122872Y107950D01*
G37*
G36*
X126708Y107950D02*
X124446Y107950D01*
X124446Y119259D01*
X126595Y119259D01*
X128324Y115495D01*
X130052Y119259D01*
X132201Y119259D01*
X132201Y107950D01*
X129939Y107950D01*
X129939Y113944D01*
X128970Y111860D01*
X127677Y111860D01*
X126708Y113944D01*
X126708Y107950D01*
G37*
G36*
X149626Y107950D02*
X148334Y107950D01*
X148004Y107967D01*
X147684Y108017D01*
X147375Y108097D01*
X147079Y108207D01*
X146797Y108345D01*
X146530Y108509D01*
X146281Y108697D01*
X146051Y108907D01*
X145843Y109139D01*
X145656Y109389D01*
X145494Y109657D01*
X145357Y109940D01*
X145248Y110238D01*
X145168Y110548D01*
X145119Y110868D01*
X145102Y111197D01*
X145102Y116028D01*
X145119Y116357D01*
X145168Y116677D01*
X145248Y116986D01*
X145357Y117283D01*
X145494Y117565D01*
X145656Y117832D01*
X145843Y118080D01*
X146051Y118310D01*
X146281Y118519D01*
X146530Y118706D01*
X146797Y118868D01*
X147079Y119004D01*
X147375Y119113D01*
X147684Y119193D01*
X148004Y119243D01*
X148334Y119259D01*
X149626Y119259D01*
X149958Y119243D01*
X150280Y119194D01*
X150590Y119115D01*
X150888Y119007D01*
X151170Y118871D01*
X151437Y118710D01*
X151685Y118524D01*
X151914Y118316D01*
X152122Y118087D01*
X152308Y117839D01*
X152469Y117572D01*
X152605Y117290D01*
X152713Y116992D01*
X152792Y116682D01*
X152841Y116360D01*
X152857Y116028D01*
X152857Y115140D01*
X150595Y115140D01*
X150595Y116028D01*
X150576Y116227D01*
X150521Y116411D01*
X150434Y116576D01*
X150317Y116719D01*
X150174Y116836D01*
X150009Y116923D01*
X149825Y116978D01*
X149626Y116998D01*
X148334Y116998D01*
X148134Y116978D01*
X147950Y116921D01*
X147785Y116831D01*
X147643Y116713D01*
X147526Y116569D01*
X147438Y116405D01*
X147383Y116223D01*
X147364Y116028D01*
X147364Y111197D01*
X147384Y111003D01*
X147441Y110821D01*
X147530Y110656D01*
X147649Y110513D01*
X147793Y110394D01*
X147957Y110305D01*
X148139Y110248D01*
X148334Y110228D01*
X149626Y110228D01*
X149821Y110248D01*
X150002Y110305D01*
X150167Y110394D01*
X150311Y110513D01*
X150429Y110656D01*
X150519Y110821D01*
X150576Y111003D01*
X150595Y111197D01*
X150595Y111828D01*
X148657Y111828D01*
X148657Y114089D01*
X152857Y114089D01*
X152857Y111197D01*
X152841Y110865D01*
X152791Y110543D01*
X152711Y110232D01*
X152602Y109933D01*
X152466Y109650D01*
X152304Y109382D01*
X152117Y109132D01*
X151908Y108901D01*
X151678Y108692D01*
X151429Y108505D01*
X151163Y108342D01*
X150881Y108205D01*
X150584Y108096D01*
X150275Y108016D01*
X149955Y107967D01*
X149626Y107950D01*
G37*
G36*
X137020Y107950D02*
X134759Y107950D01*
X134759Y111521D01*
X137602Y119259D01*
X139670Y119259D01*
X142514Y111521D01*
X142514Y107950D01*
X140252Y107950D01*
X140252Y109921D01*
X137020Y109921D01*
X137020Y107950D01*
G37*
%LPC*%
G36*
X139864Y112183D02*
X138636Y115527D01*
X137408Y112183D01*
X139864Y112183D01*
G37*
%LPD*%
G36*
X159647Y107950D02*
X158354Y107950D01*
X158025Y107967D01*
X157705Y108016D01*
X157396Y108096D01*
X157100Y108205D01*
X156817Y108341D01*
X156551Y108504D01*
X156302Y108690D01*
X156072Y108899D01*
X155863Y109129D01*
X155677Y109378D01*
X155514Y109644D01*
X155378Y109927D01*
X155269Y110223D01*
X155189Y110532D01*
X155140Y110852D01*
X155123Y111181D01*
X155123Y111747D01*
X157385Y111747D01*
X157385Y111181D01*
X157405Y110987D01*
X157461Y110805D01*
X157551Y110640D01*
X157670Y110497D01*
X157813Y110378D01*
X157978Y110288D01*
X158159Y110232D01*
X158354Y110212D01*
X159647Y110212D01*
X159846Y110231D01*
X160030Y110286D01*
X160195Y110374D01*
X160337Y110491D01*
X160454Y110633D01*
X160542Y110798D01*
X160597Y110982D01*
X160616Y111181D01*
X160616Y111504D01*
X160597Y111704D01*
X160542Y111888D01*
X160454Y112052D01*
X160337Y112195D01*
X160195Y112312D01*
X160030Y112400D01*
X159846Y112455D01*
X159647Y112474D01*
X158516Y112474D01*
X158516Y114736D01*
X159647Y114736D01*
X159846Y114755D01*
X160030Y114810D01*
X160195Y114898D01*
X160337Y115014D01*
X160454Y115157D01*
X160542Y115322D01*
X160597Y115506D01*
X160616Y115705D01*
X160616Y116028D01*
X160597Y116227D01*
X160542Y116411D01*
X160454Y116576D01*
X160337Y116719D01*
X160195Y116836D01*
X160030Y116923D01*
X159846Y116978D01*
X159647Y116998D01*
X158354Y116998D01*
X158159Y116978D01*
X157978Y116921D01*
X157813Y116831D01*
X157670Y116713D01*
X157551Y116569D01*
X157461Y116405D01*
X157405Y116223D01*
X157385Y116028D01*
X157385Y115463D01*
X155123Y115463D01*
X155123Y116028D01*
X155140Y116357D01*
X155189Y116677D01*
X155269Y116986D01*
X155378Y117283D01*
X155514Y117565D01*
X155677Y117832D01*
X155863Y118080D01*
X156072Y118310D01*
X156302Y118519D01*
X156551Y118706D01*
X156817Y118868D01*
X157100Y119004D01*
X157396Y119113D01*
X157705Y119193D01*
X158025Y119243D01*
X158354Y119259D01*
X159647Y119259D01*
X159979Y119243D01*
X160300Y119194D01*
X160611Y119115D01*
X160908Y119007D01*
X161191Y118871D01*
X161457Y118710D01*
X161706Y118524D01*
X161935Y118316D01*
X162143Y118087D01*
X162328Y117839D01*
X162490Y117572D01*
X162625Y117290D01*
X162733Y116992D01*
X162813Y116682D01*
X162861Y116360D01*
X162878Y116028D01*
X162878Y115705D01*
X162864Y115406D01*
X162825Y115116D01*
X162760Y114835D01*
X162672Y114564D01*
X162561Y114305D01*
X162428Y114058D01*
X162275Y113824D01*
X162102Y113605D01*
X162275Y113385D01*
X162428Y113152D01*
X162561Y112905D01*
X162672Y112645D01*
X162760Y112375D01*
X162825Y112094D01*
X162864Y111803D01*
X162878Y111504D01*
X162878Y111181D01*
X162861Y110849D01*
X162813Y110528D01*
X162733Y110217D01*
X162625Y109920D01*
X162490Y109637D01*
X162328Y109371D01*
X162143Y109122D01*
X161935Y108893D01*
X161706Y108685D01*
X161457Y108500D01*
X161191Y108338D01*
X160908Y108203D01*
X160611Y108095D01*
X160300Y108015D01*
X159979Y107967D01*
X159647Y107950D01*
G37*
G36*
X-93424Y203200D02*
X-97947Y203200D01*
X-97947Y214509D01*
X-93424Y214509D01*
X-93094Y214493D01*
X-92775Y214443D01*
X-92465Y214363D01*
X-92169Y214254D01*
X-91887Y214118D01*
X-91620Y213956D01*
X-91371Y213769D01*
X-91142Y213560D01*
X-90933Y213330D01*
X-90746Y213082D01*
X-90584Y212815D01*
X-90447Y212533D01*
X-90338Y212236D01*
X-90258Y211927D01*
X-90209Y211607D01*
X-90192Y211278D01*
X-90192Y206447D01*
X-90209Y206118D01*
X-90258Y205798D01*
X-90338Y205488D01*
X-90447Y205190D01*
X-90584Y204907D01*
X-90746Y204639D01*
X-90933Y204389D01*
X-91142Y204157D01*
X-91371Y203947D01*
X-91620Y203759D01*
X-91887Y203595D01*
X-92169Y203457D01*
X-92465Y203347D01*
X-92775Y203267D01*
X-93094Y203217D01*
X-93424Y203200D01*
G37*
%LPC*%
G36*
X-93424Y205478D02*
X-93229Y205498D01*
X-93047Y205555D01*
X-92883Y205644D01*
X-92739Y205763D01*
X-92620Y205906D01*
X-92531Y206071D01*
X-92474Y206253D01*
X-92454Y206447D01*
X-92454Y211278D01*
X-92473Y211473D01*
X-92528Y211655D01*
X-92616Y211819D01*
X-92733Y211963D01*
X-92876Y212081D01*
X-93040Y212171D01*
X-93146Y212204D01*
X-93224Y212228D01*
X-93424Y212248D01*
X-95685Y212248D01*
X-95685Y205478D01*
X-93424Y205478D01*
G37*
%LPD*%
G36*
X-79880Y203200D02*
X-87635Y203200D01*
X-87635Y205462D01*
X-84888Y205462D01*
X-84888Y211747D01*
X-87635Y210131D01*
X-87635Y212748D01*
X-84646Y214509D01*
X-82626Y214509D01*
X-82626Y205462D01*
X-79880Y205462D01*
X-79880Y203200D01*
G37*
G36*
X-212804Y82550D02*
X-217327Y82550D01*
X-217327Y93859D01*
X-212804Y93859D01*
X-212474Y93843D01*
X-212155Y93793D01*
X-211845Y93713D01*
X-211549Y93604D01*
X-211267Y93468D01*
X-211000Y93306D01*
X-210751Y93119D01*
X-210522Y92910D01*
X-210313Y92680D01*
X-210126Y92432D01*
X-209964Y92165D01*
X-209827Y91883D01*
X-209718Y91586D01*
X-209638Y91277D01*
X-209589Y90957D01*
X-209572Y90628D01*
X-209572Y85797D01*
X-209589Y85468D01*
X-209638Y85148D01*
X-209718Y84838D01*
X-209827Y84540D01*
X-209964Y84257D01*
X-210126Y83989D01*
X-210313Y83739D01*
X-210522Y83507D01*
X-210751Y83297D01*
X-211000Y83109D01*
X-211267Y82945D01*
X-211549Y82807D01*
X-211845Y82697D01*
X-212155Y82617D01*
X-212474Y82567D01*
X-212804Y82550D01*
G37*
%LPC*%
G36*
X-212804Y84828D02*
X-212609Y84848D01*
X-212427Y84905D01*
X-212263Y84994D01*
X-212119Y85113D01*
X-212000Y85256D01*
X-211911Y85421D01*
X-211854Y85603D01*
X-211834Y85797D01*
X-211834Y90628D01*
X-211853Y90823D01*
X-211908Y91005D01*
X-211996Y91169D01*
X-212113Y91313D01*
X-212256Y91431D01*
X-212420Y91521D01*
X-212526Y91554D01*
X-212604Y91578D01*
X-212804Y91598D01*
X-215065Y91598D01*
X-215065Y84828D01*
X-212804Y84828D01*
G37*
%LPD*%
G36*
X-199260Y82550D02*
X-207015Y82550D01*
X-207015Y86638D01*
X-201522Y89723D01*
X-201522Y90628D01*
X-201541Y90827D01*
X-201596Y91011D01*
X-201684Y91176D01*
X-201800Y91319D01*
X-201943Y91436D01*
X-202108Y91523D01*
X-202292Y91578D01*
X-202491Y91598D01*
X-203784Y91598D01*
X-203978Y91578D01*
X-204160Y91521D01*
X-204325Y91431D01*
X-204468Y91313D01*
X-204587Y91169D01*
X-204677Y91005D01*
X-204733Y90823D01*
X-204753Y90628D01*
X-204753Y89740D01*
X-207015Y89740D01*
X-207015Y90628D01*
X-206998Y90957D01*
X-206949Y91277D01*
X-206869Y91586D01*
X-206760Y91883D01*
X-206623Y92165D01*
X-206461Y92432D01*
X-206275Y92680D01*
X-206066Y92910D01*
X-205836Y93119D01*
X-205587Y93306D01*
X-205321Y93468D01*
X-205038Y93604D01*
X-204742Y93713D01*
X-204433Y93793D01*
X-204113Y93843D01*
X-203784Y93859D01*
X-202491Y93859D01*
X-202159Y93843D01*
X-201837Y93794D01*
X-201527Y93715D01*
X-201230Y93607D01*
X-200947Y93471D01*
X-200681Y93310D01*
X-200432Y93124D01*
X-200203Y92916D01*
X-199995Y92687D01*
X-199809Y92439D01*
X-199648Y92172D01*
X-199513Y91890D01*
X-199404Y91592D01*
X-199325Y91282D01*
X-199276Y90960D01*
X-199260Y90628D01*
X-199260Y88382D01*
X-204753Y85297D01*
X-204753Y84812D01*
X-199260Y84812D01*
X-199260Y82550D01*
G37*
G36*
X-213750Y-91440D02*
X-218274Y-91440D01*
X-218274Y-80131D01*
X-213750Y-80131D01*
X-213421Y-80147D01*
X-213101Y-80197D01*
X-212792Y-80277D01*
X-212496Y-80386D01*
X-212213Y-80522D01*
X-211947Y-80684D01*
X-211698Y-80871D01*
X-211468Y-81080D01*
X-211259Y-81310D01*
X-211073Y-81559D01*
X-210911Y-81825D01*
X-210774Y-82107D01*
X-210665Y-82404D01*
X-210585Y-82713D01*
X-210536Y-83033D01*
X-210519Y-83362D01*
X-210519Y-88193D01*
X-210536Y-88522D01*
X-210585Y-88842D01*
X-210665Y-89152D01*
X-210774Y-89450D01*
X-210911Y-89733D01*
X-211073Y-90001D01*
X-211259Y-90252D01*
X-211468Y-90483D01*
X-211698Y-90693D01*
X-211947Y-90881D01*
X-212213Y-91045D01*
X-212496Y-91183D01*
X-212792Y-91293D01*
X-213101Y-91373D01*
X-213421Y-91423D01*
X-213750Y-91440D01*
G37*
%LPC*%
G36*
X-213750Y-89162D02*
X-213556Y-89142D01*
X-213374Y-89086D01*
X-213209Y-88996D01*
X-213066Y-88877D01*
X-212947Y-88734D01*
X-212857Y-88569D01*
X-212801Y-88387D01*
X-212781Y-88193D01*
X-212781Y-83362D01*
X-212800Y-83167D01*
X-212855Y-82986D01*
X-212943Y-82821D01*
X-213060Y-82677D01*
X-213202Y-82559D01*
X-213367Y-82469D01*
X-213473Y-82436D01*
X-213551Y-82412D01*
X-213750Y-82393D01*
X-216012Y-82393D01*
X-216012Y-89162D01*
X-213750Y-89162D01*
G37*
%LPD*%
G36*
X-203761Y-91440D02*
X-205053Y-91440D01*
X-205383Y-91423D01*
X-205703Y-91374D01*
X-206012Y-91294D01*
X-206308Y-91185D01*
X-206590Y-91049D01*
X-206857Y-90886D01*
X-207106Y-90700D01*
X-207336Y-90491D01*
X-207545Y-90261D01*
X-207731Y-90012D01*
X-207893Y-89746D01*
X-208030Y-89463D01*
X-208139Y-89167D01*
X-208219Y-88858D01*
X-208268Y-88538D01*
X-208285Y-88209D01*
X-208285Y-87643D01*
X-206023Y-87643D01*
X-206023Y-88209D01*
X-206003Y-88404D01*
X-205946Y-88585D01*
X-205857Y-88750D01*
X-205738Y-88893D01*
X-205595Y-89012D01*
X-205430Y-89102D01*
X-205248Y-89158D01*
X-205053Y-89178D01*
X-203761Y-89178D01*
X-203562Y-89159D01*
X-203378Y-89104D01*
X-203213Y-89016D01*
X-203070Y-88899D01*
X-202954Y-88757D01*
X-202866Y-88592D01*
X-202811Y-88408D01*
X-202792Y-88209D01*
X-202792Y-87886D01*
X-202811Y-87686D01*
X-202866Y-87502D01*
X-202954Y-87338D01*
X-203070Y-87195D01*
X-203213Y-87078D01*
X-203378Y-86990D01*
X-203562Y-86935D01*
X-203761Y-86916D01*
X-204892Y-86916D01*
X-204892Y-84654D01*
X-203761Y-84654D01*
X-203562Y-84635D01*
X-203378Y-84580D01*
X-203213Y-84493D01*
X-203070Y-84376D01*
X-202954Y-84233D01*
X-202866Y-84068D01*
X-202811Y-83884D01*
X-202792Y-83685D01*
X-202792Y-83362D01*
X-202811Y-83163D01*
X-202866Y-82979D01*
X-202954Y-82814D01*
X-203070Y-82671D01*
X-203213Y-82554D01*
X-203378Y-82467D01*
X-203562Y-82412D01*
X-203761Y-82393D01*
X-205053Y-82393D01*
X-205248Y-82412D01*
X-205430Y-82469D01*
X-205595Y-82559D01*
X-205738Y-82677D01*
X-205857Y-82821D01*
X-205946Y-82986D01*
X-206003Y-83167D01*
X-206023Y-83362D01*
X-206023Y-83927D01*
X-208285Y-83927D01*
X-208285Y-83362D01*
X-208268Y-83033D01*
X-208219Y-82713D01*
X-208139Y-82404D01*
X-208030Y-82107D01*
X-207893Y-81825D01*
X-207731Y-81559D01*
X-207545Y-81310D01*
X-207336Y-81080D01*
X-207106Y-80871D01*
X-206857Y-80684D01*
X-206590Y-80522D01*
X-206308Y-80386D01*
X-206012Y-80277D01*
X-205703Y-80197D01*
X-205383Y-80147D01*
X-205053Y-80131D01*
X-203761Y-80131D01*
X-203429Y-80147D01*
X-203107Y-80196D01*
X-202797Y-80275D01*
X-202500Y-80383D01*
X-202217Y-80519D01*
X-201951Y-80680D01*
X-201702Y-80866D01*
X-201473Y-81074D01*
X-201265Y-81303D01*
X-201079Y-81551D01*
X-200918Y-81818D01*
X-200782Y-82100D01*
X-200674Y-82398D01*
X-200595Y-82708D01*
X-200546Y-83030D01*
X-200530Y-83362D01*
X-200530Y-83685D01*
X-200543Y-83984D01*
X-200583Y-84274D01*
X-200647Y-84555D01*
X-200736Y-84826D01*
X-200847Y-85085D01*
X-200980Y-85332D01*
X-201133Y-85566D01*
X-201305Y-85785D01*
X-201133Y-86005D01*
X-200980Y-86238D01*
X-200847Y-86485D01*
X-200736Y-86745D01*
X-200647Y-87015D01*
X-200583Y-87296D01*
X-200543Y-87587D01*
X-200530Y-87886D01*
X-200530Y-88209D01*
X-200546Y-88541D01*
X-200595Y-88863D01*
X-200674Y-89173D01*
X-200782Y-89470D01*
X-200918Y-89753D01*
X-201079Y-90019D01*
X-201265Y-90268D01*
X-201473Y-90497D01*
X-201702Y-90705D01*
X-201951Y-90890D01*
X-202217Y-91052D01*
X-202500Y-91187D01*
X-202797Y-91296D01*
X-203107Y-91375D01*
X-203429Y-91423D01*
X-203761Y-91440D01*
G37*
G36*
X-93624Y-215900D02*
X-98147Y-215900D01*
X-98147Y-204591D01*
X-93624Y-204591D01*
X-93294Y-204607D01*
X-92974Y-204657D01*
X-92665Y-204737D01*
X-92369Y-204846D01*
X-92087Y-204982D01*
X-91820Y-205144D01*
X-91571Y-205331D01*
X-91341Y-205540D01*
X-91133Y-205770D01*
X-90946Y-206019D01*
X-90784Y-206285D01*
X-90647Y-206567D01*
X-90538Y-206864D01*
X-90458Y-207173D01*
X-90409Y-207493D01*
X-90392Y-207822D01*
X-90392Y-212653D01*
X-90409Y-212982D01*
X-90458Y-213302D01*
X-90538Y-213612D01*
X-90647Y-213910D01*
X-90784Y-214193D01*
X-90946Y-214461D01*
X-91133Y-214712D01*
X-91341Y-214943D01*
X-91571Y-215153D01*
X-91820Y-215341D01*
X-92087Y-215505D01*
X-92369Y-215643D01*
X-92665Y-215753D01*
X-92974Y-215833D01*
X-93294Y-215883D01*
X-93624Y-215900D01*
G37*
%LPC*%
G36*
X-93624Y-213622D02*
X-93429Y-213602D01*
X-93247Y-213546D01*
X-93083Y-213456D01*
X-92939Y-213337D01*
X-92820Y-213194D01*
X-92731Y-213029D01*
X-92674Y-212847D01*
X-92654Y-212653D01*
X-92654Y-207822D01*
X-92673Y-207627D01*
X-92728Y-207446D01*
X-92816Y-207281D01*
X-92933Y-207137D01*
X-93075Y-207019D01*
X-93240Y-206929D01*
X-93346Y-206896D01*
X-93424Y-206872D01*
X-93624Y-206853D01*
X-95885Y-206853D01*
X-95885Y-213622D01*
X-93624Y-213622D01*
G37*
%LPD*%
G36*
X-81534Y-215900D02*
X-83796Y-215900D01*
X-83796Y-211538D01*
X-87835Y-211538D01*
X-87835Y-204591D01*
X-85573Y-204591D01*
X-85573Y-209276D01*
X-83796Y-209276D01*
X-83796Y-205560D01*
X-81534Y-205560D01*
X-81534Y-209276D01*
X-80080Y-209276D01*
X-80080Y-211538D01*
X-81534Y-211538D01*
X-81534Y-215900D01*
G37*
G36*
X80907Y-215900D02*
X76383Y-215900D01*
X76383Y-204591D01*
X80907Y-204591D01*
X81236Y-204607D01*
X81556Y-204657D01*
X81865Y-204737D01*
X82162Y-204846D01*
X82444Y-204982D01*
X82710Y-205144D01*
X82959Y-205331D01*
X83189Y-205540D01*
X83398Y-205770D01*
X83585Y-206019D01*
X83747Y-206285D01*
X83883Y-206567D01*
X83992Y-206864D01*
X84072Y-207173D01*
X84122Y-207493D01*
X84138Y-207822D01*
X84138Y-212653D01*
X84122Y-212982D01*
X84072Y-213302D01*
X83992Y-213612D01*
X83883Y-213910D01*
X83747Y-214193D01*
X83585Y-214461D01*
X83398Y-214712D01*
X83189Y-214943D01*
X82959Y-215153D01*
X82710Y-215341D01*
X82444Y-215505D01*
X82162Y-215643D01*
X81865Y-215753D01*
X81556Y-215833D01*
X81236Y-215883D01*
X80907Y-215900D01*
G37*
%LPC*%
G36*
X80907Y-213622D02*
X81102Y-213602D01*
X81283Y-213546D01*
X81448Y-213456D01*
X81592Y-213337D01*
X81710Y-213194D01*
X81800Y-213029D01*
X81857Y-212847D01*
X81876Y-212653D01*
X81876Y-207822D01*
X81857Y-207627D01*
X81802Y-207446D01*
X81715Y-207281D01*
X81598Y-207137D01*
X81455Y-207019D01*
X81290Y-206929D01*
X81184Y-206896D01*
X81106Y-206872D01*
X80907Y-206853D01*
X78645Y-206853D01*
X78645Y-213622D01*
X80907Y-213622D01*
G37*
%LPD*%
G36*
X91220Y-215900D02*
X89927Y-215900D01*
X89598Y-215883D01*
X89278Y-215834D01*
X88969Y-215754D01*
X88672Y-215645D01*
X88390Y-215509D01*
X88124Y-215346D01*
X87875Y-215160D01*
X87645Y-214951D01*
X87436Y-214721D01*
X87250Y-214472D01*
X87087Y-214206D01*
X86951Y-213923D01*
X86842Y-213627D01*
X86762Y-213318D01*
X86713Y-212998D01*
X86696Y-212669D01*
X86696Y-212507D01*
X88958Y-212507D01*
X88958Y-212669D01*
X88978Y-212864D01*
X89034Y-213045D01*
X89124Y-213210D01*
X89242Y-213353D01*
X89386Y-213472D01*
X89551Y-213562D01*
X89732Y-213618D01*
X89927Y-213638D01*
X91220Y-213638D01*
X91419Y-213619D01*
X91603Y-213564D01*
X91768Y-213476D01*
X91910Y-213359D01*
X92027Y-213217D01*
X92115Y-213052D01*
X92170Y-212868D01*
X92189Y-212669D01*
X92189Y-210989D01*
X92169Y-210794D01*
X92112Y-210612D01*
X92023Y-210448D01*
X91904Y-210304D01*
X91761Y-210185D01*
X91596Y-210096D01*
X91414Y-210039D01*
X91220Y-210019D01*
X90800Y-210019D01*
X88958Y-211263D01*
X86696Y-211263D01*
X86696Y-204591D01*
X93320Y-204591D01*
X93320Y-206853D01*
X88958Y-206853D01*
X88958Y-208517D01*
X90105Y-207757D01*
X91220Y-207757D01*
X91549Y-207774D01*
X91869Y-207823D01*
X92178Y-207903D01*
X92474Y-208012D01*
X92757Y-208149D01*
X93023Y-208311D01*
X93272Y-208498D01*
X93502Y-208706D01*
X93711Y-208936D01*
X93897Y-209185D01*
X94059Y-209452D01*
X94196Y-209734D01*
X94305Y-210030D01*
X94385Y-210339D01*
X94434Y-210659D01*
X94451Y-210989D01*
X94451Y-212669D01*
X94434Y-213001D01*
X94386Y-213323D01*
X94306Y-213633D01*
X94198Y-213930D01*
X94063Y-214213D01*
X93901Y-214479D01*
X93716Y-214728D01*
X93508Y-214957D01*
X93279Y-215165D01*
X93030Y-215350D01*
X92764Y-215512D01*
X92481Y-215647D01*
X92184Y-215756D01*
X91873Y-215835D01*
X91551Y-215883D01*
X91220Y-215900D01*
G37*
G36*
X201216Y-92710D02*
X196693Y-92710D01*
X196693Y-81401D01*
X201216Y-81401D01*
X201546Y-81417D01*
X201865Y-81467D01*
X202175Y-81547D01*
X202471Y-81656D01*
X202753Y-81792D01*
X203020Y-81954D01*
X203269Y-82141D01*
X203498Y-82350D01*
X203707Y-82580D01*
X203894Y-82829D01*
X204056Y-83095D01*
X204193Y-83377D01*
X204302Y-83674D01*
X204382Y-83983D01*
X204431Y-84303D01*
X204448Y-84632D01*
X204448Y-89463D01*
X204431Y-89792D01*
X204382Y-90112D01*
X204302Y-90422D01*
X204193Y-90720D01*
X204056Y-91003D01*
X203894Y-91271D01*
X203707Y-91522D01*
X203498Y-91753D01*
X203269Y-91963D01*
X203020Y-92151D01*
X202753Y-92315D01*
X202471Y-92453D01*
X202175Y-92563D01*
X201865Y-92643D01*
X201546Y-92693D01*
X201216Y-92710D01*
G37*
%LPC*%
G36*
X201216Y-90432D02*
X201411Y-90412D01*
X201593Y-90356D01*
X201757Y-90266D01*
X201901Y-90147D01*
X202020Y-90004D01*
X202109Y-89839D01*
X202166Y-89657D01*
X202186Y-89463D01*
X202186Y-84632D01*
X202167Y-84437D01*
X202112Y-84256D01*
X202024Y-84091D01*
X201907Y-83947D01*
X201765Y-83829D01*
X201600Y-83739D01*
X201494Y-83706D01*
X201416Y-83682D01*
X201216Y-83663D01*
X198955Y-83663D01*
X198955Y-90432D01*
X201216Y-90432D01*
G37*
%LPD*%
G36*
X211529Y-92710D02*
X210236Y-92710D01*
X209907Y-92693D01*
X209587Y-92644D01*
X209278Y-92564D01*
X208982Y-92455D01*
X208699Y-92319D01*
X208433Y-92156D01*
X208184Y-91970D01*
X207954Y-91761D01*
X207745Y-91531D01*
X207559Y-91282D01*
X207397Y-91016D01*
X207260Y-90733D01*
X207151Y-90437D01*
X207071Y-90128D01*
X207022Y-89808D01*
X207005Y-89479D01*
X207005Y-84632D01*
X207022Y-84300D01*
X207070Y-83978D01*
X207150Y-83668D01*
X207258Y-83370D01*
X207393Y-83088D01*
X207555Y-82821D01*
X207740Y-82573D01*
X207948Y-82344D01*
X208177Y-82136D01*
X208426Y-81950D01*
X208692Y-81789D01*
X208975Y-81653D01*
X209272Y-81545D01*
X209583Y-81466D01*
X209905Y-81417D01*
X210236Y-81401D01*
X211529Y-81401D01*
X211861Y-81417D01*
X212183Y-81466D01*
X212493Y-81545D01*
X212790Y-81653D01*
X213073Y-81789D01*
X213339Y-81950D01*
X213588Y-82136D01*
X213817Y-82344D01*
X214025Y-82573D01*
X214211Y-82821D01*
X214372Y-83088D01*
X214507Y-83370D01*
X214616Y-83668D01*
X214695Y-83978D01*
X214744Y-84300D01*
X214760Y-84632D01*
X214760Y-84955D01*
X212498Y-84955D01*
X212498Y-84632D01*
X212479Y-84433D01*
X212424Y-84249D01*
X212336Y-84084D01*
X212220Y-83941D01*
X212077Y-83824D01*
X211912Y-83737D01*
X211728Y-83682D01*
X211529Y-83663D01*
X210236Y-83663D01*
X210037Y-83682D01*
X209853Y-83737D01*
X209688Y-83824D01*
X209546Y-83941D01*
X209429Y-84084D01*
X209341Y-84249D01*
X209286Y-84433D01*
X209267Y-84632D01*
X209267Y-85973D01*
X210414Y-85214D01*
X211529Y-85214D01*
X211858Y-85230D01*
X212178Y-85279D01*
X212487Y-85359D01*
X212784Y-85468D01*
X213066Y-85605D01*
X213332Y-85767D01*
X213453Y-85858D01*
X213581Y-85954D01*
X213811Y-86163D01*
X214020Y-86392D01*
X214206Y-86641D01*
X214369Y-86908D01*
X214505Y-87190D01*
X214614Y-87487D01*
X214694Y-87796D01*
X214743Y-88116D01*
X214760Y-88445D01*
X214760Y-89479D01*
X214744Y-89811D01*
X214695Y-90133D01*
X214616Y-90443D01*
X214507Y-90740D01*
X214372Y-91023D01*
X214211Y-91289D01*
X214025Y-91538D01*
X213817Y-91767D01*
X213588Y-91975D01*
X213339Y-92160D01*
X213073Y-92322D01*
X212790Y-92457D01*
X212493Y-92566D01*
X212183Y-92645D01*
X211861Y-92693D01*
X211529Y-92710D01*
G37*
%LPC*%
G36*
X211529Y-90448D02*
X211728Y-90429D01*
X211912Y-90374D01*
X212077Y-90286D01*
X212220Y-90169D01*
X212336Y-90027D01*
X212424Y-89862D01*
X212479Y-89678D01*
X212498Y-89479D01*
X212498Y-88445D01*
X212478Y-88250D01*
X212422Y-88068D01*
X212332Y-87904D01*
X212214Y-87760D01*
X212070Y-87642D01*
X211905Y-87552D01*
X211724Y-87495D01*
X211529Y-87475D01*
X211109Y-87475D01*
X209267Y-88719D01*
X209267Y-89479D01*
X209287Y-89674D01*
X209344Y-89855D01*
X209433Y-90020D01*
X209552Y-90163D01*
X209695Y-90282D01*
X209860Y-90372D01*
X210042Y-90428D01*
X210236Y-90448D01*
X211529Y-90448D01*
G37*
%LPD*%
G36*
X292543Y-6350D02*
X291461Y-6350D01*
X291120Y-6333D01*
X290789Y-6283D01*
X290470Y-6201D01*
X290164Y-6089D01*
X289873Y-5949D01*
X289598Y-5783D01*
X289342Y-5591D01*
X289106Y-5377D01*
X288891Y-5140D01*
X288700Y-4884D01*
X288534Y-4610D01*
X288394Y-4319D01*
X288282Y-4013D01*
X288200Y-3694D01*
X288150Y-3363D01*
X288133Y-3022D01*
X288133Y-2537D01*
X290395Y-2537D01*
X290395Y-3022D01*
X290416Y-3235D01*
X290479Y-3434D01*
X290579Y-3615D01*
X290710Y-3773D01*
X290868Y-3904D01*
X291049Y-4003D01*
X291248Y-4066D01*
X291461Y-4088D01*
X292543Y-4088D01*
X292780Y-4070D01*
X292992Y-4019D01*
X293177Y-3938D01*
X293333Y-3830D01*
X293458Y-3697D01*
X293550Y-3543D01*
X293606Y-3371D01*
X293626Y-3183D01*
X293610Y-3017D01*
X293566Y-2861D01*
X293494Y-2713D01*
X293397Y-2574D01*
X293276Y-2441D01*
X293134Y-2314D01*
X292793Y-2074D01*
X292389Y-1847D01*
X291939Y-1625D01*
X290960Y-1166D01*
X290463Y-914D01*
X289981Y-638D01*
X289531Y-330D01*
X289322Y-162D01*
X289127Y18D01*
X288948Y209D01*
X288786Y413D01*
X288644Y630D01*
X288523Y862D01*
X288426Y1110D01*
X288354Y1374D01*
X288310Y1655D01*
X288294Y1954D01*
X288310Y2278D01*
X288358Y2589D01*
X288437Y2886D01*
X288544Y3167D01*
X288679Y3432D01*
X288840Y3679D01*
X289027Y3908D01*
X289237Y4117D01*
X289470Y4306D01*
X289724Y4473D01*
X289999Y4617D01*
X290291Y4737D01*
X290601Y4833D01*
X290927Y4902D01*
X291268Y4945D01*
X291622Y4959D01*
X292382Y4959D01*
X292723Y4942D01*
X293054Y4892D01*
X293374Y4810D01*
X293681Y4698D01*
X293974Y4558D01*
X294249Y4392D01*
X294507Y4201D01*
X294745Y3986D01*
X294961Y3750D01*
X295154Y3494D01*
X295321Y3219D01*
X295463Y2928D01*
X295575Y2622D01*
X295658Y2303D01*
X295709Y1972D01*
X295726Y1631D01*
X295726Y1308D01*
X293464Y1308D01*
X293464Y1631D01*
X293442Y1844D01*
X293379Y2043D01*
X293279Y2224D01*
X293147Y2382D01*
X292987Y2513D01*
X292803Y2613D01*
X292600Y2676D01*
X292382Y2698D01*
X291622Y2698D01*
X291372Y2684D01*
X291156Y2645D01*
X290973Y2582D01*
X290823Y2496D01*
X290706Y2388D01*
X290623Y2261D01*
X290573Y2116D01*
X290556Y1954D01*
X290571Y1851D01*
X290616Y1751D01*
X290688Y1652D01*
X290785Y1555D01*
X291048Y1361D01*
X291389Y1165D01*
X292243Y746D01*
X293222Y258D01*
X293719Y-25D01*
X294201Y-339D01*
X294651Y-691D01*
X294860Y-883D01*
X295055Y-1086D01*
X295234Y-1300D01*
X295396Y-1527D01*
X295538Y-1767D01*
X295659Y-2020D01*
X295756Y-2288D01*
X295828Y-2571D01*
X295872Y-2869D01*
X295888Y-3183D01*
X295871Y-3515D01*
X295821Y-3834D01*
X295741Y-4142D01*
X295631Y-4435D01*
X295493Y-4713D01*
X295328Y-4973D01*
X295138Y-5216D01*
X294924Y-5439D01*
X294689Y-5641D01*
X294432Y-5821D01*
X294157Y-5977D01*
X293863Y-6107D01*
X293554Y-6211D01*
X293230Y-6288D01*
X292892Y-6334D01*
X292543Y-6350D01*
G37*
G36*
X306200Y-6350D02*
X298445Y-6350D01*
X298445Y-4088D01*
X301192Y-4088D01*
X301192Y2197D01*
X298445Y581D01*
X298445Y3198D01*
X301434Y4959D01*
X303454Y4959D01*
X303454Y-4088D01*
X306200Y-4088D01*
X306200Y-6350D01*
G37*
G36*
X-286330Y-6350D02*
X-294085Y-6350D01*
X-294085Y-2262D01*
X-288592Y823D01*
X-288592Y1728D01*
X-288611Y1927D01*
X-288666Y2111D01*
X-288754Y2276D01*
X-288870Y2419D01*
X-289013Y2536D01*
X-289178Y2623D01*
X-289362Y2678D01*
X-289561Y2698D01*
X-290854Y2698D01*
X-291048Y2678D01*
X-291230Y2621D01*
X-291395Y2531D01*
X-291538Y2413D01*
X-291657Y2269D01*
X-291747Y2105D01*
X-291803Y1923D01*
X-291823Y1728D01*
X-291823Y840D01*
X-294085Y840D01*
X-294085Y1728D01*
X-294068Y2057D01*
X-294019Y2377D01*
X-293939Y2686D01*
X-293830Y2983D01*
X-293693Y3265D01*
X-293531Y3532D01*
X-293345Y3780D01*
X-293136Y4010D01*
X-292906Y4219D01*
X-292657Y4406D01*
X-292391Y4568D01*
X-292108Y4704D01*
X-291812Y4813D01*
X-291503Y4893D01*
X-291183Y4943D01*
X-290854Y4959D01*
X-289561Y4959D01*
X-289229Y4943D01*
X-288907Y4894D01*
X-288597Y4815D01*
X-288300Y4707D01*
X-288017Y4571D01*
X-287751Y4410D01*
X-287502Y4224D01*
X-287273Y4016D01*
X-287065Y3787D01*
X-286879Y3539D01*
X-286718Y3272D01*
X-286583Y2990D01*
X-286474Y2692D01*
X-286395Y2382D01*
X-286346Y2060D01*
X-286330Y1728D01*
X-286330Y-518D01*
X-291823Y-3603D01*
X-291823Y-4088D01*
X-286330Y-4088D01*
X-286330Y-6350D01*
G37*
G36*
X-299987Y-6350D02*
X-301069Y-6350D01*
X-301410Y-6333D01*
X-301741Y-6283D01*
X-302060Y-6201D01*
X-302366Y-6089D01*
X-302657Y-5949D01*
X-302932Y-5783D01*
X-303188Y-5591D01*
X-303424Y-5377D01*
X-303639Y-5140D01*
X-303830Y-4884D01*
X-303996Y-4610D01*
X-304136Y-4319D01*
X-304248Y-4013D01*
X-304330Y-3694D01*
X-304380Y-3363D01*
X-304397Y-3022D01*
X-304397Y-2537D01*
X-302135Y-2537D01*
X-302135Y-3022D01*
X-302114Y-3235D01*
X-302051Y-3434D01*
X-301951Y-3615D01*
X-301820Y-3773D01*
X-301662Y-3904D01*
X-301481Y-4003D01*
X-301282Y-4066D01*
X-301069Y-4088D01*
X-299987Y-4088D01*
X-299750Y-4070D01*
X-299538Y-4019D01*
X-299353Y-3938D01*
X-299197Y-3830D01*
X-299072Y-3697D01*
X-298980Y-3543D01*
X-298924Y-3371D01*
X-298904Y-3183D01*
X-298920Y-3017D01*
X-298964Y-2861D01*
X-299036Y-2713D01*
X-299133Y-2574D01*
X-299254Y-2441D01*
X-299396Y-2314D01*
X-299737Y-2074D01*
X-300141Y-1847D01*
X-300591Y-1625D01*
X-301570Y-1166D01*
X-302067Y-914D01*
X-302549Y-638D01*
X-302999Y-330D01*
X-303208Y-162D01*
X-303403Y18D01*
X-303582Y209D01*
X-303744Y413D01*
X-303886Y630D01*
X-304007Y862D01*
X-304104Y1110D01*
X-304176Y1374D01*
X-304221Y1655D01*
X-304236Y1954D01*
X-304220Y2278D01*
X-304172Y2589D01*
X-304093Y2886D01*
X-303986Y3167D01*
X-303851Y3432D01*
X-303690Y3679D01*
X-303503Y3908D01*
X-303293Y4117D01*
X-303060Y4306D01*
X-302806Y4473D01*
X-302531Y4617D01*
X-302239Y4737D01*
X-301929Y4833D01*
X-301603Y4902D01*
X-301262Y4945D01*
X-300908Y4959D01*
X-300148Y4959D01*
X-299807Y4942D01*
X-299476Y4892D01*
X-299156Y4810D01*
X-298849Y4698D01*
X-298556Y4558D01*
X-298281Y4392D01*
X-298023Y4201D01*
X-297785Y3986D01*
X-297569Y3750D01*
X-297376Y3494D01*
X-297209Y3219D01*
X-297067Y2928D01*
X-296955Y2622D01*
X-296872Y2303D01*
X-296821Y1972D01*
X-296804Y1631D01*
X-296804Y1308D01*
X-299066Y1308D01*
X-299066Y1631D01*
X-299088Y1844D01*
X-299151Y2043D01*
X-299251Y2224D01*
X-299383Y2382D01*
X-299543Y2513D01*
X-299727Y2613D01*
X-299930Y2676D01*
X-300148Y2698D01*
X-300908Y2698D01*
X-301158Y2684D01*
X-301374Y2645D01*
X-301557Y2582D01*
X-301707Y2496D01*
X-301824Y2388D01*
X-301907Y2261D01*
X-301957Y2116D01*
X-301974Y1954D01*
X-301959Y1851D01*
X-301914Y1751D01*
X-301842Y1652D01*
X-301745Y1555D01*
X-301482Y1361D01*
X-301141Y1165D01*
X-300287Y746D01*
X-299308Y258D01*
X-298811Y-25D01*
X-298329Y-339D01*
X-297879Y-691D01*
X-297670Y-883D01*
X-297475Y-1086D01*
X-297296Y-1300D01*
X-297134Y-1527D01*
X-296992Y-1767D01*
X-296871Y-2020D01*
X-296774Y-2288D01*
X-296702Y-2571D01*
X-296658Y-2869D01*
X-296642Y-3183D01*
X-296659Y-3515D01*
X-296709Y-3834D01*
X-296789Y-4142D01*
X-296899Y-4435D01*
X-297037Y-4713D01*
X-297202Y-4973D01*
X-297392Y-5216D01*
X-297606Y-5439D01*
X-297841Y-5641D01*
X-298098Y-5821D01*
X-298373Y-5977D01*
X-298667Y-6107D01*
X-298976Y-6211D01*
X-299300Y-6288D01*
X-299638Y-6334D01*
X-299987Y-6350D01*
G37*
G36*
X201216Y82550D02*
X196693Y82550D01*
X196693Y93859D01*
X201216Y93859D01*
X201546Y93843D01*
X201865Y93793D01*
X202175Y93713D01*
X202471Y93604D01*
X202753Y93468D01*
X203020Y93306D01*
X203269Y93119D01*
X203498Y92910D01*
X203707Y92680D01*
X203894Y92432D01*
X204056Y92165D01*
X204193Y91883D01*
X204302Y91586D01*
X204382Y91277D01*
X204431Y90957D01*
X204448Y90628D01*
X204448Y85797D01*
X204431Y85468D01*
X204382Y85148D01*
X204302Y84838D01*
X204193Y84540D01*
X204056Y84257D01*
X203894Y83989D01*
X203707Y83739D01*
X203498Y83507D01*
X203269Y83297D01*
X203020Y83109D01*
X202753Y82945D01*
X202471Y82807D01*
X202175Y82697D01*
X201865Y82617D01*
X201546Y82567D01*
X201216Y82550D01*
G37*
%LPC*%
G36*
X201216Y84828D02*
X201411Y84848D01*
X201593Y84905D01*
X201757Y84994D01*
X201901Y85113D01*
X202020Y85256D01*
X202109Y85421D01*
X202166Y85603D01*
X202186Y85797D01*
X202186Y90628D01*
X202167Y90823D01*
X202112Y91005D01*
X202024Y91169D01*
X201907Y91313D01*
X201765Y91431D01*
X201600Y91521D01*
X201494Y91554D01*
X201416Y91578D01*
X201216Y91598D01*
X198955Y91598D01*
X198955Y84828D01*
X201216Y84828D01*
G37*
%LPD*%
G36*
X209913Y82550D02*
X207651Y82550D01*
X207651Y85684D01*
X212498Y90693D01*
X212498Y91598D01*
X209267Y91598D01*
X209267Y90305D01*
X207005Y90305D01*
X207005Y93859D01*
X214760Y93859D01*
X214760Y89788D01*
X209913Y84780D01*
X209913Y82550D01*
G37*
G36*
X84376Y203200D02*
X79853Y203200D01*
X79853Y214509D01*
X84376Y214509D01*
X84706Y214493D01*
X85025Y214443D01*
X85335Y214363D01*
X85631Y214254D01*
X85913Y214118D01*
X86180Y213956D01*
X86429Y213769D01*
X86658Y213560D01*
X86867Y213330D01*
X87054Y213082D01*
X87216Y212815D01*
X87353Y212533D01*
X87462Y212236D01*
X87542Y211927D01*
X87591Y211607D01*
X87608Y211278D01*
X87608Y206447D01*
X87591Y206118D01*
X87542Y205798D01*
X87462Y205488D01*
X87353Y205190D01*
X87216Y204907D01*
X87054Y204639D01*
X86867Y204389D01*
X86658Y204157D01*
X86429Y203947D01*
X86180Y203759D01*
X85913Y203595D01*
X85631Y203457D01*
X85335Y203347D01*
X85025Y203267D01*
X84706Y203217D01*
X84376Y203200D01*
G37*
%LPC*%
G36*
X84376Y205478D02*
X84571Y205498D01*
X84753Y205555D01*
X84917Y205644D01*
X85061Y205763D01*
X85180Y205906D01*
X85269Y206071D01*
X85326Y206253D01*
X85346Y206447D01*
X85346Y211278D01*
X85327Y211473D01*
X85272Y211655D01*
X85184Y211819D01*
X85067Y211963D01*
X84925Y212081D01*
X84760Y212171D01*
X84654Y212204D01*
X84576Y212228D01*
X84376Y212248D01*
X82115Y212248D01*
X82115Y205478D01*
X84376Y205478D01*
G37*
%LPD*%
G36*
X94689Y203200D02*
X93396Y203200D01*
X93067Y203217D01*
X92747Y203267D01*
X92438Y203347D01*
X92142Y203457D01*
X91859Y203595D01*
X91593Y203759D01*
X91344Y203947D01*
X91114Y204157D01*
X90905Y204389D01*
X90719Y204639D01*
X90557Y204907D01*
X90420Y205190D01*
X90311Y205488D01*
X90231Y205798D01*
X90182Y206118D01*
X90165Y206447D01*
X90165Y206916D01*
X90180Y207228D01*
X90224Y207532D01*
X90296Y207827D01*
X90395Y208112D01*
X90520Y208384D01*
X90670Y208643D01*
X90842Y208886D01*
X91038Y209113D01*
X90877Y209331D01*
X90736Y209561D01*
X90614Y209800D01*
X90513Y210050D01*
X90432Y210309D01*
X90374Y210576D01*
X90339Y210851D01*
X90327Y211133D01*
X90327Y211278D01*
X90343Y211607D01*
X90393Y211927D01*
X90473Y212236D01*
X90582Y212533D01*
X90718Y212815D01*
X90881Y213082D01*
X91067Y213330D01*
X91276Y213560D01*
X91506Y213769D01*
X91755Y213956D01*
X92021Y214118D01*
X92303Y214254D01*
X92600Y214363D01*
X92909Y214443D01*
X93229Y214493D01*
X93558Y214509D01*
X94527Y214509D01*
X94859Y214493D01*
X95181Y214444D01*
X95491Y214365D01*
X95789Y214257D01*
X96071Y214121D01*
X96338Y213960D01*
X96586Y213774D01*
X96815Y213566D01*
X97024Y213337D01*
X97209Y213089D01*
X97370Y212822D01*
X97506Y212540D01*
X97614Y212242D01*
X97693Y211932D01*
X97742Y211610D01*
X97759Y211278D01*
X97759Y211133D01*
X97747Y210851D01*
X97711Y210576D01*
X97654Y210309D01*
X97575Y210050D01*
X97475Y209800D01*
X97356Y209561D01*
X97219Y209331D01*
X97064Y209113D01*
X97254Y208892D01*
X97423Y208652D01*
X97569Y208395D01*
X97692Y208124D01*
X97790Y207838D01*
X97861Y207541D01*
X97905Y207233D01*
X97920Y206916D01*
X97920Y206447D01*
X97903Y206115D01*
X97854Y205793D01*
X97774Y205482D01*
X97665Y205183D01*
X97529Y204900D01*
X97366Y204632D01*
X97180Y204382D01*
X96971Y204151D01*
X96741Y203942D01*
X96492Y203755D01*
X96226Y203592D01*
X95944Y203455D01*
X95647Y203346D01*
X95338Y203266D01*
X95018Y203217D01*
X94689Y203200D01*
G37*
%LPC*%
G36*
X94689Y205462D02*
X94884Y205482D01*
X95065Y205539D01*
X95230Y205629D01*
X95374Y205749D01*
X95492Y205894D01*
X95582Y206062D01*
X95638Y206247D01*
X95658Y206447D01*
X95658Y206916D01*
X95639Y207115D01*
X95584Y207299D01*
X95496Y207464D01*
X95380Y207607D01*
X95237Y207723D01*
X95072Y207811D01*
X94888Y207866D01*
X94689Y207885D01*
X93396Y207885D01*
X93197Y207866D01*
X93013Y207809D01*
X92848Y207719D01*
X92706Y207601D01*
X92589Y207457D01*
X92501Y207292D01*
X92446Y207111D01*
X92427Y206916D01*
X92427Y206447D01*
X92447Y206247D01*
X92504Y206059D01*
X92593Y205890D01*
X92712Y205743D01*
X92855Y205622D01*
X93020Y205532D01*
X93202Y205477D01*
X93396Y205462D01*
X94689Y205462D01*
G37*
G36*
X94527Y210147D02*
X94722Y210167D01*
X94821Y210198D01*
X94904Y210224D01*
X95068Y210314D01*
X95212Y210434D01*
X95331Y210579D01*
X95420Y210747D01*
X95477Y210933D01*
X95497Y211133D01*
X95497Y211278D01*
X95478Y211477D01*
X95423Y211661D01*
X95335Y211826D01*
X95218Y211969D01*
X95075Y212086D01*
X94911Y212173D01*
X94727Y212228D01*
X94527Y212248D01*
X93558Y212248D01*
X93359Y212228D01*
X93175Y212171D01*
X93010Y212081D01*
X92867Y211963D01*
X92750Y211819D01*
X92663Y211655D01*
X92608Y211473D01*
X92589Y211278D01*
X92589Y211133D01*
X92607Y210938D01*
X92660Y210756D01*
X92744Y210591D01*
X92855Y210446D01*
X92991Y210326D01*
X93147Y210233D01*
X93321Y210172D01*
X93510Y210147D01*
X94527Y210147D01*
G37*
%LPD*%
G36*
X-224557Y-32227D02*
X-232619Y-32227D01*
X-232619Y-29965D01*
X-224557Y-29965D01*
X-224363Y-29946D01*
X-224181Y-29889D01*
X-224016Y-29799D01*
X-223873Y-29681D01*
X-223754Y-29537D01*
X-223665Y-29373D01*
X-223608Y-29191D01*
X-223588Y-28996D01*
X-223588Y-27704D01*
X-223608Y-27509D01*
X-223665Y-27327D01*
X-223754Y-27163D01*
X-223873Y-27019D01*
X-224016Y-26900D01*
X-224181Y-26811D01*
X-224363Y-26754D01*
X-224557Y-26734D01*
X-232619Y-26734D01*
X-232619Y-24472D01*
X-224557Y-24472D01*
X-224228Y-24489D01*
X-223908Y-24538D01*
X-223598Y-24618D01*
X-223300Y-24727D01*
X-223017Y-24864D01*
X-222749Y-25026D01*
X-222499Y-25213D01*
X-222267Y-25422D01*
X-222057Y-25651D01*
X-221869Y-25900D01*
X-221705Y-26167D01*
X-221567Y-26449D01*
X-221457Y-26745D01*
X-221377Y-27055D01*
X-221327Y-27374D01*
X-221310Y-27704D01*
X-221310Y-28996D01*
X-221327Y-29325D01*
X-221376Y-29645D01*
X-221456Y-29954D01*
X-221565Y-30251D01*
X-221702Y-30533D01*
X-221865Y-30800D01*
X-222052Y-31048D01*
X-222261Y-31278D01*
X-222492Y-31487D01*
X-222742Y-31674D01*
X-223010Y-31836D01*
X-223293Y-31972D01*
X-223592Y-32081D01*
X-223903Y-32161D01*
X-224225Y-32211D01*
X-224557Y-32227D01*
G37*
G36*
X-228241Y-21915D02*
X-230858Y-21915D01*
X-232619Y-18926D01*
X-232619Y-16906D01*
X-223572Y-16906D01*
X-223572Y-14160D01*
X-221310Y-14160D01*
X-221310Y-21915D01*
X-223572Y-21915D01*
X-223572Y-19168D01*
X-229857Y-19168D01*
X-228241Y-21915D01*
G37*
G36*
X-227840Y25715D02*
X-228728Y25715D01*
X-229057Y25732D01*
X-229377Y25781D01*
X-229686Y25861D01*
X-229983Y25970D01*
X-230265Y26107D01*
X-230532Y26269D01*
X-230780Y26455D01*
X-231010Y26664D01*
X-231219Y26894D01*
X-231406Y27143D01*
X-231568Y27409D01*
X-231704Y27692D01*
X-231813Y27988D01*
X-231893Y28297D01*
X-231943Y28617D01*
X-231959Y28946D01*
X-231959Y30239D01*
X-231943Y30571D01*
X-231894Y30893D01*
X-231815Y31203D01*
X-231707Y31500D01*
X-231571Y31783D01*
X-231410Y32049D01*
X-231224Y32298D01*
X-231016Y32527D01*
X-230787Y32735D01*
X-230539Y32921D01*
X-230272Y33082D01*
X-229990Y33217D01*
X-229692Y33326D01*
X-229382Y33405D01*
X-229060Y33454D01*
X-228728Y33470D01*
X-226482Y33470D01*
X-223397Y27977D01*
X-222912Y27977D01*
X-222912Y33470D01*
X-220650Y33470D01*
X-220650Y25715D01*
X-224738Y25715D01*
X-227823Y31208D01*
X-228728Y31208D01*
X-228927Y31189D01*
X-229111Y31134D01*
X-229276Y31046D01*
X-229419Y30930D01*
X-229536Y30787D01*
X-229623Y30622D01*
X-229678Y30438D01*
X-229698Y30239D01*
X-229698Y28946D01*
X-229678Y28752D01*
X-229621Y28570D01*
X-229531Y28405D01*
X-229413Y28262D01*
X-229269Y28143D01*
X-229105Y28054D01*
X-228923Y27997D01*
X-228728Y27977D01*
X-227840Y27977D01*
X-227840Y25715D01*
G37*
G36*
X-223897Y15403D02*
X-231959Y15403D01*
X-231959Y17665D01*
X-223897Y17665D01*
X-223703Y17684D01*
X-223521Y17741D01*
X-223356Y17831D01*
X-223213Y17949D01*
X-223094Y18093D01*
X-223005Y18258D01*
X-222948Y18439D01*
X-222928Y18634D01*
X-222928Y19926D01*
X-222948Y20121D01*
X-223005Y20303D01*
X-223094Y20467D01*
X-223213Y20611D01*
X-223356Y20730D01*
X-223521Y20819D01*
X-223703Y20876D01*
X-223897Y20896D01*
X-231959Y20896D01*
X-231959Y23158D01*
X-223897Y23158D01*
X-223568Y23141D01*
X-223248Y23092D01*
X-222938Y23012D01*
X-222640Y22903D01*
X-222357Y22766D01*
X-222089Y22604D01*
X-221839Y22417D01*
X-221607Y22208D01*
X-221397Y21979D01*
X-221209Y21730D01*
X-221045Y21463D01*
X-220907Y21181D01*
X-220797Y20885D01*
X-220717Y20575D01*
X-220667Y20256D01*
X-220650Y19926D01*
X-220650Y18634D01*
X-220667Y18305D01*
X-220716Y17985D01*
X-220796Y17676D01*
X-220905Y17379D01*
X-221042Y17097D01*
X-221205Y16831D01*
X-221392Y16582D01*
X-221601Y16352D01*
X-221832Y16143D01*
X-222082Y15956D01*
X-222350Y15794D01*
X-222633Y15658D01*
X-222932Y15549D01*
X-223243Y15469D01*
X-223565Y15419D01*
X-223897Y15403D01*
G37*
G36*
X226293Y-34444D02*
X218231Y-34444D01*
X218231Y-32182D01*
X226293Y-32182D01*
X226487Y-32162D01*
X226669Y-32106D01*
X226834Y-32016D01*
X226977Y-31897D01*
X227096Y-31754D01*
X227186Y-31589D01*
X227242Y-31408D01*
X227262Y-31213D01*
X227262Y-29920D01*
X227242Y-29726D01*
X227186Y-29544D01*
X227096Y-29379D01*
X226977Y-29236D01*
X226834Y-29117D01*
X226669Y-29027D01*
X226487Y-28971D01*
X226293Y-28951D01*
X218231Y-28951D01*
X218231Y-26689D01*
X226293Y-26689D01*
X226622Y-26706D01*
X226942Y-26755D01*
X227252Y-26835D01*
X227550Y-26944D01*
X227833Y-27081D01*
X228101Y-27243D01*
X228352Y-27429D01*
X228583Y-27638D01*
X228793Y-27868D01*
X228981Y-28117D01*
X229145Y-28383D01*
X229283Y-28666D01*
X229393Y-28962D01*
X229473Y-29271D01*
X229523Y-29591D01*
X229540Y-29920D01*
X229540Y-31213D01*
X229523Y-31542D01*
X229474Y-31862D01*
X229394Y-32171D01*
X229285Y-32468D01*
X229148Y-32750D01*
X228985Y-33016D01*
X228798Y-33265D01*
X228589Y-33495D01*
X228358Y-33704D01*
X228108Y-33890D01*
X227840Y-34053D01*
X227557Y-34189D01*
X227258Y-34298D01*
X226947Y-34378D01*
X226625Y-34427D01*
X226293Y-34444D01*
G37*
G36*
X222027Y-24455D02*
X221462Y-24455D01*
X221133Y-24438D01*
X220813Y-24389D01*
X220504Y-24309D01*
X220207Y-24200D01*
X219925Y-24063D01*
X219659Y-23901D01*
X219410Y-23715D01*
X219180Y-23506D01*
X218971Y-23276D01*
X218784Y-23027D01*
X218622Y-22760D01*
X218486Y-22478D01*
X218377Y-22182D01*
X218297Y-21873D01*
X218247Y-21553D01*
X218231Y-21223D01*
X218231Y-19931D01*
X218247Y-19599D01*
X218296Y-19277D01*
X218375Y-18967D01*
X218483Y-18670D01*
X218619Y-18387D01*
X218780Y-18121D01*
X218966Y-17872D01*
X219174Y-17643D01*
X219403Y-17435D01*
X219651Y-17249D01*
X219918Y-17088D01*
X220200Y-16952D01*
X220498Y-16844D01*
X220808Y-16765D01*
X221130Y-16716D01*
X221462Y-16700D01*
X221785Y-16700D01*
X222084Y-16713D01*
X222374Y-16753D01*
X222655Y-16817D01*
X222926Y-16906D01*
X223185Y-17017D01*
X223432Y-17150D01*
X223666Y-17303D01*
X223885Y-17475D01*
X224105Y-17303D01*
X224338Y-17150D01*
X224585Y-17017D01*
X224845Y-16906D01*
X225115Y-16817D01*
X225396Y-16753D01*
X225687Y-16713D01*
X225986Y-16700D01*
X226309Y-16700D01*
X226641Y-16716D01*
X226963Y-16765D01*
X227273Y-16844D01*
X227570Y-16952D01*
X227853Y-17088D01*
X228119Y-17249D01*
X228368Y-17435D01*
X228597Y-17643D01*
X228805Y-17872D01*
X228990Y-18121D01*
X229152Y-18387D01*
X229287Y-18670D01*
X229396Y-18967D01*
X229475Y-19277D01*
X229523Y-19599D01*
X229540Y-19931D01*
X229540Y-21223D01*
X229523Y-21553D01*
X229474Y-21873D01*
X229394Y-22182D01*
X229285Y-22478D01*
X229149Y-22760D01*
X228986Y-23027D01*
X228800Y-23276D01*
X228591Y-23506D01*
X228361Y-23715D01*
X228112Y-23901D01*
X227846Y-24063D01*
X227563Y-24200D01*
X227267Y-24309D01*
X226958Y-24389D01*
X226638Y-24438D01*
X226309Y-24455D01*
X225743Y-24455D01*
X225743Y-22193D01*
X226309Y-22193D01*
X226504Y-22173D01*
X226685Y-22116D01*
X226850Y-22027D01*
X226993Y-21908D01*
X227112Y-21765D01*
X227202Y-21600D01*
X227258Y-21418D01*
X227278Y-21223D01*
X227278Y-19931D01*
X227259Y-19732D01*
X227204Y-19548D01*
X227116Y-19383D01*
X226999Y-19240D01*
X226857Y-19124D01*
X226692Y-19036D01*
X226508Y-18981D01*
X226309Y-18962D01*
X225986Y-18962D01*
X225786Y-18981D01*
X225602Y-19036D01*
X225438Y-19124D01*
X225295Y-19240D01*
X225178Y-19383D01*
X225090Y-19548D01*
X225035Y-19732D01*
X225016Y-19931D01*
X225016Y-21062D01*
X222754Y-21062D01*
X222754Y-19931D01*
X222735Y-19732D01*
X222680Y-19548D01*
X222593Y-19383D01*
X222476Y-19240D01*
X222333Y-19124D01*
X222168Y-19036D01*
X221984Y-18981D01*
X221785Y-18962D01*
X221462Y-18962D01*
X221263Y-18981D01*
X221079Y-19036D01*
X220914Y-19124D01*
X220771Y-19240D01*
X220654Y-19383D01*
X220567Y-19548D01*
X220512Y-19732D01*
X220493Y-19931D01*
X220493Y-21223D01*
X220512Y-21418D01*
X220569Y-21600D01*
X220659Y-21765D01*
X220777Y-21908D01*
X220921Y-22027D01*
X221086Y-22116D01*
X221267Y-22173D01*
X221462Y-22193D01*
X222027Y-22193D01*
X222027Y-24455D01*
G37*
G36*
X226953Y15403D02*
X218891Y15403D01*
X218891Y17665D01*
X226953Y17665D01*
X227147Y17684D01*
X227329Y17741D01*
X227494Y17831D01*
X227637Y17949D01*
X227756Y18093D01*
X227846Y18258D01*
X227902Y18439D01*
X227922Y18634D01*
X227922Y19926D01*
X227902Y20121D01*
X227846Y20303D01*
X227756Y20467D01*
X227637Y20611D01*
X227494Y20730D01*
X227329Y20819D01*
X227147Y20876D01*
X226953Y20896D01*
X218891Y20896D01*
X218891Y23158D01*
X226953Y23158D01*
X227282Y23141D01*
X227602Y23092D01*
X227912Y23012D01*
X228210Y22903D01*
X228493Y22766D01*
X228761Y22604D01*
X229012Y22417D01*
X229243Y22208D01*
X229453Y21979D01*
X229641Y21730D01*
X229805Y21463D01*
X229943Y21181D01*
X230053Y20885D01*
X230133Y20575D01*
X230183Y20256D01*
X230200Y19926D01*
X230200Y18634D01*
X230183Y18305D01*
X230134Y17985D01*
X230054Y17676D01*
X229945Y17379D01*
X229808Y17097D01*
X229645Y16831D01*
X229458Y16582D01*
X229249Y16352D01*
X229018Y16143D01*
X228768Y15956D01*
X228500Y15794D01*
X228217Y15658D01*
X227918Y15549D01*
X227607Y15469D01*
X227285Y15419D01*
X226953Y15403D01*
G37*
G36*
X225838Y25715D02*
X218891Y25715D01*
X218891Y27977D01*
X223576Y27977D01*
X223576Y29754D01*
X219860Y29754D01*
X219860Y32016D01*
X223576Y32016D01*
X223576Y33470D01*
X225838Y33470D01*
X225838Y32016D01*
X230200Y32016D01*
X230200Y29754D01*
X225838Y29754D01*
X225838Y25715D01*
G37*
G36*
X54610Y167483D02*
X43301Y167483D01*
X43301Y172006D01*
X43317Y172338D01*
X43366Y172660D01*
X43445Y172971D01*
X43553Y173268D01*
X43689Y173550D01*
X43850Y173817D01*
X44036Y174065D01*
X44244Y174295D01*
X44473Y174503D01*
X44721Y174688D01*
X44988Y174849D01*
X45270Y174985D01*
X45568Y175093D01*
X45878Y175172D01*
X46200Y175221D01*
X46532Y175238D01*
X47501Y175238D01*
X47747Y175229D01*
X47987Y175202D01*
X48222Y175159D01*
X48449Y175099D01*
X48670Y175023D01*
X48883Y174933D01*
X49087Y174828D01*
X49283Y174709D01*
X49645Y174431D01*
X49964Y174106D01*
X50237Y173738D01*
X50354Y173539D01*
X50458Y173331D01*
X54610Y175238D01*
X54610Y172750D01*
X50733Y170989D01*
X50733Y169745D01*
X54610Y169745D01*
X54610Y167483D01*
G37*
%LPC*%
G36*
X48471Y169745D02*
X48471Y172006D01*
X48452Y172206D01*
X48396Y172390D01*
X48309Y172555D01*
X48192Y172697D01*
X48049Y172814D01*
X47884Y172902D01*
X47701Y172957D01*
X47501Y172976D01*
X46532Y172976D01*
X46333Y172957D01*
X46149Y172902D01*
X45984Y172814D01*
X45841Y172697D01*
X45724Y172555D01*
X45637Y172390D01*
X45582Y172206D01*
X45563Y172006D01*
X45563Y169745D01*
X48471Y169745D01*
G37*
%LPD*%
G36*
X47679Y177795D02*
X45062Y177795D01*
X43301Y180784D01*
X43301Y182804D01*
X52348Y182804D01*
X52348Y185550D01*
X54610Y185550D01*
X54610Y177795D01*
X52348Y177795D01*
X52348Y180542D01*
X46063Y180542D01*
X47679Y177795D01*
G37*
G36*
X-50800Y167483D02*
X-62109Y167483D01*
X-62109Y172006D01*
X-62093Y172338D01*
X-62044Y172660D01*
X-61965Y172971D01*
X-61857Y173268D01*
X-61721Y173550D01*
X-61560Y173817D01*
X-61374Y174065D01*
X-61166Y174295D01*
X-60937Y174503D01*
X-60689Y174688D01*
X-60422Y174849D01*
X-60140Y174985D01*
X-59842Y175093D01*
X-59532Y175172D01*
X-59210Y175221D01*
X-58878Y175238D01*
X-57909Y175238D01*
X-57663Y175229D01*
X-57423Y175202D01*
X-57188Y175159D01*
X-56961Y175099D01*
X-56740Y175023D01*
X-56527Y174933D01*
X-56323Y174828D01*
X-56128Y174709D01*
X-55766Y174431D01*
X-55446Y174106D01*
X-55173Y173738D01*
X-55056Y173539D01*
X-54952Y173331D01*
X-50800Y175238D01*
X-50800Y172750D01*
X-54678Y170989D01*
X-54678Y169745D01*
X-50800Y169745D01*
X-50800Y167483D01*
G37*
%LPC*%
G36*
X-56939Y169745D02*
X-56939Y172006D01*
X-56958Y172206D01*
X-57014Y172390D01*
X-57101Y172555D01*
X-57218Y172697D01*
X-57361Y172814D01*
X-57526Y172902D01*
X-57709Y172957D01*
X-57909Y172976D01*
X-58878Y172976D01*
X-59077Y172957D01*
X-59261Y172902D01*
X-59426Y172814D01*
X-59569Y172697D01*
X-59686Y172555D01*
X-59773Y172390D01*
X-59828Y172206D01*
X-59848Y172006D01*
X-59848Y169745D01*
X-56939Y169745D01*
G37*
%LPD*%
G36*
X-57990Y177795D02*
X-58878Y177795D01*
X-59207Y177812D01*
X-59527Y177861D01*
X-59836Y177941D01*
X-60133Y178050D01*
X-60415Y178187D01*
X-60682Y178349D01*
X-60930Y178535D01*
X-61160Y178744D01*
X-61369Y178974D01*
X-61556Y179223D01*
X-61718Y179489D01*
X-61854Y179772D01*
X-61963Y180068D01*
X-62043Y180377D01*
X-62093Y180697D01*
X-62109Y181026D01*
X-62109Y182319D01*
X-62093Y182651D01*
X-62044Y182973D01*
X-61965Y183283D01*
X-61857Y183580D01*
X-61721Y183863D01*
X-61560Y184129D01*
X-61374Y184378D01*
X-61166Y184607D01*
X-60937Y184815D01*
X-60689Y185001D01*
X-60422Y185162D01*
X-60140Y185297D01*
X-59842Y185406D01*
X-59532Y185485D01*
X-59210Y185534D01*
X-58878Y185550D01*
X-56632Y185550D01*
X-53547Y180057D01*
X-53062Y180057D01*
X-53062Y185550D01*
X-50800Y185550D01*
X-50800Y177795D01*
X-54888Y177795D01*
X-57973Y183288D01*
X-58878Y183288D01*
X-59077Y183269D01*
X-59261Y183214D01*
X-59426Y183126D01*
X-59569Y183010D01*
X-59686Y182867D01*
X-59773Y182702D01*
X-59828Y182518D01*
X-59848Y182319D01*
X-59848Y181026D01*
X-59828Y180832D01*
X-59771Y180650D01*
X-59681Y180485D01*
X-59563Y180342D01*
X-59419Y180223D01*
X-59255Y180134D01*
X-59073Y180077D01*
X-58878Y180057D01*
X-57990Y180057D01*
X-57990Y177795D01*
G37*
G36*
X41196Y210820D02*
X39904Y210820D01*
X39575Y210837D01*
X39255Y210887D01*
X38946Y210967D01*
X38649Y211077D01*
X38367Y211215D01*
X38101Y211379D01*
X37852Y211567D01*
X37622Y211777D01*
X37413Y212009D01*
X37226Y212259D01*
X37064Y212527D01*
X36928Y212810D01*
X36819Y213108D01*
X36739Y213418D01*
X36689Y213738D01*
X36673Y214067D01*
X36673Y218898D01*
X36689Y219227D01*
X36739Y219547D01*
X36819Y219856D01*
X36928Y220153D01*
X37064Y220435D01*
X37226Y220702D01*
X37413Y220950D01*
X37622Y221180D01*
X37852Y221389D01*
X38101Y221576D01*
X38367Y221738D01*
X38649Y221874D01*
X38946Y221983D01*
X39255Y222063D01*
X39575Y222113D01*
X39904Y222129D01*
X41196Y222129D01*
X41528Y222113D01*
X41850Y222064D01*
X42161Y221985D01*
X42458Y221877D01*
X42740Y221741D01*
X43007Y221580D01*
X43255Y221394D01*
X43485Y221186D01*
X43693Y220957D01*
X43878Y220709D01*
X44039Y220442D01*
X44175Y220160D01*
X44283Y219862D01*
X44362Y219552D01*
X44411Y219230D01*
X44428Y218898D01*
X44428Y218010D01*
X42166Y218010D01*
X42166Y218898D01*
X42147Y219097D01*
X42092Y219281D01*
X42004Y219446D01*
X41887Y219589D01*
X41745Y219706D01*
X41580Y219793D01*
X41396Y219848D01*
X41196Y219868D01*
X39904Y219868D01*
X39705Y219848D01*
X39521Y219791D01*
X39356Y219701D01*
X39213Y219583D01*
X39096Y219439D01*
X39009Y219275D01*
X38954Y219093D01*
X38935Y218898D01*
X38935Y214067D01*
X38954Y213873D01*
X39011Y213691D01*
X39101Y213526D01*
X39219Y213383D01*
X39363Y213264D01*
X39528Y213175D01*
X39709Y213118D01*
X39904Y213098D01*
X41196Y213098D01*
X41391Y213118D01*
X41573Y213175D01*
X41737Y213264D01*
X41881Y213383D01*
X42000Y213526D01*
X42089Y213691D01*
X42146Y213873D01*
X42166Y214067D01*
X42166Y214956D01*
X44428Y214956D01*
X44428Y214067D01*
X44411Y213735D01*
X44362Y213413D01*
X44282Y213102D01*
X44173Y212803D01*
X44036Y212520D01*
X43874Y212252D01*
X43687Y212002D01*
X43478Y211771D01*
X43249Y211562D01*
X43000Y211375D01*
X42733Y211212D01*
X42451Y211075D01*
X42155Y210966D01*
X41845Y210886D01*
X41526Y210837D01*
X41196Y210820D01*
G37*
G36*
X54740Y210820D02*
X46985Y210820D01*
X46985Y213082D01*
X49732Y213082D01*
X49732Y219367D01*
X46985Y217751D01*
X46985Y220368D01*
X49974Y222129D01*
X51994Y222129D01*
X51994Y213082D01*
X54740Y213082D01*
X54740Y210820D01*
G37*
G36*
X-37970Y212090D02*
X-45725Y212090D01*
X-45725Y216178D01*
X-40232Y219263D01*
X-40232Y220168D01*
X-40251Y220367D01*
X-40306Y220551D01*
X-40394Y220716D01*
X-40510Y220859D01*
X-40653Y220976D01*
X-40818Y221063D01*
X-41002Y221118D01*
X-41201Y221138D01*
X-42494Y221138D01*
X-42688Y221118D01*
X-42870Y221061D01*
X-43035Y220971D01*
X-43178Y220853D01*
X-43297Y220709D01*
X-43387Y220545D01*
X-43443Y220363D01*
X-43463Y220168D01*
X-43463Y219280D01*
X-45725Y219280D01*
X-45725Y220168D01*
X-45708Y220497D01*
X-45659Y220817D01*
X-45579Y221126D01*
X-45470Y221423D01*
X-45333Y221705D01*
X-45171Y221972D01*
X-44985Y222220D01*
X-44776Y222450D01*
X-44546Y222659D01*
X-44297Y222846D01*
X-44031Y223008D01*
X-43748Y223144D01*
X-43452Y223253D01*
X-43143Y223333D01*
X-42823Y223383D01*
X-42494Y223399D01*
X-41201Y223399D01*
X-40869Y223383D01*
X-40547Y223334D01*
X-40237Y223255D01*
X-39940Y223147D01*
X-39657Y223011D01*
X-39391Y222850D01*
X-39142Y222664D01*
X-38913Y222456D01*
X-38705Y222227D01*
X-38519Y221979D01*
X-38358Y221712D01*
X-38223Y221430D01*
X-38114Y221132D01*
X-38035Y220822D01*
X-37986Y220500D01*
X-37970Y220168D01*
X-37970Y217922D01*
X-43463Y214837D01*
X-43463Y214352D01*
X-37970Y214352D01*
X-37970Y212090D01*
G37*
G36*
X-51514Y212090D02*
X-52806Y212090D01*
X-53135Y212107D01*
X-53455Y212157D01*
X-53764Y212237D01*
X-54061Y212347D01*
X-54343Y212485D01*
X-54610Y212649D01*
X-54858Y212837D01*
X-55088Y213047D01*
X-55297Y213279D01*
X-55484Y213529D01*
X-55646Y213797D01*
X-55782Y214080D01*
X-55891Y214378D01*
X-55971Y214688D01*
X-56021Y215008D01*
X-56037Y215337D01*
X-56037Y220168D01*
X-56021Y220497D01*
X-55971Y220817D01*
X-55891Y221126D01*
X-55782Y221423D01*
X-55646Y221705D01*
X-55484Y221972D01*
X-55297Y222220D01*
X-55088Y222450D01*
X-54858Y222659D01*
X-54610Y222846D01*
X-54343Y223008D01*
X-54061Y223144D01*
X-53764Y223253D01*
X-53455Y223333D01*
X-53135Y223383D01*
X-52806Y223399D01*
X-51514Y223399D01*
X-51182Y223383D01*
X-50860Y223334D01*
X-50549Y223255D01*
X-50252Y223147D01*
X-49970Y223011D01*
X-49703Y222850D01*
X-49455Y222664D01*
X-49225Y222456D01*
X-49017Y222227D01*
X-48832Y221979D01*
X-48671Y221712D01*
X-48535Y221430D01*
X-48427Y221132D01*
X-48348Y220822D01*
X-48299Y220500D01*
X-48282Y220168D01*
X-48282Y219280D01*
X-50544Y219280D01*
X-50544Y220168D01*
X-50563Y220367D01*
X-50618Y220551D01*
X-50706Y220716D01*
X-50823Y220859D01*
X-50966Y220976D01*
X-51130Y221063D01*
X-51314Y221118D01*
X-51514Y221138D01*
X-52806Y221138D01*
X-53005Y221118D01*
X-53189Y221061D01*
X-53354Y220971D01*
X-53497Y220853D01*
X-53614Y220709D01*
X-53701Y220545D01*
X-53756Y220363D01*
X-53775Y220168D01*
X-53775Y215337D01*
X-53756Y215143D01*
X-53699Y214961D01*
X-53609Y214796D01*
X-53491Y214653D01*
X-53347Y214534D01*
X-53183Y214445D01*
X-53001Y214388D01*
X-52806Y214368D01*
X-51514Y214368D01*
X-51319Y214388D01*
X-51137Y214445D01*
X-50973Y214534D01*
X-50829Y214653D01*
X-50710Y214796D01*
X-50621Y214961D01*
X-50564Y215143D01*
X-50544Y215337D01*
X-50544Y216226D01*
X-48282Y216226D01*
X-48282Y215337D01*
X-48299Y215005D01*
X-48348Y214683D01*
X-48428Y214372D01*
X-48537Y214073D01*
X-48674Y213790D01*
X-48836Y213522D01*
X-49023Y213272D01*
X-49232Y213041D01*
X-49461Y212832D01*
X-49710Y212645D01*
X-49977Y212482D01*
X-50259Y212345D01*
X-50555Y212236D01*
X-50865Y212156D01*
X-51184Y212107D01*
X-51514Y212090D01*
G37*
G36*
X-228493Y57145D02*
X-229058Y57145D01*
X-229387Y57162D01*
X-229707Y57211D01*
X-230016Y57291D01*
X-230313Y57400D01*
X-230595Y57537D01*
X-230862Y57699D01*
X-231110Y57886D01*
X-231340Y58094D01*
X-231549Y58324D01*
X-231736Y58573D01*
X-231898Y58840D01*
X-232034Y59122D01*
X-232143Y59418D01*
X-232223Y59727D01*
X-232273Y60047D01*
X-232289Y60377D01*
X-232289Y61669D01*
X-232273Y62001D01*
X-232224Y62323D01*
X-232145Y62633D01*
X-232037Y62930D01*
X-231901Y63213D01*
X-231740Y63480D01*
X-231554Y63728D01*
X-231346Y63957D01*
X-231117Y64165D01*
X-230869Y64351D01*
X-230602Y64512D01*
X-230320Y64648D01*
X-230022Y64756D01*
X-229712Y64835D01*
X-229390Y64884D01*
X-229058Y64900D01*
X-228735Y64900D01*
X-228436Y64887D01*
X-228146Y64847D01*
X-227865Y64783D01*
X-227594Y64694D01*
X-227335Y64583D01*
X-227088Y64450D01*
X-226854Y64297D01*
X-226635Y64125D01*
X-226415Y64297D01*
X-226182Y64450D01*
X-225935Y64583D01*
X-225675Y64694D01*
X-225405Y64783D01*
X-225124Y64847D01*
X-224833Y64887D01*
X-224534Y64900D01*
X-224211Y64900D01*
X-223879Y64884D01*
X-223558Y64835D01*
X-223247Y64756D01*
X-222950Y64648D01*
X-222667Y64512D01*
X-222401Y64351D01*
X-222152Y64165D01*
X-221923Y63957D01*
X-221715Y63728D01*
X-221530Y63480D01*
X-221368Y63213D01*
X-221233Y62930D01*
X-221125Y62633D01*
X-221045Y62323D01*
X-220997Y62001D01*
X-220980Y61669D01*
X-220980Y60377D01*
X-220997Y60047D01*
X-221046Y59727D01*
X-221126Y59418D01*
X-221235Y59122D01*
X-221371Y58840D01*
X-221534Y58573D01*
X-221720Y58324D01*
X-221929Y58094D01*
X-222159Y57886D01*
X-222408Y57699D01*
X-222674Y57537D01*
X-222957Y57400D01*
X-223253Y57291D01*
X-223562Y57211D01*
X-223882Y57162D01*
X-224211Y57145D01*
X-224777Y57145D01*
X-224777Y59407D01*
X-224211Y59407D01*
X-224017Y59427D01*
X-223835Y59484D01*
X-223670Y59573D01*
X-223527Y59692D01*
X-223408Y59836D01*
X-223318Y60000D01*
X-223262Y60182D01*
X-223242Y60377D01*
X-223242Y61669D01*
X-223261Y61868D01*
X-223316Y62052D01*
X-223404Y62217D01*
X-223521Y62360D01*
X-223663Y62477D01*
X-223828Y62564D01*
X-224012Y62619D01*
X-224211Y62638D01*
X-224534Y62638D01*
X-224734Y62619D01*
X-224918Y62564D01*
X-225082Y62477D01*
X-225225Y62360D01*
X-225342Y62217D01*
X-225430Y62052D01*
X-225485Y61868D01*
X-225504Y61669D01*
X-225504Y60538D01*
X-227766Y60538D01*
X-227766Y61669D01*
X-227785Y61868D01*
X-227840Y62052D01*
X-227928Y62217D01*
X-228044Y62360D01*
X-228187Y62477D01*
X-228352Y62564D01*
X-228536Y62619D01*
X-228735Y62638D01*
X-229058Y62638D01*
X-229257Y62619D01*
X-229441Y62564D01*
X-229606Y62477D01*
X-229749Y62360D01*
X-229866Y62217D01*
X-229953Y62052D01*
X-230008Y61868D01*
X-230028Y61669D01*
X-230028Y60377D01*
X-230008Y60182D01*
X-229951Y60000D01*
X-229861Y59836D01*
X-229743Y59692D01*
X-229599Y59573D01*
X-229435Y59484D01*
X-229253Y59427D01*
X-229058Y59407D01*
X-228493Y59407D01*
X-228493Y57145D01*
G37*
G36*
X-224227Y47156D02*
X-229058Y47156D01*
X-229387Y47173D01*
X-229707Y47222D01*
X-230016Y47302D01*
X-230313Y47411D01*
X-230595Y47547D01*
X-230862Y47710D01*
X-231110Y47896D01*
X-231340Y48105D01*
X-231549Y48335D01*
X-231736Y48584D01*
X-231898Y48850D01*
X-232034Y49133D01*
X-232143Y49429D01*
X-232223Y49738D01*
X-232273Y50058D01*
X-232289Y50387D01*
X-232289Y51680D01*
X-232273Y52011D01*
X-232224Y52333D01*
X-232145Y52644D01*
X-232037Y52941D01*
X-231901Y53224D01*
X-231740Y53490D01*
X-231554Y53739D01*
X-231346Y53968D01*
X-231117Y54176D01*
X-230869Y54361D01*
X-230602Y54523D01*
X-230320Y54658D01*
X-230022Y54766D01*
X-229712Y54846D01*
X-229390Y54894D01*
X-229058Y54911D01*
X-228170Y54911D01*
X-228170Y52649D01*
X-229058Y52649D01*
X-229257Y52630D01*
X-229441Y52575D01*
X-229606Y52487D01*
X-229749Y52370D01*
X-229866Y52228D01*
X-229953Y52063D01*
X-230008Y51879D01*
X-230028Y51680D01*
X-230028Y50387D01*
X-230008Y50188D01*
X-229951Y50004D01*
X-229861Y49839D01*
X-229743Y49696D01*
X-229599Y49580D01*
X-229435Y49492D01*
X-229253Y49437D01*
X-229058Y49418D01*
X-224227Y49418D01*
X-224033Y49438D01*
X-223851Y49494D01*
X-223686Y49584D01*
X-223543Y49703D01*
X-223424Y49846D01*
X-223335Y50011D01*
X-223278Y50192D01*
X-223258Y50387D01*
X-223258Y51680D01*
X-223278Y51874D01*
X-223335Y52056D01*
X-223424Y52221D01*
X-223543Y52364D01*
X-223686Y52483D01*
X-223851Y52573D01*
X-224033Y52629D01*
X-224227Y52649D01*
X-225116Y52649D01*
X-225116Y54911D01*
X-224227Y54911D01*
X-223895Y54894D01*
X-223573Y54845D01*
X-223262Y54765D01*
X-222963Y54656D01*
X-222680Y54519D01*
X-222412Y54357D01*
X-222162Y54171D01*
X-221931Y53962D01*
X-221722Y53732D01*
X-221535Y53483D01*
X-221372Y53217D01*
X-221235Y52934D01*
X-221126Y52638D01*
X-221046Y52329D01*
X-220997Y52009D01*
X-220980Y51680D01*
X-220980Y50387D01*
X-220997Y50058D01*
X-221047Y49738D01*
X-221127Y49429D01*
X-221237Y49133D01*
X-221375Y48850D01*
X-221539Y48584D01*
X-221727Y48335D01*
X-221937Y48105D01*
X-222169Y47896D01*
X-222419Y47710D01*
X-222687Y47547D01*
X-222970Y47411D01*
X-223268Y47302D01*
X-223578Y47222D01*
X-223898Y47173D01*
X-224227Y47156D01*
G37*
G36*
X-225497Y-66197D02*
X-230328Y-66197D01*
X-230657Y-66181D01*
X-230977Y-66131D01*
X-231286Y-66051D01*
X-231583Y-65942D01*
X-231865Y-65806D01*
X-232132Y-65644D01*
X-232380Y-65457D01*
X-232610Y-65248D01*
X-232819Y-65018D01*
X-233006Y-64770D01*
X-233168Y-64503D01*
X-233304Y-64221D01*
X-233413Y-63924D01*
X-233493Y-63615D01*
X-233543Y-63295D01*
X-233559Y-62966D01*
X-233559Y-61674D01*
X-233543Y-61342D01*
X-233494Y-61020D01*
X-233415Y-60709D01*
X-233307Y-60412D01*
X-233171Y-60130D01*
X-233010Y-59863D01*
X-232824Y-59615D01*
X-232616Y-59385D01*
X-232387Y-59177D01*
X-232139Y-58992D01*
X-231872Y-58831D01*
X-231590Y-58695D01*
X-231292Y-58587D01*
X-230982Y-58508D01*
X-230660Y-58459D01*
X-230328Y-58442D01*
X-229440Y-58442D01*
X-229440Y-60704D01*
X-230328Y-60704D01*
X-230527Y-60723D01*
X-230711Y-60778D01*
X-230876Y-60866D01*
X-231019Y-60983D01*
X-231136Y-61126D01*
X-231223Y-61290D01*
X-231278Y-61474D01*
X-231298Y-61674D01*
X-231298Y-62966D01*
X-231278Y-63165D01*
X-231221Y-63349D01*
X-231131Y-63514D01*
X-231013Y-63657D01*
X-230869Y-63774D01*
X-230705Y-63861D01*
X-230523Y-63916D01*
X-230328Y-63935D01*
X-225497Y-63935D01*
X-225303Y-63916D01*
X-225121Y-63859D01*
X-224956Y-63769D01*
X-224813Y-63651D01*
X-224694Y-63507D01*
X-224605Y-63343D01*
X-224548Y-63161D01*
X-224528Y-62966D01*
X-224528Y-61674D01*
X-224548Y-61479D01*
X-224605Y-61297D01*
X-224694Y-61133D01*
X-224813Y-60989D01*
X-224956Y-60870D01*
X-225121Y-60781D01*
X-225303Y-60724D01*
X-225497Y-60704D01*
X-226386Y-60704D01*
X-226386Y-58442D01*
X-225497Y-58442D01*
X-225165Y-58459D01*
X-224843Y-58508D01*
X-224532Y-58588D01*
X-224233Y-58697D01*
X-223950Y-58834D01*
X-223682Y-58996D01*
X-223432Y-59183D01*
X-223201Y-59392D01*
X-222992Y-59621D01*
X-222805Y-59870D01*
X-222642Y-60137D01*
X-222505Y-60419D01*
X-222396Y-60715D01*
X-222316Y-61025D01*
X-222267Y-61344D01*
X-222250Y-61674D01*
X-222250Y-62966D01*
X-222267Y-63295D01*
X-222317Y-63615D01*
X-222397Y-63924D01*
X-222507Y-64221D01*
X-222645Y-64503D01*
X-222809Y-64770D01*
X-222997Y-65018D01*
X-223207Y-65248D01*
X-223439Y-65457D01*
X-223689Y-65644D01*
X-223957Y-65806D01*
X-224240Y-65942D01*
X-224538Y-66051D01*
X-224848Y-66131D01*
X-225168Y-66181D01*
X-225497Y-66197D01*
G37*
G36*
X-226612Y-55885D02*
X-233559Y-55885D01*
X-233559Y-53623D01*
X-228874Y-53623D01*
X-228874Y-51846D01*
X-232590Y-51846D01*
X-232590Y-49584D01*
X-228874Y-49584D01*
X-228874Y-48130D01*
X-226612Y-48130D01*
X-226612Y-49584D01*
X-222250Y-49584D01*
X-222250Y-51846D01*
X-226612Y-51846D01*
X-226612Y-55885D01*
G37*
G36*
X225233Y-55885D02*
X218561Y-55885D01*
X218561Y-49261D01*
X220823Y-49261D01*
X220823Y-53623D01*
X222487Y-53623D01*
X221727Y-52476D01*
X221727Y-51361D01*
X221744Y-51032D01*
X221793Y-50712D01*
X221873Y-50403D01*
X221982Y-50106D01*
X222119Y-49824D01*
X222281Y-49558D01*
X222468Y-49309D01*
X222676Y-49079D01*
X222906Y-48870D01*
X223155Y-48684D01*
X223422Y-48521D01*
X223704Y-48385D01*
X224000Y-48276D01*
X224309Y-48196D01*
X224629Y-48147D01*
X224959Y-48130D01*
X226639Y-48130D01*
X226971Y-48146D01*
X227293Y-48195D01*
X227603Y-48274D01*
X227900Y-48383D01*
X228183Y-48518D01*
X228449Y-48679D01*
X228698Y-48865D01*
X228927Y-49073D01*
X229135Y-49302D01*
X229320Y-49551D01*
X229482Y-49817D01*
X229617Y-50100D01*
X229726Y-50397D01*
X229805Y-50707D01*
X229853Y-51029D01*
X229870Y-51361D01*
X229870Y-52654D01*
X229853Y-52983D01*
X229804Y-53303D01*
X229724Y-53612D01*
X229615Y-53908D01*
X229479Y-54191D01*
X229316Y-54457D01*
X229130Y-54706D01*
X228921Y-54936D01*
X228691Y-55145D01*
X228442Y-55331D01*
X228176Y-55493D01*
X227893Y-55630D01*
X227597Y-55739D01*
X227288Y-55819D01*
X226968Y-55868D01*
X226639Y-55885D01*
X226477Y-55885D01*
X226477Y-53623D01*
X226639Y-53623D01*
X226834Y-53603D01*
X227015Y-53547D01*
X227180Y-53457D01*
X227323Y-53338D01*
X227442Y-53195D01*
X227532Y-53030D01*
X227588Y-52848D01*
X227608Y-52654D01*
X227608Y-51361D01*
X227589Y-51162D01*
X227534Y-50978D01*
X227446Y-50813D01*
X227329Y-50670D01*
X227187Y-50554D01*
X227022Y-50466D01*
X226838Y-50411D01*
X226639Y-50392D01*
X224959Y-50392D01*
X224764Y-50412D01*
X224582Y-50468D01*
X224418Y-50558D01*
X224274Y-50677D01*
X224155Y-50820D01*
X224066Y-50985D01*
X224009Y-51166D01*
X223989Y-51361D01*
X223989Y-51781D01*
X225233Y-53623D01*
X225233Y-55885D01*
G37*
G36*
X226623Y-66197D02*
X221792Y-66197D01*
X221463Y-66181D01*
X221143Y-66131D01*
X220834Y-66051D01*
X220537Y-65942D01*
X220255Y-65806D01*
X219989Y-65644D01*
X219740Y-65457D01*
X219510Y-65248D01*
X219301Y-65018D01*
X219114Y-64770D01*
X218952Y-64503D01*
X218816Y-64221D01*
X218707Y-63924D01*
X218627Y-63615D01*
X218577Y-63295D01*
X218561Y-62966D01*
X218561Y-61674D01*
X218577Y-61342D01*
X218626Y-61020D01*
X218705Y-60709D01*
X218813Y-60412D01*
X218949Y-60130D01*
X219110Y-59863D01*
X219296Y-59615D01*
X219504Y-59385D01*
X219733Y-59177D01*
X219981Y-58992D01*
X220248Y-58831D01*
X220530Y-58695D01*
X220828Y-58587D01*
X221138Y-58508D01*
X221460Y-58459D01*
X221792Y-58442D01*
X222680Y-58442D01*
X222680Y-60704D01*
X221792Y-60704D01*
X221593Y-60723D01*
X221409Y-60778D01*
X221244Y-60866D01*
X221101Y-60983D01*
X220984Y-61126D01*
X220897Y-61290D01*
X220842Y-61474D01*
X220823Y-61674D01*
X220823Y-62966D01*
X220842Y-63165D01*
X220899Y-63349D01*
X220989Y-63514D01*
X221107Y-63657D01*
X221251Y-63774D01*
X221416Y-63861D01*
X221597Y-63916D01*
X221792Y-63935D01*
X226623Y-63935D01*
X226817Y-63916D01*
X226999Y-63859D01*
X227164Y-63769D01*
X227307Y-63651D01*
X227426Y-63507D01*
X227516Y-63343D01*
X227572Y-63161D01*
X227592Y-62966D01*
X227592Y-61674D01*
X227572Y-61479D01*
X227516Y-61297D01*
X227426Y-61133D01*
X227307Y-60989D01*
X227164Y-60870D01*
X226999Y-60781D01*
X226817Y-60724D01*
X226623Y-60704D01*
X225734Y-60704D01*
X225734Y-58442D01*
X226623Y-58442D01*
X226955Y-58459D01*
X227277Y-58508D01*
X227588Y-58588D01*
X227887Y-58697D01*
X228170Y-58834D01*
X228438Y-58996D01*
X228688Y-59183D01*
X228919Y-59392D01*
X229128Y-59621D01*
X229315Y-59870D01*
X229478Y-60137D01*
X229615Y-60419D01*
X229724Y-60715D01*
X229804Y-61025D01*
X229853Y-61344D01*
X229870Y-61674D01*
X229870Y-62966D01*
X229853Y-63295D01*
X229803Y-63615D01*
X229723Y-63924D01*
X229613Y-64221D01*
X229475Y-64503D01*
X229311Y-64770D01*
X229123Y-65018D01*
X228913Y-65248D01*
X228682Y-65457D01*
X228431Y-65644D01*
X228163Y-65806D01*
X227880Y-65942D01*
X227582Y-66051D01*
X227272Y-66131D01*
X226952Y-66181D01*
X226623Y-66197D01*
G37*
G36*
X226639Y58415D02*
X221792Y58415D01*
X221460Y58432D01*
X221138Y58480D01*
X220828Y58560D01*
X220530Y58668D01*
X220248Y58803D01*
X219981Y58965D01*
X219733Y59150D01*
X219504Y59358D01*
X219296Y59587D01*
X219110Y59836D01*
X218949Y60102D01*
X218813Y60385D01*
X218705Y60682D01*
X218626Y60993D01*
X218577Y61315D01*
X218561Y61646D01*
X218561Y62939D01*
X218577Y63271D01*
X218626Y63593D01*
X218705Y63903D01*
X218813Y64200D01*
X218949Y64483D01*
X219110Y64749D01*
X219296Y64998D01*
X219504Y65227D01*
X219733Y65435D01*
X219981Y65621D01*
X220248Y65782D01*
X220530Y65917D01*
X220828Y66026D01*
X221138Y66105D01*
X221460Y66154D01*
X221792Y66170D01*
X222115Y66170D01*
X222115Y63908D01*
X221792Y63908D01*
X221593Y63889D01*
X221409Y63834D01*
X221244Y63746D01*
X221101Y63630D01*
X220984Y63487D01*
X220897Y63322D01*
X220842Y63138D01*
X220823Y62939D01*
X220823Y61646D01*
X220842Y61447D01*
X220897Y61263D01*
X220984Y61098D01*
X221101Y60956D01*
X221244Y60839D01*
X221409Y60751D01*
X221593Y60696D01*
X221792Y60677D01*
X223133Y60677D01*
X222374Y61824D01*
X222374Y62939D01*
X222390Y63268D01*
X222439Y63588D01*
X222519Y63897D01*
X222628Y64194D01*
X222765Y64476D01*
X222927Y64742D01*
X223018Y64863D01*
X223114Y64991D01*
X223323Y65221D01*
X223552Y65430D01*
X223801Y65616D01*
X224068Y65779D01*
X224350Y65915D01*
X224647Y66024D01*
X224956Y66104D01*
X225276Y66153D01*
X225605Y66170D01*
X226639Y66170D01*
X226971Y66154D01*
X227293Y66105D01*
X227603Y66026D01*
X227900Y65917D01*
X228183Y65782D01*
X228449Y65621D01*
X228698Y65435D01*
X228927Y65227D01*
X229135Y64998D01*
X229320Y64749D01*
X229482Y64483D01*
X229617Y64200D01*
X229726Y63903D01*
X229805Y63593D01*
X229853Y63271D01*
X229870Y62939D01*
X229870Y61646D01*
X229853Y61317D01*
X229804Y60997D01*
X229724Y60688D01*
X229615Y60392D01*
X229479Y60109D01*
X229316Y59843D01*
X229130Y59594D01*
X228921Y59364D01*
X228691Y59155D01*
X228442Y58969D01*
X228176Y58807D01*
X227893Y58670D01*
X227597Y58561D01*
X227288Y58481D01*
X226968Y58432D01*
X226639Y58415D01*
G37*
%LPC*%
G36*
X226639Y60677D02*
X226834Y60697D01*
X227015Y60754D01*
X227180Y60843D01*
X227323Y60962D01*
X227442Y61105D01*
X227532Y61270D01*
X227588Y61452D01*
X227608Y61646D01*
X227608Y62939D01*
X227589Y63138D01*
X227534Y63322D01*
X227446Y63487D01*
X227329Y63630D01*
X227187Y63746D01*
X227022Y63834D01*
X226838Y63889D01*
X226639Y63908D01*
X225605Y63908D01*
X225410Y63888D01*
X225228Y63832D01*
X225064Y63742D01*
X224920Y63624D01*
X224802Y63480D01*
X224712Y63315D01*
X224655Y63134D01*
X224635Y62939D01*
X224635Y62519D01*
X225879Y60677D01*
X226639Y60677D01*
G37*
%LPD*%
G36*
X226623Y48103D02*
X221792Y48103D01*
X221463Y48119D01*
X221143Y48169D01*
X220834Y48249D01*
X220537Y48358D01*
X220255Y48494D01*
X219989Y48656D01*
X219740Y48843D01*
X219510Y49052D01*
X219301Y49282D01*
X219114Y49531D01*
X218952Y49797D01*
X218816Y50079D01*
X218707Y50376D01*
X218627Y50685D01*
X218577Y51005D01*
X218561Y51334D01*
X218561Y52626D01*
X218577Y52958D01*
X218626Y53280D01*
X218705Y53591D01*
X218813Y53888D01*
X218949Y54170D01*
X219110Y54437D01*
X219296Y54685D01*
X219504Y54915D01*
X219733Y55123D01*
X219981Y55308D01*
X220248Y55469D01*
X220530Y55605D01*
X220828Y55713D01*
X221138Y55792D01*
X221460Y55841D01*
X221792Y55858D01*
X222680Y55858D01*
X222680Y53596D01*
X221792Y53596D01*
X221593Y53577D01*
X221409Y53522D01*
X221244Y53434D01*
X221101Y53317D01*
X220984Y53175D01*
X220897Y53010D01*
X220842Y52826D01*
X220823Y52626D01*
X220823Y51334D01*
X220842Y51135D01*
X220899Y50951D01*
X220989Y50786D01*
X221107Y50643D01*
X221251Y50526D01*
X221416Y50439D01*
X221597Y50384D01*
X221792Y50365D01*
X226623Y50365D01*
X226817Y50384D01*
X226999Y50441D01*
X227164Y50531D01*
X227307Y50649D01*
X227426Y50793D01*
X227516Y50958D01*
X227572Y51139D01*
X227592Y51334D01*
X227592Y52626D01*
X227572Y52821D01*
X227516Y53003D01*
X227426Y53167D01*
X227307Y53311D01*
X227164Y53430D01*
X226999Y53519D01*
X226817Y53576D01*
X226623Y53596D01*
X225734Y53596D01*
X225734Y55858D01*
X226623Y55858D01*
X226955Y55841D01*
X227277Y55792D01*
X227588Y55712D01*
X227887Y55603D01*
X228170Y55466D01*
X228438Y55304D01*
X228688Y55117D01*
X228919Y54908D01*
X229128Y54679D01*
X229315Y54430D01*
X229478Y54163D01*
X229615Y53881D01*
X229724Y53585D01*
X229804Y53275D01*
X229853Y52956D01*
X229870Y52626D01*
X229870Y51334D01*
X229853Y51005D01*
X229803Y50685D01*
X229723Y50376D01*
X229613Y50079D01*
X229475Y49797D01*
X229311Y49531D01*
X229123Y49282D01*
X228913Y49052D01*
X228682Y48843D01*
X228431Y48656D01*
X228163Y48494D01*
X227880Y48358D01*
X227582Y48249D01*
X227272Y48169D01*
X226952Y48119D01*
X226623Y48103D01*
G37*
G36*
X55173Y-174147D02*
X50342Y-174147D01*
X50013Y-174131D01*
X49693Y-174081D01*
X49384Y-174001D01*
X49087Y-173892D01*
X48805Y-173756D01*
X48539Y-173594D01*
X48290Y-173407D01*
X48060Y-173198D01*
X47851Y-172968D01*
X47664Y-172720D01*
X47502Y-172453D01*
X47366Y-172171D01*
X47257Y-171874D01*
X47177Y-171565D01*
X47127Y-171245D01*
X47111Y-170916D01*
X47111Y-169624D01*
X47127Y-169292D01*
X47176Y-168970D01*
X47255Y-168659D01*
X47363Y-168362D01*
X47499Y-168080D01*
X47660Y-167813D01*
X47846Y-167565D01*
X48054Y-167335D01*
X48283Y-167127D01*
X48531Y-166942D01*
X48798Y-166781D01*
X49080Y-166645D01*
X49378Y-166537D01*
X49688Y-166458D01*
X50010Y-166409D01*
X50342Y-166392D01*
X51230Y-166392D01*
X51230Y-168654D01*
X50342Y-168654D01*
X50143Y-168673D01*
X49959Y-168728D01*
X49794Y-168816D01*
X49651Y-168933D01*
X49534Y-169076D01*
X49447Y-169240D01*
X49392Y-169424D01*
X49373Y-169624D01*
X49373Y-170916D01*
X49392Y-171115D01*
X49449Y-171299D01*
X49539Y-171464D01*
X49657Y-171607D01*
X49801Y-171724D01*
X49966Y-171811D01*
X50147Y-171866D01*
X50342Y-171885D01*
X55173Y-171885D01*
X55367Y-171866D01*
X55549Y-171809D01*
X55714Y-171719D01*
X55857Y-171601D01*
X55976Y-171457D01*
X56066Y-171293D01*
X56122Y-171111D01*
X56142Y-170916D01*
X56142Y-169624D01*
X56122Y-169429D01*
X56066Y-169247D01*
X55976Y-169083D01*
X55857Y-168939D01*
X55714Y-168820D01*
X55549Y-168731D01*
X55367Y-168674D01*
X55173Y-168654D01*
X54284Y-168654D01*
X54284Y-166392D01*
X55173Y-166392D01*
X55505Y-166409D01*
X55827Y-166458D01*
X56138Y-166538D01*
X56437Y-166647D01*
X56720Y-166784D01*
X56988Y-166946D01*
X57238Y-167133D01*
X57469Y-167342D01*
X57678Y-167571D01*
X57865Y-167820D01*
X58028Y-168087D01*
X58165Y-168369D01*
X58274Y-168665D01*
X58354Y-168975D01*
X58403Y-169294D01*
X58420Y-169624D01*
X58420Y-170916D01*
X58403Y-171245D01*
X58353Y-171565D01*
X58273Y-171874D01*
X58163Y-172171D01*
X58025Y-172453D01*
X57861Y-172720D01*
X57673Y-172968D01*
X57463Y-173198D01*
X57232Y-173407D01*
X56981Y-173594D01*
X56713Y-173756D01*
X56430Y-173892D01*
X56132Y-174001D01*
X55822Y-174081D01*
X55502Y-174131D01*
X55173Y-174147D01*
G37*
G36*
X50665Y-163835D02*
X47111Y-163835D01*
X47111Y-156080D01*
X51182Y-156080D01*
X56190Y-160927D01*
X58420Y-160927D01*
X58420Y-163189D01*
X55286Y-163189D01*
X50277Y-158342D01*
X49373Y-158342D01*
X49373Y-161573D01*
X50665Y-161573D01*
X50665Y-163835D01*
G37*
G36*
X-89607Y91435D02*
X-90076Y91435D01*
X-90388Y91450D01*
X-90692Y91494D01*
X-90987Y91566D01*
X-91272Y91665D01*
X-91544Y91790D01*
X-91803Y91940D01*
X-92046Y92112D01*
X-92273Y92308D01*
X-92491Y92147D01*
X-92721Y92006D01*
X-92960Y91884D01*
X-93210Y91783D01*
X-93469Y91702D01*
X-93736Y91644D01*
X-94011Y91609D01*
X-94293Y91597D01*
X-94438Y91597D01*
X-94767Y91613D01*
X-95087Y91663D01*
X-95396Y91743D01*
X-95693Y91852D01*
X-95975Y91988D01*
X-96242Y92151D01*
X-96490Y92337D01*
X-96720Y92546D01*
X-96929Y92776D01*
X-97116Y93025D01*
X-97278Y93291D01*
X-97414Y93573D01*
X-97523Y93870D01*
X-97603Y94179D01*
X-97653Y94499D01*
X-97669Y94828D01*
X-97669Y95797D01*
X-97653Y96129D01*
X-97604Y96451D01*
X-97525Y96761D01*
X-97417Y97059D01*
X-97281Y97341D01*
X-97120Y97608D01*
X-96934Y97856D01*
X-96726Y98085D01*
X-96497Y98294D01*
X-96249Y98479D01*
X-95982Y98640D01*
X-95700Y98776D01*
X-95402Y98884D01*
X-95092Y98963D01*
X-94770Y99012D01*
X-94438Y99029D01*
X-94293Y99029D01*
X-94011Y99017D01*
X-93736Y98981D01*
X-93469Y98924D01*
X-93210Y98845D01*
X-92960Y98745D01*
X-92721Y98626D01*
X-92491Y98489D01*
X-92273Y98334D01*
X-92052Y98524D01*
X-91812Y98693D01*
X-91555Y98839D01*
X-91284Y98962D01*
X-90998Y99060D01*
X-90701Y99131D01*
X-90393Y99175D01*
X-90076Y99190D01*
X-89607Y99190D01*
X-89275Y99173D01*
X-88953Y99124D01*
X-88642Y99044D01*
X-88343Y98935D01*
X-88060Y98799D01*
X-87792Y98636D01*
X-87542Y98450D01*
X-87311Y98241D01*
X-87102Y98011D01*
X-86915Y97762D01*
X-86752Y97496D01*
X-86615Y97214D01*
X-86506Y96917D01*
X-86426Y96608D01*
X-86377Y96288D01*
X-86360Y95959D01*
X-86360Y94666D01*
X-86377Y94337D01*
X-86427Y94017D01*
X-86507Y93708D01*
X-86617Y93412D01*
X-86755Y93129D01*
X-86919Y92863D01*
X-87107Y92614D01*
X-87317Y92384D01*
X-87549Y92175D01*
X-87799Y91989D01*
X-88067Y91827D01*
X-88350Y91690D01*
X-88648Y91581D01*
X-88958Y91501D01*
X-89278Y91452D01*
X-89607Y91435D01*
G37*
%LPC*%
G36*
X-89607Y93697D02*
X-89407Y93717D01*
X-89219Y93774D01*
X-89050Y93863D01*
X-88903Y93982D01*
X-88782Y94125D01*
X-88692Y94290D01*
X-88637Y94472D01*
X-88622Y94666D01*
X-88622Y95959D01*
X-88642Y96154D01*
X-88699Y96335D01*
X-88789Y96500D01*
X-88909Y96644D01*
X-89054Y96762D01*
X-89222Y96852D01*
X-89407Y96908D01*
X-89607Y96928D01*
X-90076Y96928D01*
X-90275Y96909D01*
X-90459Y96854D01*
X-90624Y96766D01*
X-90767Y96650D01*
X-90883Y96507D01*
X-90971Y96342D01*
X-91026Y96158D01*
X-91045Y95959D01*
X-91045Y94666D01*
X-91026Y94467D01*
X-90969Y94283D01*
X-90879Y94118D01*
X-90761Y93976D01*
X-90617Y93859D01*
X-90452Y93771D01*
X-90271Y93716D01*
X-90076Y93697D01*
X-89607Y93697D01*
G37*
G36*
X-94293Y93859D02*
X-94098Y93877D01*
X-93916Y93930D01*
X-93751Y94014D01*
X-93606Y94125D01*
X-93486Y94261D01*
X-93393Y94417D01*
X-93332Y94591D01*
X-93307Y94780D01*
X-93307Y95797D01*
X-93327Y95992D01*
X-93358Y96091D01*
X-93384Y96174D01*
X-93474Y96338D01*
X-93594Y96482D01*
X-93739Y96601D01*
X-93907Y96690D01*
X-94093Y96747D01*
X-94293Y96767D01*
X-94438Y96767D01*
X-94637Y96748D01*
X-94821Y96693D01*
X-94986Y96605D01*
X-95129Y96488D01*
X-95246Y96345D01*
X-95333Y96181D01*
X-95388Y95997D01*
X-95408Y95797D01*
X-95408Y94828D01*
X-95388Y94629D01*
X-95331Y94445D01*
X-95241Y94280D01*
X-95123Y94137D01*
X-94979Y94020D01*
X-94815Y93933D01*
X-94633Y93878D01*
X-94438Y93859D01*
X-94293Y93859D01*
G37*
%LPD*%
G36*
X-89607Y81123D02*
X-94438Y81123D01*
X-94767Y81139D01*
X-95087Y81189D01*
X-95396Y81269D01*
X-95693Y81378D01*
X-95975Y81514D01*
X-96242Y81676D01*
X-96490Y81863D01*
X-96720Y82072D01*
X-96929Y82302D01*
X-97116Y82551D01*
X-97278Y82817D01*
X-97414Y83099D01*
X-97523Y83396D01*
X-97603Y83705D01*
X-97653Y84025D01*
X-97669Y84354D01*
X-97669Y85646D01*
X-97653Y85978D01*
X-97604Y86300D01*
X-97525Y86611D01*
X-97417Y86908D01*
X-97281Y87190D01*
X-97120Y87457D01*
X-96934Y87705D01*
X-96726Y87935D01*
X-96497Y88143D01*
X-96249Y88328D01*
X-95982Y88489D01*
X-95700Y88625D01*
X-95402Y88733D01*
X-95092Y88812D01*
X-94770Y88861D01*
X-94438Y88878D01*
X-93550Y88878D01*
X-93550Y86616D01*
X-94438Y86616D01*
X-94637Y86597D01*
X-94821Y86542D01*
X-94986Y86454D01*
X-95129Y86337D01*
X-95246Y86195D01*
X-95333Y86030D01*
X-95388Y85846D01*
X-95408Y85646D01*
X-95408Y84354D01*
X-95388Y84155D01*
X-95331Y83971D01*
X-95241Y83806D01*
X-95123Y83663D01*
X-94979Y83546D01*
X-94815Y83459D01*
X-94633Y83404D01*
X-94438Y83385D01*
X-89607Y83385D01*
X-89413Y83404D01*
X-89231Y83461D01*
X-89066Y83551D01*
X-88923Y83669D01*
X-88804Y83813D01*
X-88715Y83978D01*
X-88658Y84159D01*
X-88638Y84354D01*
X-88638Y85646D01*
X-88658Y85841D01*
X-88715Y86023D01*
X-88804Y86187D01*
X-88923Y86331D01*
X-89066Y86450D01*
X-89231Y86539D01*
X-89413Y86596D01*
X-89607Y86616D01*
X-90496Y86616D01*
X-90496Y88878D01*
X-89607Y88878D01*
X-89275Y88861D01*
X-88953Y88812D01*
X-88642Y88732D01*
X-88343Y88623D01*
X-88060Y88486D01*
X-87792Y88324D01*
X-87542Y88137D01*
X-87311Y87928D01*
X-87102Y87699D01*
X-86915Y87450D01*
X-86752Y87183D01*
X-86615Y86901D01*
X-86506Y86605D01*
X-86426Y86295D01*
X-86377Y85976D01*
X-86360Y85646D01*
X-86360Y84354D01*
X-86377Y84025D01*
X-86427Y83705D01*
X-86507Y83396D01*
X-86617Y83099D01*
X-86755Y82817D01*
X-86919Y82551D01*
X-87107Y82302D01*
X-87317Y82072D01*
X-87549Y81863D01*
X-87799Y81676D01*
X-88067Y81514D01*
X-88350Y81378D01*
X-88648Y81269D01*
X-88958Y81189D01*
X-89278Y81139D01*
X-89607Y81123D01*
G37*
G36*
X88206Y91435D02*
X87172Y91435D01*
X86840Y91452D01*
X86518Y91500D01*
X86208Y91580D01*
X85910Y91688D01*
X85628Y91823D01*
X85361Y91985D01*
X85113Y92170D01*
X84884Y92378D01*
X84676Y92607D01*
X84490Y92856D01*
X84329Y93122D01*
X84193Y93405D01*
X84085Y93702D01*
X84006Y94013D01*
X83957Y94335D01*
X83941Y94666D01*
X83941Y95959D01*
X83957Y96288D01*
X84007Y96608D01*
X84087Y96917D01*
X84196Y97214D01*
X84332Y97496D01*
X84494Y97762D01*
X84681Y98011D01*
X84890Y98241D01*
X85120Y98450D01*
X85369Y98636D01*
X85635Y98799D01*
X85917Y98935D01*
X86214Y99044D01*
X86523Y99124D01*
X86843Y99173D01*
X87172Y99190D01*
X92019Y99190D01*
X92351Y99174D01*
X92673Y99125D01*
X92983Y99046D01*
X93280Y98937D01*
X93563Y98802D01*
X93829Y98641D01*
X94078Y98455D01*
X94307Y98247D01*
X94515Y98018D01*
X94700Y97769D01*
X94862Y97503D01*
X94997Y97220D01*
X95106Y96923D01*
X95185Y96613D01*
X95233Y96291D01*
X95250Y95959D01*
X95250Y94666D01*
X95233Y94335D01*
X95185Y94013D01*
X95106Y93702D01*
X94997Y93405D01*
X94862Y93122D01*
X94700Y92856D01*
X94515Y92607D01*
X94307Y92378D01*
X94078Y92170D01*
X93829Y91985D01*
X93563Y91823D01*
X93280Y91688D01*
X92983Y91580D01*
X92673Y91500D01*
X92351Y91452D01*
X92019Y91435D01*
X91696Y91435D01*
X91696Y93697D01*
X92019Y93697D01*
X92218Y93716D01*
X92402Y93771D01*
X92567Y93859D01*
X92709Y93976D01*
X92826Y94118D01*
X92914Y94283D01*
X92969Y94467D01*
X92988Y94666D01*
X92988Y95959D01*
X92969Y96158D01*
X92914Y96342D01*
X92826Y96507D01*
X92709Y96650D01*
X92567Y96766D01*
X92402Y96854D01*
X92218Y96909D01*
X92019Y96928D01*
X90678Y96928D01*
X91437Y95781D01*
X91437Y94666D01*
X91420Y94337D01*
X91371Y94017D01*
X91291Y93708D01*
X91182Y93412D01*
X91046Y93129D01*
X90883Y92863D01*
X90697Y92614D01*
X90488Y92384D01*
X90258Y92175D01*
X90009Y91989D01*
X89743Y91827D01*
X89461Y91690D01*
X89164Y91581D01*
X88855Y91501D01*
X88535Y91452D01*
X88206Y91435D01*
G37*
%LPC*%
G36*
X88206Y93697D02*
X88401Y93717D01*
X88582Y93774D01*
X88747Y93863D01*
X88891Y93982D01*
X89009Y94125D01*
X89099Y94290D01*
X89155Y94472D01*
X89175Y94666D01*
X89175Y95086D01*
X87931Y96928D01*
X87172Y96928D01*
X86977Y96908D01*
X86796Y96852D01*
X86631Y96762D01*
X86487Y96644D01*
X86369Y96500D01*
X86279Y96335D01*
X86222Y96154D01*
X86203Y95959D01*
X86203Y94666D01*
X86222Y94467D01*
X86277Y94283D01*
X86364Y94118D01*
X86481Y93976D01*
X86624Y93859D01*
X86789Y93771D01*
X86973Y93716D01*
X87172Y93697D01*
X88206Y93697D01*
G37*
%LPD*%
G36*
X92003Y81123D02*
X87172Y81123D01*
X86843Y81139D01*
X86523Y81189D01*
X86214Y81269D01*
X85917Y81378D01*
X85635Y81514D01*
X85369Y81676D01*
X85120Y81863D01*
X84890Y82072D01*
X84681Y82302D01*
X84494Y82551D01*
X84332Y82817D01*
X84196Y83099D01*
X84087Y83396D01*
X84007Y83705D01*
X83957Y84025D01*
X83941Y84354D01*
X83941Y85646D01*
X83957Y85978D01*
X84006Y86300D01*
X84085Y86611D01*
X84193Y86908D01*
X84329Y87190D01*
X84490Y87457D01*
X84676Y87705D01*
X84884Y87935D01*
X85113Y88143D01*
X85361Y88328D01*
X85628Y88489D01*
X85910Y88625D01*
X86208Y88733D01*
X86518Y88812D01*
X86840Y88861D01*
X87172Y88878D01*
X88060Y88878D01*
X88060Y86616D01*
X87172Y86616D01*
X86973Y86597D01*
X86789Y86542D01*
X86624Y86454D01*
X86481Y86337D01*
X86364Y86195D01*
X86277Y86030D01*
X86222Y85846D01*
X86203Y85646D01*
X86203Y84354D01*
X86222Y84155D01*
X86279Y83971D01*
X86369Y83806D01*
X86487Y83663D01*
X86631Y83546D01*
X86796Y83459D01*
X86977Y83404D01*
X87172Y83385D01*
X92003Y83385D01*
X92197Y83404D01*
X92379Y83461D01*
X92544Y83551D01*
X92687Y83669D01*
X92806Y83813D01*
X92896Y83978D01*
X92952Y84159D01*
X92972Y84354D01*
X92972Y85646D01*
X92952Y85841D01*
X92896Y86023D01*
X92806Y86187D01*
X92687Y86331D01*
X92544Y86450D01*
X92379Y86539D01*
X92197Y86596D01*
X92003Y86616D01*
X91114Y86616D01*
X91114Y88878D01*
X92003Y88878D01*
X92335Y88861D01*
X92657Y88812D01*
X92968Y88732D01*
X93267Y88623D01*
X93550Y88486D01*
X93818Y88324D01*
X94068Y88137D01*
X94299Y87928D01*
X94508Y87699D01*
X94695Y87450D01*
X94858Y87183D01*
X94995Y86901D01*
X95104Y86605D01*
X95184Y86295D01*
X95233Y85976D01*
X95250Y85646D01*
X95250Y84354D01*
X95233Y84025D01*
X95183Y83705D01*
X95103Y83396D01*
X94993Y83099D01*
X94855Y82817D01*
X94691Y82551D01*
X94503Y82302D01*
X94293Y82072D01*
X94062Y81863D01*
X93811Y81676D01*
X93543Y81514D01*
X93260Y81378D01*
X92962Y81269D01*
X92652Y81189D01*
X92332Y81139D01*
X92003Y81123D01*
G37*
G36*
X199719Y148786D02*
X198426Y148786D01*
X198097Y148803D01*
X197777Y148853D01*
X197468Y148933D01*
X197172Y149044D01*
X196889Y149181D01*
X196623Y149345D01*
X196374Y149533D01*
X196144Y149743D01*
X195935Y149975D01*
X195749Y150225D01*
X195587Y150493D01*
X195450Y150776D01*
X195341Y151074D01*
X195261Y151384D01*
X195212Y151704D01*
X195195Y152034D01*
X195195Y156864D01*
X195212Y157193D01*
X195261Y157513D01*
X195341Y157822D01*
X195450Y158119D01*
X195587Y158401D01*
X195749Y158668D01*
X195935Y158917D01*
X196144Y159146D01*
X196374Y159355D01*
X196623Y159542D01*
X196889Y159704D01*
X197172Y159841D01*
X197468Y159950D01*
X197777Y160030D01*
X198097Y160079D01*
X198426Y160095D01*
X199719Y160095D01*
X200051Y160079D01*
X200373Y160030D01*
X200683Y159951D01*
X200980Y159843D01*
X201263Y159707D01*
X201529Y159546D01*
X201778Y159360D01*
X202007Y159152D01*
X202215Y158923D01*
X202401Y158675D01*
X202562Y158408D01*
X202697Y158126D01*
X202806Y157828D01*
X202885Y157518D01*
X202934Y157196D01*
X202950Y156864D01*
X202950Y152034D01*
X202933Y151701D01*
X202884Y151379D01*
X202804Y151068D01*
X202695Y150770D01*
X202559Y150486D01*
X202396Y150218D01*
X202210Y149968D01*
X202001Y149737D01*
X201771Y149528D01*
X201522Y149341D01*
X201256Y149178D01*
X200973Y149041D01*
X200677Y148932D01*
X200368Y148852D01*
X200048Y148803D01*
X199719Y148786D01*
G37*
%LPC*%
G36*
X200688Y153988D02*
X200688Y156864D01*
X200669Y157064D01*
X200614Y157247D01*
X200526Y157412D01*
X200410Y157555D01*
X200267Y157672D01*
X200102Y157759D01*
X199918Y157814D01*
X199719Y157834D01*
X198329Y157834D01*
X199194Y156425D01*
X200688Y153988D01*
G37*
G36*
X199816Y151064D02*
X198689Y152901D01*
X197457Y154909D01*
X197457Y152034D01*
X197477Y151839D01*
X197533Y151657D01*
X197623Y151492D01*
X197742Y151349D01*
X197885Y151230D01*
X198050Y151141D01*
X198232Y151084D01*
X198426Y151064D01*
X199816Y151064D01*
G37*
%LPD*%
G36*
X179063Y148786D02*
X177770Y148786D01*
X177441Y148803D01*
X177121Y148853D01*
X176812Y148933D01*
X176515Y149044D01*
X176233Y149181D01*
X175967Y149345D01*
X175718Y149533D01*
X175488Y149743D01*
X175279Y149975D01*
X175093Y150225D01*
X174930Y150493D01*
X174794Y150776D01*
X174685Y151074D01*
X174605Y151384D01*
X174556Y151704D01*
X174539Y152034D01*
X174539Y156864D01*
X174556Y157193D01*
X174605Y157513D01*
X174685Y157822D01*
X174794Y158119D01*
X174930Y158401D01*
X175093Y158668D01*
X175279Y158917D01*
X175488Y159146D01*
X175718Y159355D01*
X175967Y159542D01*
X176233Y159704D01*
X176515Y159841D01*
X176812Y159950D01*
X177121Y160030D01*
X177441Y160079D01*
X177770Y160095D01*
X179063Y160095D01*
X179394Y160079D01*
X179716Y160030D01*
X180027Y159951D01*
X180324Y159843D01*
X180607Y159707D01*
X180873Y159546D01*
X181122Y159360D01*
X181351Y159152D01*
X181559Y158923D01*
X181744Y158675D01*
X181906Y158408D01*
X182041Y158126D01*
X182149Y157828D01*
X182229Y157518D01*
X182277Y157196D01*
X182294Y156864D01*
X182294Y155976D01*
X180032Y155976D01*
X180032Y156864D01*
X180013Y157064D01*
X179958Y157247D01*
X179870Y157412D01*
X179753Y157555D01*
X179611Y157672D01*
X179446Y157759D01*
X179262Y157814D01*
X179063Y157834D01*
X177770Y157834D01*
X177571Y157814D01*
X177387Y157757D01*
X177222Y157667D01*
X177079Y157549D01*
X176963Y157405D01*
X176875Y157241D01*
X176820Y157059D01*
X176801Y156864D01*
X176801Y152034D01*
X176821Y151839D01*
X176877Y151657D01*
X176967Y151492D01*
X177085Y151349D01*
X177229Y151230D01*
X177394Y151141D01*
X177575Y151084D01*
X177770Y151064D01*
X179063Y151064D01*
X179257Y151084D01*
X179439Y151141D01*
X179604Y151230D01*
X179747Y151349D01*
X179866Y151492D01*
X179955Y151657D01*
X180012Y151839D01*
X180032Y152034D01*
X180032Y152922D01*
X182294Y152922D01*
X182294Y152034D01*
X182277Y151701D01*
X182228Y151379D01*
X182148Y151068D01*
X182039Y150770D01*
X181902Y150486D01*
X181740Y150218D01*
X181554Y149968D01*
X181345Y149737D01*
X181115Y149528D01*
X180866Y149341D01*
X180600Y149178D01*
X180317Y149041D01*
X180021Y148932D01*
X179712Y148852D01*
X179392Y148803D01*
X179063Y148786D01*
G37*
G36*
X192606Y148786D02*
X184851Y148786D01*
X184851Y151048D01*
X187598Y151048D01*
X187598Y157333D01*
X184851Y155717D01*
X184851Y158334D01*
X187840Y160095D01*
X189860Y160095D01*
X189860Y151048D01*
X192606Y151048D01*
X192606Y148786D01*
G37*
G36*
X-167370Y188756D02*
X-168662Y188756D01*
X-168991Y188773D01*
X-169311Y188823D01*
X-169620Y188904D01*
X-169917Y189014D01*
X-170199Y189151D01*
X-170466Y189315D01*
X-170714Y189503D01*
X-170944Y189713D01*
X-171153Y189945D01*
X-171340Y190195D01*
X-171502Y190463D01*
X-171638Y190746D01*
X-171748Y191044D01*
X-171827Y191354D01*
X-171877Y191674D01*
X-171893Y192004D01*
X-171893Y196834D01*
X-171877Y197163D01*
X-171827Y197483D01*
X-171748Y197792D01*
X-171638Y198089D01*
X-171502Y198371D01*
X-171340Y198638D01*
X-171153Y198887D01*
X-170944Y199116D01*
X-170714Y199325D01*
X-170466Y199512D01*
X-170199Y199674D01*
X-169917Y199811D01*
X-169620Y199920D01*
X-169311Y200000D01*
X-168991Y200049D01*
X-168662Y200066D01*
X-167370Y200066D01*
X-167038Y200049D01*
X-166716Y200000D01*
X-166406Y199921D01*
X-166108Y199813D01*
X-165826Y199677D01*
X-165559Y199516D01*
X-165311Y199331D01*
X-165082Y199122D01*
X-164873Y198893D01*
X-164688Y198645D01*
X-164527Y198378D01*
X-164391Y198096D01*
X-164283Y197798D01*
X-164204Y197488D01*
X-164155Y197166D01*
X-164138Y196834D01*
X-164138Y195946D01*
X-166400Y195946D01*
X-166400Y196834D01*
X-166419Y197034D01*
X-166475Y197217D01*
X-166562Y197382D01*
X-166679Y197525D01*
X-166822Y197642D01*
X-166986Y197729D01*
X-167170Y197785D01*
X-167370Y197804D01*
X-168662Y197804D01*
X-168862Y197784D01*
X-169045Y197727D01*
X-169210Y197638D01*
X-169353Y197519D01*
X-169470Y197375D01*
X-169557Y197211D01*
X-169612Y197029D01*
X-169632Y196834D01*
X-169632Y192004D01*
X-169612Y191809D01*
X-169555Y191627D01*
X-169465Y191463D01*
X-169347Y191319D01*
X-169203Y191200D01*
X-169039Y191111D01*
X-168857Y191054D01*
X-168662Y191034D01*
X-167370Y191034D01*
X-167175Y191054D01*
X-166993Y191111D01*
X-166829Y191200D01*
X-166685Y191319D01*
X-166566Y191463D01*
X-166477Y191627D01*
X-166420Y191809D01*
X-166400Y192004D01*
X-166400Y192892D01*
X-164138Y192892D01*
X-164138Y192004D01*
X-164155Y191672D01*
X-164204Y191349D01*
X-164284Y191038D01*
X-164393Y190740D01*
X-164530Y190456D01*
X-164692Y190188D01*
X-164879Y189938D01*
X-165088Y189707D01*
X-165317Y189498D01*
X-165566Y189311D01*
X-165833Y189148D01*
X-166115Y189011D01*
X-166412Y188902D01*
X-166721Y188822D01*
X-167041Y188773D01*
X-167370Y188756D01*
G37*
G36*
X-153826Y188756D02*
X-161581Y188756D01*
X-161581Y191018D01*
X-158834Y191018D01*
X-158834Y197303D01*
X-161581Y195687D01*
X-161581Y198305D01*
X-158592Y200066D01*
X-156572Y200066D01*
X-156572Y191018D01*
X-153826Y191018D01*
X-153826Y188756D01*
G37*
G36*
X-143482Y188756D02*
X-151237Y188756D01*
X-151237Y191018D01*
X-148491Y191018D01*
X-148491Y197303D01*
X-151237Y195687D01*
X-151237Y198305D01*
X-148248Y200066D01*
X-146229Y200066D01*
X-146229Y191018D01*
X-143482Y191018D01*
X-143482Y188756D01*
G37*
G36*
X-180912Y-161486D02*
X-188667Y-161486D01*
X-188667Y-157399D01*
X-183174Y-154313D01*
X-183174Y-153408D01*
X-183193Y-153209D01*
X-183248Y-153025D01*
X-183336Y-152860D01*
X-183453Y-152717D01*
X-183595Y-152600D01*
X-183760Y-152513D01*
X-183944Y-152458D01*
X-184143Y-152439D01*
X-185436Y-152439D01*
X-185631Y-152458D01*
X-185812Y-152515D01*
X-185977Y-152605D01*
X-186121Y-152723D01*
X-186239Y-152867D01*
X-186329Y-153032D01*
X-186385Y-153213D01*
X-186405Y-153408D01*
X-186405Y-154297D01*
X-188667Y-154297D01*
X-188667Y-153408D01*
X-188650Y-153079D01*
X-188601Y-152759D01*
X-188521Y-152450D01*
X-188412Y-152153D01*
X-188276Y-151871D01*
X-188113Y-151605D01*
X-187927Y-151356D01*
X-187718Y-151126D01*
X-187488Y-150917D01*
X-187239Y-150731D01*
X-186973Y-150568D01*
X-186691Y-150432D01*
X-186394Y-150323D01*
X-186085Y-150243D01*
X-185765Y-150193D01*
X-185436Y-150177D01*
X-184143Y-150177D01*
X-183812Y-150193D01*
X-183490Y-150242D01*
X-183179Y-150321D01*
X-182882Y-150429D01*
X-182599Y-150565D01*
X-182333Y-150726D01*
X-182084Y-150912D01*
X-181855Y-151120D01*
X-181647Y-151349D01*
X-181462Y-151597D01*
X-181300Y-151864D01*
X-181165Y-152147D01*
X-181057Y-152444D01*
X-180977Y-152754D01*
X-180929Y-153076D01*
X-180912Y-153408D01*
X-180912Y-155654D01*
X-186405Y-158740D01*
X-186405Y-159224D01*
X-180912Y-159224D01*
X-180912Y-161486D01*
G37*
G36*
X-204800Y-161486D02*
X-206092Y-161486D01*
X-206421Y-161469D01*
X-206741Y-161419D01*
X-207050Y-161339D01*
X-207347Y-161229D01*
X-207629Y-161091D01*
X-207896Y-160927D01*
X-208144Y-160739D01*
X-208374Y-160529D01*
X-208583Y-160298D01*
X-208770Y-160047D01*
X-208932Y-159779D01*
X-209068Y-159496D01*
X-209178Y-159198D01*
X-209257Y-158888D01*
X-209307Y-158568D01*
X-209323Y-158239D01*
X-209323Y-153408D01*
X-209307Y-153079D01*
X-209257Y-152759D01*
X-209178Y-152450D01*
X-209068Y-152153D01*
X-208932Y-151871D01*
X-208770Y-151605D01*
X-208583Y-151356D01*
X-208374Y-151126D01*
X-208144Y-150917D01*
X-207896Y-150731D01*
X-207629Y-150568D01*
X-207347Y-150432D01*
X-207050Y-150323D01*
X-206741Y-150243D01*
X-206421Y-150193D01*
X-206092Y-150177D01*
X-204800Y-150177D01*
X-204468Y-150193D01*
X-204146Y-150242D01*
X-203836Y-150321D01*
X-203538Y-150429D01*
X-203256Y-150565D01*
X-202989Y-150726D01*
X-202741Y-150912D01*
X-202512Y-151120D01*
X-202303Y-151349D01*
X-202118Y-151597D01*
X-201957Y-151864D01*
X-201821Y-152147D01*
X-201713Y-152444D01*
X-201634Y-152754D01*
X-201585Y-153076D01*
X-201568Y-153408D01*
X-201568Y-154297D01*
X-203830Y-154297D01*
X-203830Y-153408D01*
X-203849Y-153209D01*
X-203904Y-153025D01*
X-203992Y-152860D01*
X-204109Y-152717D01*
X-204252Y-152600D01*
X-204416Y-152513D01*
X-204600Y-152458D01*
X-204800Y-152439D01*
X-206092Y-152439D01*
X-206292Y-152458D01*
X-206475Y-152515D01*
X-206640Y-152605D01*
X-206783Y-152723D01*
X-206900Y-152867D01*
X-206987Y-153032D01*
X-207042Y-153213D01*
X-207062Y-153408D01*
X-207062Y-158239D01*
X-207042Y-158433D01*
X-206985Y-158615D01*
X-206895Y-158780D01*
X-206777Y-158923D01*
X-206633Y-159042D01*
X-206469Y-159132D01*
X-206287Y-159188D01*
X-206092Y-159208D01*
X-204800Y-159208D01*
X-204605Y-159188D01*
X-204423Y-159132D01*
X-204259Y-159042D01*
X-204115Y-158923D01*
X-203996Y-158780D01*
X-203907Y-158615D01*
X-203850Y-158433D01*
X-203830Y-158239D01*
X-203830Y-157350D01*
X-201568Y-157350D01*
X-201568Y-158239D01*
X-201585Y-158571D01*
X-201634Y-158893D01*
X-201714Y-159204D01*
X-201823Y-159503D01*
X-201960Y-159787D01*
X-202122Y-160054D01*
X-202309Y-160304D01*
X-202518Y-160535D01*
X-202747Y-160744D01*
X-202996Y-160931D01*
X-203263Y-161094D01*
X-203545Y-161231D01*
X-203842Y-161340D01*
X-204151Y-161420D01*
X-204470Y-161469D01*
X-204800Y-161486D01*
G37*
G36*
X-191256Y-161486D02*
X-199011Y-161486D01*
X-199011Y-159224D01*
X-196264Y-159224D01*
X-196264Y-152939D01*
X-199011Y-154555D01*
X-199011Y-151938D01*
X-196022Y-150177D01*
X-194002Y-150177D01*
X-194002Y-159224D01*
X-191256Y-159224D01*
X-191256Y-161486D01*
G37*
G36*
X169909Y-197646D02*
X168616Y-197646D01*
X168287Y-197629D01*
X167967Y-197580D01*
X167658Y-197500D01*
X167362Y-197391D01*
X167080Y-197255D01*
X166813Y-197092D01*
X166564Y-196906D01*
X166334Y-196697D01*
X166125Y-196467D01*
X165939Y-196218D01*
X165777Y-195952D01*
X165640Y-195670D01*
X165531Y-195373D01*
X165451Y-195064D01*
X165402Y-194744D01*
X165385Y-194415D01*
X165385Y-193849D01*
X167647Y-193849D01*
X167647Y-194415D01*
X167667Y-194610D01*
X167724Y-194791D01*
X167813Y-194956D01*
X167932Y-195100D01*
X168075Y-195218D01*
X168240Y-195308D01*
X168422Y-195365D01*
X168616Y-195384D01*
X169909Y-195384D01*
X170108Y-195365D01*
X170292Y-195310D01*
X170457Y-195222D01*
X170600Y-195106D01*
X170716Y-194963D01*
X170804Y-194798D01*
X170859Y-194614D01*
X170878Y-194415D01*
X170878Y-194092D01*
X170859Y-193892D01*
X170804Y-193709D01*
X170716Y-193544D01*
X170600Y-193401D01*
X170457Y-193284D01*
X170292Y-193197D01*
X170108Y-193142D01*
X169909Y-193122D01*
X168778Y-193122D01*
X168778Y-190861D01*
X169909Y-190861D01*
X170108Y-190841D01*
X170292Y-190786D01*
X170457Y-190699D01*
X170600Y-190582D01*
X170716Y-190439D01*
X170804Y-190274D01*
X170859Y-190091D01*
X170878Y-189891D01*
X170878Y-189568D01*
X170859Y-189369D01*
X170804Y-189185D01*
X170716Y-189020D01*
X170600Y-188877D01*
X170457Y-188761D01*
X170292Y-188673D01*
X170108Y-188618D01*
X169909Y-188599D01*
X168616Y-188599D01*
X168422Y-188619D01*
X168240Y-188675D01*
X168075Y-188765D01*
X167932Y-188883D01*
X167813Y-189027D01*
X167724Y-189192D01*
X167667Y-189373D01*
X167647Y-189568D01*
X167647Y-190134D01*
X165385Y-190134D01*
X165385Y-189568D01*
X165402Y-189239D01*
X165451Y-188919D01*
X165531Y-188610D01*
X165640Y-188313D01*
X165777Y-188031D01*
X165939Y-187765D01*
X166125Y-187516D01*
X166334Y-187286D01*
X166564Y-187077D01*
X166813Y-186891D01*
X167080Y-186728D01*
X167362Y-186592D01*
X167658Y-186483D01*
X167967Y-186403D01*
X168287Y-186354D01*
X168616Y-186337D01*
X169909Y-186337D01*
X170241Y-186353D01*
X170563Y-186402D01*
X170873Y-186481D01*
X171170Y-186590D01*
X171453Y-186725D01*
X171719Y-186886D01*
X171968Y-187072D01*
X172197Y-187280D01*
X172405Y-187509D01*
X172591Y-187758D01*
X172752Y-188024D01*
X172888Y-188307D01*
X172996Y-188604D01*
X173075Y-188914D01*
X173124Y-189236D01*
X173140Y-189568D01*
X173140Y-189891D01*
X173127Y-190190D01*
X173087Y-190481D01*
X173023Y-190762D01*
X172934Y-191032D01*
X172823Y-191291D01*
X172690Y-191538D01*
X172537Y-191772D01*
X172365Y-191992D01*
X172537Y-192211D01*
X172690Y-192445D01*
X172823Y-192692D01*
X172934Y-192951D01*
X173023Y-193221D01*
X173087Y-193502D01*
X173127Y-193793D01*
X173140Y-194092D01*
X173140Y-194415D01*
X173124Y-194747D01*
X173075Y-195069D01*
X172996Y-195379D01*
X172888Y-195676D01*
X172752Y-195959D01*
X172591Y-196225D01*
X172405Y-196474D01*
X172197Y-196703D01*
X171968Y-196911D01*
X171719Y-197097D01*
X171453Y-197258D01*
X171170Y-197394D01*
X170873Y-197502D01*
X170563Y-197581D01*
X170241Y-197630D01*
X169909Y-197646D01*
G37*
G36*
X149576Y-197646D02*
X148283Y-197646D01*
X147954Y-197629D01*
X147634Y-197580D01*
X147325Y-197499D01*
X147029Y-197389D01*
X146746Y-197251D01*
X146480Y-197087D01*
X146231Y-196899D01*
X146001Y-196689D01*
X145792Y-196458D01*
X145606Y-196207D01*
X145444Y-195939D01*
X145307Y-195656D01*
X145198Y-195358D01*
X145118Y-195049D01*
X145069Y-194728D01*
X145052Y-194399D01*
X145052Y-189568D01*
X145069Y-189239D01*
X145118Y-188919D01*
X145198Y-188610D01*
X145307Y-188313D01*
X145444Y-188031D01*
X145606Y-187765D01*
X145792Y-187516D01*
X146001Y-187286D01*
X146231Y-187077D01*
X146480Y-186891D01*
X146746Y-186728D01*
X147029Y-186592D01*
X147325Y-186483D01*
X147634Y-186403D01*
X147954Y-186354D01*
X148283Y-186337D01*
X149576Y-186337D01*
X149908Y-186353D01*
X150230Y-186402D01*
X150540Y-186481D01*
X150837Y-186590D01*
X151120Y-186725D01*
X151386Y-186886D01*
X151635Y-187072D01*
X151864Y-187280D01*
X152072Y-187509D01*
X152258Y-187758D01*
X152419Y-188024D01*
X152554Y-188307D01*
X152663Y-188604D01*
X152742Y-188914D01*
X152791Y-189236D01*
X152807Y-189568D01*
X152807Y-190457D01*
X150545Y-190457D01*
X150545Y-189568D01*
X150526Y-189369D01*
X150471Y-189185D01*
X150383Y-189020D01*
X150267Y-188877D01*
X150124Y-188761D01*
X149959Y-188673D01*
X149775Y-188618D01*
X149576Y-188599D01*
X148283Y-188599D01*
X148084Y-188619D01*
X147900Y-188675D01*
X147735Y-188765D01*
X147593Y-188883D01*
X147476Y-189027D01*
X147388Y-189192D01*
X147333Y-189373D01*
X147314Y-189568D01*
X147314Y-194399D01*
X147334Y-194594D01*
X147390Y-194775D01*
X147480Y-194940D01*
X147599Y-195083D01*
X147742Y-195202D01*
X147907Y-195292D01*
X148089Y-195348D01*
X148283Y-195368D01*
X149576Y-195368D01*
X149771Y-195348D01*
X149952Y-195292D01*
X150117Y-195202D01*
X150260Y-195083D01*
X150379Y-194940D01*
X150469Y-194775D01*
X150525Y-194594D01*
X150545Y-194399D01*
X150545Y-193510D01*
X152807Y-193510D01*
X152807Y-194399D01*
X152790Y-194731D01*
X152741Y-195053D01*
X152661Y-195364D01*
X152552Y-195663D01*
X152416Y-195947D01*
X152253Y-196214D01*
X152067Y-196464D01*
X151858Y-196695D01*
X151628Y-196905D01*
X151379Y-197092D01*
X151113Y-197254D01*
X150830Y-197391D01*
X150534Y-197500D01*
X150225Y-197580D01*
X149905Y-197629D01*
X149576Y-197646D01*
G37*
G36*
X163120Y-197646D02*
X155365Y-197646D01*
X155365Y-195384D01*
X158111Y-195384D01*
X158111Y-189100D01*
X155365Y-190715D01*
X155365Y-188098D01*
X158354Y-186337D01*
X160373Y-186337D01*
X160373Y-195384D01*
X163120Y-195384D01*
X163120Y-197646D01*
G37*
G36*
X179442Y-159416D02*
X178149Y-159416D01*
X177820Y-159399D01*
X177500Y-159349D01*
X177191Y-159269D01*
X176895Y-159159D01*
X176612Y-159021D01*
X176346Y-158857D01*
X176097Y-158669D01*
X175867Y-158459D01*
X175658Y-158227D01*
X175472Y-157977D01*
X175310Y-157709D01*
X175173Y-157426D01*
X175064Y-157128D01*
X174984Y-156818D01*
X174935Y-156498D01*
X174918Y-156169D01*
X174918Y-151338D01*
X174935Y-151009D01*
X174984Y-150689D01*
X175064Y-150380D01*
X175173Y-150083D01*
X175310Y-149801D01*
X175472Y-149534D01*
X175658Y-149286D01*
X175867Y-149056D01*
X176097Y-148847D01*
X176346Y-148660D01*
X176612Y-148498D01*
X176895Y-148362D01*
X177191Y-148253D01*
X177500Y-148173D01*
X177820Y-148123D01*
X178149Y-148107D01*
X179442Y-148107D01*
X179774Y-148123D01*
X180096Y-148172D01*
X180406Y-148251D01*
X180703Y-148359D01*
X180986Y-148495D01*
X181252Y-148656D01*
X181501Y-148842D01*
X181730Y-149050D01*
X181938Y-149279D01*
X182124Y-149527D01*
X182285Y-149794D01*
X182420Y-150076D01*
X182529Y-150374D01*
X182608Y-150684D01*
X182657Y-151006D01*
X182673Y-151338D01*
X182673Y-152226D01*
X180411Y-152226D01*
X180411Y-151338D01*
X180392Y-151139D01*
X180337Y-150955D01*
X180249Y-150790D01*
X180133Y-150647D01*
X179990Y-150530D01*
X179825Y-150443D01*
X179641Y-150388D01*
X179442Y-150368D01*
X178149Y-150368D01*
X177950Y-150388D01*
X177766Y-150445D01*
X177601Y-150535D01*
X177459Y-150653D01*
X177342Y-150797D01*
X177254Y-150961D01*
X177199Y-151143D01*
X177180Y-151338D01*
X177180Y-156169D01*
X177200Y-156363D01*
X177256Y-156545D01*
X177346Y-156710D01*
X177465Y-156853D01*
X177608Y-156972D01*
X177773Y-157061D01*
X177955Y-157118D01*
X178149Y-157138D01*
X179442Y-157138D01*
X179637Y-157118D01*
X179818Y-157061D01*
X179983Y-156972D01*
X180126Y-156853D01*
X180245Y-156710D01*
X180335Y-156545D01*
X180391Y-156363D01*
X180411Y-156169D01*
X180411Y-155280D01*
X182673Y-155280D01*
X182673Y-156169D01*
X182656Y-156501D01*
X182607Y-156823D01*
X182527Y-157134D01*
X182418Y-157433D01*
X182282Y-157716D01*
X182119Y-157984D01*
X181933Y-158234D01*
X181724Y-158465D01*
X181494Y-158674D01*
X181245Y-158861D01*
X180979Y-159024D01*
X180696Y-159161D01*
X180400Y-159270D01*
X180091Y-159350D01*
X179771Y-159399D01*
X179442Y-159416D01*
G37*
G36*
X201875Y-159416D02*
X199613Y-159416D01*
X199613Y-155054D01*
X195574Y-155054D01*
X195574Y-148107D01*
X197836Y-148107D01*
X197836Y-152792D01*
X199613Y-152792D01*
X199613Y-149076D01*
X201875Y-149076D01*
X201875Y-152792D01*
X203329Y-152792D01*
X203329Y-155054D01*
X201875Y-155054D01*
X201875Y-159416D01*
G37*
G36*
X192986Y-159416D02*
X185231Y-159416D01*
X185231Y-157154D01*
X187977Y-157154D01*
X187977Y-150869D01*
X185231Y-152485D01*
X185231Y-149868D01*
X188220Y-148107D01*
X190239Y-148107D01*
X190239Y-157154D01*
X192986Y-157154D01*
X192986Y-159416D01*
G37*
G36*
X170710Y186713D02*
X169418Y186713D01*
X169088Y186730D01*
X168769Y186779D01*
X168459Y186859D01*
X168163Y186968D01*
X167881Y187104D01*
X167614Y187267D01*
X167365Y187453D01*
X167136Y187662D01*
X166927Y187892D01*
X166740Y188141D01*
X166578Y188407D01*
X166441Y188690D01*
X166332Y188986D01*
X166252Y189295D01*
X166203Y189615D01*
X166186Y189944D01*
X166186Y190106D01*
X168448Y190106D01*
X168448Y189944D01*
X168468Y189749D01*
X168525Y189568D01*
X168614Y189403D01*
X168733Y189260D01*
X168877Y189141D01*
X169041Y189051D01*
X169223Y188995D01*
X169418Y188975D01*
X170710Y188975D01*
X170909Y188994D01*
X171093Y189049D01*
X171258Y189137D01*
X171401Y189254D01*
X171518Y189396D01*
X171605Y189561D01*
X171660Y189745D01*
X171680Y189944D01*
X171680Y191624D01*
X171660Y191819D01*
X171603Y192001D01*
X171513Y192165D01*
X171395Y192309D01*
X171251Y192428D01*
X171087Y192517D01*
X170905Y192574D01*
X170710Y192594D01*
X170290Y192594D01*
X168448Y191350D01*
X166186Y191350D01*
X166186Y198022D01*
X172810Y198022D01*
X172810Y195760D01*
X168448Y195760D01*
X168448Y194096D01*
X169595Y194856D01*
X170710Y194856D01*
X171039Y194839D01*
X171359Y194790D01*
X171668Y194710D01*
X171965Y194601D01*
X172247Y194464D01*
X172514Y194302D01*
X172762Y194115D01*
X172992Y193907D01*
X173201Y193677D01*
X173388Y193428D01*
X173550Y193161D01*
X173686Y192879D01*
X173795Y192583D01*
X173875Y192274D01*
X173925Y191954D01*
X173941Y191624D01*
X173941Y189944D01*
X173925Y189612D01*
X173876Y189290D01*
X173797Y188980D01*
X173689Y188683D01*
X173553Y188400D01*
X173392Y188134D01*
X173206Y187885D01*
X172998Y187656D01*
X172769Y187448D01*
X172521Y187263D01*
X172254Y187101D01*
X171972Y186966D01*
X171674Y186857D01*
X171364Y186778D01*
X171042Y186730D01*
X170710Y186713D01*
G37*
G36*
X150054Y186713D02*
X148761Y186713D01*
X148432Y186730D01*
X148112Y186780D01*
X147803Y186860D01*
X147507Y186970D01*
X147224Y187108D01*
X146958Y187272D01*
X146709Y187460D01*
X146479Y187670D01*
X146270Y187901D01*
X146084Y188152D01*
X145922Y188420D01*
X145785Y188703D01*
X145676Y189001D01*
X145596Y189311D01*
X145547Y189631D01*
X145530Y189960D01*
X145530Y194791D01*
X145547Y195120D01*
X145596Y195440D01*
X145676Y195749D01*
X145785Y196046D01*
X145922Y196328D01*
X146084Y196594D01*
X146270Y196843D01*
X146479Y197073D01*
X146709Y197282D01*
X146958Y197469D01*
X147224Y197631D01*
X147507Y197767D01*
X147803Y197876D01*
X148112Y197956D01*
X148432Y198006D01*
X148761Y198022D01*
X150054Y198022D01*
X150386Y198006D01*
X150708Y197957D01*
X151018Y197878D01*
X151315Y197770D01*
X151598Y197634D01*
X151864Y197473D01*
X152113Y197287D01*
X152342Y197079D01*
X152550Y196850D01*
X152736Y196602D01*
X152897Y196335D01*
X153032Y196053D01*
X153141Y195755D01*
X153220Y195445D01*
X153269Y195123D01*
X153285Y194791D01*
X153285Y193903D01*
X151023Y193903D01*
X151023Y194791D01*
X151004Y194990D01*
X150949Y195174D01*
X150861Y195339D01*
X150745Y195482D01*
X150602Y195599D01*
X150437Y195686D01*
X150253Y195741D01*
X150054Y195760D01*
X148761Y195760D01*
X148562Y195741D01*
X148378Y195684D01*
X148213Y195594D01*
X148071Y195476D01*
X147954Y195332D01*
X147866Y195167D01*
X147811Y194986D01*
X147792Y194791D01*
X147792Y189960D01*
X147812Y189766D01*
X147868Y189584D01*
X147958Y189419D01*
X148077Y189276D01*
X148220Y189157D01*
X148385Y189067D01*
X148567Y189011D01*
X148761Y188991D01*
X150054Y188991D01*
X150249Y189011D01*
X150430Y189067D01*
X150595Y189157D01*
X150738Y189276D01*
X150857Y189419D01*
X150947Y189584D01*
X151003Y189766D01*
X151023Y189960D01*
X151023Y190849D01*
X153285Y190849D01*
X153285Y189960D01*
X153268Y189628D01*
X153219Y189306D01*
X153139Y188995D01*
X153030Y188696D01*
X152894Y188413D01*
X152731Y188145D01*
X152545Y187895D01*
X152336Y187664D01*
X152106Y187455D01*
X151857Y187268D01*
X151591Y187105D01*
X151309Y186968D01*
X151012Y186859D01*
X150703Y186779D01*
X150383Y186730D01*
X150054Y186713D01*
G37*
G36*
X163598Y186713D02*
X155843Y186713D01*
X155843Y188975D01*
X158589Y188975D01*
X158589Y195260D01*
X155843Y193644D01*
X155843Y196261D01*
X158832Y198022D01*
X160851Y198022D01*
X160851Y188975D01*
X163598Y188975D01*
X163598Y186713D01*
G37*
G36*
X-189389Y156055D02*
X-190681Y156055D01*
X-191010Y156072D01*
X-191330Y156121D01*
X-191639Y156201D01*
X-191936Y156310D01*
X-192218Y156446D01*
X-192485Y156609D01*
X-192734Y156795D01*
X-192963Y157004D01*
X-193172Y157234D01*
X-193359Y157483D01*
X-193521Y157749D01*
X-193658Y158032D01*
X-193767Y158328D01*
X-193847Y158637D01*
X-193896Y158957D01*
X-193913Y159286D01*
X-193913Y164133D01*
X-193896Y164465D01*
X-193847Y164787D01*
X-193768Y165097D01*
X-193660Y165395D01*
X-193524Y165677D01*
X-193363Y165944D01*
X-193178Y166192D01*
X-192969Y166421D01*
X-192740Y166629D01*
X-192492Y166815D01*
X-192225Y166976D01*
X-191943Y167112D01*
X-191645Y167220D01*
X-191335Y167299D01*
X-191013Y167348D01*
X-190681Y167364D01*
X-189389Y167364D01*
X-189057Y167348D01*
X-188735Y167299D01*
X-188425Y167220D01*
X-188127Y167112D01*
X-187845Y166976D01*
X-187578Y166815D01*
X-187330Y166629D01*
X-187101Y166421D01*
X-186893Y166192D01*
X-186707Y165944D01*
X-186546Y165677D01*
X-186410Y165395D01*
X-186302Y165097D01*
X-186223Y164787D01*
X-186174Y164465D01*
X-186158Y164133D01*
X-186158Y163810D01*
X-188419Y163810D01*
X-188419Y164133D01*
X-188439Y164332D01*
X-188494Y164516D01*
X-188581Y164681D01*
X-188698Y164824D01*
X-188841Y164941D01*
X-189006Y165028D01*
X-189189Y165083D01*
X-189389Y165102D01*
X-190681Y165102D01*
X-190881Y165083D01*
X-191065Y165028D01*
X-191229Y164941D01*
X-191372Y164824D01*
X-191489Y164681D01*
X-191576Y164516D01*
X-191632Y164332D01*
X-191651Y164133D01*
X-191651Y162792D01*
X-190504Y163551D01*
X-189389Y163551D01*
X-189060Y163535D01*
X-188740Y163486D01*
X-188431Y163406D01*
X-188134Y163297D01*
X-187852Y163160D01*
X-187585Y162998D01*
X-187465Y162907D01*
X-187337Y162811D01*
X-187107Y162602D01*
X-186898Y162373D01*
X-186711Y162124D01*
X-186549Y161857D01*
X-186413Y161575D01*
X-186303Y161278D01*
X-186224Y160969D01*
X-186174Y160649D01*
X-186158Y160320D01*
X-186158Y159286D01*
X-186174Y158954D01*
X-186223Y158632D01*
X-186302Y158322D01*
X-186410Y158025D01*
X-186546Y157742D01*
X-186707Y157476D01*
X-186893Y157227D01*
X-187101Y156998D01*
X-187330Y156790D01*
X-187578Y156605D01*
X-187845Y156443D01*
X-188127Y156308D01*
X-188425Y156199D01*
X-188735Y156120D01*
X-189057Y156072D01*
X-189389Y156055D01*
G37*
%LPC*%
G36*
X-189389Y158317D02*
X-189189Y158336D01*
X-189006Y158391D01*
X-188841Y158479D01*
X-188698Y158596D01*
X-188581Y158738D01*
X-188494Y158903D01*
X-188439Y159087D01*
X-188419Y159286D01*
X-188419Y160320D01*
X-188439Y160515D01*
X-188496Y160697D01*
X-188586Y160861D01*
X-188704Y161005D01*
X-188848Y161123D01*
X-189012Y161213D01*
X-189194Y161270D01*
X-189389Y161290D01*
X-189809Y161290D01*
X-191651Y160046D01*
X-191651Y159286D01*
X-191631Y159091D01*
X-191574Y158910D01*
X-191485Y158745D01*
X-191366Y158602D01*
X-191222Y158483D01*
X-191058Y158393D01*
X-190876Y158337D01*
X-190681Y158317D01*
X-189389Y158317D01*
G37*
%LPD*%
G36*
X-210045Y156055D02*
X-211338Y156055D01*
X-211667Y156072D01*
X-211987Y156122D01*
X-212296Y156202D01*
X-212592Y156312D01*
X-212874Y156450D01*
X-213141Y156614D01*
X-213390Y156802D01*
X-213620Y157012D01*
X-213829Y157243D01*
X-214015Y157494D01*
X-214177Y157762D01*
X-214314Y158045D01*
X-214423Y158343D01*
X-214503Y158653D01*
X-214552Y158973D01*
X-214569Y159302D01*
X-214569Y164133D01*
X-214552Y164462D01*
X-214503Y164782D01*
X-214423Y165091D01*
X-214314Y165388D01*
X-214177Y165670D01*
X-214015Y165936D01*
X-213829Y166185D01*
X-213620Y166415D01*
X-213390Y166624D01*
X-213141Y166811D01*
X-212874Y166973D01*
X-212592Y167109D01*
X-212296Y167218D01*
X-211987Y167298D01*
X-211667Y167348D01*
X-211338Y167364D01*
X-210045Y167364D01*
X-209713Y167348D01*
X-209391Y167299D01*
X-209081Y167220D01*
X-208784Y167112D01*
X-208501Y166976D01*
X-208235Y166815D01*
X-207986Y166629D01*
X-207757Y166421D01*
X-207549Y166192D01*
X-207363Y165944D01*
X-207202Y165677D01*
X-207067Y165395D01*
X-206958Y165097D01*
X-206879Y164787D01*
X-206830Y164465D01*
X-206814Y164133D01*
X-206814Y163245D01*
X-209076Y163245D01*
X-209076Y164133D01*
X-209095Y164332D01*
X-209150Y164516D01*
X-209238Y164681D01*
X-209354Y164824D01*
X-209497Y164941D01*
X-209662Y165028D01*
X-209846Y165083D01*
X-210045Y165102D01*
X-211338Y165102D01*
X-211537Y165083D01*
X-211721Y165026D01*
X-211886Y164936D01*
X-212028Y164818D01*
X-212145Y164674D01*
X-212233Y164509D01*
X-212288Y164328D01*
X-212307Y164133D01*
X-212307Y159302D01*
X-212287Y159108D01*
X-212230Y158926D01*
X-212141Y158761D01*
X-212022Y158618D01*
X-211879Y158499D01*
X-211714Y158409D01*
X-211532Y158353D01*
X-211338Y158333D01*
X-210045Y158333D01*
X-209850Y158353D01*
X-209669Y158409D01*
X-209504Y158499D01*
X-209360Y158618D01*
X-209242Y158761D01*
X-209152Y158926D01*
X-209095Y159108D01*
X-209076Y159302D01*
X-209076Y160191D01*
X-206814Y160191D01*
X-206814Y159302D01*
X-206831Y158970D01*
X-206880Y158648D01*
X-206960Y158337D01*
X-207069Y158038D01*
X-207205Y157755D01*
X-207368Y157487D01*
X-207554Y157237D01*
X-207763Y157006D01*
X-207993Y156797D01*
X-208242Y156610D01*
X-208508Y156447D01*
X-208790Y156310D01*
X-209087Y156201D01*
X-209396Y156121D01*
X-209716Y156072D01*
X-210045Y156055D01*
G37*
G36*
X-196501Y156055D02*
X-204256Y156055D01*
X-204256Y158317D01*
X-201510Y158317D01*
X-201510Y164602D01*
X-204256Y162986D01*
X-204256Y165603D01*
X-201267Y167364D01*
X-199248Y167364D01*
X-199248Y158317D01*
X-196501Y158317D01*
X-196501Y156055D01*
G37*
G36*
X-169227Y-205314D02*
X-170520Y-205314D01*
X-170849Y-205297D01*
X-171169Y-205247D01*
X-171478Y-205167D01*
X-171774Y-205056D01*
X-172057Y-204919D01*
X-172323Y-204755D01*
X-172572Y-204567D01*
X-172802Y-204357D01*
X-173011Y-204125D01*
X-173197Y-203875D01*
X-173359Y-203607D01*
X-173496Y-203324D01*
X-173605Y-203026D01*
X-173685Y-202716D01*
X-173734Y-202396D01*
X-173751Y-202067D01*
X-173751Y-197236D01*
X-173734Y-196907D01*
X-173685Y-196587D01*
X-173605Y-196278D01*
X-173496Y-195981D01*
X-173359Y-195699D01*
X-173197Y-195432D01*
X-173011Y-195184D01*
X-172802Y-194954D01*
X-172572Y-194745D01*
X-172323Y-194558D01*
X-172057Y-194396D01*
X-171774Y-194260D01*
X-171478Y-194150D01*
X-171169Y-194071D01*
X-170849Y-194021D01*
X-170520Y-194005D01*
X-169227Y-194005D01*
X-168895Y-194021D01*
X-168573Y-194070D01*
X-168263Y-194149D01*
X-167966Y-194257D01*
X-167683Y-194393D01*
X-167417Y-194554D01*
X-167168Y-194740D01*
X-166939Y-194948D01*
X-166731Y-195177D01*
X-166545Y-195425D01*
X-166384Y-195692D01*
X-166249Y-195974D01*
X-166140Y-196272D01*
X-166061Y-196582D01*
X-166012Y-196904D01*
X-165996Y-197236D01*
X-165996Y-198124D01*
X-168258Y-198124D01*
X-168258Y-197236D01*
X-168277Y-197036D01*
X-168332Y-196853D01*
X-168420Y-196688D01*
X-168536Y-196545D01*
X-168679Y-196428D01*
X-168844Y-196341D01*
X-169028Y-196286D01*
X-169227Y-196266D01*
X-170520Y-196266D01*
X-170719Y-196286D01*
X-170903Y-196343D01*
X-171068Y-196433D01*
X-171210Y-196551D01*
X-171327Y-196695D01*
X-171415Y-196859D01*
X-171470Y-197041D01*
X-171489Y-197236D01*
X-171489Y-202067D01*
X-171469Y-202261D01*
X-171412Y-202443D01*
X-171323Y-202608D01*
X-171204Y-202751D01*
X-171061Y-202870D01*
X-170896Y-202959D01*
X-170714Y-203016D01*
X-170520Y-203036D01*
X-169227Y-203036D01*
X-169032Y-203016D01*
X-168851Y-202959D01*
X-168686Y-202870D01*
X-168542Y-202751D01*
X-168424Y-202608D01*
X-168334Y-202443D01*
X-168278Y-202261D01*
X-168258Y-202067D01*
X-168258Y-201178D01*
X-165996Y-201178D01*
X-165996Y-202067D01*
X-166013Y-202399D01*
X-166062Y-202721D01*
X-166142Y-203032D01*
X-166251Y-203331D01*
X-166387Y-203614D01*
X-166550Y-203882D01*
X-166736Y-204132D01*
X-166945Y-204363D01*
X-167175Y-204572D01*
X-167424Y-204759D01*
X-167690Y-204922D01*
X-167972Y-205059D01*
X-168269Y-205168D01*
X-168578Y-205248D01*
X-168898Y-205297D01*
X-169227Y-205314D01*
G37*
G36*
X-150186Y-205314D02*
X-152448Y-205314D01*
X-152448Y-202180D01*
X-147601Y-197171D01*
X-147601Y-196266D01*
X-150833Y-196266D01*
X-150833Y-197559D01*
X-153095Y-197559D01*
X-153095Y-194005D01*
X-145340Y-194005D01*
X-145340Y-198076D01*
X-150186Y-203084D01*
X-150186Y-205314D01*
G37*
G36*
X-155683Y-205314D02*
X-163438Y-205314D01*
X-163438Y-203052D01*
X-160692Y-203052D01*
X-160692Y-196767D01*
X-163438Y-198383D01*
X-163438Y-195766D01*
X-160449Y-194005D01*
X-158430Y-194005D01*
X-158430Y-203052D01*
X-155683Y-203052D01*
X-155683Y-205314D01*
G37*
G36*
X-29677Y-257810D02*
X-30970Y-257810D01*
X-31299Y-257793D01*
X-31619Y-257743D01*
X-31928Y-257663D01*
X-32224Y-257553D01*
X-32507Y-257415D01*
X-32773Y-257251D01*
X-33022Y-257063D01*
X-33252Y-256853D01*
X-33461Y-256622D01*
X-33647Y-256371D01*
X-33810Y-256103D01*
X-33946Y-255820D01*
X-34055Y-255522D01*
X-34135Y-255212D01*
X-34184Y-254892D01*
X-34201Y-254563D01*
X-34201Y-254094D01*
X-34186Y-253782D01*
X-34142Y-253478D01*
X-34070Y-253183D01*
X-33971Y-252899D01*
X-33846Y-252626D01*
X-33697Y-252367D01*
X-33524Y-252124D01*
X-33329Y-251897D01*
X-33489Y-251679D01*
X-33631Y-251450D01*
X-33752Y-251210D01*
X-33854Y-250960D01*
X-33934Y-250701D01*
X-33992Y-250434D01*
X-34027Y-250159D01*
X-34039Y-249877D01*
X-34039Y-249732D01*
X-34023Y-249403D01*
X-33974Y-249083D01*
X-33894Y-248774D01*
X-33785Y-248477D01*
X-33648Y-248195D01*
X-33486Y-247929D01*
X-33299Y-247680D01*
X-33090Y-247450D01*
X-32861Y-247241D01*
X-32612Y-247054D01*
X-32345Y-246892D01*
X-32063Y-246756D01*
X-31766Y-246647D01*
X-31457Y-246567D01*
X-31137Y-246517D01*
X-30808Y-246501D01*
X-29839Y-246501D01*
X-29507Y-246517D01*
X-29185Y-246566D01*
X-28875Y-246645D01*
X-28577Y-246753D01*
X-28295Y-246889D01*
X-28028Y-247050D01*
X-27780Y-247236D01*
X-27551Y-247444D01*
X-27343Y-247673D01*
X-27157Y-247921D01*
X-26996Y-248188D01*
X-26860Y-248470D01*
X-26752Y-248768D01*
X-26673Y-249078D01*
X-26624Y-249400D01*
X-26608Y-249732D01*
X-26608Y-249877D01*
X-26620Y-250159D01*
X-26655Y-250434D01*
X-26712Y-250701D01*
X-26791Y-250960D01*
X-26891Y-251210D01*
X-27010Y-251450D01*
X-27147Y-251679D01*
X-27302Y-251897D01*
X-27112Y-252118D01*
X-26944Y-252358D01*
X-26797Y-252615D01*
X-26674Y-252886D01*
X-26576Y-253172D01*
X-26505Y-253469D01*
X-26461Y-253777D01*
X-26446Y-254094D01*
X-26446Y-254563D01*
X-26463Y-254895D01*
X-26512Y-255217D01*
X-26592Y-255528D01*
X-26701Y-255827D01*
X-26838Y-256110D01*
X-27000Y-256378D01*
X-27186Y-256628D01*
X-27395Y-256859D01*
X-27625Y-257068D01*
X-27874Y-257255D01*
X-28140Y-257418D01*
X-28423Y-257555D01*
X-28719Y-257664D01*
X-29028Y-257744D01*
X-29348Y-257793D01*
X-29677Y-257810D01*
G37*
%LPC*%
G36*
X-29677Y-255548D02*
X-29483Y-255528D01*
X-29301Y-255471D01*
X-29136Y-255381D01*
X-28993Y-255261D01*
X-28874Y-255116D01*
X-28784Y-254948D01*
X-28728Y-254763D01*
X-28708Y-254563D01*
X-28708Y-254094D01*
X-28727Y-253895D01*
X-28782Y-253711D01*
X-28870Y-253546D01*
X-28987Y-253403D01*
X-29129Y-253287D01*
X-29294Y-253199D01*
X-29478Y-253144D01*
X-29677Y-253125D01*
X-30970Y-253125D01*
X-31169Y-253145D01*
X-31353Y-253201D01*
X-31518Y-253291D01*
X-31660Y-253409D01*
X-31777Y-253553D01*
X-31865Y-253718D01*
X-31920Y-253899D01*
X-31939Y-254094D01*
X-31939Y-254563D01*
X-31919Y-254763D01*
X-31863Y-254951D01*
X-31773Y-255120D01*
X-31654Y-255267D01*
X-31511Y-255388D01*
X-31346Y-255478D01*
X-31165Y-255533D01*
X-30970Y-255548D01*
X-29677Y-255548D01*
G37*
G36*
X-29839Y-250863D02*
X-29644Y-250843D01*
X-29545Y-250812D01*
X-29462Y-250786D01*
X-29298Y-250696D01*
X-29154Y-250576D01*
X-29036Y-250431D01*
X-28946Y-250263D01*
X-28889Y-250077D01*
X-28869Y-249877D01*
X-28869Y-249732D01*
X-28889Y-249533D01*
X-28944Y-249349D01*
X-29031Y-249184D01*
X-29148Y-249041D01*
X-29291Y-248924D01*
X-29456Y-248837D01*
X-29639Y-248782D01*
X-29839Y-248763D01*
X-30808Y-248763D01*
X-31008Y-248782D01*
X-31191Y-248839D01*
X-31356Y-248929D01*
X-31499Y-249047D01*
X-31616Y-249191D01*
X-31703Y-249356D01*
X-31758Y-249537D01*
X-31778Y-249732D01*
X-31778Y-249877D01*
X-31759Y-250072D01*
X-31706Y-250254D01*
X-31623Y-250419D01*
X-31511Y-250564D01*
X-31375Y-250684D01*
X-31219Y-250777D01*
X-31045Y-250838D01*
X-30857Y-250863D01*
X-29839Y-250863D01*
G37*
%LPD*%
G36*
X-50334Y-257810D02*
X-51626Y-257810D01*
X-51955Y-257793D01*
X-52275Y-257743D01*
X-52584Y-257663D01*
X-52881Y-257553D01*
X-53163Y-257415D01*
X-53429Y-257251D01*
X-53678Y-257063D01*
X-53908Y-256853D01*
X-54117Y-256622D01*
X-54303Y-256371D01*
X-54466Y-256103D01*
X-54602Y-255820D01*
X-54711Y-255522D01*
X-54791Y-255212D01*
X-54841Y-254892D01*
X-54857Y-254563D01*
X-54857Y-249732D01*
X-54841Y-249403D01*
X-54791Y-249083D01*
X-54711Y-248774D01*
X-54602Y-248477D01*
X-54466Y-248195D01*
X-54303Y-247929D01*
X-54117Y-247680D01*
X-53908Y-247450D01*
X-53678Y-247241D01*
X-53429Y-247054D01*
X-53163Y-246892D01*
X-52881Y-246756D01*
X-52584Y-246647D01*
X-52275Y-246567D01*
X-51955Y-246517D01*
X-51626Y-246501D01*
X-50334Y-246501D01*
X-50002Y-246517D01*
X-49680Y-246566D01*
X-49369Y-246645D01*
X-49072Y-246753D01*
X-48789Y-246889D01*
X-48523Y-247050D01*
X-48275Y-247236D01*
X-48045Y-247444D01*
X-47837Y-247673D01*
X-47652Y-247921D01*
X-47491Y-248188D01*
X-47355Y-248470D01*
X-47247Y-248768D01*
X-47168Y-249078D01*
X-47119Y-249400D01*
X-47102Y-249732D01*
X-47102Y-250620D01*
X-49364Y-250620D01*
X-49364Y-249732D01*
X-49383Y-249533D01*
X-49438Y-249349D01*
X-49526Y-249184D01*
X-49643Y-249041D01*
X-49785Y-248924D01*
X-49950Y-248837D01*
X-50134Y-248782D01*
X-50334Y-248763D01*
X-51626Y-248763D01*
X-51825Y-248782D01*
X-52009Y-248839D01*
X-52174Y-248929D01*
X-52317Y-249047D01*
X-52434Y-249191D01*
X-52521Y-249356D01*
X-52576Y-249537D01*
X-52595Y-249732D01*
X-52595Y-254563D01*
X-52576Y-254757D01*
X-52519Y-254939D01*
X-52429Y-255104D01*
X-52311Y-255247D01*
X-52167Y-255366D01*
X-52002Y-255456D01*
X-51821Y-255512D01*
X-51626Y-255532D01*
X-50334Y-255532D01*
X-50139Y-255512D01*
X-49957Y-255456D01*
X-49793Y-255366D01*
X-49649Y-255247D01*
X-49530Y-255104D01*
X-49441Y-254939D01*
X-49384Y-254757D01*
X-49364Y-254563D01*
X-49364Y-253674D01*
X-47102Y-253674D01*
X-47102Y-254563D01*
X-47119Y-254895D01*
X-47168Y-255217D01*
X-47248Y-255528D01*
X-47357Y-255827D01*
X-47494Y-256110D01*
X-47656Y-256378D01*
X-47843Y-256628D01*
X-48051Y-256859D01*
X-48281Y-257068D01*
X-48530Y-257255D01*
X-48797Y-257418D01*
X-49079Y-257555D01*
X-49375Y-257664D01*
X-49684Y-257744D01*
X-50004Y-257793D01*
X-50334Y-257810D01*
G37*
G36*
X-36790Y-257810D02*
X-44545Y-257810D01*
X-44545Y-255548D01*
X-41798Y-255548D01*
X-41798Y-249263D01*
X-44545Y-250879D01*
X-44545Y-248262D01*
X-41556Y-246501D01*
X-39536Y-246501D01*
X-39536Y-255548D01*
X-36790Y-255548D01*
X-36790Y-257810D01*
G37*
G36*
X22703Y215575D02*
X16031Y215575D01*
X16031Y222199D01*
X18293Y222199D01*
X18293Y217837D01*
X19957Y217837D01*
X19197Y218984D01*
X19197Y220099D01*
X19214Y220428D01*
X19263Y220748D01*
X19343Y221057D01*
X19452Y221354D01*
X19589Y221636D01*
X19751Y221902D01*
X19938Y222151D01*
X20146Y222381D01*
X20376Y222590D01*
X20625Y222776D01*
X20892Y222939D01*
X21174Y223075D01*
X21470Y223184D01*
X21779Y223264D01*
X22099Y223313D01*
X22429Y223330D01*
X24109Y223330D01*
X24441Y223314D01*
X24763Y223265D01*
X25073Y223186D01*
X25370Y223077D01*
X25653Y222942D01*
X25919Y222781D01*
X26168Y222595D01*
X26397Y222387D01*
X26605Y222158D01*
X26790Y221909D01*
X26952Y221643D01*
X27087Y221360D01*
X27196Y221063D01*
X27275Y220753D01*
X27323Y220431D01*
X27340Y220099D01*
X27340Y218806D01*
X27323Y218477D01*
X27274Y218157D01*
X27194Y217848D01*
X27085Y217552D01*
X26949Y217269D01*
X26786Y217003D01*
X26600Y216754D01*
X26391Y216524D01*
X26161Y216315D01*
X25912Y216129D01*
X25646Y215967D01*
X25363Y215830D01*
X25067Y215721D01*
X24758Y215641D01*
X24438Y215592D01*
X24109Y215575D01*
X23947Y215575D01*
X23947Y217837D01*
X24109Y217837D01*
X24304Y217857D01*
X24485Y217914D01*
X24650Y218003D01*
X24793Y218122D01*
X24912Y218265D01*
X25002Y218430D01*
X25058Y218612D01*
X25078Y218806D01*
X25078Y220099D01*
X25059Y220298D01*
X25004Y220482D01*
X24916Y220647D01*
X24799Y220790D01*
X24657Y220906D01*
X24492Y220994D01*
X24308Y221049D01*
X24109Y221068D01*
X22429Y221068D01*
X22234Y221048D01*
X22052Y220992D01*
X21888Y220902D01*
X21744Y220784D01*
X21625Y220640D01*
X21536Y220475D01*
X21479Y220294D01*
X21459Y220099D01*
X21459Y219679D01*
X22703Y217837D01*
X22703Y215575D01*
G37*
G36*
X24093Y205263D02*
X16031Y205263D01*
X16031Y207525D01*
X24093Y207525D01*
X24287Y207544D01*
X24469Y207601D01*
X24634Y207691D01*
X24777Y207809D01*
X24896Y207953D01*
X24986Y208118D01*
X25042Y208299D01*
X25062Y208494D01*
X25062Y209786D01*
X25042Y209981D01*
X24986Y210163D01*
X24896Y210327D01*
X24777Y210471D01*
X24634Y210590D01*
X24469Y210679D01*
X24287Y210736D01*
X24093Y210756D01*
X16031Y210756D01*
X16031Y213018D01*
X24093Y213018D01*
X24422Y213001D01*
X24742Y212952D01*
X25052Y212872D01*
X25350Y212763D01*
X25633Y212626D01*
X25901Y212464D01*
X26152Y212277D01*
X26383Y212068D01*
X26593Y211839D01*
X26781Y211590D01*
X26945Y211323D01*
X27083Y211041D01*
X27193Y210745D01*
X27273Y210435D01*
X27323Y210116D01*
X27340Y209786D01*
X27340Y208494D01*
X27323Y208165D01*
X27274Y207845D01*
X27194Y207536D01*
X27085Y207239D01*
X26948Y206957D01*
X26785Y206691D01*
X26598Y206442D01*
X26389Y206212D01*
X26158Y206003D01*
X25908Y205816D01*
X25640Y205654D01*
X25357Y205518D01*
X25058Y205409D01*
X24747Y205329D01*
X24425Y205279D01*
X24093Y205263D01*
G37*
D10*
X-10750Y-188350D02*
X-10748Y-188280D01*
X-10742Y-188210D01*
X-10732Y-188141D01*
X-10719Y-188072D01*
X-10701Y-188004D01*
X-10680Y-187937D01*
X-10655Y-187872D01*
X-10626Y-187808D01*
X-10594Y-187745D01*
X-10558Y-187685D01*
X-10519Y-187627D01*
X-10477Y-187571D01*
X-10432Y-187517D01*
X-10384Y-187466D01*
X-10333Y-187418D01*
X-10279Y-187373D01*
X-10223Y-187331D01*
X-10165Y-187292D01*
X-10105Y-187256D01*
X-10042Y-187224D01*
X-9978Y-187195D01*
X-9913Y-187170D01*
X-9846Y-187149D01*
X-9778Y-187131D01*
X-9709Y-187118D01*
X-9640Y-187108D01*
X-9570Y-187102D01*
X-9500Y-187100D01*
X-9430Y-187102D01*
X-9360Y-187108D01*
X-9291Y-187118D01*
X-9222Y-187131D01*
X-9154Y-187149D01*
X-9087Y-187170D01*
X-9022Y-187195D01*
X-8958Y-187224D01*
X-8895Y-187256D01*
X-8835Y-187292D01*
X-8777Y-187331D01*
X-8721Y-187373D01*
X-8667Y-187418D01*
X-8616Y-187466D01*
X-8568Y-187517D01*
X-8523Y-187571D01*
X-8481Y-187627D01*
X-8442Y-187685D01*
X-8406Y-187745D01*
X-8374Y-187808D01*
X-8345Y-187872D01*
X-8320Y-187937D01*
X-8299Y-188004D01*
X-8281Y-188072D01*
X-8268Y-188141D01*
X-8258Y-188210D01*
X-8252Y-188280D01*
X-8250Y-188350D01*
X-8252Y-188420D01*
X-8258Y-188490D01*
X-8268Y-188559D01*
X-8281Y-188628D01*
X-8299Y-188696D01*
X-8320Y-188763D01*
X-8345Y-188828D01*
X-8374Y-188892D01*
X-8406Y-188955D01*
X-8442Y-189015D01*
X-8481Y-189073D01*
X-8523Y-189129D01*
X-8568Y-189183D01*
X-8616Y-189234D01*
X-8667Y-189282D01*
X-8721Y-189327D01*
X-8777Y-189369D01*
X-8835Y-189408D01*
X-8895Y-189444D01*
X-8958Y-189476D01*
X-9022Y-189505D01*
X-9087Y-189530D01*
X-9154Y-189551D01*
X-9222Y-189569D01*
X-9291Y-189582D01*
X-9360Y-189592D01*
X-9430Y-189598D01*
X-9500Y-189600D01*
X-9570Y-189598D01*
X-9640Y-189592D01*
X-9709Y-189582D01*
X-9778Y-189569D01*
X-9846Y-189551D01*
X-9913Y-189530D01*
X-9978Y-189505D01*
X-10042Y-189476D01*
X-10105Y-189444D01*
X-10165Y-189408D01*
X-10223Y-189369D01*
X-10279Y-189327D01*
X-10333Y-189282D01*
X-10384Y-189234D01*
X-10432Y-189183D01*
X-10477Y-189129D01*
X-10519Y-189073D01*
X-10558Y-189015D01*
X-10594Y-188955D01*
X-10626Y-188892D01*
X-10655Y-188828D01*
X-10680Y-188763D01*
X-10701Y-188696D01*
X-10719Y-188628D01*
X-10732Y-188559D01*
X-10742Y-188490D01*
X-10748Y-188420D01*
X-10750Y-188350D01*
D11*
X-14000Y-159100D02*
X14000Y-159100D01*
X-14000Y-159100D02*
X-14000Y-171100D01*
X14000Y-171100D02*
X14000Y-159100D01*
X14000Y-171100D02*
X-14000Y-171100D01*
D10*
X-153731Y59300D02*
X-153729Y59370D01*
X-153723Y59440D01*
X-153713Y59509D01*
X-153700Y59578D01*
X-153682Y59646D01*
X-153661Y59713D01*
X-153636Y59778D01*
X-153607Y59842D01*
X-153575Y59905D01*
X-153539Y59965D01*
X-153500Y60023D01*
X-153458Y60079D01*
X-153413Y60133D01*
X-153365Y60184D01*
X-153314Y60232D01*
X-153260Y60277D01*
X-153204Y60319D01*
X-153146Y60358D01*
X-153086Y60394D01*
X-153023Y60426D01*
X-152959Y60455D01*
X-152894Y60480D01*
X-152827Y60501D01*
X-152759Y60519D01*
X-152690Y60532D01*
X-152621Y60542D01*
X-152551Y60548D01*
X-152481Y60550D01*
X-152411Y60548D01*
X-152341Y60542D01*
X-152272Y60532D01*
X-152203Y60519D01*
X-152135Y60501D01*
X-152068Y60480D01*
X-152003Y60455D01*
X-151939Y60426D01*
X-151876Y60394D01*
X-151816Y60358D01*
X-151758Y60319D01*
X-151702Y60277D01*
X-151648Y60232D01*
X-151597Y60184D01*
X-151549Y60133D01*
X-151504Y60079D01*
X-151462Y60023D01*
X-151423Y59965D01*
X-151387Y59905D01*
X-151355Y59842D01*
X-151326Y59778D01*
X-151301Y59713D01*
X-151280Y59646D01*
X-151262Y59578D01*
X-151249Y59509D01*
X-151239Y59440D01*
X-151233Y59370D01*
X-151231Y59300D01*
X-151233Y59230D01*
X-151239Y59160D01*
X-151249Y59091D01*
X-151262Y59022D01*
X-151280Y58954D01*
X-151301Y58887D01*
X-151326Y58822D01*
X-151355Y58758D01*
X-151387Y58695D01*
X-151423Y58635D01*
X-151462Y58577D01*
X-151504Y58521D01*
X-151549Y58467D01*
X-151597Y58416D01*
X-151648Y58368D01*
X-151702Y58323D01*
X-151758Y58281D01*
X-151816Y58242D01*
X-151876Y58206D01*
X-151939Y58174D01*
X-152003Y58145D01*
X-152068Y58120D01*
X-152135Y58099D01*
X-152203Y58081D01*
X-152272Y58068D01*
X-152341Y58058D01*
X-152411Y58052D01*
X-152481Y58050D01*
X-152551Y58052D01*
X-152621Y58058D01*
X-152690Y58068D01*
X-152759Y58081D01*
X-152827Y58099D01*
X-152894Y58120D01*
X-152959Y58145D01*
X-153023Y58174D01*
X-153086Y58206D01*
X-153146Y58242D01*
X-153204Y58281D01*
X-153260Y58323D01*
X-153314Y58368D01*
X-153365Y58416D01*
X-153413Y58467D01*
X-153458Y58521D01*
X-153500Y58577D01*
X-153539Y58635D01*
X-153575Y58695D01*
X-153607Y58758D01*
X-153636Y58822D01*
X-153661Y58887D01*
X-153682Y58954D01*
X-153700Y59022D01*
X-153713Y59091D01*
X-153723Y59160D01*
X-153729Y59230D01*
X-153731Y59300D01*
D11*
X-156981Y88550D02*
X-128981Y88550D01*
X-156981Y88550D02*
X-156981Y76550D01*
X-128981Y76550D02*
X-128981Y88550D01*
X-128981Y76550D02*
X-156981Y76550D01*
D10*
X132231Y59300D02*
X132233Y59370D01*
X132239Y59440D01*
X132249Y59509D01*
X132262Y59578D01*
X132280Y59646D01*
X132301Y59713D01*
X132326Y59778D01*
X132355Y59842D01*
X132387Y59905D01*
X132423Y59965D01*
X132462Y60023D01*
X132504Y60079D01*
X132549Y60133D01*
X132597Y60184D01*
X132648Y60232D01*
X132702Y60277D01*
X132758Y60319D01*
X132816Y60358D01*
X132876Y60394D01*
X132939Y60426D01*
X133003Y60455D01*
X133068Y60480D01*
X133135Y60501D01*
X133203Y60519D01*
X133272Y60532D01*
X133341Y60542D01*
X133411Y60548D01*
X133481Y60550D01*
X133551Y60548D01*
X133621Y60542D01*
X133690Y60532D01*
X133759Y60519D01*
X133827Y60501D01*
X133894Y60480D01*
X133959Y60455D01*
X134023Y60426D01*
X134086Y60394D01*
X134146Y60358D01*
X134204Y60319D01*
X134260Y60277D01*
X134314Y60232D01*
X134365Y60184D01*
X134413Y60133D01*
X134458Y60079D01*
X134500Y60023D01*
X134539Y59965D01*
X134575Y59905D01*
X134607Y59842D01*
X134636Y59778D01*
X134661Y59713D01*
X134682Y59646D01*
X134700Y59578D01*
X134713Y59509D01*
X134723Y59440D01*
X134729Y59370D01*
X134731Y59300D01*
X134729Y59230D01*
X134723Y59160D01*
X134713Y59091D01*
X134700Y59022D01*
X134682Y58954D01*
X134661Y58887D01*
X134636Y58822D01*
X134607Y58758D01*
X134575Y58695D01*
X134539Y58635D01*
X134500Y58577D01*
X134458Y58521D01*
X134413Y58467D01*
X134365Y58416D01*
X134314Y58368D01*
X134260Y58323D01*
X134204Y58281D01*
X134146Y58242D01*
X134086Y58206D01*
X134023Y58174D01*
X133959Y58145D01*
X133894Y58120D01*
X133827Y58099D01*
X133759Y58081D01*
X133690Y58068D01*
X133621Y58058D01*
X133551Y58052D01*
X133481Y58050D01*
X133411Y58052D01*
X133341Y58058D01*
X133272Y58068D01*
X133203Y58081D01*
X133135Y58099D01*
X133068Y58120D01*
X133003Y58145D01*
X132939Y58174D01*
X132876Y58206D01*
X132816Y58242D01*
X132758Y58281D01*
X132702Y58323D01*
X132648Y58368D01*
X132597Y58416D01*
X132549Y58467D01*
X132504Y58521D01*
X132462Y58577D01*
X132423Y58635D01*
X132387Y58695D01*
X132355Y58758D01*
X132326Y58822D01*
X132301Y58887D01*
X132280Y58954D01*
X132262Y59022D01*
X132249Y59091D01*
X132239Y59160D01*
X132233Y59230D01*
X132231Y59300D01*
D11*
X128981Y88550D02*
X156981Y88550D01*
X128981Y88550D02*
X128981Y76550D01*
X156981Y76550D02*
X156981Y88550D01*
X156981Y76550D02*
X128981Y76550D01*
X-125579Y224180D02*
X-125577Y224243D01*
X-125571Y224305D01*
X-125561Y224367D01*
X-125548Y224429D01*
X-125530Y224489D01*
X-125509Y224548D01*
X-125484Y224606D01*
X-125455Y224662D01*
X-125423Y224716D01*
X-125388Y224768D01*
X-125350Y224817D01*
X-125308Y224865D01*
X-125264Y224909D01*
X-125216Y224951D01*
X-125167Y224989D01*
X-125115Y225024D01*
X-125061Y225056D01*
X-125005Y225085D01*
X-124947Y225110D01*
X-124888Y225131D01*
X-124828Y225149D01*
X-124766Y225162D01*
X-124704Y225172D01*
X-124642Y225178D01*
X-124579Y225180D01*
X-124516Y225178D01*
X-124454Y225172D01*
X-124392Y225162D01*
X-124330Y225149D01*
X-124270Y225131D01*
X-124211Y225110D01*
X-124153Y225085D01*
X-124097Y225056D01*
X-124043Y225024D01*
X-123991Y224989D01*
X-123942Y224951D01*
X-123894Y224909D01*
X-123850Y224865D01*
X-123808Y224817D01*
X-123770Y224768D01*
X-123735Y224716D01*
X-123703Y224662D01*
X-123674Y224606D01*
X-123649Y224548D01*
X-123628Y224489D01*
X-123610Y224429D01*
X-123597Y224367D01*
X-123587Y224305D01*
X-123581Y224243D01*
X-123579Y224180D01*
X-123581Y224117D01*
X-123587Y224055D01*
X-123597Y223993D01*
X-123610Y223931D01*
X-123628Y223871D01*
X-123649Y223812D01*
X-123674Y223754D01*
X-123703Y223698D01*
X-123735Y223644D01*
X-123770Y223592D01*
X-123808Y223543D01*
X-123850Y223495D01*
X-123894Y223451D01*
X-123942Y223409D01*
X-123991Y223371D01*
X-124043Y223336D01*
X-124097Y223304D01*
X-124153Y223275D01*
X-124211Y223250D01*
X-124270Y223229D01*
X-124330Y223211D01*
X-124392Y223198D01*
X-124454Y223188D01*
X-124516Y223182D01*
X-124579Y223180D01*
X-124642Y223182D01*
X-124704Y223188D01*
X-124766Y223198D01*
X-124828Y223211D01*
X-124888Y223229D01*
X-124947Y223250D01*
X-125005Y223275D01*
X-125061Y223304D01*
X-125115Y223336D01*
X-125167Y223371D01*
X-125216Y223409D01*
X-125264Y223451D01*
X-125308Y223495D01*
X-125350Y223543D01*
X-125388Y223592D01*
X-125423Y223644D01*
X-125455Y223698D01*
X-125484Y223754D01*
X-125509Y223812D01*
X-125530Y223871D01*
X-125548Y223931D01*
X-125561Y223993D01*
X-125571Y224055D01*
X-125577Y224117D01*
X-125579Y224180D01*
D12*
X-113898Y217764D02*
X-112381Y214009D01*
X-75293Y228993D01*
X-76810Y232748D01*
D11*
X-248414Y70954D02*
X-248412Y71017D01*
X-248406Y71079D01*
X-248396Y71141D01*
X-248383Y71203D01*
X-248365Y71263D01*
X-248344Y71322D01*
X-248319Y71380D01*
X-248290Y71436D01*
X-248258Y71490D01*
X-248223Y71542D01*
X-248185Y71591D01*
X-248143Y71639D01*
X-248099Y71683D01*
X-248051Y71725D01*
X-248002Y71763D01*
X-247950Y71798D01*
X-247896Y71830D01*
X-247840Y71859D01*
X-247782Y71884D01*
X-247723Y71905D01*
X-247663Y71923D01*
X-247601Y71936D01*
X-247539Y71946D01*
X-247477Y71952D01*
X-247414Y71954D01*
X-247351Y71952D01*
X-247289Y71946D01*
X-247227Y71936D01*
X-247165Y71923D01*
X-247105Y71905D01*
X-247046Y71884D01*
X-246988Y71859D01*
X-246932Y71830D01*
X-246878Y71798D01*
X-246826Y71763D01*
X-246777Y71725D01*
X-246729Y71683D01*
X-246685Y71639D01*
X-246643Y71591D01*
X-246605Y71542D01*
X-246570Y71490D01*
X-246538Y71436D01*
X-246509Y71380D01*
X-246484Y71322D01*
X-246463Y71263D01*
X-246445Y71203D01*
X-246432Y71141D01*
X-246422Y71079D01*
X-246416Y71017D01*
X-246414Y70954D01*
X-246416Y70891D01*
X-246422Y70829D01*
X-246432Y70767D01*
X-246445Y70705D01*
X-246463Y70645D01*
X-246484Y70586D01*
X-246509Y70528D01*
X-246538Y70472D01*
X-246570Y70418D01*
X-246605Y70366D01*
X-246643Y70317D01*
X-246685Y70269D01*
X-246729Y70225D01*
X-246777Y70183D01*
X-246826Y70145D01*
X-246878Y70110D01*
X-246932Y70078D01*
X-246988Y70049D01*
X-247046Y70024D01*
X-247105Y70003D01*
X-247165Y69985D01*
X-247227Y69972D01*
X-247289Y69962D01*
X-247351Y69956D01*
X-247414Y69954D01*
X-247477Y69956D01*
X-247539Y69962D01*
X-247601Y69972D01*
X-247663Y69985D01*
X-247723Y70003D01*
X-247782Y70024D01*
X-247840Y70049D01*
X-247896Y70078D01*
X-247950Y70110D01*
X-248002Y70145D01*
X-248051Y70183D01*
X-248099Y70225D01*
X-248143Y70269D01*
X-248185Y70317D01*
X-248223Y70366D01*
X-248258Y70418D01*
X-248290Y70472D01*
X-248319Y70528D01*
X-248344Y70586D01*
X-248365Y70645D01*
X-248383Y70705D01*
X-248396Y70767D01*
X-248406Y70829D01*
X-248412Y70891D01*
X-248414Y70954D01*
D12*
X-235379Y74180D02*
X-231624Y72663D01*
X-216639Y109750D01*
X-220394Y111268D01*
D11*
X-227327Y-123969D02*
X-227325Y-123906D01*
X-227319Y-123844D01*
X-227309Y-123782D01*
X-227296Y-123720D01*
X-227278Y-123660D01*
X-227257Y-123601D01*
X-227232Y-123543D01*
X-227203Y-123487D01*
X-227171Y-123433D01*
X-227136Y-123381D01*
X-227098Y-123332D01*
X-227056Y-123284D01*
X-227012Y-123240D01*
X-226964Y-123198D01*
X-226915Y-123160D01*
X-226863Y-123125D01*
X-226809Y-123093D01*
X-226753Y-123064D01*
X-226695Y-123039D01*
X-226636Y-123018D01*
X-226576Y-123000D01*
X-226514Y-122987D01*
X-226452Y-122977D01*
X-226390Y-122971D01*
X-226327Y-122969D01*
X-226264Y-122971D01*
X-226202Y-122977D01*
X-226140Y-122987D01*
X-226078Y-123000D01*
X-226018Y-123018D01*
X-225959Y-123039D01*
X-225901Y-123064D01*
X-225845Y-123093D01*
X-225791Y-123125D01*
X-225739Y-123160D01*
X-225690Y-123198D01*
X-225642Y-123240D01*
X-225598Y-123284D01*
X-225556Y-123332D01*
X-225518Y-123381D01*
X-225483Y-123433D01*
X-225451Y-123487D01*
X-225422Y-123543D01*
X-225397Y-123601D01*
X-225376Y-123660D01*
X-225358Y-123720D01*
X-225345Y-123782D01*
X-225335Y-123844D01*
X-225329Y-123906D01*
X-225327Y-123969D01*
X-225329Y-124032D01*
X-225335Y-124094D01*
X-225345Y-124156D01*
X-225358Y-124218D01*
X-225376Y-124278D01*
X-225397Y-124337D01*
X-225422Y-124395D01*
X-225451Y-124451D01*
X-225483Y-124505D01*
X-225518Y-124557D01*
X-225556Y-124606D01*
X-225598Y-124654D01*
X-225642Y-124698D01*
X-225690Y-124740D01*
X-225739Y-124778D01*
X-225791Y-124813D01*
X-225845Y-124845D01*
X-225901Y-124874D01*
X-225959Y-124899D01*
X-226018Y-124920D01*
X-226078Y-124938D01*
X-226140Y-124951D01*
X-226202Y-124961D01*
X-226264Y-124967D01*
X-226327Y-124969D01*
X-226390Y-124967D01*
X-226452Y-124961D01*
X-226514Y-124951D01*
X-226576Y-124938D01*
X-226636Y-124920D01*
X-226695Y-124899D01*
X-226753Y-124874D01*
X-226809Y-124845D01*
X-226863Y-124813D01*
X-226915Y-124778D01*
X-226964Y-124740D01*
X-227012Y-124698D01*
X-227056Y-124654D01*
X-227098Y-124606D01*
X-227136Y-124557D01*
X-227171Y-124505D01*
X-227203Y-124451D01*
X-227232Y-124395D01*
X-227257Y-124337D01*
X-227278Y-124278D01*
X-227296Y-124218D01*
X-227309Y-124156D01*
X-227319Y-124094D01*
X-227325Y-124032D01*
X-227327Y-123969D01*
D12*
X-220098Y-113177D02*
X-216370Y-111595D01*
X-232000Y-74775D01*
X-235728Y-76357D01*
D11*
X-74584Y-246891D02*
X-74582Y-246828D01*
X-74576Y-246766D01*
X-74566Y-246704D01*
X-74553Y-246642D01*
X-74535Y-246582D01*
X-74514Y-246523D01*
X-74489Y-246465D01*
X-74460Y-246409D01*
X-74428Y-246355D01*
X-74393Y-246303D01*
X-74355Y-246254D01*
X-74313Y-246206D01*
X-74269Y-246162D01*
X-74221Y-246120D01*
X-74172Y-246082D01*
X-74120Y-246047D01*
X-74066Y-246015D01*
X-74010Y-245986D01*
X-73952Y-245961D01*
X-73893Y-245940D01*
X-73833Y-245922D01*
X-73771Y-245909D01*
X-73709Y-245899D01*
X-73647Y-245893D01*
X-73584Y-245891D01*
X-73521Y-245893D01*
X-73459Y-245899D01*
X-73397Y-245909D01*
X-73335Y-245922D01*
X-73275Y-245940D01*
X-73216Y-245961D01*
X-73158Y-245986D01*
X-73102Y-246015D01*
X-73048Y-246047D01*
X-72996Y-246082D01*
X-72947Y-246120D01*
X-72899Y-246162D01*
X-72855Y-246206D01*
X-72813Y-246254D01*
X-72775Y-246303D01*
X-72740Y-246355D01*
X-72708Y-246409D01*
X-72679Y-246465D01*
X-72654Y-246523D01*
X-72633Y-246582D01*
X-72615Y-246642D01*
X-72602Y-246704D01*
X-72592Y-246766D01*
X-72586Y-246828D01*
X-72584Y-246891D01*
X-72586Y-246954D01*
X-72592Y-247016D01*
X-72602Y-247078D01*
X-72615Y-247140D01*
X-72633Y-247200D01*
X-72654Y-247259D01*
X-72679Y-247317D01*
X-72708Y-247373D01*
X-72740Y-247427D01*
X-72775Y-247479D01*
X-72813Y-247528D01*
X-72855Y-247576D01*
X-72899Y-247620D01*
X-72947Y-247662D01*
X-72996Y-247700D01*
X-73048Y-247735D01*
X-73102Y-247767D01*
X-73158Y-247796D01*
X-73216Y-247821D01*
X-73275Y-247842D01*
X-73335Y-247860D01*
X-73397Y-247873D01*
X-73459Y-247883D01*
X-73521Y-247889D01*
X-73584Y-247891D01*
X-73647Y-247889D01*
X-73709Y-247883D01*
X-73771Y-247873D01*
X-73833Y-247860D01*
X-73893Y-247842D01*
X-73952Y-247821D01*
X-74010Y-247796D01*
X-74066Y-247767D01*
X-74120Y-247735D01*
X-74172Y-247700D01*
X-74221Y-247662D01*
X-74269Y-247620D01*
X-74313Y-247576D01*
X-74355Y-247528D01*
X-74393Y-247479D01*
X-74428Y-247427D01*
X-74460Y-247373D01*
X-74489Y-247317D01*
X-74514Y-247259D01*
X-74535Y-247200D01*
X-74553Y-247140D01*
X-74566Y-247078D01*
X-74576Y-247016D01*
X-74582Y-246954D01*
X-74584Y-246891D01*
D12*
X-76811Y-234856D02*
X-75293Y-231100D01*
X-112381Y-216116D01*
X-113898Y-219871D01*
D11*
X120339Y-225804D02*
X120341Y-225741D01*
X120347Y-225679D01*
X120357Y-225617D01*
X120370Y-225555D01*
X120388Y-225495D01*
X120409Y-225436D01*
X120434Y-225378D01*
X120463Y-225322D01*
X120495Y-225268D01*
X120530Y-225216D01*
X120568Y-225167D01*
X120610Y-225119D01*
X120654Y-225075D01*
X120702Y-225033D01*
X120751Y-224995D01*
X120803Y-224960D01*
X120857Y-224928D01*
X120913Y-224899D01*
X120971Y-224874D01*
X121030Y-224853D01*
X121090Y-224835D01*
X121152Y-224822D01*
X121214Y-224812D01*
X121276Y-224806D01*
X121339Y-224804D01*
X121402Y-224806D01*
X121464Y-224812D01*
X121526Y-224822D01*
X121588Y-224835D01*
X121648Y-224853D01*
X121707Y-224874D01*
X121765Y-224899D01*
X121821Y-224928D01*
X121875Y-224960D01*
X121927Y-224995D01*
X121976Y-225033D01*
X122024Y-225075D01*
X122068Y-225119D01*
X122110Y-225167D01*
X122148Y-225216D01*
X122183Y-225268D01*
X122215Y-225322D01*
X122244Y-225378D01*
X122269Y-225436D01*
X122290Y-225495D01*
X122308Y-225555D01*
X122321Y-225617D01*
X122331Y-225679D01*
X122337Y-225741D01*
X122339Y-225804D01*
X122337Y-225867D01*
X122331Y-225929D01*
X122321Y-225991D01*
X122308Y-226053D01*
X122290Y-226113D01*
X122269Y-226172D01*
X122244Y-226230D01*
X122215Y-226286D01*
X122183Y-226340D01*
X122148Y-226392D01*
X122110Y-226441D01*
X122068Y-226489D01*
X122024Y-226533D01*
X121976Y-226575D01*
X121927Y-226613D01*
X121875Y-226648D01*
X121821Y-226680D01*
X121765Y-226709D01*
X121707Y-226734D01*
X121648Y-226755D01*
X121588Y-226773D01*
X121526Y-226786D01*
X121464Y-226796D01*
X121402Y-226802D01*
X121339Y-226804D01*
X121276Y-226802D01*
X121214Y-226796D01*
X121152Y-226786D01*
X121090Y-226773D01*
X121030Y-226755D01*
X120971Y-226734D01*
X120913Y-226709D01*
X120857Y-226680D01*
X120803Y-226648D01*
X120751Y-226613D01*
X120702Y-226575D01*
X120654Y-226533D01*
X120610Y-226489D01*
X120568Y-226441D01*
X120530Y-226392D01*
X120495Y-226340D01*
X120463Y-226286D01*
X120434Y-226230D01*
X120409Y-226172D01*
X120388Y-226113D01*
X120370Y-226053D01*
X120357Y-225991D01*
X120347Y-225929D01*
X120341Y-225867D01*
X120339Y-225804D01*
D12*
X110547Y-219575D02*
X108965Y-215847D01*
X72144Y-231476D01*
X73727Y-235204D01*
D11*
X243664Y-73341D02*
X243666Y-73278D01*
X243672Y-73216D01*
X243682Y-73154D01*
X243695Y-73092D01*
X243713Y-73032D01*
X243734Y-72973D01*
X243759Y-72915D01*
X243788Y-72859D01*
X243820Y-72805D01*
X243855Y-72753D01*
X243893Y-72704D01*
X243935Y-72656D01*
X243979Y-72612D01*
X244027Y-72570D01*
X244076Y-72532D01*
X244128Y-72497D01*
X244182Y-72465D01*
X244238Y-72436D01*
X244296Y-72411D01*
X244355Y-72390D01*
X244415Y-72372D01*
X244477Y-72359D01*
X244539Y-72349D01*
X244601Y-72343D01*
X244664Y-72341D01*
X244727Y-72343D01*
X244789Y-72349D01*
X244851Y-72359D01*
X244913Y-72372D01*
X244973Y-72390D01*
X245032Y-72411D01*
X245090Y-72436D01*
X245146Y-72465D01*
X245200Y-72497D01*
X245252Y-72532D01*
X245301Y-72570D01*
X245349Y-72612D01*
X245393Y-72656D01*
X245435Y-72704D01*
X245473Y-72753D01*
X245508Y-72805D01*
X245540Y-72859D01*
X245569Y-72915D01*
X245594Y-72973D01*
X245615Y-73032D01*
X245633Y-73092D01*
X245646Y-73154D01*
X245656Y-73216D01*
X245662Y-73278D01*
X245664Y-73341D01*
X245662Y-73404D01*
X245656Y-73466D01*
X245646Y-73528D01*
X245633Y-73590D01*
X245615Y-73650D01*
X245594Y-73709D01*
X245569Y-73767D01*
X245540Y-73823D01*
X245508Y-73877D01*
X245473Y-73929D01*
X245435Y-73978D01*
X245393Y-74026D01*
X245349Y-74070D01*
X245301Y-74112D01*
X245252Y-74150D01*
X245200Y-74185D01*
X245146Y-74217D01*
X245090Y-74246D01*
X245032Y-74271D01*
X244973Y-74292D01*
X244913Y-74310D01*
X244851Y-74323D01*
X244789Y-74333D01*
X244727Y-74339D01*
X244664Y-74341D01*
X244601Y-74339D01*
X244539Y-74333D01*
X244477Y-74323D01*
X244415Y-74310D01*
X244355Y-74292D01*
X244296Y-74271D01*
X244238Y-74246D01*
X244182Y-74217D01*
X244128Y-74185D01*
X244076Y-74150D01*
X244027Y-74112D01*
X243979Y-74070D01*
X243935Y-74026D01*
X243893Y-73978D01*
X243855Y-73929D01*
X243820Y-73877D01*
X243788Y-73823D01*
X243759Y-73767D01*
X243734Y-73709D01*
X243713Y-73650D01*
X243695Y-73590D01*
X243682Y-73528D01*
X243672Y-73466D01*
X243666Y-73404D01*
X243664Y-73341D01*
D12*
X232574Y-76357D02*
X228846Y-74775D01*
X213217Y-111595D01*
X216945Y-113177D01*
X283450Y-35000D02*
X283450Y-28700D01*
X283450Y-35000D02*
X293250Y-35000D01*
X283450Y28700D02*
X283450Y35000D01*
X293250Y35000D01*
X283450Y13300D02*
X283450Y-13300D01*
X308450Y-23800D02*
X308450Y23800D01*
X-283450Y28700D02*
X-283450Y35000D01*
X-293250Y35000D01*
X-283450Y-28700D02*
X-283450Y-35000D01*
X-293250Y-35000D01*
X-283450Y-13300D02*
X-283450Y13300D01*
X-308450Y23800D02*
X-308450Y-23800D01*
D11*
X222657Y121949D02*
X222659Y122012D01*
X222665Y122074D01*
X222675Y122136D01*
X222688Y122198D01*
X222706Y122258D01*
X222727Y122317D01*
X222752Y122375D01*
X222781Y122431D01*
X222813Y122485D01*
X222848Y122537D01*
X222886Y122586D01*
X222928Y122634D01*
X222972Y122678D01*
X223020Y122720D01*
X223069Y122758D01*
X223121Y122793D01*
X223175Y122825D01*
X223231Y122854D01*
X223289Y122879D01*
X223348Y122900D01*
X223408Y122918D01*
X223470Y122931D01*
X223532Y122941D01*
X223594Y122947D01*
X223657Y122949D01*
X223720Y122947D01*
X223782Y122941D01*
X223844Y122931D01*
X223906Y122918D01*
X223966Y122900D01*
X224025Y122879D01*
X224083Y122854D01*
X224139Y122825D01*
X224193Y122793D01*
X224245Y122758D01*
X224294Y122720D01*
X224342Y122678D01*
X224386Y122634D01*
X224428Y122586D01*
X224466Y122537D01*
X224501Y122485D01*
X224533Y122431D01*
X224562Y122375D01*
X224587Y122317D01*
X224608Y122258D01*
X224626Y122198D01*
X224639Y122136D01*
X224649Y122074D01*
X224655Y122012D01*
X224657Y121949D01*
X224655Y121886D01*
X224649Y121824D01*
X224639Y121762D01*
X224626Y121700D01*
X224608Y121640D01*
X224587Y121581D01*
X224562Y121523D01*
X224533Y121467D01*
X224501Y121413D01*
X224466Y121361D01*
X224428Y121312D01*
X224386Y121264D01*
X224342Y121220D01*
X224294Y121178D01*
X224245Y121140D01*
X224193Y121105D01*
X224139Y121073D01*
X224083Y121044D01*
X224025Y121019D01*
X223966Y120998D01*
X223906Y120980D01*
X223844Y120967D01*
X223782Y120957D01*
X223720Y120951D01*
X223657Y120949D01*
X223594Y120951D01*
X223532Y120957D01*
X223470Y120967D01*
X223408Y120980D01*
X223348Y120998D01*
X223289Y121019D01*
X223231Y121044D01*
X223175Y121073D01*
X223121Y121105D01*
X223069Y121140D01*
X223020Y121178D01*
X222972Y121220D01*
X222928Y121264D01*
X222886Y121312D01*
X222848Y121361D01*
X222813Y121413D01*
X222781Y121467D01*
X222752Y121523D01*
X222727Y121581D01*
X222706Y121640D01*
X222688Y121700D01*
X222675Y121762D01*
X222665Y121824D01*
X222659Y121886D01*
X222657Y121949D01*
D12*
X217241Y111268D02*
X213486Y109750D01*
X228470Y72663D01*
X232225Y74180D01*
D11*
X69430Y244783D02*
X69432Y244846D01*
X69438Y244908D01*
X69448Y244970D01*
X69461Y245032D01*
X69479Y245092D01*
X69500Y245151D01*
X69525Y245209D01*
X69554Y245265D01*
X69586Y245319D01*
X69621Y245371D01*
X69659Y245420D01*
X69701Y245468D01*
X69745Y245512D01*
X69793Y245554D01*
X69842Y245592D01*
X69894Y245627D01*
X69948Y245659D01*
X70004Y245688D01*
X70062Y245713D01*
X70121Y245734D01*
X70181Y245752D01*
X70243Y245765D01*
X70305Y245775D01*
X70367Y245781D01*
X70430Y245783D01*
X70493Y245781D01*
X70555Y245775D01*
X70617Y245765D01*
X70679Y245752D01*
X70739Y245734D01*
X70798Y245713D01*
X70856Y245688D01*
X70912Y245659D01*
X70966Y245627D01*
X71018Y245592D01*
X71067Y245554D01*
X71115Y245512D01*
X71159Y245468D01*
X71201Y245420D01*
X71239Y245371D01*
X71274Y245319D01*
X71306Y245265D01*
X71335Y245209D01*
X71360Y245151D01*
X71381Y245092D01*
X71399Y245032D01*
X71412Y244970D01*
X71422Y244908D01*
X71428Y244846D01*
X71430Y244783D01*
X71428Y244720D01*
X71422Y244658D01*
X71412Y244596D01*
X71399Y244534D01*
X71381Y244474D01*
X71360Y244415D01*
X71335Y244357D01*
X71306Y244301D01*
X71274Y244247D01*
X71239Y244195D01*
X71201Y244146D01*
X71159Y244098D01*
X71115Y244054D01*
X71067Y244012D01*
X71018Y243974D01*
X70966Y243939D01*
X70912Y243907D01*
X70856Y243878D01*
X70798Y243853D01*
X70739Y243832D01*
X70679Y243814D01*
X70617Y243801D01*
X70555Y243791D01*
X70493Y243785D01*
X70430Y243783D01*
X70367Y243785D01*
X70305Y243791D01*
X70243Y243801D01*
X70181Y243814D01*
X70121Y243832D01*
X70062Y243853D01*
X70004Y243878D01*
X69948Y243907D01*
X69894Y243939D01*
X69842Y243974D01*
X69793Y244012D01*
X69745Y244054D01*
X69701Y244098D01*
X69659Y244146D01*
X69621Y244195D01*
X69586Y244247D01*
X69554Y244301D01*
X69525Y244357D01*
X69500Y244415D01*
X69479Y244474D01*
X69461Y244534D01*
X69448Y244596D01*
X69438Y244658D01*
X69432Y244720D01*
X69430Y244783D01*
D12*
X73657Y232748D02*
X72140Y228993D01*
X109227Y214009D01*
X110744Y217764D01*
D11*
X-245500Y-130D02*
X-245498Y-67D01*
X-245492Y-5D01*
X-245482Y57D01*
X-245469Y119D01*
X-245451Y179D01*
X-245430Y238D01*
X-245405Y296D01*
X-245376Y352D01*
X-245344Y406D01*
X-245309Y458D01*
X-245271Y507D01*
X-245229Y555D01*
X-245185Y599D01*
X-245137Y641D01*
X-245088Y679D01*
X-245036Y714D01*
X-244982Y746D01*
X-244926Y775D01*
X-244868Y800D01*
X-244809Y821D01*
X-244749Y839D01*
X-244687Y852D01*
X-244625Y862D01*
X-244563Y868D01*
X-244500Y870D01*
X-244437Y868D01*
X-244375Y862D01*
X-244313Y852D01*
X-244251Y839D01*
X-244191Y821D01*
X-244132Y800D01*
X-244074Y775D01*
X-244018Y746D01*
X-243964Y714D01*
X-243912Y679D01*
X-243863Y641D01*
X-243815Y599D01*
X-243771Y555D01*
X-243729Y507D01*
X-243691Y458D01*
X-243656Y406D01*
X-243624Y352D01*
X-243595Y296D01*
X-243570Y238D01*
X-243549Y179D01*
X-243531Y119D01*
X-243518Y57D01*
X-243508Y-5D01*
X-243502Y-67D01*
X-243500Y-130D01*
X-243502Y-193D01*
X-243508Y-255D01*
X-243518Y-317D01*
X-243531Y-379D01*
X-243549Y-439D01*
X-243570Y-498D01*
X-243595Y-556D01*
X-243624Y-612D01*
X-243656Y-666D01*
X-243691Y-718D01*
X-243729Y-767D01*
X-243771Y-815D01*
X-243815Y-859D01*
X-243863Y-901D01*
X-243912Y-939D01*
X-243964Y-974D01*
X-244018Y-1006D01*
X-244074Y-1035D01*
X-244132Y-1060D01*
X-244191Y-1081D01*
X-244251Y-1099D01*
X-244313Y-1112D01*
X-244375Y-1122D01*
X-244437Y-1128D01*
X-244500Y-1130D01*
X-244563Y-1128D01*
X-244625Y-1122D01*
X-244687Y-1112D01*
X-244749Y-1099D01*
X-244809Y-1081D01*
X-244868Y-1060D01*
X-244926Y-1035D01*
X-244982Y-1006D01*
X-245036Y-974D01*
X-245088Y-939D01*
X-245137Y-901D01*
X-245185Y-859D01*
X-245229Y-815D01*
X-245271Y-767D01*
X-245309Y-718D01*
X-245344Y-666D01*
X-245376Y-612D01*
X-245405Y-556D01*
X-245430Y-498D01*
X-245451Y-439D01*
X-245469Y-379D01*
X-245482Y-317D01*
X-245492Y-255D01*
X-245498Y-193D01*
X-245500Y-130D01*
D12*
X-238550Y-16130D02*
X-238550Y-32130D01*
X-269450Y-32130D02*
X-269450Y-16130D01*
D11*
X-264500Y130D02*
X-264498Y193D01*
X-264492Y255D01*
X-264482Y317D01*
X-264469Y379D01*
X-264451Y439D01*
X-264430Y498D01*
X-264405Y556D01*
X-264376Y612D01*
X-264344Y666D01*
X-264309Y718D01*
X-264271Y767D01*
X-264229Y815D01*
X-264185Y859D01*
X-264137Y901D01*
X-264088Y939D01*
X-264036Y974D01*
X-263982Y1006D01*
X-263926Y1035D01*
X-263868Y1060D01*
X-263809Y1081D01*
X-263749Y1099D01*
X-263687Y1112D01*
X-263625Y1122D01*
X-263563Y1128D01*
X-263500Y1130D01*
X-263437Y1128D01*
X-263375Y1122D01*
X-263313Y1112D01*
X-263251Y1099D01*
X-263191Y1081D01*
X-263132Y1060D01*
X-263074Y1035D01*
X-263018Y1006D01*
X-262964Y974D01*
X-262912Y939D01*
X-262863Y901D01*
X-262815Y859D01*
X-262771Y815D01*
X-262729Y767D01*
X-262691Y718D01*
X-262656Y666D01*
X-262624Y612D01*
X-262595Y556D01*
X-262570Y498D01*
X-262549Y439D01*
X-262531Y379D01*
X-262518Y317D01*
X-262508Y255D01*
X-262502Y193D01*
X-262500Y130D01*
X-262502Y67D01*
X-262508Y5D01*
X-262518Y-57D01*
X-262531Y-119D01*
X-262549Y-179D01*
X-262570Y-238D01*
X-262595Y-296D01*
X-262624Y-352D01*
X-262656Y-406D01*
X-262691Y-458D01*
X-262729Y-507D01*
X-262771Y-555D01*
X-262815Y-599D01*
X-262863Y-641D01*
X-262912Y-679D01*
X-262964Y-714D01*
X-263018Y-746D01*
X-263074Y-775D01*
X-263132Y-800D01*
X-263191Y-821D01*
X-263251Y-839D01*
X-263313Y-852D01*
X-263375Y-862D01*
X-263437Y-868D01*
X-263500Y-870D01*
X-263563Y-868D01*
X-263625Y-862D01*
X-263687Y-852D01*
X-263749Y-839D01*
X-263809Y-821D01*
X-263868Y-800D01*
X-263926Y-775D01*
X-263982Y-746D01*
X-264036Y-714D01*
X-264088Y-679D01*
X-264137Y-641D01*
X-264185Y-599D01*
X-264229Y-555D01*
X-264271Y-507D01*
X-264309Y-458D01*
X-264344Y-406D01*
X-264376Y-352D01*
X-264405Y-296D01*
X-264430Y-238D01*
X-264451Y-179D01*
X-264469Y-119D01*
X-264482Y-57D01*
X-264492Y5D01*
X-264498Y67D01*
X-264500Y130D01*
D12*
X-269450Y16130D02*
X-269450Y32130D01*
X-238550Y32130D02*
X-238550Y16130D01*
D11*
X262500Y-130D02*
X262502Y-67D01*
X262508Y-5D01*
X262518Y57D01*
X262531Y119D01*
X262549Y179D01*
X262570Y238D01*
X262595Y296D01*
X262624Y352D01*
X262656Y406D01*
X262691Y458D01*
X262729Y507D01*
X262771Y555D01*
X262815Y599D01*
X262863Y641D01*
X262912Y679D01*
X262964Y714D01*
X263018Y746D01*
X263074Y775D01*
X263132Y800D01*
X263191Y821D01*
X263251Y839D01*
X263313Y852D01*
X263375Y862D01*
X263437Y868D01*
X263500Y870D01*
X263563Y868D01*
X263625Y862D01*
X263687Y852D01*
X263749Y839D01*
X263809Y821D01*
X263868Y800D01*
X263926Y775D01*
X263982Y746D01*
X264036Y714D01*
X264088Y679D01*
X264137Y641D01*
X264185Y599D01*
X264229Y555D01*
X264271Y507D01*
X264309Y458D01*
X264344Y406D01*
X264376Y352D01*
X264405Y296D01*
X264430Y238D01*
X264451Y179D01*
X264469Y119D01*
X264482Y57D01*
X264492Y-5D01*
X264498Y-67D01*
X264500Y-130D01*
X264498Y-193D01*
X264492Y-255D01*
X264482Y-317D01*
X264469Y-379D01*
X264451Y-439D01*
X264430Y-498D01*
X264405Y-556D01*
X264376Y-612D01*
X264344Y-666D01*
X264309Y-718D01*
X264271Y-767D01*
X264229Y-815D01*
X264185Y-859D01*
X264137Y-901D01*
X264088Y-939D01*
X264036Y-974D01*
X263982Y-1006D01*
X263926Y-1035D01*
X263868Y-1060D01*
X263809Y-1081D01*
X263749Y-1099D01*
X263687Y-1112D01*
X263625Y-1122D01*
X263563Y-1128D01*
X263500Y-1130D01*
X263437Y-1128D01*
X263375Y-1122D01*
X263313Y-1112D01*
X263251Y-1099D01*
X263191Y-1081D01*
X263132Y-1060D01*
X263074Y-1035D01*
X263018Y-1006D01*
X262964Y-974D01*
X262912Y-939D01*
X262863Y-901D01*
X262815Y-859D01*
X262771Y-815D01*
X262729Y-767D01*
X262691Y-718D01*
X262656Y-666D01*
X262624Y-612D01*
X262595Y-556D01*
X262570Y-498D01*
X262549Y-439D01*
X262531Y-379D01*
X262518Y-317D01*
X262508Y-255D01*
X262502Y-193D01*
X262500Y-130D01*
D12*
X269450Y-16130D02*
X269450Y-32130D01*
X238550Y-32130D02*
X238550Y-16130D01*
D11*
X243500Y130D02*
X243502Y193D01*
X243508Y255D01*
X243518Y317D01*
X243531Y379D01*
X243549Y439D01*
X243570Y498D01*
X243595Y556D01*
X243624Y612D01*
X243656Y666D01*
X243691Y718D01*
X243729Y767D01*
X243771Y815D01*
X243815Y859D01*
X243863Y901D01*
X243912Y939D01*
X243964Y974D01*
X244018Y1006D01*
X244074Y1035D01*
X244132Y1060D01*
X244191Y1081D01*
X244251Y1099D01*
X244313Y1112D01*
X244375Y1122D01*
X244437Y1128D01*
X244500Y1130D01*
X244563Y1128D01*
X244625Y1122D01*
X244687Y1112D01*
X244749Y1099D01*
X244809Y1081D01*
X244868Y1060D01*
X244926Y1035D01*
X244982Y1006D01*
X245036Y974D01*
X245088Y939D01*
X245137Y901D01*
X245185Y859D01*
X245229Y815D01*
X245271Y767D01*
X245309Y718D01*
X245344Y666D01*
X245376Y612D01*
X245405Y556D01*
X245430Y498D01*
X245451Y439D01*
X245469Y379D01*
X245482Y317D01*
X245492Y255D01*
X245498Y193D01*
X245500Y130D01*
X245498Y67D01*
X245492Y5D01*
X245482Y-57D01*
X245469Y-119D01*
X245451Y-179D01*
X245430Y-238D01*
X245405Y-296D01*
X245376Y-352D01*
X245344Y-406D01*
X245309Y-458D01*
X245271Y-507D01*
X245229Y-555D01*
X245185Y-599D01*
X245137Y-641D01*
X245088Y-679D01*
X245036Y-714D01*
X244982Y-746D01*
X244926Y-775D01*
X244868Y-800D01*
X244809Y-821D01*
X244749Y-839D01*
X244687Y-852D01*
X244625Y-862D01*
X244563Y-868D01*
X244500Y-870D01*
X244437Y-868D01*
X244375Y-862D01*
X244313Y-852D01*
X244251Y-839D01*
X244191Y-821D01*
X244132Y-800D01*
X244074Y-775D01*
X244018Y-746D01*
X243964Y-714D01*
X243912Y-679D01*
X243863Y-641D01*
X243815Y-599D01*
X243771Y-555D01*
X243729Y-507D01*
X243691Y-458D01*
X243656Y-406D01*
X243624Y-352D01*
X243595Y-296D01*
X243570Y-238D01*
X243549Y-179D01*
X243531Y-119D01*
X243518Y-57D01*
X243508Y5D01*
X243502Y67D01*
X243500Y130D01*
D12*
X238550Y16130D02*
X238550Y32130D01*
X269450Y32130D02*
X269450Y16130D01*
X-20810Y167530D02*
X-20810Y185530D01*
X13190Y185530D02*
X13190Y167530D01*
D11*
X-19810Y157530D02*
X-19808Y157593D01*
X-19802Y157655D01*
X-19792Y157717D01*
X-19779Y157779D01*
X-19761Y157839D01*
X-19740Y157898D01*
X-19715Y157956D01*
X-19686Y158012D01*
X-19654Y158066D01*
X-19619Y158118D01*
X-19581Y158167D01*
X-19539Y158215D01*
X-19495Y158259D01*
X-19447Y158301D01*
X-19398Y158339D01*
X-19346Y158374D01*
X-19292Y158406D01*
X-19236Y158435D01*
X-19178Y158460D01*
X-19119Y158481D01*
X-19059Y158499D01*
X-18997Y158512D01*
X-18935Y158522D01*
X-18873Y158528D01*
X-18810Y158530D01*
X-18747Y158528D01*
X-18685Y158522D01*
X-18623Y158512D01*
X-18561Y158499D01*
X-18501Y158481D01*
X-18442Y158460D01*
X-18384Y158435D01*
X-18328Y158406D01*
X-18274Y158374D01*
X-18222Y158339D01*
X-18173Y158301D01*
X-18125Y158259D01*
X-18081Y158215D01*
X-18039Y158167D01*
X-18001Y158118D01*
X-17966Y158066D01*
X-17934Y158012D01*
X-17905Y157956D01*
X-17880Y157898D01*
X-17859Y157839D01*
X-17841Y157779D01*
X-17828Y157717D01*
X-17818Y157655D01*
X-17812Y157593D01*
X-17810Y157530D01*
X-17812Y157467D01*
X-17818Y157405D01*
X-17828Y157343D01*
X-17841Y157281D01*
X-17859Y157221D01*
X-17880Y157162D01*
X-17905Y157104D01*
X-17934Y157048D01*
X-17966Y156994D01*
X-18001Y156942D01*
X-18039Y156893D01*
X-18081Y156845D01*
X-18125Y156801D01*
X-18173Y156759D01*
X-18222Y156721D01*
X-18274Y156686D01*
X-18328Y156654D01*
X-18384Y156625D01*
X-18442Y156600D01*
X-18501Y156579D01*
X-18561Y156561D01*
X-18623Y156548D01*
X-18685Y156538D01*
X-18747Y156532D01*
X-18810Y156530D01*
X-18873Y156532D01*
X-18935Y156538D01*
X-18997Y156548D01*
X-19059Y156561D01*
X-19119Y156579D01*
X-19178Y156600D01*
X-19236Y156625D01*
X-19292Y156654D01*
X-19346Y156686D01*
X-19398Y156721D01*
X-19447Y156759D01*
X-19495Y156801D01*
X-19539Y156845D01*
X-19581Y156893D01*
X-19619Y156942D01*
X-19654Y156994D01*
X-19686Y157048D01*
X-19715Y157104D01*
X-19740Y157162D01*
X-19761Y157221D01*
X-19779Y157281D01*
X-19792Y157343D01*
X-19802Y157405D01*
X-19808Y157467D01*
X-19810Y157530D01*
D12*
X17699Y165780D02*
X17699Y187280D01*
X38181Y187280D02*
X38181Y165780D01*
X-45801Y165780D02*
X-45801Y187280D01*
X-25319Y187280D02*
X-25319Y165780D01*
X57937Y229380D02*
X57937Y263380D01*
X33503Y263380D02*
X33503Y229380D01*
X-34773Y229380D02*
X-34773Y263380D01*
X-59207Y263380D02*
X-59207Y229380D01*
X-243000Y67617D02*
X-265000Y67617D01*
X-265000Y46683D02*
X-243000Y46683D01*
X-243000Y-46683D02*
X-265000Y-46683D01*
X-265000Y-67617D02*
X-243000Y-67617D01*
X243000Y-46683D02*
X265000Y-46683D01*
X265000Y-67617D02*
X243000Y-67617D01*
X243000Y46683D02*
X265000Y46683D01*
X265000Y67617D02*
X243000Y67617D01*
X21283Y-154100D02*
X21283Y-176100D01*
X42217Y-176100D02*
X42217Y-154100D01*
X-122227Y71550D02*
X-122227Y93550D01*
X-101293Y93550D02*
X-101293Y71550D01*
X101293Y71550D02*
X101293Y93550D01*
X122227Y93550D02*
X122227Y71550D01*
X209498Y123569D02*
X227948Y135551D01*
X216547Y153108D02*
X198096Y141126D01*
X-123569Y209498D02*
X-135551Y227948D01*
X-153108Y216547D02*
X-141126Y198096D01*
X-209498Y-123569D02*
X-227948Y-135551D01*
X-216547Y-153108D02*
X-198096Y-141126D01*
X123569Y-209498D02*
X135551Y-227948D01*
X153108Y-216547D02*
X141126Y-198096D01*
X198203Y-140901D02*
X216654Y-152883D01*
X228055Y-135326D02*
X209605Y-123344D01*
X141232Y198321D02*
X153215Y216771D01*
X135658Y228173D02*
X123676Y209722D01*
X-197989Y141350D02*
X-216440Y153332D01*
X-227841Y135775D02*
X-209391Y123793D01*
X-141019Y-197872D02*
X-153001Y-216322D01*
X-135444Y-227724D02*
X-123462Y-209273D01*
X-17000Y-241783D02*
X17000Y-241783D01*
X17000Y-266217D02*
X-17000Y-266217D01*
D11*
X5690Y238730D02*
X5692Y238793D01*
X5698Y238855D01*
X5708Y238917D01*
X5721Y238979D01*
X5739Y239039D01*
X5760Y239098D01*
X5785Y239156D01*
X5814Y239212D01*
X5846Y239266D01*
X5881Y239318D01*
X5919Y239367D01*
X5961Y239415D01*
X6005Y239459D01*
X6053Y239501D01*
X6102Y239539D01*
X6154Y239574D01*
X6208Y239606D01*
X6264Y239635D01*
X6322Y239660D01*
X6381Y239681D01*
X6441Y239699D01*
X6503Y239712D01*
X6565Y239722D01*
X6627Y239728D01*
X6690Y239730D01*
X6753Y239728D01*
X6815Y239722D01*
X6877Y239712D01*
X6939Y239699D01*
X6999Y239681D01*
X7058Y239660D01*
X7116Y239635D01*
X7172Y239606D01*
X7226Y239574D01*
X7278Y239539D01*
X7327Y239501D01*
X7375Y239459D01*
X7419Y239415D01*
X7461Y239367D01*
X7499Y239318D01*
X7534Y239266D01*
X7566Y239212D01*
X7595Y239156D01*
X7620Y239098D01*
X7641Y239039D01*
X7659Y238979D01*
X7672Y238917D01*
X7682Y238855D01*
X7688Y238793D01*
X7690Y238730D01*
X7688Y238667D01*
X7682Y238605D01*
X7672Y238543D01*
X7659Y238481D01*
X7641Y238421D01*
X7620Y238362D01*
X7595Y238304D01*
X7566Y238248D01*
X7534Y238194D01*
X7499Y238142D01*
X7461Y238093D01*
X7419Y238045D01*
X7375Y238001D01*
X7327Y237959D01*
X7278Y237921D01*
X7226Y237886D01*
X7172Y237854D01*
X7116Y237825D01*
X7058Y237800D01*
X6999Y237779D01*
X6939Y237761D01*
X6877Y237748D01*
X6815Y237738D01*
X6753Y237732D01*
X6690Y237730D01*
X6627Y237732D01*
X6565Y237738D01*
X6503Y237748D01*
X6441Y237761D01*
X6381Y237779D01*
X6322Y237800D01*
X6264Y237825D01*
X6208Y237854D01*
X6154Y237886D01*
X6102Y237921D01*
X6053Y237959D01*
X6005Y238001D01*
X5961Y238045D01*
X5919Y238093D01*
X5881Y238142D01*
X5846Y238194D01*
X5814Y238248D01*
X5785Y238304D01*
X5760Y238362D01*
X5739Y238421D01*
X5721Y238481D01*
X5708Y238543D01*
X5698Y238605D01*
X5692Y238667D01*
X5690Y238730D01*
D12*
X10690Y217930D02*
X10690Y211330D01*
X-460Y206630D02*
X-7160Y206630D01*
X-18310Y211330D02*
X-18310Y217930D01*
M02*
