G04 EAGLE Gerber RS-274X export*
G75*
%MOMM*%
%FSLAX34Y34*%
%LPD*%
%INSilkscreen Bottom*%
%IPPOS*%
%AMOC8*
5,1,8,0,0,1.08239X$1,22.5*%
G01*
G04 Define Apertures*
%ADD10C,0.254000*%
%ADD11C,0.076200*%
G36*
X6023Y164598D02*
X4417Y164598D01*
X4417Y166089D01*
X2926Y166089D01*
X2926Y167695D01*
X4417Y167695D01*
X4417Y169186D01*
X6023Y169186D01*
X6023Y167695D01*
X7514Y167695D01*
X7514Y166089D01*
X6023Y166089D01*
X6023Y164598D01*
G37*
G36*
X46379Y-188028D02*
X41778Y-188028D01*
X41778Y-185195D01*
X46379Y-185195D01*
X46622Y-185170D01*
X46848Y-185100D01*
X47052Y-184988D01*
X47231Y-184841D01*
X47378Y-184662D01*
X47490Y-184457D01*
X47560Y-184231D01*
X47585Y-183989D01*
X47585Y-173701D01*
X47561Y-173459D01*
X47493Y-173233D01*
X47384Y-173028D01*
X47238Y-172850D01*
X47061Y-172702D01*
X46856Y-172591D01*
X46627Y-172520D01*
X46379Y-172496D01*
X42361Y-172496D01*
X42113Y-172519D01*
X41884Y-172588D01*
X41679Y-172697D01*
X41502Y-172842D01*
X41356Y-173020D01*
X41247Y-173225D01*
X41179Y-173453D01*
X41155Y-173701D01*
X41155Y-174565D01*
X42120Y-173922D01*
X42863Y-173922D01*
X43272Y-173943D01*
X43670Y-174004D01*
X44055Y-174104D01*
X44423Y-174239D01*
X44775Y-174409D01*
X45106Y-174611D01*
X45415Y-174843D01*
X45701Y-175103D01*
X45961Y-175389D01*
X46193Y-175698D01*
X46395Y-176030D01*
X46565Y-176381D01*
X46700Y-176749D01*
X46800Y-177134D01*
X46861Y-177532D01*
X46882Y-177941D01*
X46882Y-179930D01*
X46861Y-180340D01*
X46800Y-180738D01*
X46700Y-181122D01*
X46565Y-181491D01*
X46395Y-181842D01*
X46193Y-182173D01*
X45961Y-182483D01*
X45701Y-182769D01*
X45415Y-183028D01*
X45106Y-183260D01*
X44775Y-183462D01*
X44423Y-183632D01*
X44055Y-183768D01*
X43670Y-183867D01*
X43272Y-183928D01*
X42863Y-183949D01*
X42120Y-183949D01*
X41155Y-183306D01*
X41155Y-183949D01*
X38342Y-183949D01*
X38342Y-173701D01*
X38363Y-173289D01*
X38423Y-172888D01*
X38522Y-172502D01*
X38656Y-172132D01*
X38825Y-171781D01*
X39025Y-171450D01*
X39256Y-171140D01*
X39515Y-170856D01*
X39800Y-170597D01*
X40109Y-170366D01*
X40440Y-170165D01*
X40792Y-169997D01*
X41162Y-169862D01*
X41548Y-169764D01*
X41948Y-169703D01*
X42361Y-169683D01*
X46379Y-169683D01*
X46789Y-169703D01*
X47187Y-169765D01*
X47571Y-169864D01*
X47940Y-170000D01*
X48291Y-170169D01*
X48622Y-170371D01*
X48932Y-170603D01*
X49218Y-170863D01*
X49478Y-171149D01*
X49709Y-171458D01*
X49911Y-171790D01*
X50081Y-172141D01*
X50217Y-172510D01*
X50316Y-172894D01*
X50377Y-173292D01*
X50398Y-173701D01*
X50398Y-183989D01*
X50377Y-184399D01*
X50316Y-184797D01*
X50217Y-185183D01*
X50081Y-185553D01*
X49911Y-185905D01*
X49709Y-186238D01*
X49478Y-186550D01*
X49218Y-186838D01*
X48932Y-187099D01*
X48622Y-187333D01*
X48291Y-187537D01*
X47940Y-187708D01*
X47571Y-187845D01*
X47187Y-187945D01*
X46789Y-188007D01*
X46379Y-188028D01*
G37*
%LPC*%
G36*
X42984Y-181136D02*
X43203Y-181092D01*
X43407Y-181010D01*
X43592Y-180892D01*
X43752Y-180744D01*
X43884Y-180570D01*
X43984Y-180373D01*
X44047Y-180159D01*
X44069Y-179930D01*
X44069Y-177941D01*
X44047Y-177713D01*
X43984Y-177498D01*
X43884Y-177302D01*
X43752Y-177127D01*
X43592Y-176979D01*
X43407Y-176862D01*
X43203Y-176779D01*
X42984Y-176735D01*
X42753Y-176893D01*
X41155Y-177981D01*
X41155Y-179890D01*
X42984Y-181136D01*
G37*
%LPD*%
G36*
X-66526Y-184150D02*
X-72153Y-184150D01*
X-72565Y-184129D01*
X-72966Y-184069D01*
X-73352Y-183970D01*
X-73721Y-183836D01*
X-74073Y-183667D01*
X-74404Y-183467D01*
X-74713Y-183236D01*
X-74998Y-182977D01*
X-75257Y-182692D01*
X-75488Y-182383D01*
X-75688Y-182052D01*
X-75857Y-181700D01*
X-75992Y-181330D01*
X-76090Y-180944D01*
X-76151Y-180544D01*
X-76171Y-180131D01*
X-76171Y-179528D01*
X-76151Y-179112D01*
X-76091Y-178710D01*
X-75993Y-178322D01*
X-75860Y-177951D01*
X-75692Y-177599D01*
X-75493Y-177268D01*
X-75264Y-176959D01*
X-75006Y-176675D01*
X-75177Y-176419D01*
X-75329Y-176149D01*
X-75459Y-175867D01*
X-75568Y-175573D01*
X-75655Y-175268D01*
X-75718Y-174954D01*
X-75756Y-174633D01*
X-75769Y-174304D01*
X-75769Y-174103D01*
X-75749Y-173690D01*
X-75688Y-173290D01*
X-75590Y-172904D01*
X-75455Y-172534D01*
X-75287Y-172183D01*
X-75086Y-171851D01*
X-74855Y-171542D01*
X-74596Y-171257D01*
X-74311Y-170999D01*
X-74002Y-170768D01*
X-73671Y-170567D01*
X-73320Y-170399D01*
X-72950Y-170264D01*
X-72564Y-170166D01*
X-72163Y-170105D01*
X-71751Y-170084D01*
X-66526Y-170084D01*
X-66526Y-184150D01*
G37*
%LPC*%
G36*
X-69339Y-181337D02*
X-69339Y-178323D01*
X-72153Y-178323D01*
X-72400Y-178347D01*
X-72629Y-178415D01*
X-72834Y-178524D01*
X-73012Y-178669D01*
X-73157Y-178847D01*
X-73266Y-179052D01*
X-73334Y-179281D01*
X-73358Y-179528D01*
X-73358Y-180131D01*
X-73334Y-180379D01*
X-73266Y-180608D01*
X-73157Y-180813D01*
X-73012Y-180990D01*
X-72834Y-181136D01*
X-72629Y-181245D01*
X-72400Y-181313D01*
X-72153Y-181337D01*
X-69339Y-181337D01*
G37*
G36*
X-69339Y-175510D02*
X-69339Y-172898D01*
X-71751Y-172898D01*
X-71999Y-172921D01*
X-72227Y-172990D01*
X-72432Y-173099D01*
X-72610Y-173244D01*
X-72755Y-173421D01*
X-72864Y-173627D01*
X-72932Y-173855D01*
X-72956Y-174103D01*
X-72956Y-174304D01*
X-72932Y-174552D01*
X-72864Y-174781D01*
X-72755Y-174986D01*
X-72610Y-175163D01*
X-72432Y-175308D01*
X-72227Y-175417D01*
X-71999Y-175486D01*
X-71751Y-175510D01*
X-69339Y-175510D01*
G37*
%LPD*%
G36*
X-27964Y-184150D02*
X-33590Y-184150D01*
X-34003Y-184129D01*
X-34403Y-184069D01*
X-34789Y-183970D01*
X-35159Y-183836D01*
X-35510Y-183667D01*
X-35842Y-183467D01*
X-36151Y-183236D01*
X-36436Y-182977D01*
X-36695Y-182692D01*
X-36925Y-182383D01*
X-37126Y-182052D01*
X-37294Y-181700D01*
X-37429Y-181330D01*
X-37528Y-180944D01*
X-37588Y-180544D01*
X-37609Y-180131D01*
X-37609Y-179528D01*
X-37588Y-179112D01*
X-37528Y-178710D01*
X-37431Y-178322D01*
X-37297Y-177951D01*
X-37130Y-177599D01*
X-36931Y-177268D01*
X-36701Y-176959D01*
X-36443Y-176675D01*
X-36615Y-176419D01*
X-36766Y-176149D01*
X-36897Y-175867D01*
X-37006Y-175573D01*
X-37092Y-175268D01*
X-37155Y-174954D01*
X-37194Y-174633D01*
X-37207Y-174304D01*
X-37207Y-174103D01*
X-37186Y-173690D01*
X-37126Y-173290D01*
X-37027Y-172904D01*
X-36893Y-172534D01*
X-36724Y-172183D01*
X-36523Y-171851D01*
X-36293Y-171542D01*
X-36034Y-171257D01*
X-35749Y-170999D01*
X-35440Y-170768D01*
X-35109Y-170567D01*
X-34757Y-170399D01*
X-34387Y-170264D01*
X-34001Y-170166D01*
X-33601Y-170105D01*
X-33188Y-170084D01*
X-27964Y-170084D01*
X-27964Y-184150D01*
G37*
%LPC*%
G36*
X-30777Y-181337D02*
X-30777Y-178323D01*
X-33590Y-178323D01*
X-33838Y-178347D01*
X-34067Y-178415D01*
X-34272Y-178524D01*
X-34449Y-178669D01*
X-34594Y-178847D01*
X-34703Y-179052D01*
X-34772Y-179281D01*
X-34796Y-179528D01*
X-34796Y-180131D01*
X-34772Y-180379D01*
X-34703Y-180608D01*
X-34594Y-180813D01*
X-34449Y-180990D01*
X-34272Y-181136D01*
X-34067Y-181245D01*
X-33838Y-181313D01*
X-33590Y-181337D01*
X-30777Y-181337D01*
G37*
G36*
X-30777Y-175510D02*
X-30777Y-172898D01*
X-33188Y-172898D01*
X-33436Y-172921D01*
X-33665Y-172990D01*
X-33870Y-173099D01*
X-34047Y-173244D01*
X-34192Y-173421D01*
X-34301Y-173627D01*
X-34370Y-173855D01*
X-34394Y-174103D01*
X-34394Y-174304D01*
X-34370Y-174552D01*
X-34301Y-174781D01*
X-34192Y-174986D01*
X-34047Y-175163D01*
X-33870Y-175308D01*
X-33665Y-175417D01*
X-33436Y-175486D01*
X-33188Y-175510D01*
X-30777Y-175510D01*
G37*
%LPD*%
G36*
X-83420Y-184150D02*
X-85028Y-184150D01*
X-85437Y-184129D01*
X-85835Y-184068D01*
X-86219Y-183968D01*
X-86588Y-183833D01*
X-86939Y-183663D01*
X-87270Y-183460D01*
X-87580Y-183228D01*
X-87866Y-182967D01*
X-88126Y-182680D01*
X-88357Y-182369D01*
X-88559Y-182036D01*
X-88729Y-181683D01*
X-88865Y-181312D01*
X-88964Y-180925D01*
X-89025Y-180524D01*
X-89046Y-180111D01*
X-89046Y-174103D01*
X-89026Y-173690D01*
X-88965Y-173290D01*
X-88867Y-172904D01*
X-88732Y-172534D01*
X-88563Y-172183D01*
X-88363Y-171851D01*
X-88132Y-171542D01*
X-87873Y-171257D01*
X-87588Y-170999D01*
X-87279Y-170768D01*
X-86948Y-170567D01*
X-86596Y-170399D01*
X-86227Y-170264D01*
X-85841Y-170166D01*
X-85440Y-170105D01*
X-85028Y-170084D01*
X-83420Y-170084D01*
X-83011Y-170105D01*
X-82613Y-170166D01*
X-82228Y-170266D01*
X-81860Y-170402D01*
X-81508Y-170571D01*
X-81177Y-170773D01*
X-80868Y-171005D01*
X-80582Y-171265D01*
X-80322Y-171551D01*
X-80090Y-171860D01*
X-79888Y-172192D01*
X-79718Y-172543D01*
X-79583Y-172912D01*
X-79483Y-173296D01*
X-79422Y-173694D01*
X-79401Y-174103D01*
X-79401Y-180111D01*
X-79422Y-180521D01*
X-79483Y-180919D01*
X-79583Y-181305D01*
X-79718Y-181675D01*
X-79888Y-182027D01*
X-80090Y-182360D01*
X-80322Y-182672D01*
X-80582Y-182959D01*
X-80868Y-183221D01*
X-81177Y-183455D01*
X-81508Y-183658D01*
X-81860Y-183830D01*
X-82228Y-183967D01*
X-82613Y-184067D01*
X-83011Y-184129D01*
X-83420Y-184150D01*
G37*
%LPC*%
G36*
X-83420Y-181317D02*
X-83178Y-181292D01*
X-82952Y-181222D01*
X-82747Y-181110D01*
X-82569Y-180963D01*
X-82421Y-180784D01*
X-82310Y-180579D01*
X-82239Y-180353D01*
X-82214Y-180111D01*
X-82214Y-174103D01*
X-82238Y-173861D01*
X-82307Y-173635D01*
X-82416Y-173430D01*
X-82561Y-173252D01*
X-82738Y-173104D01*
X-82943Y-172993D01*
X-83172Y-172922D01*
X-83420Y-172898D01*
X-85028Y-172898D01*
X-85275Y-172921D01*
X-85504Y-172990D01*
X-85709Y-173099D01*
X-85887Y-173244D01*
X-86032Y-173421D01*
X-86141Y-173627D01*
X-86209Y-173855D01*
X-86233Y-174103D01*
X-86233Y-180111D01*
X-86209Y-180353D01*
X-86138Y-180579D01*
X-86026Y-180784D01*
X-85879Y-180963D01*
X-85700Y-181110D01*
X-85496Y-181222D01*
X-85270Y-181292D01*
X-85028Y-181317D01*
X-83420Y-181317D01*
G37*
%LPD*%
G36*
X-59731Y-184150D02*
X-63328Y-184150D01*
X-63328Y-170084D01*
X-60514Y-170084D01*
X-60514Y-178423D01*
X-57279Y-170084D01*
X-53683Y-170084D01*
X-53683Y-184150D01*
X-56496Y-184150D01*
X-56496Y-175811D01*
X-59731Y-184150D01*
G37*
G36*
X-21921Y-184150D02*
X-24734Y-184150D01*
X-24734Y-170084D01*
X-22061Y-170084D01*
X-19911Y-174766D01*
X-17761Y-170084D01*
X-15089Y-170084D01*
X-15089Y-184150D01*
X-17902Y-184150D01*
X-17902Y-176695D01*
X-19108Y-179287D01*
X-20715Y-179287D01*
X-21921Y-176695D01*
X-21921Y-184150D01*
G37*
G36*
X-40808Y-184150D02*
X-50453Y-184150D01*
X-50453Y-181337D01*
X-43621Y-181337D01*
X-43621Y-178182D01*
X-49649Y-178182D01*
X-49649Y-175369D01*
X-43621Y-175369D01*
X-43621Y-172898D01*
X-50453Y-172898D01*
X-50453Y-170084D01*
X-40808Y-170084D01*
X-40808Y-184150D01*
G37*
G36*
X16642Y-184150D02*
X13829Y-184150D01*
X13829Y-179709D01*
X17365Y-170084D01*
X19937Y-170084D01*
X23474Y-179709D01*
X23474Y-184150D01*
X20661Y-184150D01*
X20661Y-181699D01*
X16642Y-181699D01*
X16642Y-184150D01*
G37*
%LPC*%
G36*
X20178Y-178885D02*
X18651Y-174726D01*
X17124Y-178885D01*
X20178Y-178885D01*
G37*
%LPD*%
G36*
X-96264Y-184150D02*
X-97871Y-184150D01*
X-98281Y-184129D01*
X-98679Y-184067D01*
X-99063Y-183967D01*
X-99432Y-183830D01*
X-99783Y-183658D01*
X-100114Y-183455D01*
X-100424Y-183221D01*
X-100709Y-182959D01*
X-100969Y-182672D01*
X-101201Y-182360D01*
X-101403Y-182027D01*
X-101573Y-181675D01*
X-101709Y-181305D01*
X-101808Y-180919D01*
X-101869Y-180521D01*
X-101890Y-180111D01*
X-101890Y-170084D01*
X-99077Y-170084D01*
X-99077Y-180111D01*
X-99052Y-180353D01*
X-98982Y-180579D01*
X-98870Y-180784D01*
X-98723Y-180963D01*
X-98544Y-181110D01*
X-98339Y-181222D01*
X-98113Y-181292D01*
X-97871Y-181317D01*
X-96264Y-181317D01*
X-96022Y-181292D01*
X-95796Y-181222D01*
X-95591Y-181110D01*
X-95412Y-180963D01*
X-95265Y-180784D01*
X-95153Y-180579D01*
X-95083Y-180353D01*
X-95058Y-180111D01*
X-95058Y-170084D01*
X-92245Y-170084D01*
X-92245Y-180111D01*
X-92266Y-180524D01*
X-92327Y-180925D01*
X-92426Y-181312D01*
X-92562Y-181683D01*
X-92732Y-182036D01*
X-92934Y-182369D01*
X-93166Y-182680D01*
X-93426Y-182967D01*
X-93711Y-183228D01*
X-94021Y-183460D01*
X-94352Y-183663D01*
X-94703Y-183833D01*
X-95072Y-183968D01*
X-95456Y-184068D01*
X-95854Y-184129D01*
X-96264Y-184150D01*
G37*
G36*
X32209Y-184150D02*
X30863Y-184150D01*
X30429Y-184130D01*
X30009Y-184072D01*
X29606Y-183978D01*
X29221Y-183848D01*
X28857Y-183686D01*
X28514Y-183492D01*
X28195Y-183269D01*
X27902Y-183017D01*
X27636Y-182740D01*
X27400Y-182438D01*
X27195Y-182113D01*
X27023Y-181768D01*
X26886Y-181403D01*
X26786Y-181021D01*
X26725Y-180623D01*
X26704Y-180212D01*
X26723Y-179821D01*
X26778Y-179450D01*
X26868Y-179098D01*
X26989Y-178765D01*
X27139Y-178450D01*
X27316Y-178151D01*
X27517Y-177869D01*
X27740Y-177603D01*
X27982Y-177351D01*
X28242Y-177112D01*
X28516Y-176887D01*
X28802Y-176675D01*
X29401Y-176283D01*
X30019Y-175932D01*
X30638Y-175614D01*
X31237Y-175324D01*
X32299Y-174803D01*
X32723Y-174560D01*
X33050Y-174319D01*
X33171Y-174198D01*
X33260Y-174075D01*
X33316Y-173950D01*
X33335Y-173822D01*
X33314Y-173621D01*
X33252Y-173440D01*
X33148Y-173282D01*
X33003Y-173149D01*
X32817Y-173042D01*
X32589Y-172963D01*
X32319Y-172914D01*
X32009Y-172898D01*
X31064Y-172898D01*
X30926Y-172904D01*
X30793Y-172925D01*
X30540Y-173003D01*
X30311Y-173126D01*
X30112Y-173289D01*
X29948Y-173486D01*
X29824Y-173711D01*
X29745Y-173959D01*
X29725Y-174090D01*
X29718Y-174224D01*
X29718Y-174626D01*
X26905Y-174626D01*
X26905Y-174224D01*
X26926Y-173800D01*
X26989Y-173388D01*
X27092Y-172991D01*
X27232Y-172611D01*
X27408Y-172249D01*
X27617Y-171907D01*
X27857Y-171589D01*
X28125Y-171295D01*
X28421Y-171028D01*
X28741Y-170790D01*
X29084Y-170583D01*
X29448Y-170409D01*
X29830Y-170270D01*
X30228Y-170168D01*
X30640Y-170106D01*
X31064Y-170084D01*
X32009Y-170084D01*
X32449Y-170102D01*
X32873Y-170155D01*
X33278Y-170242D01*
X33664Y-170360D01*
X34028Y-170510D01*
X34369Y-170689D01*
X34685Y-170897D01*
X34975Y-171132D01*
X35237Y-171392D01*
X35469Y-171677D01*
X35669Y-171984D01*
X35837Y-172314D01*
X35971Y-172664D01*
X36068Y-173032D01*
X36128Y-173419D01*
X36148Y-173822D01*
X36129Y-174194D01*
X36073Y-174544D01*
X35984Y-174872D01*
X35863Y-175180D01*
X35713Y-175469D01*
X35536Y-175739D01*
X35335Y-175993D01*
X35112Y-176230D01*
X34869Y-176453D01*
X34610Y-176663D01*
X34050Y-177046D01*
X33451Y-177390D01*
X32832Y-177702D01*
X31615Y-178273D01*
X31055Y-178549D01*
X30553Y-178832D01*
X30330Y-178978D01*
X30129Y-179130D01*
X29952Y-179288D01*
X29802Y-179453D01*
X29681Y-179627D01*
X29591Y-179811D01*
X29536Y-180005D01*
X29517Y-180212D01*
X29541Y-180445D01*
X29611Y-180659D01*
X29726Y-180850D01*
X29881Y-181015D01*
X30075Y-181150D01*
X30305Y-181252D01*
X30569Y-181315D01*
X30863Y-181337D01*
X32209Y-181337D01*
X32344Y-181330D01*
X32474Y-181310D01*
X32722Y-181231D01*
X32947Y-181108D01*
X33144Y-180945D01*
X33307Y-180748D01*
X33430Y-180523D01*
X33508Y-180275D01*
X33529Y-180145D01*
X33536Y-180011D01*
X33536Y-179408D01*
X36349Y-179408D01*
X36349Y-180011D01*
X36327Y-180435D01*
X36265Y-180846D01*
X36163Y-181243D01*
X36024Y-181624D01*
X35850Y-181986D01*
X35643Y-182327D01*
X35405Y-182646D01*
X35138Y-182939D01*
X34844Y-183206D01*
X34526Y-183444D01*
X34185Y-183651D01*
X33823Y-183825D01*
X33442Y-183964D01*
X33045Y-184066D01*
X32633Y-184129D01*
X32209Y-184150D01*
G37*
G36*
X-105120Y-184150D02*
X-114765Y-184150D01*
X-114765Y-181337D01*
X-108616Y-181337D01*
X-114765Y-172898D01*
X-114765Y-170084D01*
X-105120Y-170084D01*
X-105120Y-172898D01*
X-111289Y-172898D01*
X-105120Y-181337D01*
X-105120Y-184150D01*
G37*
G36*
X-2245Y-184150D02*
X-11890Y-184150D01*
X-11890Y-181337D01*
X-8474Y-181337D01*
X-8474Y-172898D01*
X-11890Y-172898D01*
X-11890Y-170084D01*
X-2245Y-170084D01*
X-2245Y-172898D01*
X-5661Y-172898D01*
X-5661Y-181337D01*
X-2245Y-181337D01*
X-2245Y-184150D01*
G37*
G36*
X10630Y-184150D02*
X985Y-184150D01*
X985Y-181337D01*
X7817Y-181337D01*
X7817Y-170084D01*
X10630Y-170084D01*
X10630Y-184150D01*
G37*
G36*
X44767Y-213360D02*
X40750Y-213360D01*
X40458Y-213345D01*
X40174Y-213301D01*
X39900Y-213229D01*
X39636Y-213131D01*
X39386Y-213009D01*
X39149Y-212864D01*
X38928Y-212697D01*
X38724Y-212510D01*
X38539Y-212305D01*
X38373Y-212083D01*
X38229Y-211845D01*
X38108Y-211593D01*
X38011Y-211329D01*
X37940Y-211054D01*
X37896Y-210769D01*
X37882Y-210477D01*
X37882Y-206188D01*
X37896Y-205896D01*
X37940Y-205612D01*
X38011Y-205338D01*
X38108Y-205074D01*
X38229Y-204824D01*
X38373Y-204587D01*
X38539Y-204366D01*
X38724Y-204162D01*
X38928Y-203977D01*
X39149Y-203811D01*
X39386Y-203667D01*
X39636Y-203546D01*
X39900Y-203449D01*
X40174Y-203378D01*
X40458Y-203334D01*
X40750Y-203319D01*
X44767Y-203319D01*
X44767Y-213360D01*
G37*
%LPC*%
G36*
X42758Y-211338D02*
X42758Y-205328D01*
X40750Y-205328D01*
X40573Y-205345D01*
X40504Y-205366D01*
X40410Y-205395D01*
X40264Y-205475D01*
X40137Y-205580D01*
X40033Y-205708D01*
X39956Y-205854D01*
X39907Y-206015D01*
X39890Y-206188D01*
X39890Y-210477D01*
X39907Y-210650D01*
X39958Y-210811D01*
X40037Y-210957D01*
X40143Y-211085D01*
X40270Y-211190D01*
X40416Y-211270D01*
X40577Y-211320D01*
X40750Y-211338D01*
X42758Y-211338D01*
G37*
%LPD*%
G36*
X14367Y-213360D02*
X13219Y-213360D01*
X12927Y-213345D01*
X12643Y-213301D01*
X12368Y-213230D01*
X12105Y-213133D01*
X11855Y-213012D01*
X11618Y-212868D01*
X11397Y-212702D01*
X11193Y-212516D01*
X11008Y-212311D01*
X10842Y-212089D01*
X10698Y-211851D01*
X10577Y-211599D01*
X10480Y-211334D01*
X10409Y-211058D01*
X10365Y-210772D01*
X10350Y-210477D01*
X10350Y-206188D01*
X10365Y-205894D01*
X10408Y-205608D01*
X10479Y-205332D01*
X10575Y-205068D01*
X10695Y-204817D01*
X10838Y-204581D01*
X11003Y-204360D01*
X11188Y-204157D01*
X11391Y-203972D01*
X11612Y-203807D01*
X11848Y-203664D01*
X12099Y-203544D01*
X12363Y-203448D01*
X12639Y-203377D01*
X12924Y-203334D01*
X13219Y-203319D01*
X14367Y-203319D01*
X14659Y-203334D01*
X14943Y-203378D01*
X15217Y-203449D01*
X15480Y-203546D01*
X15731Y-203667D01*
X15968Y-203811D01*
X16189Y-203977D01*
X16393Y-204162D01*
X16578Y-204366D01*
X16744Y-204587D01*
X16888Y-204824D01*
X17009Y-205074D01*
X17106Y-205338D01*
X17177Y-205612D01*
X17220Y-205896D01*
X17235Y-206188D01*
X17235Y-210477D01*
X17220Y-210769D01*
X17177Y-211054D01*
X17106Y-211329D01*
X17009Y-211593D01*
X16888Y-211845D01*
X16744Y-212083D01*
X16578Y-212305D01*
X16393Y-212510D01*
X16189Y-212697D01*
X15968Y-212864D01*
X15731Y-213009D01*
X15480Y-213131D01*
X15217Y-213229D01*
X14943Y-213301D01*
X14659Y-213345D01*
X14367Y-213360D01*
G37*
%LPC*%
G36*
X14367Y-211338D02*
X14539Y-211320D01*
X14701Y-211270D01*
X14847Y-211190D01*
X14974Y-211085D01*
X15080Y-210957D01*
X15159Y-210811D01*
X15210Y-210650D01*
X15227Y-210477D01*
X15227Y-206188D01*
X15210Y-206015D01*
X15161Y-205854D01*
X15084Y-205708D01*
X14980Y-205580D01*
X14853Y-205475D01*
X14707Y-205395D01*
X14544Y-205345D01*
X14367Y-205328D01*
X13219Y-205328D01*
X13042Y-205345D01*
X12879Y-205393D01*
X12732Y-205471D01*
X12606Y-205575D01*
X12502Y-205702D01*
X12424Y-205848D01*
X12375Y-206011D01*
X12358Y-206188D01*
X12358Y-210477D01*
X12376Y-210650D01*
X12426Y-210811D01*
X12506Y-210957D01*
X12611Y-211085D01*
X12739Y-211190D01*
X12885Y-211270D01*
X13046Y-211320D01*
X13219Y-211338D01*
X14367Y-211338D01*
G37*
%LPD*%
G36*
X18956Y-228600D02*
X17809Y-228600D01*
X17517Y-228585D01*
X17233Y-228541D01*
X16958Y-228470D01*
X16695Y-228373D01*
X16444Y-228252D01*
X16208Y-228108D01*
X15987Y-227942D01*
X15783Y-227756D01*
X15597Y-227551D01*
X15432Y-227329D01*
X15288Y-227091D01*
X15167Y-226839D01*
X15070Y-226574D01*
X14999Y-226298D01*
X14955Y-226012D01*
X14940Y-225717D01*
X14940Y-221428D01*
X14955Y-221134D01*
X14998Y-220848D01*
X15068Y-220572D01*
X15165Y-220308D01*
X15285Y-220057D01*
X15428Y-219821D01*
X15593Y-219600D01*
X15778Y-219397D01*
X15981Y-219212D01*
X16202Y-219047D01*
X16438Y-218904D01*
X16689Y-218784D01*
X16953Y-218688D01*
X17229Y-218617D01*
X17514Y-218574D01*
X17809Y-218559D01*
X18956Y-218559D01*
X19249Y-218574D01*
X19533Y-218618D01*
X19807Y-218689D01*
X20070Y-218786D01*
X20321Y-218907D01*
X20558Y-219051D01*
X20779Y-219217D01*
X20982Y-219402D01*
X21168Y-219606D01*
X21334Y-219827D01*
X21478Y-220064D01*
X21599Y-220314D01*
X21696Y-220578D01*
X21767Y-220852D01*
X21810Y-221136D01*
X21825Y-221428D01*
X21825Y-225717D01*
X21810Y-226009D01*
X21767Y-226294D01*
X21696Y-226569D01*
X21599Y-226833D01*
X21478Y-227085D01*
X21334Y-227323D01*
X21168Y-227545D01*
X20982Y-227750D01*
X20779Y-227937D01*
X20558Y-228104D01*
X20321Y-228249D01*
X20070Y-228371D01*
X19807Y-228469D01*
X19533Y-228541D01*
X19249Y-228585D01*
X18956Y-228600D01*
G37*
%LPC*%
G36*
X16948Y-223981D02*
X18275Y-221818D01*
X19042Y-220568D01*
X17809Y-220568D01*
X17632Y-220585D01*
X17469Y-220633D01*
X17322Y-220711D01*
X17196Y-220815D01*
X17092Y-220942D01*
X17014Y-221088D01*
X16965Y-221251D01*
X16948Y-221428D01*
X16948Y-223981D01*
G37*
G36*
X18956Y-226578D02*
X19129Y-226560D01*
X19291Y-226510D01*
X19437Y-226430D01*
X19564Y-226325D01*
X19670Y-226197D01*
X19749Y-226051D01*
X19799Y-225890D01*
X19817Y-225717D01*
X19817Y-223164D01*
X18723Y-224947D01*
X17723Y-226578D01*
X18956Y-226578D01*
G37*
%LPD*%
G36*
X581Y-228600D02*
X-566Y-228600D01*
X-861Y-228585D01*
X-1146Y-228542D01*
X-1422Y-228472D01*
X-1686Y-228376D01*
X-1937Y-228255D01*
X-2173Y-228112D01*
X-2394Y-227947D01*
X-2598Y-227763D01*
X-2782Y-227559D01*
X-2947Y-227339D01*
X-3090Y-227102D01*
X-3210Y-226851D01*
X-3307Y-226587D01*
X-3377Y-226312D01*
X-3420Y-226026D01*
X-3435Y-225731D01*
X-3435Y-224813D01*
X-3420Y-224521D01*
X-3376Y-224237D01*
X-3305Y-223963D01*
X-3208Y-223699D01*
X-3087Y-223449D01*
X-2943Y-223212D01*
X-2778Y-222991D01*
X-2592Y-222787D01*
X-2388Y-222602D01*
X-2274Y-222516D01*
X-2167Y-222436D01*
X-1931Y-222292D01*
X-1680Y-222171D01*
X-1417Y-222074D01*
X-1142Y-222003D01*
X-858Y-221959D01*
X-566Y-221945D01*
X424Y-221945D01*
X1442Y-222619D01*
X1442Y-221428D01*
X1425Y-221251D01*
X1376Y-221088D01*
X1298Y-220942D01*
X1195Y-220815D01*
X1068Y-220711D01*
X922Y-220633D01*
X758Y-220585D01*
X581Y-220568D01*
X-566Y-220568D01*
X-743Y-220585D01*
X-906Y-220633D01*
X-1053Y-220711D01*
X-1179Y-220815D01*
X-1283Y-220942D01*
X-1361Y-221088D01*
X-1410Y-221251D01*
X-1427Y-221428D01*
X-1427Y-221715D01*
X-3435Y-221715D01*
X-3435Y-221428D01*
X-3420Y-221134D01*
X-3377Y-220848D01*
X-3307Y-220572D01*
X-3210Y-220308D01*
X-3090Y-220057D01*
X-2947Y-219821D01*
X-2782Y-219600D01*
X-2598Y-219397D01*
X-2394Y-219212D01*
X-2173Y-219047D01*
X-1937Y-218904D01*
X-1686Y-218784D01*
X-1422Y-218688D01*
X-1146Y-218617D01*
X-861Y-218574D01*
X-566Y-218559D01*
X581Y-218559D01*
X876Y-218574D01*
X1162Y-218617D01*
X1437Y-218688D01*
X1701Y-218784D01*
X1952Y-218904D01*
X2189Y-219047D01*
X2409Y-219212D01*
X2613Y-219397D01*
X2798Y-219600D01*
X2962Y-219821D01*
X3106Y-220057D01*
X3226Y-220308D01*
X3322Y-220572D01*
X3392Y-220848D01*
X3435Y-221134D01*
X3450Y-221428D01*
X3450Y-225731D01*
X3435Y-226024D01*
X3392Y-226308D01*
X3321Y-226582D01*
X3224Y-226845D01*
X3103Y-227096D01*
X2959Y-227332D01*
X2793Y-227553D01*
X2607Y-227757D01*
X2404Y-227943D01*
X2183Y-228108D01*
X1946Y-228252D01*
X1695Y-228374D01*
X1432Y-228470D01*
X1158Y-228541D01*
X874Y-228585D01*
X581Y-228600D01*
G37*
%LPC*%
G36*
X581Y-226592D02*
X754Y-226574D01*
X916Y-226524D01*
X1062Y-226444D01*
X1189Y-226339D01*
X1295Y-226212D01*
X1374Y-226065D01*
X1424Y-225904D01*
X1442Y-225731D01*
X1442Y-225057D01*
X-193Y-223953D01*
X-566Y-223953D01*
X-739Y-223970D01*
X-900Y-224021D01*
X-1046Y-224100D01*
X-1174Y-224205D01*
X-1279Y-224333D01*
X-1359Y-224479D01*
X-1409Y-224640D01*
X-1427Y-224813D01*
X-1427Y-225731D01*
X-1410Y-225908D01*
X-1361Y-226071D01*
X-1283Y-226218D01*
X-1179Y-226344D01*
X-1053Y-226448D01*
X-906Y-226526D01*
X-743Y-226575D01*
X-566Y-226592D01*
X581Y-226592D01*
G37*
%LPD*%
G36*
X-33548Y-213360D02*
X-35556Y-213360D01*
X-35556Y-203319D01*
X-33648Y-203319D01*
X-32113Y-206661D01*
X-30579Y-203319D01*
X-28671Y-203319D01*
X-28671Y-213360D01*
X-30679Y-213360D01*
X-30679Y-208038D01*
X-31540Y-209889D01*
X-32687Y-209889D01*
X-33548Y-208038D01*
X-33548Y-213360D01*
G37*
G36*
X21515Y-213360D02*
X19507Y-213360D01*
X19507Y-203319D01*
X21414Y-203319D01*
X22949Y-206661D01*
X24484Y-203319D01*
X26392Y-203319D01*
X26392Y-213360D01*
X24383Y-213360D01*
X24383Y-208038D01*
X23523Y-209889D01*
X22375Y-209889D01*
X21515Y-208038D01*
X21515Y-213360D01*
G37*
G36*
X-10327Y-213360D02*
X-17212Y-213360D01*
X-17212Y-211352D01*
X-12335Y-211352D01*
X-12335Y-209100D01*
X-16638Y-209100D01*
X-16638Y-207092D01*
X-12335Y-207092D01*
X-12335Y-205328D01*
X-17212Y-205328D01*
X-17212Y-203319D01*
X-10327Y-203319D01*
X-10327Y-213360D01*
G37*
G36*
X49077Y-213360D02*
X47069Y-213360D01*
X47069Y-210190D01*
X49594Y-203319D01*
X51430Y-203319D01*
X53954Y-210190D01*
X53954Y-213360D01*
X51946Y-213360D01*
X51946Y-211610D01*
X49077Y-211610D01*
X49077Y-213360D01*
G37*
%LPC*%
G36*
X51602Y-209602D02*
X50512Y-206633D01*
X49421Y-209602D01*
X51602Y-209602D01*
G37*
%LPD*%
G36*
X-47046Y-213360D02*
X-53931Y-213360D01*
X-53931Y-211352D01*
X-49054Y-211352D01*
X-49054Y-210922D01*
X-53931Y-208182D01*
X-53931Y-206188D01*
X-53916Y-205894D01*
X-53873Y-205608D01*
X-53803Y-205332D01*
X-53707Y-205068D01*
X-53586Y-204817D01*
X-53443Y-204581D01*
X-53278Y-204360D01*
X-53094Y-204157D01*
X-52890Y-203972D01*
X-52670Y-203807D01*
X-52433Y-203664D01*
X-52182Y-203544D01*
X-51918Y-203448D01*
X-51643Y-203377D01*
X-51357Y-203334D01*
X-51062Y-203319D01*
X-49915Y-203319D01*
X-49622Y-203334D01*
X-49338Y-203378D01*
X-49064Y-203449D01*
X-48801Y-203546D01*
X-48550Y-203667D01*
X-48314Y-203811D01*
X-48093Y-203977D01*
X-47889Y-204162D01*
X-47703Y-204366D01*
X-47538Y-204587D01*
X-47394Y-204824D01*
X-47272Y-205074D01*
X-47175Y-205338D01*
X-47104Y-205612D01*
X-47061Y-205896D01*
X-47046Y-206188D01*
X-47046Y-206977D01*
X-49054Y-206977D01*
X-49054Y-206188D01*
X-49072Y-206015D01*
X-49122Y-205854D01*
X-49202Y-205708D01*
X-49307Y-205580D01*
X-49434Y-205475D01*
X-49581Y-205395D01*
X-49742Y-205345D01*
X-49915Y-205328D01*
X-51062Y-205328D01*
X-51239Y-205345D01*
X-51402Y-205393D01*
X-51549Y-205471D01*
X-51675Y-205575D01*
X-51779Y-205702D01*
X-51857Y-205848D01*
X-51906Y-206011D01*
X-51923Y-206188D01*
X-51923Y-206991D01*
X-47046Y-209731D01*
X-47046Y-213360D01*
G37*
G36*
X12638Y-228600D02*
X5753Y-228600D01*
X5753Y-226592D01*
X10630Y-226592D01*
X10630Y-226162D01*
X5753Y-223422D01*
X5753Y-221428D01*
X5767Y-221134D01*
X5811Y-220848D01*
X5881Y-220572D01*
X5977Y-220308D01*
X6097Y-220057D01*
X6241Y-219821D01*
X6405Y-219600D01*
X6590Y-219397D01*
X6793Y-219212D01*
X7014Y-219047D01*
X7251Y-218904D01*
X7502Y-218784D01*
X7765Y-218688D01*
X8041Y-218617D01*
X8327Y-218574D01*
X8621Y-218559D01*
X9769Y-218559D01*
X10061Y-218574D01*
X10345Y-218618D01*
X10620Y-218689D01*
X10883Y-218786D01*
X11133Y-218907D01*
X11370Y-219051D01*
X11591Y-219217D01*
X11795Y-219402D01*
X11980Y-219606D01*
X12146Y-219827D01*
X12290Y-220064D01*
X12411Y-220314D01*
X12508Y-220578D01*
X12579Y-220852D01*
X12623Y-221136D01*
X12638Y-221428D01*
X12638Y-222217D01*
X10630Y-222217D01*
X10630Y-221428D01*
X10612Y-221255D01*
X10562Y-221094D01*
X10482Y-220948D01*
X10377Y-220820D01*
X10249Y-220715D01*
X10103Y-220635D01*
X9942Y-220585D01*
X9769Y-220568D01*
X8621Y-220568D01*
X8444Y-220585D01*
X8281Y-220633D01*
X8135Y-220711D01*
X8008Y-220815D01*
X7905Y-220942D01*
X7827Y-221088D01*
X7778Y-221251D01*
X7761Y-221428D01*
X7761Y-222231D01*
X12638Y-224971D01*
X12638Y-228600D01*
G37*
G36*
X30981Y-228600D02*
X24096Y-228600D01*
X24096Y-226592D01*
X28973Y-226592D01*
X28973Y-226162D01*
X24096Y-223422D01*
X24096Y-221428D01*
X24111Y-221134D01*
X24154Y-220848D01*
X24225Y-220572D01*
X24321Y-220308D01*
X24441Y-220057D01*
X24584Y-219821D01*
X24749Y-219600D01*
X24934Y-219397D01*
X25137Y-219212D01*
X25358Y-219047D01*
X25594Y-218904D01*
X25845Y-218784D01*
X26109Y-218688D01*
X26385Y-218617D01*
X26671Y-218574D01*
X26965Y-218559D01*
X28113Y-218559D01*
X28405Y-218574D01*
X28689Y-218618D01*
X28963Y-218689D01*
X29227Y-218786D01*
X29477Y-218907D01*
X29714Y-219051D01*
X29935Y-219217D01*
X30139Y-219402D01*
X30324Y-219606D01*
X30490Y-219827D01*
X30634Y-220064D01*
X30755Y-220314D01*
X30852Y-220578D01*
X30923Y-220852D01*
X30967Y-221136D01*
X30981Y-221428D01*
X30981Y-222217D01*
X28973Y-222217D01*
X28973Y-221428D01*
X28956Y-221255D01*
X28905Y-221094D01*
X28826Y-220948D01*
X28721Y-220820D01*
X28593Y-220715D01*
X28447Y-220635D01*
X28286Y-220585D01*
X28113Y-220568D01*
X26965Y-220568D01*
X26788Y-220585D01*
X26625Y-220633D01*
X26479Y-220711D01*
X26352Y-220815D01*
X26248Y-220942D01*
X26170Y-221088D01*
X26122Y-221251D01*
X26105Y-221428D01*
X26105Y-222231D01*
X30981Y-224971D01*
X30981Y-228600D01*
G37*
G36*
X-42377Y-213360D02*
X-44743Y-213360D01*
X-41645Y-208340D01*
X-44743Y-203319D01*
X-42377Y-203319D01*
X-39910Y-207336D01*
X-39867Y-207336D01*
X-39867Y-203319D01*
X-37858Y-203319D01*
X-37858Y-213360D01*
X-39867Y-213360D01*
X-39867Y-209344D01*
X-39910Y-209344D01*
X-42377Y-213360D01*
G37*
G36*
X5179Y-213360D02*
X4032Y-213360D01*
X3739Y-213345D01*
X3455Y-213301D01*
X3181Y-213229D01*
X2918Y-213131D01*
X2667Y-213009D01*
X2431Y-212864D01*
X2210Y-212697D01*
X2006Y-212510D01*
X1820Y-212305D01*
X1655Y-212083D01*
X1510Y-211845D01*
X1389Y-211593D01*
X1292Y-211329D01*
X1221Y-211054D01*
X1178Y-210769D01*
X1163Y-210477D01*
X1163Y-203319D01*
X3171Y-203319D01*
X3171Y-210477D01*
X3189Y-210650D01*
X3239Y-210811D01*
X3318Y-210957D01*
X3424Y-211085D01*
X3551Y-211190D01*
X3697Y-211270D01*
X3859Y-211320D01*
X4032Y-211338D01*
X5179Y-211338D01*
X5352Y-211320D01*
X5513Y-211270D01*
X5659Y-211190D01*
X5787Y-211085D01*
X5892Y-210957D01*
X5972Y-210811D01*
X6022Y-210650D01*
X6040Y-210477D01*
X6040Y-203319D01*
X8048Y-203319D01*
X8048Y-210477D01*
X8033Y-210772D01*
X7989Y-211058D01*
X7918Y-211334D01*
X7821Y-211599D01*
X7700Y-211851D01*
X7556Y-212089D01*
X7391Y-212311D01*
X7205Y-212516D01*
X7001Y-212702D01*
X6780Y-212868D01*
X6544Y-213012D01*
X6293Y-213133D01*
X6030Y-213230D01*
X5755Y-213301D01*
X5471Y-213345D01*
X5179Y-213360D01*
G37*
G36*
X-4095Y-213360D02*
X-5056Y-213360D01*
X-5365Y-213346D01*
X-5665Y-213305D01*
X-5953Y-213237D01*
X-6227Y-213145D01*
X-6488Y-213029D01*
X-6732Y-212890D01*
X-6960Y-212731D01*
X-7169Y-212551D01*
X-7359Y-212353D01*
X-7528Y-212138D01*
X-7674Y-211906D01*
X-7797Y-211660D01*
X-7894Y-211399D01*
X-7966Y-211127D01*
X-8010Y-210843D01*
X-8025Y-210549D01*
X-8011Y-210270D01*
X-7972Y-210005D01*
X-7908Y-209754D01*
X-7821Y-209516D01*
X-7714Y-209291D01*
X-7588Y-209078D01*
X-7444Y-208877D01*
X-7285Y-208686D01*
X-6927Y-208336D01*
X-6527Y-208024D01*
X-6099Y-207744D01*
X-5658Y-207493D01*
X-4789Y-207060D01*
X-4031Y-206688D01*
X-3728Y-206514D01*
X-3495Y-206342D01*
X-3408Y-206256D01*
X-3344Y-206168D01*
X-3305Y-206079D01*
X-3291Y-205987D01*
X-3306Y-205844D01*
X-3350Y-205715D01*
X-3424Y-205602D01*
X-3528Y-205507D01*
X-3661Y-205430D01*
X-3824Y-205374D01*
X-4016Y-205339D01*
X-4238Y-205328D01*
X-4912Y-205328D01*
X-5106Y-205347D01*
X-5286Y-205403D01*
X-5449Y-205491D01*
X-5592Y-205607D01*
X-5709Y-205748D01*
X-5798Y-205908D01*
X-5854Y-206085D01*
X-5873Y-206274D01*
X-5873Y-206561D01*
X-7881Y-206561D01*
X-7881Y-206274D01*
X-7866Y-205972D01*
X-7821Y-205678D01*
X-7747Y-205394D01*
X-7647Y-205123D01*
X-7522Y-204864D01*
X-7373Y-204621D01*
X-7202Y-204393D01*
X-7010Y-204184D01*
X-6799Y-203993D01*
X-6570Y-203823D01*
X-6325Y-203675D01*
X-6066Y-203551D01*
X-5793Y-203452D01*
X-5509Y-203379D01*
X-5215Y-203335D01*
X-4912Y-203319D01*
X-4238Y-203319D01*
X-3923Y-203332D01*
X-3621Y-203370D01*
X-3331Y-203432D01*
X-3056Y-203516D01*
X-2796Y-203623D01*
X-2553Y-203751D01*
X-2327Y-203900D01*
X-2120Y-204067D01*
X-1934Y-204253D01*
X-1768Y-204456D01*
X-1625Y-204676D01*
X-1505Y-204911D01*
X-1410Y-205161D01*
X-1340Y-205424D01*
X-1298Y-205700D01*
X-1283Y-205987D01*
X-1297Y-206253D01*
X-1336Y-206503D01*
X-1400Y-206737D01*
X-1487Y-206957D01*
X-1594Y-207163D01*
X-1720Y-207356D01*
X-1864Y-207537D01*
X-2023Y-207707D01*
X-2381Y-208015D01*
X-2781Y-208289D01*
X-3208Y-208534D01*
X-3650Y-208757D01*
X-4519Y-209165D01*
X-4919Y-209362D01*
X-5277Y-209564D01*
X-5580Y-209777D01*
X-5706Y-209889D01*
X-5813Y-210007D01*
X-5900Y-210131D01*
X-5963Y-210262D01*
X-6003Y-210401D01*
X-6017Y-210549D01*
X-5999Y-210715D01*
X-5949Y-210868D01*
X-5868Y-211005D01*
X-5757Y-211122D01*
X-5618Y-211219D01*
X-5454Y-211291D01*
X-5266Y-211336D01*
X-5056Y-211352D01*
X-4095Y-211352D01*
X-3906Y-211332D01*
X-3729Y-211277D01*
X-3568Y-211189D01*
X-3428Y-211072D01*
X-3311Y-210932D01*
X-3223Y-210771D01*
X-3167Y-210594D01*
X-3148Y-210405D01*
X-3148Y-209975D01*
X-1140Y-209975D01*
X-1140Y-210405D01*
X-1155Y-210708D01*
X-1200Y-211002D01*
X-1272Y-211285D01*
X-1371Y-211557D01*
X-1496Y-211815D01*
X-1643Y-212059D01*
X-1813Y-212286D01*
X-2004Y-212496D01*
X-2214Y-212686D01*
X-2441Y-212856D01*
X-2685Y-213004D01*
X-2943Y-213128D01*
X-3215Y-213227D01*
X-3498Y-213300D01*
X-3792Y-213345D01*
X-4095Y-213360D01*
G37*
G36*
X60242Y-213360D02*
X59094Y-213360D01*
X58802Y-213345D01*
X58518Y-213301D01*
X58243Y-213230D01*
X57980Y-213133D01*
X57730Y-213012D01*
X57493Y-212868D01*
X57272Y-212702D01*
X57068Y-212516D01*
X56883Y-212311D01*
X56717Y-212089D01*
X56573Y-211851D01*
X56452Y-211599D01*
X56355Y-211334D01*
X56284Y-211058D01*
X56240Y-210772D01*
X56225Y-210477D01*
X56225Y-209688D01*
X58233Y-209688D01*
X58233Y-210477D01*
X58251Y-210650D01*
X58301Y-210811D01*
X58381Y-210957D01*
X58486Y-211085D01*
X58614Y-211190D01*
X58760Y-211270D01*
X58921Y-211320D01*
X59094Y-211338D01*
X60242Y-211338D01*
X60414Y-211320D01*
X60576Y-211270D01*
X60722Y-211190D01*
X60849Y-211085D01*
X60955Y-210957D01*
X61034Y-210811D01*
X61085Y-210650D01*
X61102Y-210477D01*
X61102Y-206188D01*
X61085Y-206015D01*
X61036Y-205854D01*
X60959Y-205708D01*
X60855Y-205580D01*
X60728Y-205475D01*
X60582Y-205395D01*
X60419Y-205345D01*
X60242Y-205328D01*
X59094Y-205328D01*
X58917Y-205345D01*
X58754Y-205393D01*
X58607Y-205471D01*
X58481Y-205575D01*
X58377Y-205702D01*
X58299Y-205848D01*
X58250Y-206011D01*
X58233Y-206188D01*
X58233Y-206977D01*
X56225Y-206977D01*
X56225Y-206188D01*
X56240Y-205894D01*
X56283Y-205608D01*
X56354Y-205332D01*
X56450Y-205068D01*
X56570Y-204817D01*
X56713Y-204581D01*
X56878Y-204360D01*
X57063Y-204157D01*
X57266Y-203972D01*
X57487Y-203807D01*
X57723Y-203664D01*
X57974Y-203544D01*
X58238Y-203448D01*
X58514Y-203377D01*
X58799Y-203334D01*
X59094Y-203319D01*
X60242Y-203319D01*
X60534Y-203334D01*
X60818Y-203378D01*
X61092Y-203449D01*
X61355Y-203546D01*
X61606Y-203667D01*
X61843Y-203811D01*
X62064Y-203977D01*
X62268Y-204162D01*
X62453Y-204366D01*
X62619Y-204587D01*
X62763Y-204824D01*
X62884Y-205074D01*
X62981Y-205338D01*
X63052Y-205612D01*
X63095Y-205896D01*
X63110Y-206188D01*
X63110Y-210477D01*
X63095Y-210769D01*
X63052Y-211054D01*
X62981Y-211329D01*
X62884Y-211593D01*
X62763Y-211845D01*
X62619Y-212083D01*
X62453Y-212305D01*
X62268Y-212510D01*
X62064Y-212697D01*
X61843Y-212864D01*
X61606Y-213009D01*
X61355Y-213131D01*
X61092Y-213229D01*
X60818Y-213301D01*
X60534Y-213345D01*
X60242Y-213360D01*
G37*
G36*
X-17418Y-228600D02*
X-19254Y-228600D01*
X-21779Y-221729D01*
X-21779Y-218559D01*
X-19770Y-218559D01*
X-19770Y-221371D01*
X-18336Y-225287D01*
X-16902Y-221371D01*
X-16902Y-218559D01*
X-14894Y-218559D01*
X-14894Y-221729D01*
X-17418Y-228600D01*
G37*
G36*
X-24081Y-228600D02*
X-30966Y-228600D01*
X-30966Y-226592D01*
X-28528Y-226592D01*
X-28528Y-218559D01*
X-26735Y-218559D01*
X-24081Y-220123D01*
X-24081Y-222447D01*
X-26520Y-221012D01*
X-26520Y-226592D01*
X-24081Y-226592D01*
X-24081Y-228600D01*
G37*
G36*
X-43790Y220980D02*
X-47001Y220980D01*
X-47235Y220992D01*
X-47462Y221027D01*
X-47681Y221085D01*
X-47892Y221163D01*
X-48092Y221261D01*
X-48281Y221377D01*
X-48458Y221510D01*
X-48621Y221660D01*
X-48770Y221824D01*
X-48902Y222001D01*
X-49017Y222192D01*
X-49114Y222393D01*
X-49191Y222604D01*
X-49248Y222824D01*
X-49283Y223051D01*
X-49295Y223285D01*
X-49295Y226714D01*
X-49283Y226948D01*
X-49248Y227175D01*
X-49191Y227395D01*
X-49114Y227605D01*
X-49017Y227805D01*
X-48902Y227995D01*
X-48770Y228171D01*
X-48621Y228334D01*
X-48458Y228483D01*
X-48281Y228615D01*
X-48092Y228730D01*
X-47892Y228827D01*
X-47681Y228905D01*
X-47462Y228961D01*
X-47235Y228996D01*
X-47001Y229008D01*
X-43790Y229008D01*
X-43790Y220980D01*
G37*
%LPC*%
G36*
X-45396Y222597D02*
X-45396Y227402D01*
X-47001Y227402D01*
X-47143Y227388D01*
X-47198Y227371D01*
X-47273Y227348D01*
X-47390Y227285D01*
X-47492Y227200D01*
X-47574Y227098D01*
X-47637Y226982D01*
X-47676Y226853D01*
X-47689Y226714D01*
X-47689Y223285D01*
X-47675Y223147D01*
X-47635Y223018D01*
X-47571Y222901D01*
X-47487Y222799D01*
X-47385Y222715D01*
X-47268Y222651D01*
X-47139Y222611D01*
X-47001Y222597D01*
X-45396Y222597D01*
G37*
%LPD*%
G36*
X-55033Y220980D02*
X-56639Y220980D01*
X-56639Y223515D01*
X-54620Y229008D01*
X-53152Y229008D01*
X-51134Y223515D01*
X-51134Y220980D01*
X-52739Y220980D01*
X-52739Y222379D01*
X-55033Y222379D01*
X-55033Y220980D01*
G37*
%LPC*%
G36*
X-53015Y223985D02*
X-53886Y226359D01*
X-54758Y223985D01*
X-53015Y223985D01*
G37*
%LPD*%
G36*
X-38840Y220980D02*
X-39608Y220980D01*
X-39856Y220991D01*
X-40096Y221024D01*
X-40326Y221078D01*
X-40546Y221152D01*
X-40754Y221245D01*
X-40949Y221356D01*
X-41131Y221483D01*
X-41299Y221627D01*
X-41450Y221785D01*
X-41585Y221957D01*
X-41702Y222142D01*
X-41800Y222340D01*
X-41878Y222548D01*
X-41936Y222766D01*
X-41971Y222993D01*
X-41982Y223228D01*
X-41972Y223451D01*
X-41940Y223663D01*
X-41889Y223863D01*
X-41820Y224053D01*
X-41734Y224233D01*
X-41633Y224404D01*
X-41391Y224717D01*
X-41105Y224997D01*
X-40785Y225247D01*
X-40443Y225470D01*
X-40090Y225671D01*
X-39395Y226017D01*
X-38789Y226315D01*
X-38547Y226454D01*
X-38360Y226591D01*
X-38240Y226730D01*
X-38209Y226802D01*
X-38198Y226875D01*
X-38210Y226990D01*
X-38245Y227093D01*
X-38304Y227183D01*
X-38387Y227259D01*
X-38493Y227320D01*
X-38624Y227365D01*
X-38777Y227393D01*
X-38955Y227402D01*
X-39494Y227402D01*
X-39649Y227387D01*
X-39793Y227342D01*
X-39923Y227272D01*
X-40037Y227179D01*
X-40131Y227067D01*
X-40202Y226938D01*
X-40247Y226797D01*
X-40262Y226646D01*
X-40262Y226416D01*
X-41868Y226416D01*
X-41868Y226646D01*
X-41856Y226888D01*
X-41819Y227122D01*
X-41761Y227349D01*
X-41681Y227566D01*
X-41581Y227773D01*
X-41461Y227968D01*
X-41325Y228149D01*
X-41171Y228317D01*
X-41002Y228469D01*
X-40819Y228605D01*
X-40624Y228724D01*
X-40416Y228823D01*
X-40198Y228902D01*
X-39971Y228960D01*
X-39736Y228996D01*
X-39494Y229008D01*
X-38955Y229008D01*
X-38703Y228998D01*
X-38461Y228968D01*
X-38230Y228918D01*
X-38010Y228851D01*
X-37802Y228765D01*
X-37607Y228663D01*
X-37427Y228544D01*
X-37262Y228410D01*
X-37112Y228262D01*
X-36980Y228099D01*
X-36865Y227924D01*
X-36769Y227736D01*
X-36693Y227536D01*
X-36638Y227326D01*
X-36604Y227105D01*
X-36592Y226875D01*
X-36603Y226662D01*
X-36635Y226463D01*
X-36686Y226275D01*
X-36755Y226100D01*
X-36841Y225935D01*
X-36941Y225781D01*
X-37184Y225500D01*
X-37470Y225253D01*
X-37790Y225035D01*
X-38132Y224839D01*
X-38485Y224660D01*
X-39179Y224334D01*
X-39499Y224177D01*
X-39786Y224015D01*
X-40028Y223845D01*
X-40214Y223661D01*
X-40283Y223561D01*
X-40334Y223457D01*
X-40366Y223346D01*
X-40377Y223228D01*
X-40363Y223095D01*
X-40323Y222973D01*
X-40258Y222863D01*
X-40169Y222769D01*
X-40058Y222692D01*
X-39927Y222634D01*
X-39776Y222598D01*
X-39608Y222586D01*
X-38840Y222586D01*
X-38689Y222601D01*
X-38548Y222646D01*
X-38419Y222716D01*
X-38307Y222809D01*
X-38214Y222922D01*
X-38143Y223050D01*
X-38099Y223191D01*
X-38083Y223343D01*
X-38083Y223687D01*
X-36478Y223687D01*
X-36478Y223343D01*
X-36490Y223101D01*
X-36525Y222866D01*
X-36583Y222639D01*
X-36663Y222422D01*
X-36762Y222215D01*
X-36880Y222020D01*
X-37016Y221839D01*
X-37168Y221671D01*
X-37336Y221519D01*
X-37518Y221383D01*
X-37713Y221265D01*
X-37919Y221165D01*
X-38137Y221086D01*
X-38363Y221028D01*
X-38598Y220992D01*
X-38840Y220980D01*
G37*
G36*
X-38840Y201930D02*
X-39608Y201930D01*
X-39856Y201941D01*
X-40096Y201974D01*
X-40326Y202028D01*
X-40546Y202102D01*
X-40754Y202195D01*
X-40949Y202306D01*
X-41131Y202433D01*
X-41299Y202577D01*
X-41450Y202735D01*
X-41585Y202907D01*
X-41702Y203092D01*
X-41800Y203290D01*
X-41878Y203498D01*
X-41936Y203716D01*
X-41971Y203943D01*
X-41982Y204178D01*
X-41972Y204401D01*
X-41940Y204613D01*
X-41889Y204813D01*
X-41820Y205003D01*
X-41734Y205183D01*
X-41633Y205354D01*
X-41391Y205667D01*
X-41105Y205947D01*
X-40785Y206197D01*
X-40443Y206420D01*
X-40090Y206621D01*
X-39395Y206967D01*
X-38789Y207265D01*
X-38547Y207404D01*
X-38360Y207541D01*
X-38240Y207680D01*
X-38209Y207752D01*
X-38198Y207825D01*
X-38210Y207940D01*
X-38245Y208043D01*
X-38304Y208133D01*
X-38387Y208209D01*
X-38493Y208270D01*
X-38624Y208315D01*
X-38777Y208343D01*
X-38955Y208352D01*
X-39494Y208352D01*
X-39649Y208337D01*
X-39793Y208292D01*
X-39923Y208222D01*
X-40037Y208129D01*
X-40131Y208017D01*
X-40202Y207888D01*
X-40247Y207747D01*
X-40262Y207596D01*
X-40262Y207366D01*
X-41868Y207366D01*
X-41868Y207596D01*
X-41856Y207838D01*
X-41819Y208072D01*
X-41761Y208299D01*
X-41681Y208516D01*
X-41581Y208723D01*
X-41461Y208918D01*
X-41325Y209099D01*
X-41171Y209267D01*
X-41002Y209419D01*
X-40819Y209555D01*
X-40624Y209674D01*
X-40416Y209773D01*
X-40198Y209852D01*
X-39971Y209910D01*
X-39736Y209946D01*
X-39494Y209958D01*
X-38955Y209958D01*
X-38703Y209948D01*
X-38461Y209918D01*
X-38230Y209868D01*
X-38010Y209801D01*
X-37802Y209715D01*
X-37607Y209613D01*
X-37427Y209494D01*
X-37262Y209360D01*
X-37112Y209212D01*
X-36980Y209049D01*
X-36865Y208874D01*
X-36769Y208686D01*
X-36693Y208486D01*
X-36638Y208276D01*
X-36604Y208055D01*
X-36592Y207825D01*
X-36603Y207612D01*
X-36635Y207413D01*
X-36686Y207225D01*
X-36755Y207050D01*
X-36841Y206885D01*
X-36941Y206731D01*
X-37184Y206450D01*
X-37470Y206203D01*
X-37790Y205985D01*
X-38132Y205789D01*
X-38485Y205610D01*
X-39179Y205284D01*
X-39499Y205127D01*
X-39786Y204965D01*
X-40028Y204795D01*
X-40214Y204611D01*
X-40283Y204511D01*
X-40334Y204407D01*
X-40366Y204296D01*
X-40377Y204178D01*
X-40363Y204045D01*
X-40323Y203923D01*
X-40258Y203813D01*
X-40169Y203719D01*
X-40058Y203642D01*
X-39927Y203584D01*
X-39776Y203548D01*
X-39608Y203536D01*
X-38840Y203536D01*
X-38689Y203551D01*
X-38548Y203596D01*
X-38419Y203666D01*
X-38307Y203759D01*
X-38214Y203872D01*
X-38143Y204000D01*
X-38099Y204141D01*
X-38083Y204293D01*
X-38083Y204637D01*
X-36478Y204637D01*
X-36478Y204293D01*
X-36490Y204051D01*
X-36525Y203816D01*
X-36583Y203589D01*
X-36663Y203372D01*
X-36762Y203165D01*
X-36880Y202970D01*
X-37016Y202789D01*
X-37168Y202621D01*
X-37336Y202469D01*
X-37518Y202333D01*
X-37713Y202215D01*
X-37919Y202115D01*
X-38137Y202036D01*
X-38363Y201978D01*
X-38598Y201942D01*
X-38840Y201930D01*
G37*
G36*
X-46084Y201930D02*
X-47001Y201930D01*
X-47235Y201942D01*
X-47462Y201977D01*
X-47681Y202034D01*
X-47892Y202111D01*
X-48092Y202208D01*
X-48281Y202324D01*
X-48458Y202456D01*
X-48621Y202605D01*
X-48770Y202769D01*
X-48902Y202946D01*
X-49017Y203136D01*
X-49114Y203338D01*
X-49191Y203550D01*
X-49248Y203771D01*
X-49283Y204000D01*
X-49295Y204235D01*
X-49295Y204866D01*
X-47689Y204866D01*
X-47689Y204235D01*
X-47675Y204097D01*
X-47635Y203968D01*
X-47571Y203851D01*
X-47487Y203749D01*
X-47385Y203665D01*
X-47268Y203601D01*
X-47139Y203561D01*
X-47001Y203547D01*
X-46084Y203547D01*
X-45946Y203561D01*
X-45817Y203601D01*
X-45700Y203665D01*
X-45598Y203749D01*
X-45514Y203851D01*
X-45450Y203968D01*
X-45410Y204097D01*
X-45396Y204235D01*
X-45396Y207664D01*
X-45409Y207803D01*
X-45448Y207932D01*
X-45511Y208048D01*
X-45593Y208150D01*
X-45695Y208235D01*
X-45812Y208298D01*
X-45942Y208338D01*
X-46084Y208352D01*
X-47001Y208352D01*
X-47143Y208339D01*
X-47273Y208300D01*
X-47390Y208238D01*
X-47492Y208155D01*
X-47574Y208053D01*
X-47637Y207936D01*
X-47676Y207806D01*
X-47689Y207664D01*
X-47689Y207034D01*
X-49295Y207034D01*
X-49295Y207664D01*
X-49283Y207900D01*
X-49249Y208128D01*
X-49192Y208349D01*
X-49116Y208560D01*
X-49019Y208760D01*
X-48905Y208950D01*
X-48773Y209126D01*
X-48626Y209289D01*
X-48463Y209436D01*
X-48286Y209568D01*
X-48097Y209683D01*
X-47897Y209779D01*
X-47686Y209856D01*
X-47465Y209912D01*
X-47237Y209946D01*
X-47001Y209958D01*
X-46084Y209958D01*
X-45850Y209946D01*
X-45623Y209911D01*
X-45404Y209855D01*
X-45193Y209777D01*
X-44993Y209680D01*
X-44804Y209565D01*
X-44627Y209433D01*
X-44464Y209284D01*
X-44315Y209121D01*
X-44183Y208945D01*
X-44068Y208755D01*
X-43971Y208555D01*
X-43894Y208345D01*
X-43837Y208125D01*
X-43802Y207898D01*
X-43790Y207664D01*
X-43790Y204235D01*
X-43802Y204001D01*
X-43837Y203774D01*
X-43894Y203554D01*
X-43971Y203343D01*
X-44068Y203142D01*
X-44183Y202951D01*
X-44315Y202774D01*
X-44464Y202610D01*
X-44627Y202460D01*
X-44804Y202327D01*
X-44993Y202211D01*
X-45193Y202113D01*
X-45404Y202035D01*
X-45623Y201977D01*
X-45850Y201942D01*
X-46084Y201930D01*
G37*
G36*
X-51134Y201930D02*
X-56639Y201930D01*
X-56639Y203536D01*
X-52739Y203536D01*
X-52739Y209958D01*
X-51134Y209958D01*
X-51134Y201930D01*
G37*
G36*
X-51134Y182880D02*
X-54345Y182880D01*
X-54579Y182892D01*
X-54806Y182927D01*
X-55025Y182985D01*
X-55236Y183063D01*
X-55436Y183161D01*
X-55625Y183277D01*
X-55802Y183410D01*
X-55965Y183560D01*
X-56113Y183724D01*
X-56246Y183901D01*
X-56361Y184092D01*
X-56458Y184293D01*
X-56535Y184504D01*
X-56592Y184724D01*
X-56627Y184951D01*
X-56639Y185185D01*
X-56639Y188614D01*
X-56627Y188848D01*
X-56592Y189075D01*
X-56535Y189295D01*
X-56458Y189505D01*
X-56361Y189705D01*
X-56246Y189895D01*
X-56113Y190071D01*
X-55965Y190234D01*
X-55802Y190383D01*
X-55625Y190515D01*
X-55436Y190630D01*
X-55236Y190727D01*
X-55025Y190805D01*
X-54806Y190861D01*
X-54579Y190896D01*
X-54345Y190908D01*
X-51134Y190908D01*
X-51134Y182880D01*
G37*
%LPC*%
G36*
X-52739Y184497D02*
X-52739Y189302D01*
X-54345Y189302D01*
X-54487Y189288D01*
X-54542Y189271D01*
X-54617Y189248D01*
X-54734Y189185D01*
X-54835Y189100D01*
X-54918Y188998D01*
X-54980Y188882D01*
X-55020Y188753D01*
X-55033Y188614D01*
X-55033Y185185D01*
X-55019Y185047D01*
X-54979Y184918D01*
X-54915Y184801D01*
X-54831Y184699D01*
X-54729Y184615D01*
X-54612Y184551D01*
X-54483Y184511D01*
X-54345Y184497D01*
X-52739Y184497D01*
G37*
%LPD*%
G36*
X-47242Y182880D02*
X-49295Y182880D01*
X-49295Y190908D01*
X-47689Y190908D01*
X-47689Y186149D01*
X-45843Y190908D01*
X-43790Y190908D01*
X-43790Y182880D01*
X-45396Y182880D01*
X-45396Y187640D01*
X-47242Y182880D01*
G37*
G36*
X-38771Y182880D02*
X-39689Y182880D01*
X-39922Y182892D01*
X-40150Y182927D01*
X-40369Y182984D01*
X-40579Y183061D01*
X-40780Y183158D01*
X-40969Y183274D01*
X-41146Y183406D01*
X-41309Y183555D01*
X-41457Y183719D01*
X-41589Y183896D01*
X-41705Y184086D01*
X-41802Y184288D01*
X-41879Y184500D01*
X-41936Y184721D01*
X-41971Y184950D01*
X-41982Y185185D01*
X-41982Y187238D01*
X-39001Y187238D01*
X-39001Y185633D01*
X-40377Y185633D01*
X-40377Y185185D01*
X-40363Y185047D01*
X-40323Y184918D01*
X-40259Y184801D01*
X-40175Y184699D01*
X-40073Y184615D01*
X-39956Y184551D01*
X-39827Y184511D01*
X-39689Y184497D01*
X-38771Y184497D01*
X-38633Y184511D01*
X-38504Y184551D01*
X-38387Y184615D01*
X-38285Y184699D01*
X-38201Y184801D01*
X-38137Y184918D01*
X-38097Y185047D01*
X-38083Y185185D01*
X-38083Y188614D01*
X-38097Y188753D01*
X-38136Y188882D01*
X-38198Y188998D01*
X-38281Y189100D01*
X-38382Y189185D01*
X-38499Y189248D01*
X-38630Y189288D01*
X-38771Y189302D01*
X-39689Y189302D01*
X-39830Y189289D01*
X-39961Y189250D01*
X-40078Y189188D01*
X-40179Y189105D01*
X-40262Y189003D01*
X-40324Y188886D01*
X-40363Y188756D01*
X-40377Y188614D01*
X-40377Y187984D01*
X-41982Y187984D01*
X-41982Y188614D01*
X-41971Y188850D01*
X-41936Y189078D01*
X-41880Y189299D01*
X-41803Y189510D01*
X-41707Y189710D01*
X-41592Y189900D01*
X-41461Y190076D01*
X-41313Y190239D01*
X-41150Y190386D01*
X-40974Y190518D01*
X-40785Y190633D01*
X-40584Y190729D01*
X-40373Y190806D01*
X-40153Y190862D01*
X-39924Y190896D01*
X-39689Y190908D01*
X-38771Y190908D01*
X-38538Y190896D01*
X-38310Y190861D01*
X-38091Y190805D01*
X-37881Y190727D01*
X-37680Y190630D01*
X-37491Y190515D01*
X-37314Y190383D01*
X-37151Y190234D01*
X-37003Y190071D01*
X-36871Y189895D01*
X-36755Y189705D01*
X-36658Y189505D01*
X-36581Y189295D01*
X-36524Y189075D01*
X-36489Y188848D01*
X-36478Y188614D01*
X-36478Y185185D01*
X-36489Y184951D01*
X-36524Y184724D01*
X-36581Y184504D01*
X-36658Y184293D01*
X-36755Y184092D01*
X-36871Y183901D01*
X-37003Y183724D01*
X-37151Y183560D01*
X-37314Y183410D01*
X-37491Y183277D01*
X-37680Y183161D01*
X-37881Y183063D01*
X-38091Y182985D01*
X-38310Y182927D01*
X-38538Y182892D01*
X-38771Y182880D01*
G37*
G36*
X-46084Y163830D02*
X-47001Y163830D01*
X-47237Y163842D01*
X-47465Y163876D01*
X-47686Y163933D01*
X-47897Y164009D01*
X-48097Y164106D01*
X-48286Y164220D01*
X-48463Y164352D01*
X-48626Y164499D01*
X-48773Y164662D01*
X-48905Y164839D01*
X-49019Y165028D01*
X-49116Y165228D01*
X-49192Y165439D01*
X-49249Y165660D01*
X-49283Y165888D01*
X-49295Y166124D01*
X-49295Y167317D01*
X-49283Y167550D01*
X-49248Y167777D01*
X-49191Y167997D01*
X-49114Y168207D01*
X-49017Y168408D01*
X-48902Y168597D01*
X-48770Y168773D01*
X-48621Y168936D01*
X-48458Y169085D01*
X-48281Y169217D01*
X-48092Y169332D01*
X-47892Y169429D01*
X-47681Y169507D01*
X-47462Y169563D01*
X-47235Y169598D01*
X-47001Y169610D01*
X-46210Y169610D01*
X-45396Y169071D01*
X-45396Y170252D01*
X-48492Y170252D01*
X-48492Y171858D01*
X-43790Y171858D01*
X-43790Y167122D01*
X-45396Y167122D01*
X-46703Y168005D01*
X-47001Y168005D01*
X-47139Y167991D01*
X-47268Y167950D01*
X-47385Y167887D01*
X-47487Y167802D01*
X-47571Y167701D01*
X-47635Y167584D01*
X-47675Y167455D01*
X-47689Y167317D01*
X-47689Y166124D01*
X-47676Y165982D01*
X-47637Y165852D01*
X-47574Y165735D01*
X-47492Y165633D01*
X-47390Y165551D01*
X-47273Y165488D01*
X-47143Y165449D01*
X-47001Y165436D01*
X-46084Y165436D01*
X-45946Y165450D01*
X-45817Y165490D01*
X-45700Y165554D01*
X-45598Y165638D01*
X-45514Y165740D01*
X-45450Y165857D01*
X-45410Y165986D01*
X-45396Y166124D01*
X-45396Y166238D01*
X-43790Y166238D01*
X-43790Y166124D01*
X-43802Y165890D01*
X-43837Y165663D01*
X-43894Y165444D01*
X-43971Y165233D01*
X-44068Y165033D01*
X-44183Y164844D01*
X-44315Y164667D01*
X-44464Y164504D01*
X-44627Y164355D01*
X-44804Y164223D01*
X-44993Y164108D01*
X-45193Y164011D01*
X-45404Y163934D01*
X-45623Y163877D01*
X-45850Y163842D01*
X-46084Y163830D01*
G37*
G36*
X-53152Y163830D02*
X-54620Y163830D01*
X-56639Y169324D01*
X-56639Y171858D01*
X-55033Y171858D01*
X-55033Y169610D01*
X-53886Y166479D01*
X-52739Y169610D01*
X-52739Y171858D01*
X-51134Y171858D01*
X-51134Y169324D01*
X-53152Y163830D01*
G37*
G36*
X-38427Y164598D02*
X-40033Y164598D01*
X-40033Y166089D01*
X-41524Y166089D01*
X-41524Y167695D01*
X-40033Y167695D01*
X-40033Y169186D01*
X-38427Y169186D01*
X-38427Y167695D01*
X-36936Y167695D01*
X-36936Y166089D01*
X-38427Y166089D01*
X-38427Y164598D01*
G37*
G36*
X7973Y220980D02*
X4761Y220980D01*
X4526Y220992D01*
X4297Y221026D01*
X4077Y221083D01*
X3866Y221159D01*
X3665Y221256D01*
X3476Y221370D01*
X3300Y221502D01*
X3137Y221649D01*
X2989Y221812D01*
X2858Y221989D01*
X2743Y222178D01*
X2647Y222378D01*
X2570Y222589D01*
X2514Y222810D01*
X2479Y223038D01*
X2468Y223274D01*
X2468Y223618D01*
X2479Y223855D01*
X2513Y224085D01*
X2569Y224306D01*
X2645Y224518D01*
X2741Y224719D01*
X2855Y224908D01*
X2986Y225084D01*
X3133Y225246D01*
X2949Y225547D01*
X2812Y225876D01*
X2762Y226050D01*
X2726Y226229D01*
X2704Y226412D01*
X2697Y226600D01*
X2697Y226714D01*
X2709Y226950D01*
X2743Y227178D01*
X2799Y227399D01*
X2876Y227610D01*
X2972Y227810D01*
X3087Y228000D01*
X3219Y228176D01*
X3366Y228339D01*
X3529Y228486D01*
X3705Y228618D01*
X3895Y228733D01*
X4095Y228829D01*
X4306Y228906D01*
X4527Y228962D01*
X4755Y228996D01*
X4991Y229008D01*
X7973Y229008D01*
X7973Y220980D01*
G37*
%LPC*%
G36*
X6367Y222586D02*
X6367Y224306D01*
X4761Y224306D01*
X4620Y224292D01*
X4489Y224253D01*
X4372Y224191D01*
X4271Y224108D01*
X4188Y224007D01*
X4126Y223890D01*
X4087Y223759D01*
X4073Y223618D01*
X4073Y223274D01*
X4087Y223132D01*
X4126Y223002D01*
X4188Y222885D01*
X4271Y222783D01*
X4372Y222701D01*
X4489Y222638D01*
X4620Y222599D01*
X4761Y222586D01*
X6367Y222586D01*
G37*
G36*
X6367Y225912D02*
X6367Y227402D01*
X4991Y227402D01*
X4849Y227389D01*
X4719Y227350D01*
X4602Y227288D01*
X4500Y227205D01*
X4417Y227103D01*
X4355Y226986D01*
X4316Y226856D01*
X4303Y226714D01*
X4303Y226600D01*
X4316Y226458D01*
X4355Y226328D01*
X4417Y226211D01*
X4500Y226109D01*
X4602Y226026D01*
X4719Y225964D01*
X4849Y225925D01*
X4991Y225912D01*
X6367Y225912D01*
G37*
%LPD*%
G36*
X-10136Y220980D02*
X-12189Y220980D01*
X-12189Y229008D01*
X-10583Y229008D01*
X-10583Y224249D01*
X-8737Y229008D01*
X-6684Y229008D01*
X-6684Y220980D01*
X-8289Y220980D01*
X-8289Y225740D01*
X-10136Y220980D01*
G37*
G36*
X-14028Y220980D02*
X-19533Y220980D01*
X-19533Y222586D01*
X-15633Y222586D01*
X-15633Y222930D01*
X-19533Y225120D01*
X-19533Y226714D01*
X-19521Y226950D01*
X-19486Y227178D01*
X-19430Y227399D01*
X-19353Y227610D01*
X-19257Y227810D01*
X-19142Y228000D01*
X-19011Y228176D01*
X-18863Y228339D01*
X-18700Y228486D01*
X-18524Y228618D01*
X-18335Y228733D01*
X-18134Y228829D01*
X-17923Y228906D01*
X-17703Y228962D01*
X-17474Y228996D01*
X-17239Y229008D01*
X-16321Y229008D01*
X-16088Y228996D01*
X-15860Y228961D01*
X-15641Y228905D01*
X-15431Y228827D01*
X-15230Y228730D01*
X-15041Y228615D01*
X-14864Y228483D01*
X-14701Y228334D01*
X-14553Y228171D01*
X-14421Y227995D01*
X-14305Y227805D01*
X-14208Y227605D01*
X-14131Y227395D01*
X-14074Y227175D01*
X-14039Y226948D01*
X-14028Y226714D01*
X-14028Y226084D01*
X-15633Y226084D01*
X-15633Y226714D01*
X-15647Y226853D01*
X-15687Y226982D01*
X-15751Y227098D01*
X-15835Y227200D01*
X-15937Y227285D01*
X-16054Y227348D01*
X-16183Y227388D01*
X-16321Y227402D01*
X-17239Y227402D01*
X-17380Y227389D01*
X-17511Y227350D01*
X-17628Y227288D01*
X-17729Y227205D01*
X-17812Y227103D01*
X-17874Y226986D01*
X-17913Y226856D01*
X-17927Y226714D01*
X-17927Y226072D01*
X-14028Y223882D01*
X-14028Y220980D01*
G37*
G36*
X-1290Y220980D02*
X-2895Y220980D01*
X-2895Y227402D01*
X-4845Y227402D01*
X-4845Y229008D01*
X660Y229008D01*
X660Y227402D01*
X-1290Y227402D01*
X-1290Y220980D01*
G37*
G36*
X52423Y220980D02*
X49211Y220980D01*
X48976Y220992D01*
X48747Y221026D01*
X48527Y221083D01*
X48316Y221159D01*
X48115Y221256D01*
X47926Y221370D01*
X47750Y221502D01*
X47587Y221649D01*
X47439Y221812D01*
X47308Y221989D01*
X47193Y222178D01*
X47097Y222378D01*
X47020Y222589D01*
X46964Y222810D01*
X46929Y223038D01*
X46918Y223274D01*
X46918Y223618D01*
X46929Y223855D01*
X46963Y224085D01*
X47019Y224306D01*
X47095Y224518D01*
X47191Y224719D01*
X47305Y224908D01*
X47436Y225084D01*
X47583Y225246D01*
X47399Y225547D01*
X47262Y225876D01*
X47212Y226050D01*
X47176Y226229D01*
X47154Y226412D01*
X47147Y226600D01*
X47147Y226714D01*
X47159Y226950D01*
X47193Y227178D01*
X47249Y227399D01*
X47326Y227610D01*
X47422Y227810D01*
X47537Y228000D01*
X47669Y228176D01*
X47816Y228339D01*
X47979Y228486D01*
X48155Y228618D01*
X48345Y228733D01*
X48545Y228829D01*
X48756Y228906D01*
X48977Y228962D01*
X49205Y228996D01*
X49441Y229008D01*
X52423Y229008D01*
X52423Y220980D01*
G37*
%LPC*%
G36*
X50817Y222586D02*
X50817Y224306D01*
X49211Y224306D01*
X49070Y224292D01*
X48939Y224253D01*
X48822Y224191D01*
X48721Y224108D01*
X48638Y224007D01*
X48576Y223890D01*
X48537Y223759D01*
X48523Y223618D01*
X48523Y223274D01*
X48537Y223132D01*
X48576Y223002D01*
X48638Y222885D01*
X48721Y222783D01*
X48822Y222701D01*
X48939Y222638D01*
X49070Y222599D01*
X49211Y222586D01*
X50817Y222586D01*
G37*
G36*
X50817Y225912D02*
X50817Y227402D01*
X49441Y227402D01*
X49299Y227389D01*
X49169Y227350D01*
X49052Y227288D01*
X48950Y227205D01*
X48867Y227103D01*
X48805Y226986D01*
X48766Y226856D01*
X48753Y226714D01*
X48753Y226600D01*
X48766Y226458D01*
X48805Y226328D01*
X48867Y226211D01*
X48950Y226109D01*
X49052Y226026D01*
X49169Y225964D01*
X49299Y225925D01*
X49441Y225912D01*
X50817Y225912D01*
G37*
%LPD*%
G36*
X34314Y220980D02*
X32261Y220980D01*
X32261Y229008D01*
X33867Y229008D01*
X33867Y224249D01*
X35713Y229008D01*
X37766Y229008D01*
X37766Y220980D01*
X36161Y220980D01*
X36161Y225740D01*
X34314Y220980D01*
G37*
G36*
X30423Y220980D02*
X24918Y220980D01*
X24918Y222586D01*
X26867Y222586D01*
X26867Y229008D01*
X28301Y229008D01*
X30423Y227758D01*
X30423Y225900D01*
X28473Y227047D01*
X28473Y222586D01*
X30423Y222586D01*
X30423Y220980D01*
G37*
G36*
X43160Y220980D02*
X41555Y220980D01*
X41555Y227402D01*
X39605Y227402D01*
X39605Y229008D01*
X45110Y229008D01*
X45110Y227402D01*
X43160Y227402D01*
X43160Y220980D01*
G37*
G36*
X-14028Y201930D02*
X-17239Y201930D01*
X-17472Y201942D01*
X-17700Y201977D01*
X-17919Y202035D01*
X-18129Y202113D01*
X-18330Y202211D01*
X-18519Y202327D01*
X-18696Y202460D01*
X-18859Y202610D01*
X-19007Y202774D01*
X-19139Y202951D01*
X-19255Y203142D01*
X-19352Y203343D01*
X-19429Y203554D01*
X-19486Y203774D01*
X-19521Y204001D01*
X-19533Y204235D01*
X-19533Y207664D01*
X-19521Y207898D01*
X-19486Y208125D01*
X-19429Y208345D01*
X-19352Y208555D01*
X-19255Y208755D01*
X-19139Y208945D01*
X-19007Y209121D01*
X-18859Y209284D01*
X-18696Y209433D01*
X-18519Y209565D01*
X-18330Y209680D01*
X-18129Y209777D01*
X-17919Y209855D01*
X-17700Y209911D01*
X-17472Y209946D01*
X-17239Y209958D01*
X-14028Y209958D01*
X-14028Y201930D01*
G37*
%LPC*%
G36*
X-15633Y203547D02*
X-15633Y208352D01*
X-17239Y208352D01*
X-17380Y208338D01*
X-17436Y208321D01*
X-17511Y208298D01*
X-17628Y208235D01*
X-17729Y208150D01*
X-17812Y208048D01*
X-17874Y207932D01*
X-17913Y207803D01*
X-17927Y207664D01*
X-17927Y204235D01*
X-17913Y204097D01*
X-17873Y203968D01*
X-17809Y203851D01*
X-17725Y203749D01*
X-17623Y203665D01*
X-17506Y203601D01*
X-17377Y203561D01*
X-17239Y203547D01*
X-15633Y203547D01*
G37*
%LPD*%
G36*
X-6684Y201930D02*
X-9895Y201930D01*
X-10129Y201942D01*
X-10356Y201977D01*
X-10575Y202035D01*
X-10786Y202113D01*
X-10986Y202211D01*
X-11175Y202327D01*
X-11352Y202460D01*
X-11515Y202610D01*
X-11663Y202774D01*
X-11796Y202951D01*
X-11911Y203142D01*
X-12008Y203343D01*
X-12085Y203554D01*
X-12142Y203774D01*
X-12177Y204001D01*
X-12189Y204235D01*
X-12189Y207664D01*
X-12177Y207898D01*
X-12142Y208125D01*
X-12085Y208345D01*
X-12008Y208555D01*
X-11911Y208755D01*
X-11796Y208945D01*
X-11663Y209121D01*
X-11515Y209284D01*
X-11352Y209433D01*
X-11175Y209565D01*
X-10986Y209680D01*
X-10786Y209777D01*
X-10575Y209855D01*
X-10356Y209911D01*
X-10129Y209946D01*
X-9895Y209958D01*
X-6684Y209958D01*
X-6684Y201930D01*
G37*
%LPC*%
G36*
X-8289Y203547D02*
X-8289Y208352D01*
X-9895Y208352D01*
X-10037Y208338D01*
X-10092Y208321D01*
X-10167Y208298D01*
X-10284Y208235D01*
X-10385Y208150D01*
X-10468Y208048D01*
X-10530Y207932D01*
X-10570Y207803D01*
X-10583Y207664D01*
X-10583Y204235D01*
X-10569Y204097D01*
X-10529Y203968D01*
X-10465Y203851D01*
X-10381Y203749D01*
X-10279Y203665D01*
X-10162Y203601D01*
X-10033Y203561D01*
X-9895Y203547D01*
X-8289Y203547D01*
G37*
%LPD*%
G36*
X660Y201930D02*
X-4845Y201930D01*
X-4845Y203536D01*
X-946Y203536D01*
X-946Y205336D01*
X-4386Y205336D01*
X-4386Y206942D01*
X-946Y206942D01*
X-946Y208352D01*
X-4845Y208352D01*
X-4845Y209958D01*
X660Y209958D01*
X660Y201930D01*
G37*
G36*
X7973Y201930D02*
X2468Y201930D01*
X2468Y203536D01*
X6367Y203536D01*
X6367Y209958D01*
X7973Y209958D01*
X7973Y201930D01*
G37*
G36*
X37766Y201930D02*
X34555Y201930D01*
X34321Y201942D01*
X34094Y201977D01*
X33875Y202035D01*
X33664Y202113D01*
X33464Y202211D01*
X33275Y202327D01*
X33098Y202460D01*
X32935Y202610D01*
X32787Y202774D01*
X32654Y202951D01*
X32539Y203142D01*
X32442Y203343D01*
X32365Y203554D01*
X32308Y203774D01*
X32273Y204001D01*
X32261Y204235D01*
X32261Y207664D01*
X32273Y207898D01*
X32308Y208125D01*
X32365Y208345D01*
X32442Y208555D01*
X32539Y208755D01*
X32654Y208945D01*
X32787Y209121D01*
X32935Y209284D01*
X33098Y209433D01*
X33275Y209565D01*
X33464Y209680D01*
X33664Y209777D01*
X33875Y209855D01*
X34094Y209911D01*
X34321Y209946D01*
X34555Y209958D01*
X37766Y209958D01*
X37766Y201930D01*
G37*
%LPC*%
G36*
X36161Y203547D02*
X36161Y208352D01*
X34555Y208352D01*
X34414Y208338D01*
X34358Y208321D01*
X34283Y208298D01*
X34166Y208235D01*
X34065Y208150D01*
X33982Y208048D01*
X33920Y207932D01*
X33880Y207803D01*
X33867Y207664D01*
X33867Y204235D01*
X33881Y204097D01*
X33921Y203968D01*
X33985Y203851D01*
X34069Y203749D01*
X34171Y203665D01*
X34288Y203601D01*
X34417Y203561D01*
X34555Y203547D01*
X36161Y203547D01*
G37*
%LPD*%
G36*
X30423Y201930D02*
X28817Y201930D01*
X28817Y204683D01*
X27211Y204683D01*
X26976Y204694D01*
X26747Y204729D01*
X26527Y204785D01*
X26316Y204862D01*
X26115Y204958D01*
X25926Y205073D01*
X25750Y205204D01*
X25587Y205352D01*
X25439Y205515D01*
X25308Y205691D01*
X25193Y205880D01*
X25097Y206081D01*
X25020Y206292D01*
X24964Y206512D01*
X24929Y206741D01*
X24918Y206976D01*
X24918Y207664D01*
X24929Y207900D01*
X24964Y208128D01*
X25020Y208349D01*
X25097Y208560D01*
X25193Y208760D01*
X25308Y208950D01*
X25439Y209126D01*
X25587Y209289D01*
X25750Y209436D01*
X25926Y209568D01*
X26115Y209683D01*
X26316Y209779D01*
X26527Y209856D01*
X26747Y209912D01*
X26976Y209946D01*
X27211Y209958D01*
X30423Y209958D01*
X30423Y201930D01*
G37*
%LPC*%
G36*
X28817Y206288D02*
X28817Y208352D01*
X27211Y208352D01*
X27070Y208339D01*
X26939Y208300D01*
X26822Y208238D01*
X26812Y208230D01*
X26721Y208155D01*
X26638Y208053D01*
X26576Y207936D01*
X26537Y207806D01*
X26523Y207664D01*
X26523Y206976D01*
X26537Y206835D01*
X26576Y206704D01*
X26638Y206587D01*
X26721Y206486D01*
X26822Y206403D01*
X26939Y206341D01*
X27070Y206302D01*
X27211Y206288D01*
X28817Y206288D01*
G37*
%LPD*%
G36*
X45110Y201930D02*
X39605Y201930D01*
X39605Y203536D01*
X43504Y203536D01*
X43504Y205336D01*
X40064Y205336D01*
X40064Y206942D01*
X43504Y206942D01*
X43504Y208352D01*
X39605Y208352D01*
X39605Y209958D01*
X45110Y209958D01*
X45110Y201930D01*
G37*
G36*
X52423Y201930D02*
X46918Y201930D01*
X46918Y203536D01*
X50817Y203536D01*
X50817Y209958D01*
X52423Y209958D01*
X52423Y201930D01*
G37*
G36*
X4073Y182880D02*
X2468Y182880D01*
X2468Y190908D01*
X3993Y190908D01*
X5220Y188236D01*
X6447Y190908D01*
X7973Y190908D01*
X7973Y182880D01*
X6367Y182880D01*
X6367Y187135D01*
X5679Y185655D01*
X4761Y185655D01*
X4073Y187135D01*
X4073Y182880D01*
G37*
G36*
X-8978Y182880D02*
X-9895Y182880D01*
X-10129Y182892D01*
X-10356Y182927D01*
X-10575Y182984D01*
X-10786Y183061D01*
X-10986Y183158D01*
X-11175Y183274D01*
X-11352Y183406D01*
X-11515Y183555D01*
X-11663Y183719D01*
X-11796Y183896D01*
X-11911Y184086D01*
X-12008Y184288D01*
X-12085Y184500D01*
X-12142Y184721D01*
X-12177Y184950D01*
X-12189Y185185D01*
X-12189Y187238D01*
X-9207Y187238D01*
X-9207Y185633D01*
X-10583Y185633D01*
X-10583Y185185D01*
X-10569Y185047D01*
X-10529Y184918D01*
X-10465Y184801D01*
X-10381Y184699D01*
X-10279Y184615D01*
X-10162Y184551D01*
X-10033Y184511D01*
X-9895Y184497D01*
X-8978Y184497D01*
X-8839Y184511D01*
X-8710Y184551D01*
X-8593Y184615D01*
X-8492Y184699D01*
X-8407Y184801D01*
X-8344Y184918D01*
X-8303Y185047D01*
X-8289Y185185D01*
X-8289Y188614D01*
X-8303Y188753D01*
X-8342Y188882D01*
X-8404Y188998D01*
X-8487Y189100D01*
X-8588Y189185D01*
X-8705Y189248D01*
X-8836Y189288D01*
X-8978Y189302D01*
X-9895Y189302D01*
X-10037Y189289D01*
X-10167Y189250D01*
X-10284Y189188D01*
X-10385Y189105D01*
X-10468Y189003D01*
X-10530Y188886D01*
X-10570Y188756D01*
X-10583Y188614D01*
X-10583Y187984D01*
X-12189Y187984D01*
X-12189Y188614D01*
X-12177Y188850D01*
X-12142Y189078D01*
X-12086Y189299D01*
X-12009Y189510D01*
X-11913Y189710D01*
X-11799Y189900D01*
X-11667Y190076D01*
X-11519Y190239D01*
X-11357Y190386D01*
X-11180Y190518D01*
X-10991Y190633D01*
X-10790Y190729D01*
X-10579Y190806D01*
X-10359Y190862D01*
X-10131Y190896D01*
X-9895Y190908D01*
X-8978Y190908D01*
X-8744Y190896D01*
X-8517Y190861D01*
X-8297Y190805D01*
X-8087Y190727D01*
X-7886Y190630D01*
X-7697Y190515D01*
X-7521Y190383D01*
X-7358Y190234D01*
X-7209Y190071D01*
X-7077Y189895D01*
X-6962Y189705D01*
X-6865Y189505D01*
X-6787Y189295D01*
X-6731Y189075D01*
X-6696Y188848D01*
X-6684Y188614D01*
X-6684Y185185D01*
X-6696Y184951D01*
X-6731Y184724D01*
X-6787Y184504D01*
X-6865Y184293D01*
X-6962Y184092D01*
X-7077Y183901D01*
X-7209Y183724D01*
X-7358Y183560D01*
X-7521Y183410D01*
X-7697Y183277D01*
X-7886Y183161D01*
X-8087Y183063D01*
X-8297Y182985D01*
X-8517Y182927D01*
X-8744Y182892D01*
X-8978Y182880D01*
G37*
G36*
X-3239Y182880D02*
X-4845Y182880D01*
X-4845Y185415D01*
X-2827Y190908D01*
X-1359Y190908D01*
X660Y185415D01*
X660Y182880D01*
X-946Y182880D01*
X-946Y184279D01*
X-3239Y184279D01*
X-3239Y182880D01*
G37*
%LPC*%
G36*
X-1221Y185885D02*
X-2093Y188259D01*
X-2964Y185885D01*
X-1221Y185885D01*
G37*
%LPD*%
G36*
X-14028Y182880D02*
X-19533Y182880D01*
X-19533Y184486D01*
X-17583Y184486D01*
X-17583Y190908D01*
X-16149Y190908D01*
X-14028Y189658D01*
X-14028Y187800D01*
X-15977Y188947D01*
X-15977Y184486D01*
X-14028Y184486D01*
X-14028Y182880D01*
G37*
G36*
X48523Y182880D02*
X46918Y182880D01*
X46918Y190908D01*
X48443Y190908D01*
X49670Y188236D01*
X50897Y190908D01*
X52423Y190908D01*
X52423Y182880D01*
X50817Y182880D01*
X50817Y187135D01*
X50129Y185655D01*
X49211Y185655D01*
X48523Y187135D01*
X48523Y182880D01*
G37*
G36*
X35473Y182880D02*
X34555Y182880D01*
X34321Y182892D01*
X34094Y182927D01*
X33875Y182984D01*
X33664Y183061D01*
X33464Y183158D01*
X33275Y183274D01*
X33098Y183406D01*
X32935Y183555D01*
X32787Y183719D01*
X32654Y183896D01*
X32539Y184086D01*
X32442Y184288D01*
X32365Y184500D01*
X32308Y184721D01*
X32273Y184950D01*
X32261Y185185D01*
X32261Y187238D01*
X35243Y187238D01*
X35243Y185633D01*
X33867Y185633D01*
X33867Y185185D01*
X33881Y185047D01*
X33921Y184918D01*
X33985Y184801D01*
X34069Y184699D01*
X34171Y184615D01*
X34288Y184551D01*
X34417Y184511D01*
X34555Y184497D01*
X35473Y184497D01*
X35611Y184511D01*
X35740Y184551D01*
X35857Y184615D01*
X35959Y184699D01*
X36043Y184801D01*
X36106Y184918D01*
X36147Y185047D01*
X36161Y185185D01*
X36161Y188614D01*
X36147Y188753D01*
X36108Y188882D01*
X36046Y188998D01*
X35963Y189100D01*
X35862Y189185D01*
X35745Y189248D01*
X35614Y189288D01*
X35473Y189302D01*
X34555Y189302D01*
X34414Y189289D01*
X34283Y189250D01*
X34166Y189188D01*
X34065Y189105D01*
X33982Y189003D01*
X33920Y188886D01*
X33880Y188756D01*
X33867Y188614D01*
X33867Y187984D01*
X32261Y187984D01*
X32261Y188614D01*
X32273Y188850D01*
X32308Y189078D01*
X32364Y189299D01*
X32441Y189510D01*
X32537Y189710D01*
X32651Y189900D01*
X32783Y190076D01*
X32931Y190239D01*
X33093Y190386D01*
X33270Y190518D01*
X33459Y190633D01*
X33660Y190729D01*
X33871Y190806D01*
X34091Y190862D01*
X34319Y190896D01*
X34555Y190908D01*
X35473Y190908D01*
X35706Y190896D01*
X35933Y190861D01*
X36153Y190805D01*
X36363Y190727D01*
X36564Y190630D01*
X36753Y190515D01*
X36929Y190383D01*
X37092Y190234D01*
X37241Y190071D01*
X37373Y189895D01*
X37488Y189705D01*
X37585Y189505D01*
X37663Y189295D01*
X37719Y189075D01*
X37754Y188848D01*
X37766Y188614D01*
X37766Y185185D01*
X37754Y184951D01*
X37719Y184724D01*
X37663Y184504D01*
X37585Y184293D01*
X37488Y184092D01*
X37373Y183901D01*
X37241Y183724D01*
X37092Y183560D01*
X36929Y183410D01*
X36753Y183277D01*
X36564Y183161D01*
X36363Y183063D01*
X36153Y182985D01*
X35933Y182927D01*
X35706Y182892D01*
X35473Y182880D01*
G37*
G36*
X41211Y182880D02*
X39605Y182880D01*
X39605Y185415D01*
X41624Y190908D01*
X43092Y190908D01*
X45110Y185415D01*
X45110Y182880D01*
X43504Y182880D01*
X43504Y184279D01*
X41211Y184279D01*
X41211Y182880D01*
G37*
%LPC*%
G36*
X43229Y185885D02*
X42358Y188259D01*
X41486Y185885D01*
X43229Y185885D01*
G37*
%LPD*%
G36*
X28358Y182880D02*
X27441Y182880D01*
X27205Y182892D01*
X26977Y182926D01*
X26756Y182983D01*
X26545Y183059D01*
X26345Y183156D01*
X26155Y183270D01*
X25979Y183402D01*
X25816Y183549D01*
X25669Y183712D01*
X25537Y183889D01*
X25422Y184078D01*
X25326Y184278D01*
X25249Y184489D01*
X25193Y184710D01*
X25159Y184938D01*
X25147Y185174D01*
X25147Y185403D01*
X25156Y185615D01*
X25185Y185822D01*
X25230Y186021D01*
X25293Y186213D01*
X25372Y186397D01*
X25466Y186572D01*
X25575Y186738D01*
X25697Y186894D01*
X25575Y187050D01*
X25466Y187216D01*
X25372Y187391D01*
X25293Y187575D01*
X25230Y187767D01*
X25185Y187967D01*
X25156Y188173D01*
X25147Y188385D01*
X25147Y188614D01*
X25159Y188850D01*
X25193Y189078D01*
X25249Y189299D01*
X25326Y189510D01*
X25422Y189710D01*
X25537Y189900D01*
X25669Y190076D01*
X25816Y190239D01*
X25979Y190386D01*
X26155Y190518D01*
X26345Y190633D01*
X26545Y190729D01*
X26756Y190806D01*
X26977Y190862D01*
X27205Y190896D01*
X27441Y190908D01*
X28358Y190908D01*
X28592Y190896D01*
X28819Y190861D01*
X29038Y190805D01*
X29249Y190727D01*
X29449Y190630D01*
X29638Y190515D01*
X29815Y190383D01*
X29978Y190234D01*
X30126Y190071D01*
X30259Y189895D01*
X30374Y189705D01*
X30471Y189505D01*
X30548Y189295D01*
X30605Y189075D01*
X30640Y188848D01*
X30652Y188614D01*
X30652Y188213D01*
X29046Y188213D01*
X29046Y188614D01*
X29032Y188753D01*
X28992Y188882D01*
X28928Y188998D01*
X28844Y189100D01*
X28742Y189185D01*
X28625Y189248D01*
X28496Y189288D01*
X28358Y189302D01*
X27441Y189302D01*
X27299Y189289D01*
X27169Y189250D01*
X27052Y189188D01*
X26950Y189105D01*
X26867Y189003D01*
X26805Y188886D01*
X26766Y188756D01*
X26753Y188614D01*
X26753Y188385D01*
X26766Y188243D01*
X26805Y188113D01*
X26867Y187996D01*
X26950Y187895D01*
X27052Y187812D01*
X27169Y187750D01*
X27299Y187710D01*
X27441Y187697D01*
X28243Y187697D01*
X28243Y186091D01*
X27441Y186091D01*
X27299Y186078D01*
X27169Y186039D01*
X27052Y185976D01*
X26950Y185893D01*
X26867Y185792D01*
X26805Y185675D01*
X26766Y185545D01*
X26753Y185403D01*
X26753Y185174D01*
X26766Y185032D01*
X26805Y184902D01*
X26867Y184785D01*
X26950Y184683D01*
X27052Y184601D01*
X27169Y184538D01*
X27299Y184499D01*
X27441Y184486D01*
X28358Y184486D01*
X28496Y184500D01*
X28625Y184540D01*
X28742Y184604D01*
X28844Y184688D01*
X28928Y184790D01*
X28992Y184907D01*
X29032Y185036D01*
X29046Y185174D01*
X29046Y185575D01*
X30652Y185575D01*
X30652Y185174D01*
X30640Y184940D01*
X30605Y184713D01*
X30548Y184494D01*
X30471Y184283D01*
X30374Y184083D01*
X30259Y183894D01*
X30126Y183717D01*
X29978Y183554D01*
X29815Y183405D01*
X29638Y183273D01*
X29449Y183158D01*
X29249Y183061D01*
X29038Y182984D01*
X28819Y182927D01*
X28592Y182892D01*
X28358Y182880D01*
G37*
G36*
X48523Y163830D02*
X46918Y163830D01*
X46918Y171858D01*
X48443Y171858D01*
X49670Y169186D01*
X50897Y171858D01*
X52423Y171858D01*
X52423Y163830D01*
X50817Y163830D01*
X50817Y168085D01*
X50129Y166605D01*
X49211Y166605D01*
X48523Y168085D01*
X48523Y163830D01*
G37*
G36*
X35473Y163830D02*
X34555Y163830D01*
X34321Y163842D01*
X34094Y163877D01*
X33875Y163934D01*
X33664Y164011D01*
X33464Y164108D01*
X33275Y164224D01*
X33098Y164356D01*
X32935Y164505D01*
X32787Y164669D01*
X32654Y164846D01*
X32539Y165036D01*
X32442Y165238D01*
X32365Y165450D01*
X32308Y165671D01*
X32273Y165900D01*
X32261Y166135D01*
X32261Y168188D01*
X35243Y168188D01*
X35243Y166583D01*
X33867Y166583D01*
X33867Y166135D01*
X33881Y165997D01*
X33921Y165868D01*
X33985Y165751D01*
X34069Y165649D01*
X34171Y165565D01*
X34288Y165501D01*
X34417Y165461D01*
X34555Y165447D01*
X35473Y165447D01*
X35611Y165461D01*
X35740Y165501D01*
X35857Y165565D01*
X35959Y165649D01*
X36043Y165751D01*
X36106Y165868D01*
X36147Y165997D01*
X36161Y166135D01*
X36161Y169564D01*
X36147Y169703D01*
X36108Y169832D01*
X36046Y169948D01*
X35963Y170050D01*
X35862Y170135D01*
X35745Y170198D01*
X35614Y170238D01*
X35473Y170252D01*
X34555Y170252D01*
X34414Y170239D01*
X34283Y170200D01*
X34166Y170138D01*
X34065Y170055D01*
X33982Y169953D01*
X33920Y169836D01*
X33880Y169706D01*
X33867Y169564D01*
X33867Y168934D01*
X32261Y168934D01*
X32261Y169564D01*
X32273Y169800D01*
X32308Y170028D01*
X32364Y170249D01*
X32441Y170460D01*
X32537Y170660D01*
X32651Y170850D01*
X32783Y171026D01*
X32931Y171189D01*
X33093Y171336D01*
X33270Y171468D01*
X33459Y171583D01*
X33660Y171679D01*
X33871Y171756D01*
X34091Y171812D01*
X34319Y171846D01*
X34555Y171858D01*
X35473Y171858D01*
X35706Y171846D01*
X35933Y171811D01*
X36153Y171755D01*
X36363Y171677D01*
X36564Y171580D01*
X36753Y171465D01*
X36929Y171333D01*
X37092Y171184D01*
X37241Y171021D01*
X37373Y170845D01*
X37488Y170655D01*
X37585Y170455D01*
X37663Y170245D01*
X37719Y170025D01*
X37754Y169798D01*
X37766Y169564D01*
X37766Y166135D01*
X37754Y165901D01*
X37719Y165674D01*
X37663Y165454D01*
X37585Y165243D01*
X37488Y165042D01*
X37373Y164851D01*
X37241Y164674D01*
X37092Y164510D01*
X36929Y164360D01*
X36753Y164227D01*
X36564Y164111D01*
X36363Y164013D01*
X36153Y163935D01*
X35933Y163877D01*
X35706Y163842D01*
X35473Y163830D01*
G37*
G36*
X41211Y163830D02*
X39605Y163830D01*
X39605Y166365D01*
X41624Y171858D01*
X43092Y171858D01*
X45110Y166365D01*
X45110Y163830D01*
X43504Y163830D01*
X43504Y165229D01*
X41211Y165229D01*
X41211Y163830D01*
G37*
%LPC*%
G36*
X43229Y166835D02*
X42358Y169209D01*
X41486Y166835D01*
X43229Y166835D01*
G37*
%LPD*%
G36*
X30423Y163830D02*
X24918Y163830D01*
X24918Y165436D01*
X28817Y165436D01*
X28817Y165780D01*
X24918Y167970D01*
X24918Y169564D01*
X24929Y169800D01*
X24964Y170028D01*
X25020Y170249D01*
X25097Y170460D01*
X25193Y170660D01*
X25308Y170850D01*
X25439Y171026D01*
X25587Y171189D01*
X25750Y171336D01*
X25926Y171468D01*
X26115Y171583D01*
X26316Y171679D01*
X26527Y171756D01*
X26747Y171812D01*
X26976Y171846D01*
X27211Y171858D01*
X28129Y171858D01*
X28362Y171846D01*
X28590Y171811D01*
X28809Y171755D01*
X29019Y171677D01*
X29220Y171580D01*
X29409Y171465D01*
X29586Y171333D01*
X29749Y171184D01*
X29897Y171021D01*
X30029Y170845D01*
X30145Y170655D01*
X30242Y170455D01*
X30319Y170245D01*
X30376Y170025D01*
X30411Y169798D01*
X30423Y169564D01*
X30423Y168934D01*
X28817Y168934D01*
X28817Y169564D01*
X28803Y169703D01*
X28763Y169832D01*
X28699Y169948D01*
X28615Y170050D01*
X28513Y170135D01*
X28396Y170198D01*
X28267Y170238D01*
X28129Y170252D01*
X27211Y170252D01*
X27070Y170239D01*
X26939Y170200D01*
X26822Y170138D01*
X26721Y170055D01*
X26638Y169953D01*
X26576Y169836D01*
X26537Y169706D01*
X26523Y169564D01*
X26523Y168922D01*
X30423Y166732D01*
X30423Y163830D01*
G37*
G36*
X-1404Y163830D02*
X-2322Y163830D01*
X-2557Y163842D01*
X-2786Y163876D01*
X-3006Y163933D01*
X-3217Y164009D01*
X-3418Y164106D01*
X-3607Y164220D01*
X-3783Y164352D01*
X-3946Y164499D01*
X-4094Y164662D01*
X-4226Y164839D01*
X-4340Y165028D01*
X-4436Y165228D01*
X-4513Y165439D01*
X-4569Y165660D01*
X-4604Y165888D01*
X-4616Y166124D01*
X-4616Y166353D01*
X-4606Y166565D01*
X-4578Y166772D01*
X-4532Y166971D01*
X-4469Y167163D01*
X-4391Y167347D01*
X-4296Y167522D01*
X-4188Y167688D01*
X-4065Y167844D01*
X-4188Y168000D01*
X-4296Y168166D01*
X-4391Y168341D01*
X-4469Y168525D01*
X-4532Y168717D01*
X-4578Y168917D01*
X-4606Y169123D01*
X-4616Y169335D01*
X-4616Y169564D01*
X-4604Y169800D01*
X-4569Y170028D01*
X-4513Y170249D01*
X-4436Y170460D01*
X-4340Y170660D01*
X-4226Y170850D01*
X-4094Y171026D01*
X-3946Y171189D01*
X-3783Y171336D01*
X-3607Y171468D01*
X-3418Y171583D01*
X-3217Y171679D01*
X-3006Y171756D01*
X-2786Y171812D01*
X-2557Y171846D01*
X-2322Y171858D01*
X-1404Y171858D01*
X-1171Y171846D01*
X-944Y171811D01*
X-724Y171755D01*
X-514Y171677D01*
X-313Y171580D01*
X-124Y171465D01*
X53Y171333D01*
X216Y171184D01*
X364Y171021D01*
X496Y170845D01*
X612Y170655D01*
X708Y170455D01*
X786Y170245D01*
X843Y170025D01*
X878Y169798D01*
X889Y169564D01*
X889Y169163D01*
X-716Y169163D01*
X-716Y169564D01*
X-730Y169703D01*
X-771Y169832D01*
X-834Y169948D01*
X-918Y170050D01*
X-1020Y170135D01*
X-1137Y170198D01*
X-1266Y170238D01*
X-1404Y170252D01*
X-2322Y170252D01*
X-2463Y170239D01*
X-2594Y170200D01*
X-2711Y170138D01*
X-2812Y170055D01*
X-2895Y169953D01*
X-2957Y169836D01*
X-2996Y169706D01*
X-3010Y169564D01*
X-3010Y169335D01*
X-2996Y169193D01*
X-2957Y169063D01*
X-2895Y168946D01*
X-2812Y168845D01*
X-2711Y168762D01*
X-2594Y168700D01*
X-2463Y168660D01*
X-2322Y168647D01*
X-1519Y168647D01*
X-1519Y167041D01*
X-2322Y167041D01*
X-2463Y167028D01*
X-2594Y166989D01*
X-2711Y166926D01*
X-2812Y166843D01*
X-2895Y166742D01*
X-2957Y166625D01*
X-2996Y166495D01*
X-3010Y166353D01*
X-3010Y166124D01*
X-2996Y165982D01*
X-2957Y165852D01*
X-2895Y165735D01*
X-2812Y165633D01*
X-2711Y165551D01*
X-2594Y165488D01*
X-2463Y165449D01*
X-2322Y165436D01*
X-1404Y165436D01*
X-1266Y165450D01*
X-1137Y165490D01*
X-1020Y165554D01*
X-918Y165638D01*
X-834Y165740D01*
X-771Y165857D01*
X-730Y165986D01*
X-716Y166124D01*
X-716Y166525D01*
X889Y166525D01*
X889Y166124D01*
X878Y165890D01*
X843Y165663D01*
X786Y165444D01*
X708Y165233D01*
X612Y165033D01*
X496Y164844D01*
X364Y164667D01*
X216Y164504D01*
X53Y164355D01*
X-124Y164223D01*
X-313Y164108D01*
X-514Y164011D01*
X-724Y163934D01*
X-944Y163877D01*
X-1171Y163842D01*
X-1404Y163830D01*
G37*
G36*
X-15623Y163830D02*
X-16541Y163830D01*
X-16776Y163842D01*
X-17005Y163876D01*
X-17225Y163933D01*
X-17436Y164009D01*
X-17637Y164106D01*
X-17826Y164220D01*
X-18002Y164352D01*
X-18165Y164499D01*
X-18313Y164662D01*
X-18444Y164839D01*
X-18559Y165028D01*
X-18655Y165228D01*
X-18732Y165439D01*
X-18788Y165660D01*
X-18823Y165888D01*
X-18834Y166124D01*
X-18834Y166353D01*
X-18825Y166565D01*
X-18797Y166772D01*
X-18751Y166971D01*
X-18688Y167163D01*
X-18609Y167347D01*
X-18515Y167522D01*
X-18406Y167688D01*
X-18284Y167844D01*
X-18406Y168000D01*
X-18515Y168166D01*
X-18609Y168341D01*
X-18688Y168525D01*
X-18751Y168717D01*
X-18797Y168917D01*
X-18825Y169123D01*
X-18834Y169335D01*
X-18834Y169564D01*
X-18823Y169800D01*
X-18788Y170028D01*
X-18732Y170249D01*
X-18655Y170460D01*
X-18559Y170660D01*
X-18444Y170850D01*
X-18313Y171026D01*
X-18165Y171189D01*
X-18002Y171336D01*
X-17826Y171468D01*
X-17637Y171583D01*
X-17436Y171679D01*
X-17225Y171756D01*
X-17005Y171812D01*
X-16776Y171846D01*
X-16541Y171858D01*
X-15623Y171858D01*
X-15389Y171846D01*
X-15162Y171811D01*
X-14943Y171755D01*
X-14733Y171677D01*
X-14532Y171580D01*
X-14343Y171465D01*
X-14166Y171333D01*
X-14003Y171184D01*
X-13855Y171021D01*
X-13722Y170845D01*
X-13607Y170655D01*
X-13510Y170455D01*
X-13433Y170245D01*
X-13376Y170025D01*
X-13341Y169798D01*
X-13329Y169564D01*
X-13329Y169163D01*
X-14935Y169163D01*
X-14935Y169564D01*
X-14949Y169703D01*
X-14989Y169832D01*
X-15053Y169948D01*
X-15137Y170050D01*
X-15239Y170135D01*
X-15356Y170198D01*
X-15485Y170238D01*
X-15623Y170252D01*
X-16541Y170252D01*
X-16682Y170239D01*
X-16813Y170200D01*
X-16930Y170138D01*
X-17031Y170055D01*
X-17114Y169953D01*
X-17176Y169836D01*
X-17215Y169706D01*
X-17229Y169564D01*
X-17229Y169335D01*
X-17215Y169193D01*
X-17176Y169063D01*
X-17114Y168946D01*
X-17031Y168845D01*
X-16930Y168762D01*
X-16813Y168700D01*
X-16682Y168660D01*
X-16541Y168647D01*
X-15738Y168647D01*
X-15738Y167041D01*
X-16541Y167041D01*
X-16682Y167028D01*
X-16813Y166989D01*
X-16930Y166926D01*
X-17031Y166843D01*
X-17114Y166742D01*
X-17176Y166625D01*
X-17215Y166495D01*
X-17229Y166353D01*
X-17229Y166124D01*
X-17215Y165982D01*
X-17176Y165852D01*
X-17114Y165735D01*
X-17031Y165633D01*
X-16930Y165551D01*
X-16813Y165488D01*
X-16682Y165449D01*
X-16541Y165436D01*
X-15623Y165436D01*
X-15485Y165450D01*
X-15356Y165490D01*
X-15239Y165554D01*
X-15137Y165638D01*
X-15053Y165740D01*
X-14989Y165857D01*
X-14949Y165986D01*
X-14935Y166124D01*
X-14935Y166525D01*
X-13329Y166525D01*
X-13329Y166124D01*
X-13341Y165890D01*
X-13376Y165663D01*
X-13433Y165444D01*
X-13510Y165233D01*
X-13607Y165033D01*
X-13722Y164844D01*
X-13855Y164667D01*
X-14003Y164504D01*
X-14166Y164355D01*
X-14343Y164223D01*
X-14532Y164108D01*
X-14733Y164011D01*
X-14943Y163934D01*
X-15162Y163877D01*
X-15389Y163842D01*
X-15623Y163830D01*
G37*
G36*
X-8265Y163830D02*
X-9733Y163830D01*
X-11751Y169324D01*
X-11751Y171858D01*
X-10146Y171858D01*
X-10146Y169610D01*
X-8999Y166479D01*
X-7852Y169610D01*
X-7852Y171858D01*
X-6246Y171858D01*
X-6246Y169324D01*
X-8265Y163830D01*
G37*
G36*
X91850Y-184951D02*
X91888Y-184972D01*
X91926Y-184991D01*
X91964Y-185009D01*
X92002Y-185025D01*
X92041Y-185041D01*
X92079Y-185054D01*
X92118Y-185066D01*
X92157Y-185077D01*
X92235Y-185094D01*
X92313Y-185106D01*
X92391Y-185113D01*
X92468Y-185114D01*
X92545Y-185111D01*
X92622Y-185102D01*
X92697Y-185088D01*
X92771Y-185070D01*
X92843Y-185047D01*
X92914Y-185020D01*
X92983Y-184989D01*
X93050Y-184953D01*
X93114Y-184913D01*
X93176Y-184869D01*
X93235Y-184822D01*
X93291Y-184771D01*
X93344Y-184716D01*
X93394Y-184658D01*
X93439Y-184596D01*
X93481Y-184531D01*
X93519Y-184464D01*
X93553Y-184393D01*
X93581Y-184320D01*
X93606Y-184243D01*
X93616Y-184204D01*
X93625Y-184165D01*
X93632Y-184125D01*
X93639Y-184084D01*
X93644Y-184042D01*
X93647Y-184000D01*
X93649Y-183958D01*
X93650Y-183915D01*
X93650Y-171524D01*
X93649Y-171481D01*
X93647Y-171439D01*
X93644Y-171397D01*
X93639Y-171356D01*
X93632Y-171315D01*
X93625Y-171275D01*
X93616Y-171235D01*
X93606Y-171196D01*
X93582Y-171120D01*
X93553Y-171047D01*
X93520Y-170976D01*
X93482Y-170908D01*
X93440Y-170844D01*
X93394Y-170782D01*
X93345Y-170724D01*
X93293Y-170669D01*
X93237Y-170618D01*
X93178Y-170570D01*
X93116Y-170527D01*
X93052Y-170487D01*
X92985Y-170451D01*
X92916Y-170419D01*
X92846Y-170392D01*
X92773Y-170369D01*
X92700Y-170351D01*
X92625Y-170337D01*
X92549Y-170328D01*
X92472Y-170324D01*
X92394Y-170326D01*
X92317Y-170332D01*
X92239Y-170344D01*
X92161Y-170361D01*
X92083Y-170383D01*
X92044Y-170397D01*
X92006Y-170412D01*
X91968Y-170428D01*
X91930Y-170446D01*
X91892Y-170465D01*
X91854Y-170486D01*
X87097Y-173226D01*
X87097Y-162689D01*
X87192Y-162688D01*
X87289Y-162687D01*
X87486Y-162684D01*
X87681Y-162682D01*
X87776Y-162681D01*
X87868Y-162681D01*
X88043Y-162681D01*
X88220Y-162681D01*
X88398Y-162682D01*
X88577Y-162683D01*
X88759Y-162684D01*
X88941Y-162685D01*
X89125Y-162687D01*
X89311Y-162689D01*
X89686Y-162693D01*
X90066Y-162699D01*
X90450Y-162705D01*
X90839Y-162713D01*
X91232Y-162721D01*
X91629Y-162731D01*
X92029Y-162741D01*
X92432Y-162752D01*
X92837Y-162765D01*
X93245Y-162778D01*
X93654Y-162793D01*
X94065Y-162808D01*
X94891Y-162842D01*
X95718Y-162880D01*
X96544Y-162922D01*
X96955Y-162944D01*
X97366Y-162968D01*
X97774Y-162992D01*
X98181Y-163017D01*
X98586Y-163044D01*
X98987Y-163071D01*
X99386Y-163099D01*
X99781Y-163129D01*
X100172Y-163159D01*
X100560Y-163190D01*
X100786Y-163209D01*
X101010Y-163229D01*
X101230Y-163249D01*
X101446Y-163271D01*
X101659Y-163293D01*
X101869Y-163316D01*
X102076Y-163341D01*
X102279Y-163366D01*
X102479Y-163393D01*
X102675Y-163421D01*
X102868Y-163451D01*
X103058Y-163482D01*
X103245Y-163515D01*
X103428Y-163550D01*
X103608Y-163586D01*
X103785Y-163624D01*
X103959Y-163664D01*
X104129Y-163707D01*
X104296Y-163751D01*
X104460Y-163797D01*
X104621Y-163846D01*
X104778Y-163897D01*
X104933Y-163951D01*
X105084Y-164007D01*
X105232Y-164066D01*
X105376Y-164127D01*
X105518Y-164192D01*
X105657Y-164259D01*
X105792Y-164329D01*
X105924Y-164402D01*
X106053Y-164478D01*
X106179Y-164557D01*
X106302Y-164640D01*
X106422Y-164726D01*
X106539Y-164815D01*
X106653Y-164908D01*
X106763Y-165005D01*
X106871Y-165105D01*
X106976Y-165209D01*
X107077Y-165317D01*
X107176Y-165429D01*
X107271Y-165545D01*
X107364Y-165665D01*
X107453Y-165789D01*
X107540Y-165918D01*
X107624Y-166051D01*
X107704Y-166188D01*
X107782Y-166330D01*
X107857Y-166476D01*
X107929Y-166627D01*
X107998Y-166783D01*
X108031Y-166863D01*
X108064Y-166944D01*
X108096Y-167026D01*
X108127Y-167109D01*
X108158Y-167194D01*
X108187Y-167280D01*
X108216Y-167367D01*
X108245Y-167456D01*
X108272Y-167546D01*
X108299Y-167637D01*
X108325Y-167729D01*
X108351Y-167823D01*
X108376Y-167918D01*
X108400Y-168015D01*
X108423Y-168112D01*
X108446Y-168212D01*
X108468Y-168312D01*
X108489Y-168414D01*
X108509Y-168518D01*
X108529Y-168622D01*
X108548Y-168729D01*
X108567Y-168836D01*
X108584Y-168945D01*
X108601Y-169056D01*
X108618Y-169168D01*
X108633Y-169281D01*
X108657Y-169491D01*
X108680Y-169705D01*
X108703Y-169924D01*
X108725Y-170148D01*
X108746Y-170376D01*
X108767Y-170609D01*
X108788Y-170845D01*
X108807Y-171086D01*
X108826Y-171330D01*
X108845Y-171578D01*
X108863Y-171830D01*
X108880Y-172085D01*
X108896Y-172344D01*
X108912Y-172605D01*
X108927Y-172870D01*
X108941Y-173137D01*
X108955Y-173408D01*
X108968Y-173681D01*
X108980Y-173956D01*
X108991Y-174233D01*
X109001Y-174513D01*
X109011Y-174795D01*
X109020Y-175079D01*
X109028Y-175364D01*
X109035Y-175651D01*
X109041Y-175940D01*
X109046Y-176230D01*
X109050Y-176521D01*
X109056Y-177106D01*
X109058Y-177695D01*
X109056Y-178279D01*
X109050Y-178863D01*
X109041Y-179444D01*
X109035Y-179733D01*
X109028Y-180021D01*
X109020Y-180307D01*
X109011Y-180592D01*
X109001Y-180876D01*
X108991Y-181157D01*
X108980Y-181436D01*
X108968Y-181713D01*
X108955Y-181988D01*
X108941Y-182259D01*
X108927Y-182528D01*
X108912Y-182794D01*
X108896Y-183056D01*
X108880Y-183315D01*
X108863Y-183570D01*
X108845Y-183821D01*
X108826Y-184069D01*
X108807Y-184312D01*
X108787Y-184550D01*
X108767Y-184784D01*
X108746Y-185013D01*
X108725Y-185238D01*
X108703Y-185457D01*
X108680Y-185670D01*
X108669Y-185775D01*
X108657Y-185878D01*
X108645Y-185980D01*
X108633Y-186080D01*
X108618Y-186196D01*
X108601Y-186309D01*
X108584Y-186422D01*
X108567Y-186533D01*
X108548Y-186642D01*
X108529Y-186750D01*
X108509Y-186856D01*
X108489Y-186961D01*
X108468Y-187065D01*
X108446Y-187167D01*
X108423Y-187267D01*
X108400Y-187366D01*
X108376Y-187464D01*
X108351Y-187560D01*
X108325Y-187655D01*
X108299Y-187749D01*
X108272Y-187841D01*
X108245Y-187932D01*
X108216Y-188022D01*
X108187Y-188110D01*
X108157Y-188197D01*
X108127Y-188282D01*
X108096Y-188366D01*
X108064Y-188449D01*
X108031Y-188531D01*
X107998Y-188611D01*
X107964Y-188691D01*
X107929Y-188768D01*
X107893Y-188845D01*
X107857Y-188921D01*
X107782Y-189068D01*
X107704Y-189210D01*
X107624Y-189348D01*
X107540Y-189482D01*
X107453Y-189610D01*
X107364Y-189735D01*
X107271Y-189855D01*
X107176Y-189971D01*
X107077Y-190083D01*
X106976Y-190190D01*
X106871Y-190294D01*
X106763Y-190394D01*
X106653Y-190490D01*
X106539Y-190583D01*
X106422Y-190672D01*
X106302Y-190757D01*
X106179Y-190839D01*
X106053Y-190918D01*
X105924Y-190993D01*
X105792Y-191066D01*
X105657Y-191135D01*
X105518Y-191201D01*
X105376Y-191265D01*
X105232Y-191325D01*
X105084Y-191383D01*
X104933Y-191439D01*
X104778Y-191492D01*
X104621Y-191542D01*
X104460Y-191590D01*
X104296Y-191636D01*
X104129Y-191680D01*
X103959Y-191721D01*
X103785Y-191761D01*
X103608Y-191799D01*
X103428Y-191834D01*
X103245Y-191869D01*
X103058Y-191901D01*
X102868Y-191932D01*
X102675Y-191962D01*
X102479Y-191990D01*
X102279Y-192017D01*
X102076Y-192043D01*
X101869Y-192068D01*
X101659Y-192092D01*
X101446Y-192115D01*
X101230Y-192137D01*
X101010Y-192158D01*
X100786Y-192179D01*
X100560Y-192199D01*
X100172Y-192235D01*
X99781Y-192270D01*
X99386Y-192303D01*
X98987Y-192334D01*
X98586Y-192363D01*
X98181Y-192391D01*
X97775Y-192417D01*
X97366Y-192442D01*
X96955Y-192465D01*
X96544Y-192486D01*
X96131Y-192507D01*
X95718Y-192526D01*
X94891Y-192560D01*
X94478Y-192575D01*
X94066Y-192589D01*
X93655Y-192601D01*
X93245Y-192613D01*
X92837Y-192623D01*
X92432Y-192633D01*
X92029Y-192641D01*
X91629Y-192649D01*
X91233Y-192655D01*
X90840Y-192661D01*
X90451Y-192666D01*
X90066Y-192670D01*
X89686Y-192673D01*
X89311Y-192676D01*
X88941Y-192678D01*
X88759Y-192679D01*
X88577Y-192680D01*
X88398Y-192680D01*
X88220Y-192680D01*
X88043Y-192681D01*
X87868Y-192681D01*
X87776Y-192680D01*
X87681Y-192680D01*
X87486Y-192678D01*
X87289Y-192677D01*
X87192Y-192676D01*
X87097Y-192675D01*
X87097Y-182189D01*
X91850Y-184951D01*
G37*
G36*
X75177Y-163190D02*
X75546Y-163161D01*
X75918Y-163133D01*
X76291Y-163105D01*
X76667Y-163079D01*
X77045Y-163053D01*
X77425Y-163028D01*
X77806Y-163004D01*
X78188Y-162981D01*
X78955Y-162937D01*
X79723Y-162898D01*
X80492Y-162861D01*
X81259Y-162828D01*
X81641Y-162813D01*
X82022Y-162799D01*
X82402Y-162786D01*
X82779Y-162773D01*
X83155Y-162761D01*
X83529Y-162751D01*
X83900Y-162741D01*
X84269Y-162731D01*
X84635Y-162723D01*
X84998Y-162716D01*
X85358Y-162709D01*
X85713Y-162704D01*
X86066Y-162699D01*
X86414Y-162695D01*
X86757Y-162692D01*
X87097Y-162689D01*
X87097Y-173226D01*
X81143Y-176654D01*
X81106Y-176676D01*
X81071Y-176699D01*
X81036Y-176723D01*
X81003Y-176748D01*
X80971Y-176773D01*
X80940Y-176800D01*
X80881Y-176856D01*
X80827Y-176915D01*
X80778Y-176976D01*
X80734Y-177040D01*
X80694Y-177107D01*
X80658Y-177175D01*
X80628Y-177245D01*
X80602Y-177317D01*
X80581Y-177390D01*
X80564Y-177464D01*
X80553Y-177539D01*
X80545Y-177614D01*
X80543Y-177690D01*
X80545Y-177765D01*
X80552Y-177840D01*
X80563Y-177915D01*
X80580Y-177989D01*
X80601Y-178062D01*
X80626Y-178134D01*
X80656Y-178205D01*
X80691Y-178273D01*
X80731Y-178340D01*
X80775Y-178404D01*
X80824Y-178466D01*
X80878Y-178525D01*
X80936Y-178581D01*
X80967Y-178607D01*
X80999Y-178633D01*
X81032Y-178658D01*
X81067Y-178683D01*
X81102Y-178706D01*
X81139Y-178728D01*
X87097Y-182189D01*
X87097Y-192675D01*
X86757Y-192674D01*
X86414Y-192672D01*
X86066Y-192670D01*
X85713Y-192667D01*
X85357Y-192663D01*
X84998Y-192659D01*
X84635Y-192654D01*
X84269Y-192648D01*
X83900Y-192642D01*
X83529Y-192634D01*
X83155Y-192626D01*
X82779Y-192617D01*
X82401Y-192607D01*
X82022Y-192597D01*
X81641Y-192585D01*
X81259Y-192572D01*
X80492Y-192543D01*
X79723Y-192509D01*
X78954Y-192471D01*
X78571Y-192450D01*
X78188Y-192428D01*
X77806Y-192404D01*
X77425Y-192379D01*
X77045Y-192353D01*
X76667Y-192325D01*
X76291Y-192296D01*
X75918Y-192265D01*
X75546Y-192233D01*
X75177Y-192199D01*
X74951Y-192179D01*
X74728Y-192158D01*
X74508Y-192136D01*
X74292Y-192114D01*
X74079Y-192092D01*
X73870Y-192068D01*
X73664Y-192043D01*
X73462Y-192017D01*
X73263Y-191990D01*
X73067Y-191962D01*
X72875Y-191932D01*
X72687Y-191901D01*
X72501Y-191868D01*
X72319Y-191834D01*
X72140Y-191798D01*
X71965Y-191760D01*
X71793Y-191721D01*
X71624Y-191679D01*
X71459Y-191636D01*
X71297Y-191590D01*
X71138Y-191542D01*
X70982Y-191491D01*
X70829Y-191438D01*
X70680Y-191383D01*
X70534Y-191325D01*
X70391Y-191264D01*
X70252Y-191201D01*
X70115Y-191135D01*
X69982Y-191065D01*
X69851Y-190993D01*
X69724Y-190918D01*
X69600Y-190839D01*
X69479Y-190757D01*
X69361Y-190672D01*
X69246Y-190583D01*
X69135Y-190490D01*
X69026Y-190394D01*
X68920Y-190294D01*
X68818Y-190190D01*
X68718Y-190082D01*
X68621Y-189971D01*
X68527Y-189855D01*
X68437Y-189735D01*
X68349Y-189610D01*
X68264Y-189481D01*
X68182Y-189348D01*
X68103Y-189210D01*
X68027Y-189068D01*
X67953Y-188920D01*
X67918Y-188845D01*
X67883Y-188768D01*
X67849Y-188690D01*
X67815Y-188611D01*
X67782Y-188531D01*
X67750Y-188449D01*
X67719Y-188366D01*
X67688Y-188282D01*
X67658Y-188196D01*
X67629Y-188109D01*
X67601Y-188021D01*
X67573Y-187932D01*
X67546Y-187841D01*
X67519Y-187749D01*
X67493Y-187655D01*
X67468Y-187560D01*
X67444Y-187464D01*
X67420Y-187366D01*
X67397Y-187267D01*
X67375Y-187166D01*
X67353Y-187064D01*
X67332Y-186961D01*
X67312Y-186856D01*
X67292Y-186750D01*
X67273Y-186642D01*
X67255Y-186532D01*
X67237Y-186421D01*
X67221Y-186309D01*
X67204Y-186195D01*
X67189Y-186080D01*
X67173Y-185979D01*
X67157Y-185878D01*
X67142Y-185774D01*
X67127Y-185670D01*
X67098Y-185456D01*
X67069Y-185237D01*
X67042Y-185013D01*
X67015Y-184784D01*
X66990Y-184550D01*
X66966Y-184311D01*
X66942Y-184068D01*
X66920Y-183821D01*
X66898Y-183570D01*
X66878Y-183315D01*
X66859Y-183056D01*
X66840Y-182793D01*
X66823Y-182528D01*
X66806Y-182259D01*
X66791Y-181987D01*
X66776Y-181713D01*
X66763Y-181436D01*
X66751Y-181157D01*
X66739Y-180875D01*
X66729Y-180592D01*
X66719Y-180307D01*
X66711Y-180020D01*
X66703Y-179732D01*
X66697Y-179443D01*
X66687Y-178862D01*
X66681Y-178279D01*
X66679Y-177694D01*
X66681Y-177106D01*
X66687Y-176521D01*
X66691Y-176229D01*
X66697Y-175939D01*
X66703Y-175651D01*
X66711Y-175364D01*
X66719Y-175078D01*
X66729Y-174795D01*
X66739Y-174513D01*
X66751Y-174233D01*
X66763Y-173955D01*
X66777Y-173680D01*
X66791Y-173407D01*
X66806Y-173137D01*
X66823Y-172870D01*
X66840Y-172605D01*
X66859Y-172343D01*
X66878Y-172085D01*
X66898Y-171830D01*
X66920Y-171578D01*
X66942Y-171330D01*
X66966Y-171086D01*
X66990Y-170845D01*
X67015Y-170608D01*
X67042Y-170376D01*
X67069Y-170148D01*
X67098Y-169924D01*
X67127Y-169705D01*
X67157Y-169491D01*
X67189Y-169281D01*
X67204Y-169167D01*
X67221Y-169055D01*
X67237Y-168945D01*
X67255Y-168836D01*
X67273Y-168728D01*
X67292Y-168622D01*
X67312Y-168517D01*
X67332Y-168414D01*
X67353Y-168312D01*
X67375Y-168211D01*
X67397Y-168112D01*
X67420Y-168014D01*
X67444Y-167918D01*
X67468Y-167823D01*
X67493Y-167729D01*
X67519Y-167636D01*
X67546Y-167545D01*
X67573Y-167456D01*
X67601Y-167367D01*
X67629Y-167280D01*
X67658Y-167194D01*
X67688Y-167109D01*
X67719Y-167026D01*
X67750Y-166943D01*
X67782Y-166862D01*
X67815Y-166783D01*
X67883Y-166627D01*
X67953Y-166476D01*
X68027Y-166329D01*
X68103Y-166188D01*
X68182Y-166050D01*
X68264Y-165917D01*
X68349Y-165789D01*
X68437Y-165665D01*
X68527Y-165545D01*
X68621Y-165429D01*
X68718Y-165317D01*
X68818Y-165209D01*
X68920Y-165105D01*
X69026Y-165005D01*
X69135Y-164908D01*
X69246Y-164815D01*
X69361Y-164726D01*
X69479Y-164640D01*
X69600Y-164557D01*
X69724Y-164478D01*
X69851Y-164402D01*
X69982Y-164328D01*
X70115Y-164258D01*
X70252Y-164191D01*
X70391Y-164127D01*
X70534Y-164066D01*
X70680Y-164007D01*
X70829Y-163951D01*
X70982Y-163897D01*
X71138Y-163846D01*
X71297Y-163797D01*
X71459Y-163751D01*
X71624Y-163706D01*
X71793Y-163664D01*
X71965Y-163624D01*
X72140Y-163586D01*
X72319Y-163550D01*
X72501Y-163515D01*
X72687Y-163482D01*
X72875Y-163451D01*
X73067Y-163421D01*
X73263Y-163393D01*
X73462Y-163366D01*
X73664Y-163341D01*
X73870Y-163316D01*
X74079Y-163293D01*
X74292Y-163271D01*
X74508Y-163249D01*
X74728Y-163229D01*
X74951Y-163209D01*
X75177Y-163190D01*
G37*
D10*
X59690Y157480D02*
X59848Y157482D01*
X60007Y157488D01*
X60165Y157498D01*
X60322Y157512D01*
X60480Y157529D01*
X60636Y157551D01*
X60793Y157576D01*
X60948Y157606D01*
X61103Y157639D01*
X61257Y157676D01*
X61410Y157717D01*
X61562Y157762D01*
X61712Y157811D01*
X61862Y157863D01*
X62010Y157919D01*
X62157Y157979D01*
X62302Y158042D01*
X62445Y158109D01*
X62587Y158179D01*
X62727Y158253D01*
X62865Y158331D01*
X63001Y158412D01*
X63135Y158496D01*
X63267Y158583D01*
X63397Y158674D01*
X63524Y158768D01*
X63649Y158865D01*
X63772Y158966D01*
X63892Y159069D01*
X64009Y159175D01*
X64124Y159284D01*
X64236Y159396D01*
X64345Y159511D01*
X64451Y159628D01*
X64554Y159748D01*
X64655Y159871D01*
X64752Y159996D01*
X64846Y160123D01*
X64937Y160253D01*
X65024Y160385D01*
X65108Y160519D01*
X65189Y160655D01*
X65267Y160793D01*
X65341Y160933D01*
X65411Y161075D01*
X65478Y161218D01*
X65541Y161363D01*
X65601Y161510D01*
X65657Y161658D01*
X65709Y161808D01*
X65758Y161958D01*
X65803Y162110D01*
X65844Y162263D01*
X65881Y162417D01*
X65914Y162572D01*
X65944Y162727D01*
X65969Y162884D01*
X65991Y163040D01*
X66008Y163198D01*
X66022Y163355D01*
X66032Y163513D01*
X66038Y163672D01*
X66040Y163830D01*
X59690Y157480D02*
X-60960Y157480D01*
X-61118Y157482D01*
X-61277Y157488D01*
X-61435Y157498D01*
X-61592Y157512D01*
X-61750Y157529D01*
X-61906Y157551D01*
X-62063Y157576D01*
X-62218Y157606D01*
X-62373Y157639D01*
X-62527Y157676D01*
X-62680Y157717D01*
X-62832Y157762D01*
X-62982Y157811D01*
X-63132Y157863D01*
X-63280Y157919D01*
X-63427Y157979D01*
X-63572Y158042D01*
X-63715Y158109D01*
X-63857Y158179D01*
X-63997Y158253D01*
X-64135Y158331D01*
X-64271Y158412D01*
X-64405Y158496D01*
X-64537Y158583D01*
X-64667Y158674D01*
X-64794Y158768D01*
X-64919Y158865D01*
X-65042Y158966D01*
X-65162Y159069D01*
X-65279Y159175D01*
X-65394Y159284D01*
X-65506Y159396D01*
X-65615Y159511D01*
X-65721Y159628D01*
X-65824Y159748D01*
X-65925Y159871D01*
X-66022Y159996D01*
X-66116Y160123D01*
X-66207Y160253D01*
X-66294Y160385D01*
X-66378Y160519D01*
X-66459Y160655D01*
X-66537Y160793D01*
X-66611Y160933D01*
X-66681Y161075D01*
X-66748Y161218D01*
X-66811Y161363D01*
X-66871Y161510D01*
X-66927Y161658D01*
X-66979Y161808D01*
X-67028Y161958D01*
X-67073Y162110D01*
X-67114Y162263D01*
X-67151Y162417D01*
X-67184Y162572D01*
X-67214Y162727D01*
X-67239Y162884D01*
X-67261Y163040D01*
X-67278Y163198D01*
X-67292Y163355D01*
X-67302Y163513D01*
X-67308Y163672D01*
X-67310Y163830D01*
X-67310Y227330D01*
X-67308Y227488D01*
X-67302Y227647D01*
X-67292Y227805D01*
X-67278Y227962D01*
X-67261Y228120D01*
X-67239Y228276D01*
X-67214Y228433D01*
X-67184Y228588D01*
X-67151Y228743D01*
X-67114Y228897D01*
X-67073Y229050D01*
X-67028Y229202D01*
X-66979Y229352D01*
X-66927Y229502D01*
X-66871Y229650D01*
X-66811Y229797D01*
X-66748Y229942D01*
X-66681Y230085D01*
X-66611Y230227D01*
X-66537Y230367D01*
X-66459Y230505D01*
X-66378Y230641D01*
X-66294Y230775D01*
X-66207Y230907D01*
X-66116Y231037D01*
X-66022Y231164D01*
X-65925Y231289D01*
X-65824Y231412D01*
X-65721Y231532D01*
X-65615Y231649D01*
X-65506Y231764D01*
X-65394Y231876D01*
X-65279Y231985D01*
X-65162Y232091D01*
X-65042Y232194D01*
X-64919Y232295D01*
X-64794Y232392D01*
X-64667Y232486D01*
X-64537Y232577D01*
X-64405Y232664D01*
X-64271Y232748D01*
X-64135Y232829D01*
X-63997Y232907D01*
X-63857Y232981D01*
X-63715Y233051D01*
X-63572Y233118D01*
X-63427Y233181D01*
X-63280Y233241D01*
X-63132Y233297D01*
X-62982Y233349D01*
X-62832Y233398D01*
X-62680Y233443D01*
X-62527Y233484D01*
X-62373Y233521D01*
X-62218Y233554D01*
X-62063Y233584D01*
X-61906Y233609D01*
X-61750Y233631D01*
X-61592Y233648D01*
X-61435Y233662D01*
X-61277Y233672D01*
X-61118Y233678D01*
X-60960Y233680D01*
X59690Y233680D01*
X59848Y233678D01*
X60007Y233672D01*
X60165Y233662D01*
X60322Y233648D01*
X60480Y233631D01*
X60636Y233609D01*
X60793Y233584D01*
X60948Y233554D01*
X61103Y233521D01*
X61257Y233484D01*
X61410Y233443D01*
X61562Y233398D01*
X61712Y233349D01*
X61862Y233297D01*
X62010Y233241D01*
X62157Y233181D01*
X62302Y233118D01*
X62445Y233051D01*
X62587Y232981D01*
X62727Y232907D01*
X62865Y232829D01*
X63001Y232748D01*
X63135Y232664D01*
X63267Y232577D01*
X63397Y232486D01*
X63524Y232392D01*
X63649Y232295D01*
X63772Y232194D01*
X63892Y232091D01*
X64009Y231985D01*
X64124Y231876D01*
X64236Y231764D01*
X64345Y231649D01*
X64451Y231532D01*
X64554Y231412D01*
X64655Y231289D01*
X64752Y231164D01*
X64846Y231037D01*
X64937Y230907D01*
X65024Y230775D01*
X65108Y230641D01*
X65189Y230505D01*
X65267Y230367D01*
X65341Y230227D01*
X65411Y230085D01*
X65478Y229942D01*
X65541Y229797D01*
X65601Y229650D01*
X65657Y229502D01*
X65709Y229352D01*
X65758Y229202D01*
X65803Y229050D01*
X65844Y228897D01*
X65881Y228743D01*
X65914Y228588D01*
X65944Y228433D01*
X65969Y228276D01*
X65991Y228120D01*
X66008Y227962D01*
X66022Y227805D01*
X66032Y227647D01*
X66038Y227488D01*
X66040Y227330D01*
X66040Y163830D01*
X165100Y165100D02*
X177800Y177800D01*
X177800Y171450D01*
X177800Y177800D02*
X171450Y177800D01*
X-165100Y165100D02*
X-177800Y177800D01*
X-171450Y177800D01*
X-177800Y177800D02*
X-177800Y171450D01*
X-165100Y-165100D02*
X-177800Y-177800D01*
X-177800Y-171450D01*
X-177800Y-177800D02*
X-171450Y-177800D01*
X165100Y-165100D02*
X177800Y-177800D01*
X171450Y-177800D01*
X177800Y-177800D02*
X177800Y-171450D01*
D11*
X36068Y283791D02*
X-36068Y283791D01*
X-36068Y326209D01*
X36068Y326209D01*
X36068Y283791D01*
X36068Y283709D02*
X-36068Y283709D01*
X36068Y283709D02*
X36068Y241291D01*
X-36068Y241291D01*
X-36068Y283709D01*
M02*
