M48
;GenerationSoftware,Autodesk,EAGLE,9.7.0*%
;CreationDate,2026-02-24T04:40:49Z*%
FMAT,2
ICI,OFF
METRIC,TZ,000.000
T4C0.350
T3C0.838
T2C1.000
T1C3.250
%
G90
M71
T1
X-12000Y13000
X12000Y13000
T2
X7620Y17780
X7620Y15240
X7620Y12700
X7620Y10160
X7620Y7620
X7620Y5080
X7620Y2540
X-7620Y2540
X-7620Y5080
X-7620Y7620
X-7620Y10160
X-7620Y12700
X-7620Y15240
X-7620Y17780
T3
X-2000Y11750
X2000Y14000
X-2000Y9750
X0Y11750
X0Y9750
X2000Y11750
X2000Y9750
X-2000Y16000
X-2000Y14000
X0Y16000
X0Y14000
X2000Y16000
T4
X9525Y10795
X3810Y19050
X1905Y19050
X0Y19050
X-1905Y19050
X-3810Y19050
X5715Y19050
X-5715Y635
X-3810Y635
X-1905Y635
X0Y635
X1905Y635
X3810Y635
X5715Y635
X-9525Y15240
X-9525Y10795
X9525Y15240
X-5715Y19050
M30